solid OpenSCAD_Model
  facet normal 1 -0 0
    outer loop
      vertex 21 0 12
      vertex 21 48 6
      vertex 21 48 12
    endloop
  endfacet
  facet normal 1 0 0
    outer loop
      vertex 21 48 6
      vertex 21 0 12
      vertex 21 0 6
    endloop
  endfacet
  facet normal 0 -1 0
    outer loop
      vertex 2 0 14
      vertex 3.52668 0 13.7609
      vertex 3.63917 0 14
    endloop
  endfacet
  facet normal 0 -1 0
    outer loop
      vertex 2 0 14
      vertex 3.23563 0 12.8652
      vertex 3.52668 0 13.7609
    endloop
  endfacet
  facet normal 0 -1 0
    outer loop
      vertex 3.05914 0 11.94
      vertex 2 0 14
      vertex 0 0 12
    endloop
  endfacet
  facet normal 0 -1 0
    outer loop
      vertex 2 0 14
      vertex 3.05914 0 11.94
      vertex 3.23563 0 12.8652
    endloop
  endfacet
  facet normal 0 -1 0
    outer loop
      vertex 0 0 12
      vertex 3.05796 0 11.9212
      vertex 3.05914 0 11.94
    endloop
  endfacet
  facet normal 0 -1 0
    outer loop
      vertex 0 0 12
      vertex 3 0 11
      vertex 3.05796 0 11.9212
    endloop
  endfacet
  facet normal 0 -1 0
    outer loop
      vertex 0 0 12
      vertex 3.00118 0 10.9812
      vertex 3 0 11
    endloop
  endfacet
  facet normal 0 -1 0
    outer loop
      vertex 0 0 12
      vertex 3.05914 0 10.06
      vertex 3.00118 0 10.9812
    endloop
  endfacet
  facet normal 0 -1 0
    outer loop
      vertex 0 0 12
      vertex 3.23563 0 9.13483
      vertex 3.05914 0 10.06
    endloop
  endfacet
  facet normal 0 -1 0
    outer loop
      vertex 0 0 12
      vertex 3.52668 0 8.23907
      vertex 3.23563 0 9.13483
    endloop
  endfacet
  facet normal 0 -1 0
    outer loop
      vertex 0 0 0
      vertex 3.52668 0 8.23907
      vertex 0 0 12
    endloop
  endfacet
  facet normal 0 -1 -0
    outer loop
      vertex 3.52668 0 8.23907
      vertex 0 0 0
      vertex 3.9277 0 7.38685
    endloop
  endfacet
  facet normal 0 -1 -0
    outer loop
      vertex 10.0291 0 3.5148
      vertex 0 0 0
      vertex 10.9709 0 3.5148
    endloop
  endfacet
  facet normal 0 -1 -0
    outer loop
      vertex 9.09464 0 3.63284
      vertex 0 0 0
      vertex 10.0291 0 3.5148
    endloop
  endfacet
  facet normal 0 -1 -0
    outer loop
      vertex 8.18237 0 3.86708
      vertex 0 0 0
      vertex 9.09464 0 3.63284
    endloop
  endfacet
  facet normal 0 -1 -0
    outer loop
      vertex 7.30665 0 4.2138
      vertex 0 0 0
      vertex 8.18237 0 3.86708
    endloop
  endfacet
  facet normal 0 -1 -0
    outer loop
      vertex 6.4813 0 4.66754
      vertex 0 0 0
      vertex 7.30665 0 4.2138
    endloop
  endfacet
  facet normal 0 -1 -0
    outer loop
      vertex 5.71932 0 5.22115
      vertex 0 0 0
      vertex 6.4813 0 4.66754
    endloop
  endfacet
  facet normal 0 -1 -0
    outer loop
      vertex 5.03273 0 5.8659
      vertex 0 0 0
      vertex 5.71932 0 5.22115
    endloop
  endfacet
  facet normal 0 -1 -0
    outer loop
      vertex 4.43237 0 6.59161
      vertex 0 0 0
      vertex 5.03273 0 5.8659
    endloop
  endfacet
  facet normal 0 -1 -0
    outer loop
      vertex 3.9277 0 7.38685
      vertex 0 0 0
      vertex 4.43237 0 6.59161
    endloop
  endfacet
  facet normal 0 -1 0
    outer loop
      vertex 17.4733 0 13.7609
      vertex 19 0 14
      vertex 17.3608 0 14
    endloop
  endfacet
  facet normal 0 -1 0
    outer loop
      vertex 17.7644 0 12.8652
      vertex 19 0 14
      vertex 17.4733 0 13.7609
    endloop
  endfacet
  facet normal 0 -1 0
    outer loop
      vertex 17.9409 0 11.94
      vertex 19 0 14
      vertex 17.7644 0 12.8652
    endloop
  endfacet
  facet normal 0 -1 -0
    outer loop
      vertex 19 0 14
      vertex 17.9409 0 11.94
      vertex 21 0 12
    endloop
  endfacet
  facet normal 0 -1 0
    outer loop
      vertex 18 0 11
      vertex 21 0 12
      vertex 17.9409 0 11.94
    endloop
  endfacet
  facet normal 0 -1 0
    outer loop
      vertex 17.9409 0 10.06
      vertex 21 0 12
      vertex 18 0 11
    endloop
  endfacet
  facet normal 0 -1 0
    outer loop
      vertex 17.7644 0 9.13483
      vertex 21 0 12
      vertex 17.9409 0 10.06
    endloop
  endfacet
  facet normal 0 -1 0
    outer loop
      vertex 21 0 6
      vertex 17.7644 0 9.13483
      vertex 17.4733 0 8.23907
    endloop
  endfacet
  facet normal 0 -1 0
    outer loop
      vertex 21 0 6
      vertex 17.4733 0 8.23907
      vertex 17.0723 0 7.38685
    endloop
  endfacet
  facet normal 0 -1 0
    outer loop
      vertex 21 0 6
      vertex 17.0723 0 7.38685
      vertex 16.5676 0 6.59161
    endloop
  endfacet
  facet normal 0 -1 0
    outer loop
      vertex 17.7644 0 9.13483
      vertex 21 0 6
      vertex 21 0 12
    endloop
  endfacet
  facet normal 0 -1 0
    outer loop
      vertex 15.9673 0 5.8659
      vertex 21 0 6
      vertex 16.5676 0 6.59161
    endloop
  endfacet
  facet normal 0 -1 0
    outer loop
      vertex 15.2807 0 5.22115
      vertex 21 0 6
      vertex 15.9673 0 5.8659
    endloop
  endfacet
  facet normal 0 -1 0
    outer loop
      vertex 14.5187 0 4.66754
      vertex 21 0 6
      vertex 15.2807 0 5.22115
    endloop
  endfacet
  facet normal 0 -1 -0
    outer loop
      vertex 21 0 6
      vertex 14.5187 0 4.66754
      vertex 30 0 0
    endloop
  endfacet
  facet normal 0 -1 0
    outer loop
      vertex 30 0 0
      vertex 14.5187 0 4.66754
      vertex 13.6933 0 4.2138
    endloop
  endfacet
  facet normal 0 -1 0
    outer loop
      vertex 30 0 0
      vertex 13.6933 0 4.2138
      vertex 12.8176 0 3.86708
    endloop
  endfacet
  facet normal 0 -1 0
    outer loop
      vertex 30 0 0
      vertex 12.8176 0 3.86708
      vertex 11.9054 0 3.63284
    endloop
  endfacet
  facet normal 0 -1 0
    outer loop
      vertex 30 0 0
      vertex 10.9709 0 3.5148
      vertex 0 0 0
    endloop
  endfacet
  facet normal 0 -1 0
    outer loop
      vertex 10.9709 0 3.5148
      vertex 30 0 0
      vertex 11.9054 0 3.63284
    endloop
  endfacet
  facet normal 0 -1 0
    outer loop
      vertex 21 0 6
      vertex 30 0 0
      vertex 30 0 6
    endloop
  endfacet
  facet normal -1 0 0
    outer loop
      vertex 0 0 0
      vertex 0 48 12
      vertex 0 48 0
    endloop
  endfacet
  facet normal -1 -0 0
    outer loop
      vertex 0 48 12
      vertex 0 0 0
      vertex 0 0 12
    endloop
  endfacet
  facet normal 0 0 -1
    outer loop
      vertex 26.4876 6.589 0
      vertex 30 0 0
      vertex 26.5497 6.3979 0
    endloop
  endfacet
  facet normal 0 0 -1
    outer loop
      vertex 30 48 0
      vertex 26.5874 41.7995 0
      vertex 26.6 42 0
    endloop
  endfacet
  facet normal 0 0 -1
    outer loop
      vertex 30 0 0
      vertex 26.4876 6.589 0
      vertex 30 48 0
    endloop
  endfacet
  facet normal 0 0 -1
    outer loop
      vertex 30 48 0
      vertex 26.5497 41.6021 0
      vertex 26.5874 41.7995 0
    endloop
  endfacet
  facet normal 0 0 -1
    outer loop
      vertex 26.4876 41.411 0
      vertex 30 48 0
      vertex 26.4876 6.589 0
    endloop
  endfacet
  facet normal 0 0 -1
    outer loop
      vertex 30 48 0
      vertex 26.4876 41.411 0
      vertex 26.5497 41.6021 0
    endloop
  endfacet
  facet normal 0 0 -1
    outer loop
      vertex 26.4021 6.77081 0
      vertex 26.4876 41.411 0
      vertex 26.4876 6.589 0
    endloop
  endfacet
  facet normal 0 0 -1
    outer loop
      vertex 26.4021 6.77081 0
      vertex 26.4021 41.2292 0
      vertex 26.4876 41.411 0
    endloop
  endfacet
  facet normal 0 0 -1
    outer loop
      vertex 26.2944 6.94046 0
      vertex 26.4021 41.2292 0
      vertex 26.4021 6.77081 0
    endloop
  endfacet
  facet normal 0 0 -1
    outer loop
      vertex 26.2944 6.94046 0
      vertex 26.2944 41.0595 0
      vertex 26.4021 41.2292 0
    endloop
  endfacet
  facet normal 0 0 -1
    outer loop
      vertex 26.1663 7.09527 0
      vertex 26.2944 41.0595 0
      vertex 26.2944 6.94046 0
    endloop
  endfacet
  facet normal 0 0 -1
    outer loop
      vertex 26.1663 7.09527 0
      vertex 26.1663 40.9047 0
      vertex 26.2944 41.0595 0
    endloop
  endfacet
  facet normal 0 0 -1
    outer loop
      vertex 26.0199 7.23282 0
      vertex 26.1663 40.9047 0
      vertex 26.1663 7.09527 0
    endloop
  endfacet
  facet normal 0 0 -1
    outer loop
      vertex 26.0199 7.23282 0
      vertex 26.0199 40.7672 0
      vertex 26.1663 40.9047 0
    endloop
  endfacet
  facet normal 0 0 -1
    outer loop
      vertex 25.8573 7.35092 0
      vertex 26.0199 40.7672 0
      vertex 26.0199 7.23282 0
    endloop
  endfacet
  facet normal 0 0 -1
    outer loop
      vertex 25.8573 7.35092 0
      vertex 25.8573 40.6491 0
      vertex 26.0199 40.7672 0
    endloop
  endfacet
  facet normal 0 0 -1
    outer loop
      vertex 25.6812 7.44772 0
      vertex 25.8573 40.6491 0
      vertex 25.8573 7.35092 0
    endloop
  endfacet
  facet normal 0 0 -1
    outer loop
      vertex 25.6812 7.44772 0
      vertex 25.6812 40.5523 0
      vertex 25.8573 40.6491 0
    endloop
  endfacet
  facet normal 0 0 -1
    outer loop
      vertex 25.4944 7.52169 0
      vertex 25.6812 40.5523 0
      vertex 25.6812 7.44772 0
    endloop
  endfacet
  facet normal 0 0 -1
    outer loop
      vertex 25.4944 7.52169 0
      vertex 25.4944 40.4783 0
      vertex 25.6812 40.5523 0
    endloop
  endfacet
  facet normal 0 0 -1
    outer loop
      vertex 25.2998 7.57166 0
      vertex 25.4944 40.4783 0
      vertex 25.4944 7.52169 0
    endloop
  endfacet
  facet normal 0 0 -1
    outer loop
      vertex 25.2998 7.57166 0
      vertex 25.2998 40.4283 0
      vertex 25.4944 40.4783 0
    endloop
  endfacet
  facet normal 0 0 -1
    outer loop
      vertex 25.1005 7.59684 0
      vertex 25.2998 40.4283 0
      vertex 25.2998 7.57166 0
    endloop
  endfacet
  facet normal 0 0 -1
    outer loop
      vertex 25.1005 7.59684 0
      vertex 25.1005 40.4032 0
      vertex 25.2998 40.4283 0
    endloop
  endfacet
  facet normal 0 0 -1
    outer loop
      vertex 24.8995 7.59684 0
      vertex 25.1005 40.4032 0
      vertex 25.1005 7.59684 0
    endloop
  endfacet
  facet normal 0 0 -1
    outer loop
      vertex 24.8995 7.59684 0
      vertex 24.8995 40.4032 0
      vertex 25.1005 40.4032 0
    endloop
  endfacet
  facet normal 0 0 -1
    outer loop
      vertex 24.7002 7.57166 0
      vertex 24.8995 40.4032 0
      vertex 24.8995 7.59684 0
    endloop
  endfacet
  facet normal 0 0 -1
    outer loop
      vertex 24.7002 7.57166 0
      vertex 24.7002 40.4283 0
      vertex 24.8995 40.4032 0
    endloop
  endfacet
  facet normal 0 0 -1
    outer loop
      vertex 24.5056 7.52169 0
      vertex 24.7002 40.4283 0
      vertex 24.7002 7.57166 0
    endloop
  endfacet
  facet normal 0 0 -1
    outer loop
      vertex 24.5056 7.52169 0
      vertex 24.5056 40.4783 0
      vertex 24.7002 40.4283 0
    endloop
  endfacet
  facet normal 0 0 -1
    outer loop
      vertex 24.3188 7.44772 0
      vertex 24.5056 40.4783 0
      vertex 24.5056 7.52169 0
    endloop
  endfacet
  facet normal 0 0 -1
    outer loop
      vertex 24.3188 7.44772 0
      vertex 24.3188 40.5523 0
      vertex 24.5056 40.4783 0
    endloop
  endfacet
  facet normal 0 0 -1
    outer loop
      vertex 24.1427 7.35092 0
      vertex 24.3188 40.5523 0
      vertex 24.3188 7.44772 0
    endloop
  endfacet
  facet normal 0 0 -1
    outer loop
      vertex 24.1427 7.35092 0
      vertex 24.1427 40.6491 0
      vertex 24.3188 40.5523 0
    endloop
  endfacet
  facet normal 0 0 -1
    outer loop
      vertex 23.9801 7.23282 0
      vertex 24.1427 40.6491 0
      vertex 24.1427 7.35092 0
    endloop
  endfacet
  facet normal 0 0 -1
    outer loop
      vertex 23.9801 7.23282 0
      vertex 23.9801 40.7672 0
      vertex 24.1427 40.6491 0
    endloop
  endfacet
  facet normal 0 0 -1
    outer loop
      vertex 23.8337 7.09527 0
      vertex 23.9801 40.7672 0
      vertex 23.9801 7.23282 0
    endloop
  endfacet
  facet normal 0 0 -1
    outer loop
      vertex 23.8337 7.09527 0
      vertex 23.8337 40.9047 0
      vertex 23.9801 40.7672 0
    endloop
  endfacet
  facet normal 0 0 -1
    outer loop
      vertex 0 0 0
      vertex 23.8337 7.09527 0
      vertex 23.7056 6.94046 0
    endloop
  endfacet
  facet normal -0 0 -1
    outer loop
      vertex 23.8337 7.09527 0
      vertex 0 0 0
      vertex 23.8337 40.9047 0
    endloop
  endfacet
  facet normal 0 0 -1
    outer loop
      vertex 0 0 0
      vertex 23.7056 6.94046 0
      vertex 23.5979 6.77081 0
    endloop
  endfacet
  facet normal 0 0 -1
    outer loop
      vertex 0 48 0
      vertex 23.8337 40.9047 0
      vertex 0 0 0
    endloop
  endfacet
  facet normal 0 0 -1
    outer loop
      vertex 0 0 0
      vertex 23.5979 6.77081 0
      vertex 23.5124 6.589 0
    endloop
  endfacet
  facet normal 0 0 -1
    outer loop
      vertex 23.8337 40.9047 0
      vertex 0 48 0
      vertex 23.7056 41.0595 0
    endloop
  endfacet
  facet normal 0 0 -1
    outer loop
      vertex 0 0 0
      vertex 23.5124 6.589 0
      vertex 23.4503 6.3979 0
    endloop
  endfacet
  facet normal 0 0 -1
    outer loop
      vertex 23.7056 41.0595 0
      vertex 0 48 0
      vertex 23.5979 41.2292 0
    endloop
  endfacet
  facet normal 0 0 -1
    outer loop
      vertex 0 0 0
      vertex 23.4503 6.3979 0
      vertex 23.4126 6.20053 0
    endloop
  endfacet
  facet normal 0 0 -1
    outer loop
      vertex 23.5979 41.2292 0
      vertex 0 48 0
      vertex 23.5124 41.411 0
    endloop
  endfacet
  facet normal 0 0 -1
    outer loop
      vertex 0 0 0
      vertex 23.4126 6.20053 0
      vertex 23.4 6 0
    endloop
  endfacet
  facet normal 0 0 -1
    outer loop
      vertex 23.5124 41.411 0
      vertex 0 48 0
      vertex 23.4503 41.6021 0
    endloop
  endfacet
  facet normal 0 0 -1
    outer loop
      vertex 26.5874 6.20053 0
      vertex 30 0 0
      vertex 26.6 6 0
    endloop
  endfacet
  facet normal 0 0 -1
    outer loop
      vertex 30 0 0
      vertex 26.5874 5.79947 0
      vertex 26.6 6 0
    endloop
  endfacet
  facet normal 0 0 -1
    outer loop
      vertex 30 0 0
      vertex 26.5497 5.6021 0
      vertex 26.5874 5.79947 0
    endloop
  endfacet
  facet normal 0 0 -1
    outer loop
      vertex 30 0 0
      vertex 26.4876 5.411 0
      vertex 26.5497 5.6021 0
    endloop
  endfacet
  facet normal 0 0 -1
    outer loop
      vertex 30 0 0
      vertex 26.4021 5.22919 0
      vertex 26.4876 5.411 0
    endloop
  endfacet
  facet normal 0 0 -1
    outer loop
      vertex 30 0 0
      vertex 26.2944 5.05954 0
      vertex 26.4021 5.22919 0
    endloop
  endfacet
  facet normal 0 0 -1
    outer loop
      vertex 30 0 0
      vertex 26.1663 4.90473 0
      vertex 26.2944 5.05954 0
    endloop
  endfacet
  facet normal 0 0 -1
    outer loop
      vertex 30 0 0
      vertex 26.0199 4.76718 0
      vertex 26.1663 4.90473 0
    endloop
  endfacet
  facet normal 0 0 -1
    outer loop
      vertex 30 0 0
      vertex 25.8573 4.64908 0
      vertex 26.0199 4.76718 0
    endloop
  endfacet
  facet normal 0 0 -1
    outer loop
      vertex 30 0 0
      vertex 25.6812 4.55228 0
      vertex 25.8573 4.64908 0
    endloop
  endfacet
  facet normal 0 0 -1
    outer loop
      vertex 30 0 0
      vertex 25.4944 4.47831 0
      vertex 25.6812 4.55228 0
    endloop
  endfacet
  facet normal 0 0 -1
    outer loop
      vertex 30 0 0
      vertex 25.2998 4.42834 0
      vertex 25.4944 4.47831 0
    endloop
  endfacet
  facet normal 0 0 -1
    outer loop
      vertex 30 0 0
      vertex 25.1005 4.40316 0
      vertex 25.2998 4.42834 0
    endloop
  endfacet
  facet normal 0 0 -1
    outer loop
      vertex 30 0 0
      vertex 24.8995 4.40316 0
      vertex 25.1005 4.40316 0
    endloop
  endfacet
  facet normal 0 0 -1
    outer loop
      vertex 30 0 0
      vertex 24.7002 4.42834 0
      vertex 24.8995 4.40316 0
    endloop
  endfacet
  facet normal 0 0 -1
    outer loop
      vertex 30 0 0
      vertex 24.5056 4.47831 0
      vertex 24.7002 4.42834 0
    endloop
  endfacet
  facet normal 0 0 -1
    outer loop
      vertex 30 0 0
      vertex 24.3188 4.55228 0
      vertex 24.5056 4.47831 0
    endloop
  endfacet
  facet normal 0 0 -1
    outer loop
      vertex 0 0 0
      vertex 24.3188 4.55228 0
      vertex 30 0 0
    endloop
  endfacet
  facet normal -0 0 -1
    outer loop
      vertex 24.3188 4.55228 0
      vertex 0 0 0
      vertex 24.1427 4.64908 0
    endloop
  endfacet
  facet normal 0 0 -1
    outer loop
      vertex 23.4503 41.6021 0
      vertex 0 48 0
      vertex 23.4126 41.7995 0
    endloop
  endfacet
  facet normal -0 0 -1
    outer loop
      vertex 23.4126 5.79947 0
      vertex 0 0 0
      vertex 23.4 6 0
    endloop
  endfacet
  facet normal -0 0 -1
    outer loop
      vertex 23.4503 5.6021 0
      vertex 0 0 0
      vertex 23.4126 5.79947 0
    endloop
  endfacet
  facet normal -0 0 -1
    outer loop
      vertex 23.5124 5.411 0
      vertex 0 0 0
      vertex 23.4503 5.6021 0
    endloop
  endfacet
  facet normal -0 0 -1
    outer loop
      vertex 23.5979 5.22919 0
      vertex 0 0 0
      vertex 23.5124 5.411 0
    endloop
  endfacet
  facet normal -0 0 -1
    outer loop
      vertex 23.7056 5.05954 0
      vertex 0 0 0
      vertex 23.5979 5.22919 0
    endloop
  endfacet
  facet normal -0 0 -1
    outer loop
      vertex 23.8337 4.90473 0
      vertex 0 0 0
      vertex 23.7056 5.05954 0
    endloop
  endfacet
  facet normal -0 0 -1
    outer loop
      vertex 23.9801 4.76718 0
      vertex 0 0 0
      vertex 23.8337 4.90473 0
    endloop
  endfacet
  facet normal -0 0 -1
    outer loop
      vertex 24.1427 4.64908 0
      vertex 0 0 0
      vertex 23.9801 4.76718 0
    endloop
  endfacet
  facet normal 0 0 -1
    outer loop
      vertex 26.5497 6.3979 0
      vertex 30 0 0
      vertex 26.5874 6.20053 0
    endloop
  endfacet
  facet normal 0 0 -1
    outer loop
      vertex 26.5874 42.2005 0
      vertex 30 48 0
      vertex 26.6 42 0
    endloop
  endfacet
  facet normal 0 0 -1
    outer loop
      vertex 26.5497 42.3979 0
      vertex 30 48 0
      vertex 26.5874 42.2005 0
    endloop
  endfacet
  facet normal 0 0 -1
    outer loop
      vertex 26.4876 42.589 0
      vertex 30 48 0
      vertex 26.5497 42.3979 0
    endloop
  endfacet
  facet normal 0 0 -1
    outer loop
      vertex 26.4021 42.7708 0
      vertex 30 48 0
      vertex 26.4876 42.589 0
    endloop
  endfacet
  facet normal 0 0 -1
    outer loop
      vertex 26.2944 42.9405 0
      vertex 30 48 0
      vertex 26.4021 42.7708 0
    endloop
  endfacet
  facet normal 0 0 -1
    outer loop
      vertex 26.1663 43.0953 0
      vertex 30 48 0
      vertex 26.2944 42.9405 0
    endloop
  endfacet
  facet normal 0 0 -1
    outer loop
      vertex 26.0199 43.2328 0
      vertex 30 48 0
      vertex 26.1663 43.0953 0
    endloop
  endfacet
  facet normal 0 0 -1
    outer loop
      vertex 25.8573 43.3509 0
      vertex 30 48 0
      vertex 26.0199 43.2328 0
    endloop
  endfacet
  facet normal 0 0 -1
    outer loop
      vertex 25.6812 43.4477 0
      vertex 30 48 0
      vertex 25.8573 43.3509 0
    endloop
  endfacet
  facet normal 0 0 -1
    outer loop
      vertex 25.4944 43.5217 0
      vertex 30 48 0
      vertex 25.6812 43.4477 0
    endloop
  endfacet
  facet normal 0 0 -1
    outer loop
      vertex 25.2998 43.5717 0
      vertex 30 48 0
      vertex 25.4944 43.5217 0
    endloop
  endfacet
  facet normal 0 0 -1
    outer loop
      vertex 25.1005 43.5968 0
      vertex 30 48 0
      vertex 25.2998 43.5717 0
    endloop
  endfacet
  facet normal 0 0 -1
    outer loop
      vertex 24.8995 43.5968 0
      vertex 30 48 0
      vertex 25.1005 43.5968 0
    endloop
  endfacet
  facet normal 0 0 -1
    outer loop
      vertex 24.7002 43.5717 0
      vertex 30 48 0
      vertex 24.8995 43.5968 0
    endloop
  endfacet
  facet normal 0 0 -1
    outer loop
      vertex 24.5056 43.5217 0
      vertex 30 48 0
      vertex 24.7002 43.5717 0
    endloop
  endfacet
  facet normal 0 0 -1
    outer loop
      vertex 24.3188 43.4477 0
      vertex 30 48 0
      vertex 24.5056 43.5217 0
    endloop
  endfacet
  facet normal 0 0 -1
    outer loop
      vertex 0 48 0
      vertex 24.3188 43.4477 0
      vertex 24.1427 43.3509 0
    endloop
  endfacet
  facet normal 0 0 -1
    outer loop
      vertex 0 48 0
      vertex 24.1427 43.3509 0
      vertex 23.9801 43.2328 0
    endloop
  endfacet
  facet normal 0 0 -1
    outer loop
      vertex 23.4126 41.7995 0
      vertex 0 48 0
      vertex 23.4 42 0
    endloop
  endfacet
  facet normal 0 0 -1
    outer loop
      vertex 23.4 42 0
      vertex 0 48 0
      vertex 23.4126 42.2005 0
    endloop
  endfacet
  facet normal 0 0 -1
    outer loop
      vertex 23.4126 42.2005 0
      vertex 0 48 0
      vertex 23.4503 42.3979 0
    endloop
  endfacet
  facet normal 0 0 -1
    outer loop
      vertex 23.4503 42.3979 0
      vertex 0 48 0
      vertex 23.5124 42.589 0
    endloop
  endfacet
  facet normal 0 0 -1
    outer loop
      vertex 24.3188 43.4477 0
      vertex 0 48 0
      vertex 30 48 0
    endloop
  endfacet
  facet normal 0 0 -1
    outer loop
      vertex 23.8337 43.0953 0
      vertex 0 48 0
      vertex 23.9801 43.2328 0
    endloop
  endfacet
  facet normal 0 0 -1
    outer loop
      vertex 23.7056 42.9405 0
      vertex 0 48 0
      vertex 23.8337 43.0953 0
    endloop
  endfacet
  facet normal 0 0 -1
    outer loop
      vertex 23.5979 42.7708 0
      vertex 0 48 0
      vertex 23.7056 42.9405 0
    endloop
  endfacet
  facet normal 0 0 -1
    outer loop
      vertex 23.5124 42.589 0
      vertex 0 48 0
      vertex 23.5979 42.7708 0
    endloop
  endfacet
  facet normal 0.707107 -0 0.707107
    outer loop
      vertex 19 0 14
      vertex 21 48 12
      vertex 19 48 14
    endloop
  endfacet
  facet normal 0.707107 0 0.707107
    outer loop
      vertex 21 48 12
      vertex 19 0 14
      vertex 21 0 12
    endloop
  endfacet
  facet normal -0.707107 0 0.707107
    outer loop
      vertex 0 0 12
      vertex 2 48 14
      vertex 0 48 12
    endloop
  endfacet
  facet normal -0.707107 0 0.707107
    outer loop
      vertex 2 48 14
      vertex 0 0 12
      vertex 2 0 14
    endloop
  endfacet
  facet normal 0 1 -0
    outer loop
      vertex 30 48 0
      vertex 21 48 6
      vertex 30 48 6
    endloop
  endfacet
  facet normal -0 1 0
    outer loop
      vertex 14.5187 48 4.66754
      vertex 21 48 6
      vertex 30 48 0
    endloop
  endfacet
  facet normal 0 1 0
    outer loop
      vertex 21 48 6
      vertex 15.2807 48 5.22115
      vertex 15.9673 48 5.8659
    endloop
  endfacet
  facet normal 0 1 0
    outer loop
      vertex 21 48 6
      vertex 14.5187 48 4.66754
      vertex 15.2807 48 5.22115
    endloop
  endfacet
  facet normal 0 1 0
    outer loop
      vertex 14.5187 48 4.66754
      vertex 30 48 0
      vertex 13.6933 48 4.2138
    endloop
  endfacet
  facet normal 0 1 0
    outer loop
      vertex 13.6933 48 4.2138
      vertex 30 48 0
      vertex 12.8176 48 3.86708
    endloop
  endfacet
  facet normal 0 1 0
    outer loop
      vertex 0 48 0
      vertex 10.9709 48 3.5148
      vertex 30 48 0
    endloop
  endfacet
  facet normal 0 1 0
    outer loop
      vertex 11.9054 48 3.63284
      vertex 30 48 0
      vertex 10.9709 48 3.5148
    endloop
  endfacet
  facet normal 0 1 0
    outer loop
      vertex 12.8176 48 3.86708
      vertex 30 48 0
      vertex 11.9054 48 3.63284
    endloop
  endfacet
  facet normal 0 1 0
    outer loop
      vertex 19 48 14
      vertex 17.4733 48 13.7609
      vertex 17.3608 48 14
    endloop
  endfacet
  facet normal 0 1 0
    outer loop
      vertex 19 48 14
      vertex 17.7644 48 12.8652
      vertex 17.4733 48 13.7609
    endloop
  endfacet
  facet normal 0 1 0
    outer loop
      vertex 17.9409 48 11.94
      vertex 19 48 14
      vertex 21 48 12
    endloop
  endfacet
  facet normal 0 1 0
    outer loop
      vertex 19 48 14
      vertex 17.9409 48 11.94
      vertex 17.7644 48 12.8652
    endloop
  endfacet
  facet normal 0 1 0
    outer loop
      vertex 21 48 12
      vertex 18 48 11
      vertex 17.9409 48 11.94
    endloop
  endfacet
  facet normal 0 1 0
    outer loop
      vertex 21 48 12
      vertex 17.9409 48 10.06
      vertex 18 48 11
    endloop
  endfacet
  facet normal 0 1 0
    outer loop
      vertex 21 48 12
      vertex 17.7644 48 9.13483
      vertex 17.9409 48 10.06
    endloop
  endfacet
  facet normal 0 1 -0
    outer loop
      vertex 21 48 6
      vertex 17.7644 48 9.13483
      vertex 21 48 12
    endloop
  endfacet
  facet normal 0 1 0
    outer loop
      vertex 17.7644 48 9.13483
      vertex 21 48 6
      vertex 17.4733 48 8.23907
    endloop
  endfacet
  facet normal 0 1 0
    outer loop
      vertex 17.4733 48 8.23907
      vertex 21 48 6
      vertex 17.0723 48 7.38685
    endloop
  endfacet
  facet normal 0 1 0
    outer loop
      vertex 17.0723 48 7.38685
      vertex 21 48 6
      vertex 16.5676 48 6.59161
    endloop
  endfacet
  facet normal 0 1 0
    outer loop
      vertex 16.5676 48 6.59161
      vertex 21 48 6
      vertex 15.9673 48 5.8659
    endloop
  endfacet
  facet normal 0 1 -0
    outer loop
      vertex 3.52668 48 13.7609
      vertex 2 48 14
      vertex 3.63917 48 14
    endloop
  endfacet
  facet normal 0 1 -0
    outer loop
      vertex 3.23563 48 12.8652
      vertex 2 48 14
      vertex 3.52668 48 13.7609
    endloop
  endfacet
  facet normal 0 1 -0
    outer loop
      vertex 3.05914 48 11.94
      vertex 2 48 14
      vertex 3.23563 48 12.8652
    endloop
  endfacet
  facet normal 0 1 0
    outer loop
      vertex 2 48 14
      vertex 3.05914 48 11.94
      vertex 0 48 12
    endloop
  endfacet
  facet normal 0 1 -0
    outer loop
      vertex 3.00118 48 11.0188
      vertex 0 48 12
      vertex 3.05914 48 11.94
    endloop
  endfacet
  facet normal 0 1 -0
    outer loop
      vertex 3 48 11
      vertex 0 48 12
      vertex 3.00118 48 11.0188
    endloop
  endfacet
  facet normal 0 1 0
    outer loop
      vertex 3.05796 48 10.0788
      vertex 0 48 12
      vertex 3 48 11
    endloop
  endfacet
  facet normal 0 1 0
    outer loop
      vertex 3.05914 48 10.06
      vertex 0 48 12
      vertex 3.05796 48 10.0788
    endloop
  endfacet
  facet normal 0 1 0
    outer loop
      vertex 3.23563 48 9.13483
      vertex 0 48 12
      vertex 3.05914 48 10.06
    endloop
  endfacet
  facet normal 0 1 0
    outer loop
      vertex 3.52668 48 8.23907
      vertex 0 48 12
      vertex 3.23563 48 9.13483
    endloop
  endfacet
  facet normal 0 1 0
    outer loop
      vertex 0 48 0
      vertex 3.52668 48 8.23907
      vertex 3.9277 48 7.38685
    endloop
  endfacet
  facet normal 0 1 0
    outer loop
      vertex 0 48 0
      vertex 3.9277 48 7.38685
      vertex 4.43237 48 6.59161
    endloop
  endfacet
  facet normal 0 1 0
    outer loop
      vertex 10.9709 48 3.5148
      vertex 0 48 0
      vertex 10.0291 48 3.5148
    endloop
  endfacet
  facet normal 0 1 0
    outer loop
      vertex 3.52668 48 8.23907
      vertex 0 48 0
      vertex 0 48 12
    endloop
  endfacet
  facet normal 0 1 0
    outer loop
      vertex 5.03273 48 5.8659
      vertex 0 48 0
      vertex 4.43237 48 6.59161
    endloop
  endfacet
  facet normal 0 1 0
    outer loop
      vertex 5.71932 48 5.22115
      vertex 0 48 0
      vertex 5.03273 48 5.8659
    endloop
  endfacet
  facet normal 0 1 0
    outer loop
      vertex 6.4813 48 4.66754
      vertex 0 48 0
      vertex 5.71932 48 5.22115
    endloop
  endfacet
  facet normal 0 1 0
    outer loop
      vertex 7.30665 48 4.2138
      vertex 0 48 0
      vertex 6.4813 48 4.66754
    endloop
  endfacet
  facet normal 0 1 0
    outer loop
      vertex 8.18237 48 3.86708
      vertex 0 48 0
      vertex 7.30665 48 4.2138
    endloop
  endfacet
  facet normal 0 1 0
    outer loop
      vertex 9.09464 48 3.63284
      vertex 0 48 0
      vertex 8.18237 48 3.86708
    endloop
  endfacet
  facet normal 0 1 0
    outer loop
      vertex 10.0291 48 3.5148
      vertex 0 48 0
      vertex 9.09464 48 3.63284
    endloop
  endfacet
  facet normal -0 0 1
    outer loop
      vertex 17.3608 48 14
      vertex 19 0 14
      vertex 19 48 14
    endloop
  endfacet
  facet normal 0 0 1
    outer loop
      vertex 19 0 14
      vertex 17.3608 48 14
      vertex 17.3608 0 14
    endloop
  endfacet
  facet normal -0 0 1
    outer loop
      vertex 2 48 14
      vertex 3.63917 0 14
      vertex 3.63917 48 14
    endloop
  endfacet
  facet normal 0 0 1
    outer loop
      vertex 3.63917 0 14
      vertex 2 48 14
      vertex 2 0 14
    endloop
  endfacet
  facet normal -0 0 1
    outer loop
      vertex 25 38.8 6
      vertex 27.7713 7.6 6
      vertex 27.7713 40.4 6
    endloop
  endfacet
  facet normal 0 0 1
    outer loop
      vertex 25 38.8 6
      vertex 25 9.2 6
      vertex 27.7713 7.6 6
    endloop
  endfacet
  facet normal 0 0 1
    outer loop
      vertex 22.2287 40.4 6
      vertex 25 9.2 6
      vertex 25 38.8 6
    endloop
  endfacet
  facet normal 0 0 1
    outer loop
      vertex 25 9.2 6
      vertex 22.2287 40.4 6
      vertex 22.2287 7.6 6
    endloop
  endfacet
  facet normal 0 0 1
    outer loop
      vertex 27.7713 40.4 6
      vertex 30 48 6
      vertex 27.7713 43.6 6
    endloop
  endfacet
  facet normal 0 0 1
    outer loop
      vertex 30 48 6
      vertex 25 45.2 6
      vertex 27.7713 43.6 6
    endloop
  endfacet
  facet normal 0 0 1
    outer loop
      vertex 21 48 6
      vertex 22.2287 40.4 6
      vertex 22.2287 43.6 6
    endloop
  endfacet
  facet normal 0 0 1
    outer loop
      vertex 22.2287 40.4 6
      vertex 21 48 6
      vertex 22.2287 7.6 6
    endloop
  endfacet
  facet normal 0 0 1
    outer loop
      vertex 21 0 6
      vertex 22.2287 7.6 6
      vertex 21 48 6
    endloop
  endfacet
  facet normal 0 0 1
    outer loop
      vertex 25 45.2 6
      vertex 21 48 6
      vertex 22.2287 43.6 6
    endloop
  endfacet
  facet normal -0 0 1
    outer loop
      vertex 21 48 6
      vertex 25 45.2 6
      vertex 30 48 6
    endloop
  endfacet
  facet normal 0 0 1
    outer loop
      vertex 30 48 6
      vertex 27.7713 40.4 6
      vertex 30 0 6
    endloop
  endfacet
  facet normal -0 0 1
    outer loop
      vertex 27.7713 7.6 6
      vertex 30 0 6
      vertex 27.7713 40.4 6
    endloop
  endfacet
  facet normal -0 0 1
    outer loop
      vertex 27.7713 4.4 6
      vertex 30 0 6
      vertex 27.7713 7.6 6
    endloop
  endfacet
  facet normal -0 0 1
    outer loop
      vertex 25 2.8 6
      vertex 30 0 6
      vertex 27.7713 4.4 6
    endloop
  endfacet
  facet normal 0 0 1
    outer loop
      vertex 25 2.8 6
      vertex 21 0 6
      vertex 30 0 6
    endloop
  endfacet
  facet normal 0 0 1
    outer loop
      vertex 22.2287 4.4 6
      vertex 21 0 6
      vertex 25 2.8 6
    endloop
  endfacet
  facet normal 0 0 1
    outer loop
      vertex 22.2287 7.6 6
      vertex 21 0 6
      vertex 22.2287 4.4 6
    endloop
  endfacet
  facet normal 1 -0 0
    outer loop
      vertex 30 0 6
      vertex 30 48 0
      vertex 30 48 6
    endloop
  endfacet
  facet normal 1 0 0
    outer loop
      vertex 30 48 0
      vertex 30 0 6
      vertex 30 0 0
    endloop
  endfacet
  facet normal -0.998027 -0.0627843 0
    outer loop
      vertex 26.6 6 0
      vertex 26.5874 6.20053 3
      vertex 26.5874 6.20053 0
    endloop
  endfacet
  facet normal -0.998027 -0.0627843 0
    outer loop
      vertex 26.5874 6.20053 3
      vertex 26.6 6 0
      vertex 26.6 6 3
    endloop
  endfacet
  facet normal 0.998027 -0.0627843 0
    outer loop
      vertex 23.4 6 3
      vertex 23.4126 6.20053 0
      vertex 23.4126 6.20053 3
    endloop
  endfacet
  facet normal 0.998027 -0.0627843 0
    outer loop
      vertex 23.4126 6.20053 0
      vertex 23.4 6 3
      vertex 23.4 6 0
    endloop
  endfacet
  facet normal 0 -1 0
    outer loop
      vertex 24.8995 7.59684 0
      vertex 25.1005 7.59684 3
      vertex 24.8995 7.59684 3
    endloop
  endfacet
  facet normal 0 -1 -0
    outer loop
      vertex 25.1005 7.59684 3
      vertex 24.8995 7.59684 0
      vertex 25.1005 7.59684 0
    endloop
  endfacet
  facet normal 0 1 -0
    outer loop
      vertex 25.1005 4.40316 0
      vertex 24.8995 4.40316 3
      vertex 25.1005 4.40316 3
    endloop
  endfacet
  facet normal 0 1 0
    outer loop
      vertex 24.8995 4.40316 3
      vertex 25.1005 4.40316 0
      vertex 24.8995 4.40316 0
    endloop
  endfacet
  facet normal -0.684547 -0.728968 0
    outer loop
      vertex 26.0199 7.23282 0
      vertex 26.1663 7.09527 3
      vertex 26.0199 7.23282 3
    endloop
  endfacet
  facet normal -0.684547 -0.728968 -0
    outer loop
      vertex 26.1663 7.09527 3
      vertex 26.0199 7.23282 0
      vertex 26.1663 7.09527 0
    endloop
  endfacet
  facet normal 0.684547 -0.728968 0
    outer loop
      vertex 23.8337 7.09527 0
      vertex 23.9801 7.23282 3
      vertex 23.8337 7.09527 3
    endloop
  endfacet
  facet normal 0.684547 -0.728968 0
    outer loop
      vertex 23.9801 7.23282 3
      vertex 23.8337 7.09527 0
      vertex 23.9801 7.23282 0
    endloop
  endfacet
  facet normal 0.368126 -0.929776 0
    outer loop
      vertex 24.3188 7.44772 0
      vertex 24.5056 7.52169 3
      vertex 24.3188 7.44772 3
    endloop
  endfacet
  facet normal 0.368126 -0.929776 0
    outer loop
      vertex 24.5056 7.52169 3
      vertex 24.3188 7.44772 0
      vertex 24.5056 7.52169 0
    endloop
  endfacet
  facet normal -0.904826 -0.425781 0
    outer loop
      vertex 26.4876 6.589 0
      vertex 26.4021 6.77081 3
      vertex 26.4021 6.77081 0
    endloop
  endfacet
  facet normal -0.904826 -0.425781 0
    outer loop
      vertex 26.4021 6.77081 3
      vertex 26.4876 6.589 0
      vertex 26.4876 6.589 3
    endloop
  endfacet
  facet normal -0.844327 -0.535828 0
    outer loop
      vertex 26.4021 6.77081 0
      vertex 26.2944 6.94046 3
      vertex 26.2944 6.94046 0
    endloop
  endfacet
  facet normal -0.844327 -0.535828 0
    outer loop
      vertex 26.2944 6.94046 3
      vertex 26.4021 6.77081 0
      vertex 26.4021 6.77081 3
    endloop
  endfacet
  facet normal -0.368126 -0.929776 0
    outer loop
      vertex 25.4944 7.52169 0
      vertex 25.6812 7.44772 3
      vertex 25.4944 7.52169 3
    endloop
  endfacet
  facet normal -0.368126 -0.929776 -0
    outer loop
      vertex 25.6812 7.44772 3
      vertex 25.4944 7.52169 0
      vertex 25.6812 7.44772 0
    endloop
  endfacet
  facet normal -0.248686 -0.968584 0
    outer loop
      vertex 25.2998 7.57166 0
      vertex 25.4944 7.52169 3
      vertex 25.2998 7.57166 3
    endloop
  endfacet
  facet normal -0.248686 -0.968584 -0
    outer loop
      vertex 25.4944 7.52169 3
      vertex 25.2998 7.57166 0
      vertex 25.4944 7.52169 0
    endloop
  endfacet
  facet normal -0.587786 -0.809016 0
    outer loop
      vertex 25.8573 7.35092 0
      vertex 26.0199 7.23282 3
      vertex 25.8573 7.35092 3
    endloop
  endfacet
  facet normal -0.587786 -0.809016 -0
    outer loop
      vertex 26.0199 7.23282 3
      vertex 25.8573 7.35092 0
      vertex 26.0199 7.23282 0
    endloop
  endfacet
  facet normal 0.904826 -0.425781 0
    outer loop
      vertex 23.5124 6.589 3
      vertex 23.5979 6.77081 0
      vertex 23.5979 6.77081 3
    endloop
  endfacet
  facet normal 0.904826 -0.425781 0
    outer loop
      vertex 23.5979 6.77081 0
      vertex 23.5124 6.589 3
      vertex 23.5124 6.589 0
    endloop
  endfacet
  facet normal 0.770514 -0.637423 0
    outer loop
      vertex 23.7056 6.94046 3
      vertex 23.8337 7.09527 0
      vertex 23.8337 7.09527 3
    endloop
  endfacet
  facet normal 0.770514 -0.637423 0
    outer loop
      vertex 23.8337 7.09527 0
      vertex 23.7056 6.94046 3
      vertex 23.7056 6.94046 0
    endloop
  endfacet
  facet normal 0.481753 -0.876307 0
    outer loop
      vertex 24.1427 7.35092 0
      vertex 24.3188 7.44772 3
      vertex 24.1427 7.35092 3
    endloop
  endfacet
  facet normal 0.481753 -0.876307 0
    outer loop
      vertex 24.3188 7.44772 3
      vertex 24.1427 7.35092 0
      vertex 24.3188 7.44772 0
    endloop
  endfacet
  facet normal 0.248686 -0.968584 0
    outer loop
      vertex 24.5056 7.52169 0
      vertex 24.7002 7.57166 3
      vertex 24.5056 7.52169 3
    endloop
  endfacet
  facet normal 0.248686 -0.968584 0
    outer loop
      vertex 24.7002 7.57166 3
      vertex 24.5056 7.52169 0
      vertex 24.7002 7.57166 0
    endloop
  endfacet
  facet normal -0.368126 0.929776 0
    outer loop
      vertex 25.6812 4.55228 0
      vertex 25.4944 4.47831 3
      vertex 25.6812 4.55228 3
    endloop
  endfacet
  facet normal -0.368126 0.929776 0
    outer loop
      vertex 25.4944 4.47831 3
      vertex 25.6812 4.55228 0
      vertex 25.4944 4.47831 0
    endloop
  endfacet
  facet normal -0.951058 -0.309014 0
    outer loop
      vertex 26.5497 6.3979 0
      vertex 26.4876 6.589 3
      vertex 26.4876 6.589 0
    endloop
  endfacet
  facet normal -0.951058 -0.309014 0
    outer loop
      vertex 26.4876 6.589 3
      vertex 26.5497 6.3979 0
      vertex 26.5497 6.3979 3
    endloop
  endfacet
  facet normal -0.982287 -0.187384 0
    outer loop
      vertex 26.5874 6.20053 0
      vertex 26.5497 6.3979 3
      vertex 26.5497 6.3979 0
    endloop
  endfacet
  facet normal -0.982287 -0.187384 0
    outer loop
      vertex 26.5497 6.3979 3
      vertex 26.5874 6.20053 0
      vertex 26.5874 6.20053 3
    endloop
  endfacet
  facet normal -0.770514 -0.637423 0
    outer loop
      vertex 26.2944 6.94046 0
      vertex 26.1663 7.09527 3
      vertex 26.1663 7.09527 0
    endloop
  endfacet
  facet normal -0.770514 -0.637423 0
    outer loop
      vertex 26.1663 7.09527 3
      vertex 26.2944 6.94046 0
      vertex 26.2944 6.94046 3
    endloop
  endfacet
  facet normal -0.125331 -0.992115 0
    outer loop
      vertex 25.1005 7.59684 0
      vertex 25.2998 7.57166 3
      vertex 25.1005 7.59684 3
    endloop
  endfacet
  facet normal -0.125331 -0.992115 -0
    outer loop
      vertex 25.2998 7.57166 3
      vertex 25.1005 7.59684 0
      vertex 25.2998 7.57166 0
    endloop
  endfacet
  facet normal -0.481753 -0.876307 0
    outer loop
      vertex 25.6812 7.44772 0
      vertex 25.8573 7.35092 3
      vertex 25.6812 7.44772 3
    endloop
  endfacet
  facet normal -0.481753 -0.876307 -0
    outer loop
      vertex 25.8573 7.35092 3
      vertex 25.6812 7.44772 0
      vertex 25.8573 7.35092 0
    endloop
  endfacet
  facet normal 0.844327 -0.535828 0
    outer loop
      vertex 23.5979 6.77081 3
      vertex 23.7056 6.94046 0
      vertex 23.7056 6.94046 3
    endloop
  endfacet
  facet normal 0.844327 -0.535828 0
    outer loop
      vertex 23.7056 6.94046 0
      vertex 23.5979 6.77081 3
      vertex 23.5979 6.77081 0
    endloop
  endfacet
  facet normal 0.951058 -0.309014 0
    outer loop
      vertex 23.4503 6.3979 3
      vertex 23.5124 6.589 0
      vertex 23.5124 6.589 3
    endloop
  endfacet
  facet normal 0.951058 -0.309014 0
    outer loop
      vertex 23.5124 6.589 0
      vertex 23.4503 6.3979 3
      vertex 23.4503 6.3979 0
    endloop
  endfacet
  facet normal 0.982287 -0.187384 0
    outer loop
      vertex 23.4126 6.20053 3
      vertex 23.4503 6.3979 0
      vertex 23.4503 6.3979 3
    endloop
  endfacet
  facet normal 0.982287 -0.187384 0
    outer loop
      vertex 23.4503 6.3979 0
      vertex 23.4126 6.20053 3
      vertex 23.4126 6.20053 0
    endloop
  endfacet
  facet normal 0.587786 -0.809016 0
    outer loop
      vertex 23.9801 7.23282 0
      vertex 24.1427 7.35092 3
      vertex 23.9801 7.23282 3
    endloop
  endfacet
  facet normal 0.587786 -0.809016 0
    outer loop
      vertex 24.1427 7.35092 3
      vertex 23.9801 7.23282 0
      vertex 24.1427 7.35092 0
    endloop
  endfacet
  facet normal 0.125331 -0.992115 0
    outer loop
      vertex 24.7002 7.57166 0
      vertex 24.8995 7.59684 3
      vertex 24.7002 7.57166 3
    endloop
  endfacet
  facet normal 0.125331 -0.992115 0
    outer loop
      vertex 24.8995 7.59684 3
      vertex 24.7002 7.57166 0
      vertex 24.8995 7.59684 0
    endloop
  endfacet
  facet normal -0.998027 0.0627843 0
    outer loop
      vertex 26.5874 5.79947 0
      vertex 26.6 6 3
      vertex 26.6 6 0
    endloop
  endfacet
  facet normal -0.998027 0.0627843 0
    outer loop
      vertex 26.6 6 3
      vertex 26.5874 5.79947 0
      vertex 26.5874 5.79947 3
    endloop
  endfacet
  facet normal -0.951058 0.309014 0
    outer loop
      vertex 26.4876 5.411 0
      vertex 26.5497 5.6021 3
      vertex 26.5497 5.6021 0
    endloop
  endfacet
  facet normal -0.951058 0.309014 0
    outer loop
      vertex 26.5497 5.6021 3
      vertex 26.4876 5.411 0
      vertex 26.4876 5.411 3
    endloop
  endfacet
  facet normal -0.982287 0.187384 0
    outer loop
      vertex 26.5497 5.6021 0
      vertex 26.5874 5.79947 3
      vertex 26.5874 5.79947 0
    endloop
  endfacet
  facet normal -0.982287 0.187384 0
    outer loop
      vertex 26.5874 5.79947 3
      vertex 26.5497 5.6021 0
      vertex 26.5497 5.6021 3
    endloop
  endfacet
  facet normal 0.904826 0.425781 0
    outer loop
      vertex 23.5979 5.22919 3
      vertex 23.5124 5.411 0
      vertex 23.5124 5.411 3
    endloop
  endfacet
  facet normal 0.904826 0.425781 0
    outer loop
      vertex 23.5124 5.411 0
      vertex 23.5979 5.22919 3
      vertex 23.5979 5.22919 0
    endloop
  endfacet
  facet normal 0.770514 0.637423 0
    outer loop
      vertex 23.8337 4.90473 3
      vertex 23.7056 5.05954 0
      vertex 23.7056 5.05954 3
    endloop
  endfacet
  facet normal 0.770514 0.637423 0
    outer loop
      vertex 23.7056 5.05954 0
      vertex 23.8337 4.90473 3
      vertex 23.8337 4.90473 0
    endloop
  endfacet
  facet normal -0.587786 0.809016 0
    outer loop
      vertex 26.0199 4.76718 0
      vertex 25.8573 4.64908 3
      vertex 26.0199 4.76718 3
    endloop
  endfacet
  facet normal -0.587786 0.809016 0
    outer loop
      vertex 25.8573 4.64908 3
      vertex 26.0199 4.76718 0
      vertex 25.8573 4.64908 0
    endloop
  endfacet
  facet normal 0.248686 0.968584 -0
    outer loop
      vertex 24.7002 4.42834 0
      vertex 24.5056 4.47831 3
      vertex 24.7002 4.42834 3
    endloop
  endfacet
  facet normal 0.248686 0.968584 0
    outer loop
      vertex 24.5056 4.47831 3
      vertex 24.7002 4.42834 0
      vertex 24.5056 4.47831 0
    endloop
  endfacet
  facet normal 0.982287 0.187384 0
    outer loop
      vertex 23.4503 5.6021 3
      vertex 23.4126 5.79947 0
      vertex 23.4126 5.79947 3
    endloop
  endfacet
  facet normal 0.982287 0.187384 0
    outer loop
      vertex 23.4126 5.79947 0
      vertex 23.4503 5.6021 3
      vertex 23.4503 5.6021 0
    endloop
  endfacet
  facet normal 0.998027 0.0627843 0
    outer loop
      vertex 23.4126 5.79947 3
      vertex 23.4 6 0
      vertex 23.4 6 3
    endloop
  endfacet
  facet normal 0.998027 0.0627843 0
    outer loop
      vertex 23.4 6 0
      vertex 23.4126 5.79947 3
      vertex 23.4126 5.79947 0
    endloop
  endfacet
  facet normal 0.951058 0.309014 0
    outer loop
      vertex 23.5124 5.411 3
      vertex 23.4503 5.6021 0
      vertex 23.4503 5.6021 3
    endloop
  endfacet
  facet normal 0.951058 0.309014 0
    outer loop
      vertex 23.4503 5.6021 0
      vertex 23.5124 5.411 3
      vertex 23.5124 5.411 0
    endloop
  endfacet
  facet normal -0.770514 0.637423 0
    outer loop
      vertex 26.1663 4.90473 0
      vertex 26.2944 5.05954 3
      vertex 26.2944 5.05954 0
    endloop
  endfacet
  facet normal -0.770514 0.637423 0
    outer loop
      vertex 26.2944 5.05954 3
      vertex 26.1663 4.90473 0
      vertex 26.1663 4.90473 3
    endloop
  endfacet
  facet normal -0.481753 0.876307 0
    outer loop
      vertex 25.8573 4.64908 0
      vertex 25.6812 4.55228 3
      vertex 25.8573 4.64908 3
    endloop
  endfacet
  facet normal -0.481753 0.876307 0
    outer loop
      vertex 25.6812 4.55228 3
      vertex 25.8573 4.64908 0
      vertex 25.6812 4.55228 0
    endloop
  endfacet
  facet normal -0.904826 0.425781 0
    outer loop
      vertex 26.4021 5.22919 0
      vertex 26.4876 5.411 3
      vertex 26.4876 5.411 0
    endloop
  endfacet
  facet normal -0.904826 0.425781 0
    outer loop
      vertex 26.4876 5.411 3
      vertex 26.4021 5.22919 0
      vertex 26.4021 5.22919 3
    endloop
  endfacet
  facet normal -0.844327 0.535828 0
    outer loop
      vertex 26.2944 5.05954 0
      vertex 26.4021 5.22919 3
      vertex 26.4021 5.22919 0
    endloop
  endfacet
  facet normal -0.844327 0.535828 0
    outer loop
      vertex 26.4021 5.22919 3
      vertex 26.2944 5.05954 0
      vertex 26.2944 5.05954 3
    endloop
  endfacet
  facet normal 0.125331 0.992115 -0
    outer loop
      vertex 24.8995 4.40316 0
      vertex 24.7002 4.42834 3
      vertex 24.8995 4.40316 3
    endloop
  endfacet
  facet normal 0.125331 0.992115 0
    outer loop
      vertex 24.7002 4.42834 3
      vertex 24.8995 4.40316 0
      vertex 24.7002 4.42834 0
    endloop
  endfacet
  facet normal 0.844327 0.535828 0
    outer loop
      vertex 23.7056 5.05954 3
      vertex 23.5979 5.22919 0
      vertex 23.5979 5.22919 3
    endloop
  endfacet
  facet normal 0.844327 0.535828 0
    outer loop
      vertex 23.5979 5.22919 0
      vertex 23.7056 5.05954 3
      vertex 23.7056 5.05954 0
    endloop
  endfacet
  facet normal -0.684547 0.728968 0
    outer loop
      vertex 26.1663 4.90473 0
      vertex 26.0199 4.76718 3
      vertex 26.1663 4.90473 3
    endloop
  endfacet
  facet normal -0.684547 0.728968 0
    outer loop
      vertex 26.0199 4.76718 3
      vertex 26.1663 4.90473 0
      vertex 26.0199 4.76718 0
    endloop
  endfacet
  facet normal -0.248686 0.968584 0
    outer loop
      vertex 25.4944 4.47831 0
      vertex 25.2998 4.42834 3
      vertex 25.4944 4.47831 3
    endloop
  endfacet
  facet normal -0.248686 0.968584 0
    outer loop
      vertex 25.2998 4.42834 3
      vertex 25.4944 4.47831 0
      vertex 25.2998 4.42834 0
    endloop
  endfacet
  facet normal -0.125331 0.992115 0
    outer loop
      vertex 25.2998 4.42834 0
      vertex 25.1005 4.40316 3
      vertex 25.2998 4.42834 3
    endloop
  endfacet
  facet normal -0.125331 0.992115 0
    outer loop
      vertex 25.1005 4.40316 3
      vertex 25.2998 4.42834 0
      vertex 25.1005 4.40316 0
    endloop
  endfacet
  facet normal 0.684547 0.728968 -0
    outer loop
      vertex 23.9801 4.76718 0
      vertex 23.8337 4.90473 3
      vertex 23.9801 4.76718 3
    endloop
  endfacet
  facet normal 0.684547 0.728968 0
    outer loop
      vertex 23.8337 4.90473 3
      vertex 23.9801 4.76718 0
      vertex 23.8337 4.90473 0
    endloop
  endfacet
  facet normal 0.481753 0.876307 -0
    outer loop
      vertex 24.3188 4.55228 0
      vertex 24.1427 4.64908 3
      vertex 24.3188 4.55228 3
    endloop
  endfacet
  facet normal 0.481753 0.876307 0
    outer loop
      vertex 24.1427 4.64908 3
      vertex 24.3188 4.55228 0
      vertex 24.1427 4.64908 0
    endloop
  endfacet
  facet normal 0.587786 0.809016 -0
    outer loop
      vertex 24.1427 4.64908 0
      vertex 23.9801 4.76718 3
      vertex 24.1427 4.64908 3
    endloop
  endfacet
  facet normal 0.587786 0.809016 0
    outer loop
      vertex 23.9801 4.76718 3
      vertex 24.1427 4.64908 0
      vertex 23.9801 4.76718 0
    endloop
  endfacet
  facet normal 0.368126 0.929776 -0
    outer loop
      vertex 24.5056 4.47831 0
      vertex 24.3188 4.55228 3
      vertex 24.5056 4.47831 3
    endloop
  endfacet
  facet normal 0.368126 0.929776 0
    outer loop
      vertex 24.3188 4.55228 3
      vertex 24.5056 4.47831 0
      vertex 24.3188 4.55228 0
    endloop
  endfacet
  facet normal -0.5 -0.866025 0
    outer loop
      vertex 25 9.2 3
      vertex 27.7713 7.6 6
      vertex 25 9.2 6
    endloop
  endfacet
  facet normal -0.5 -0.866025 -0
    outer loop
      vertex 27.7713 7.6 6
      vertex 25 9.2 3
      vertex 27.7713 7.6 3
    endloop
  endfacet
  facet normal 1 -0 0
    outer loop
      vertex 22.2287 4.4 6
      vertex 22.2287 7.6 3
      vertex 22.2287 7.6 6
    endloop
  endfacet
  facet normal 1 0 0
    outer loop
      vertex 22.2287 7.6 3
      vertex 22.2287 4.4 6
      vertex 22.2287 4.4 3
    endloop
  endfacet
  facet normal 0.5 -0.866025 0
    outer loop
      vertex 22.2287 7.6 3
      vertex 25 9.2 6
      vertex 22.2287 7.6 6
    endloop
  endfacet
  facet normal 0.5 -0.866025 0
    outer loop
      vertex 25 9.2 6
      vertex 22.2287 7.6 3
      vertex 25 9.2 3
    endloop
  endfacet
  facet normal 0 0 1
    outer loop
      vertex 27.7713 7.6 3
      vertex 26.6 6 3
      vertex 27.7713 4.4 3
    endloop
  endfacet
  facet normal 0 0 1
    outer loop
      vertex 27.7713 7.6 3
      vertex 26.5874 6.20053 3
      vertex 26.6 6 3
    endloop
  endfacet
  facet normal 0 0 1
    outer loop
      vertex 27.7713 7.6 3
      vertex 26.5497 6.3979 3
      vertex 26.5874 6.20053 3
    endloop
  endfacet
  facet normal 0 0 1
    outer loop
      vertex 27.7713 7.6 3
      vertex 26.4876 6.589 3
      vertex 26.5497 6.3979 3
    endloop
  endfacet
  facet normal 0 0 1
    outer loop
      vertex 27.7713 7.6 3
      vertex 26.4021 6.77081 3
      vertex 26.4876 6.589 3
    endloop
  endfacet
  facet normal 0 0 1
    outer loop
      vertex 27.7713 7.6 3
      vertex 26.2944 6.94046 3
      vertex 26.4021 6.77081 3
    endloop
  endfacet
  facet normal 0 0 1
    outer loop
      vertex 27.7713 7.6 3
      vertex 26.1663 7.09527 3
      vertex 26.2944 6.94046 3
    endloop
  endfacet
  facet normal 0 0 1
    outer loop
      vertex 27.7713 7.6 3
      vertex 26.0199 7.23282 3
      vertex 26.1663 7.09527 3
    endloop
  endfacet
  facet normal 0 0 1
    outer loop
      vertex 27.7713 7.6 3
      vertex 25.8573 7.35092 3
      vertex 26.0199 7.23282 3
    endloop
  endfacet
  facet normal 0 0 1
    outer loop
      vertex 25 9.2 3
      vertex 25.8573 7.35092 3
      vertex 27.7713 7.6 3
    endloop
  endfacet
  facet normal 0 0 1
    outer loop
      vertex 25.8573 7.35092 3
      vertex 25 9.2 3
      vertex 25.6812 7.44772 3
    endloop
  endfacet
  facet normal 0 0 1
    outer loop
      vertex 25.6812 7.44772 3
      vertex 25 9.2 3
      vertex 25.4944 7.52169 3
    endloop
  endfacet
  facet normal 0 0 1
    outer loop
      vertex 25.4944 7.52169 3
      vertex 25 9.2 3
      vertex 25.2998 7.57166 3
    endloop
  endfacet
  facet normal 0 0 1
    outer loop
      vertex 25.2998 7.57166 3
      vertex 25 9.2 3
      vertex 25.1005 7.59684 3
    endloop
  endfacet
  facet normal 0 0 1
    outer loop
      vertex 25 9.2 3
      vertex 24.8995 7.59684 3
      vertex 25.1005 7.59684 3
    endloop
  endfacet
  facet normal 0 0 1
    outer loop
      vertex 25 9.2 3
      vertex 24.7002 7.57166 3
      vertex 24.8995 7.59684 3
    endloop
  endfacet
  facet normal 0 0 1
    outer loop
      vertex 25 9.2 3
      vertex 24.5056 7.52169 3
      vertex 24.7002 7.57166 3
    endloop
  endfacet
  facet normal 0 0 1
    outer loop
      vertex 25 9.2 3
      vertex 24.3188 7.44772 3
      vertex 24.5056 7.52169 3
    endloop
  endfacet
  facet normal 0 0 1
    outer loop
      vertex 25 9.2 3
      vertex 24.1427 7.35092 3
      vertex 24.3188 7.44772 3
    endloop
  endfacet
  facet normal -0 0 1
    outer loop
      vertex 22.2287 7.6 3
      vertex 24.1427 7.35092 3
      vertex 25 9.2 3
    endloop
  endfacet
  facet normal 0 0 1
    outer loop
      vertex 24.1427 7.35092 3
      vertex 22.2287 7.6 3
      vertex 23.9801 7.23282 3
    endloop
  endfacet
  facet normal 0 0 1
    outer loop
      vertex 23.9801 7.23282 3
      vertex 22.2287 7.6 3
      vertex 23.8337 7.09527 3
    endloop
  endfacet
  facet normal 0 0 1
    outer loop
      vertex 23.8337 7.09527 3
      vertex 22.2287 7.6 3
      vertex 23.7056 6.94046 3
    endloop
  endfacet
  facet normal 0 0 1
    outer loop
      vertex 23.4126 6.20053 3
      vertex 22.2287 7.6 3
      vertex 23.4 6 3
    endloop
  endfacet
  facet normal 0 0 1
    outer loop
      vertex 23.4503 6.3979 3
      vertex 22.2287 7.6 3
      vertex 23.4126 6.20053 3
    endloop
  endfacet
  facet normal 0 0 1
    outer loop
      vertex 23.5124 6.589 3
      vertex 22.2287 7.6 3
      vertex 23.4503 6.3979 3
    endloop
  endfacet
  facet normal 0 0 1
    outer loop
      vertex 23.5979 6.77081 3
      vertex 22.2287 7.6 3
      vertex 23.5124 6.589 3
    endloop
  endfacet
  facet normal 0 0 1
    outer loop
      vertex 23.7056 6.94046 3
      vertex 22.2287 7.6 3
      vertex 23.5979 6.77081 3
    endloop
  endfacet
  facet normal -0 0 1
    outer loop
      vertex 26.5874 5.79947 3
      vertex 27.7713 4.4 3
      vertex 26.6 6 3
    endloop
  endfacet
  facet normal -0 0 1
    outer loop
      vertex 26.5497 5.6021 3
      vertex 27.7713 4.4 3
      vertex 26.5874 5.79947 3
    endloop
  endfacet
  facet normal -0 0 1
    outer loop
      vertex 26.4876 5.411 3
      vertex 27.7713 4.4 3
      vertex 26.5497 5.6021 3
    endloop
  endfacet
  facet normal -0 0 1
    outer loop
      vertex 26.4021 5.22919 3
      vertex 27.7713 4.4 3
      vertex 26.4876 5.411 3
    endloop
  endfacet
  facet normal -0 0 1
    outer loop
      vertex 26.2944 5.05954 3
      vertex 27.7713 4.4 3
      vertex 26.4021 5.22919 3
    endloop
  endfacet
  facet normal -0 0 1
    outer loop
      vertex 26.1663 4.90473 3
      vertex 27.7713 4.4 3
      vertex 26.2944 5.05954 3
    endloop
  endfacet
  facet normal -0 0 1
    outer loop
      vertex 26.0199 4.76718 3
      vertex 27.7713 4.4 3
      vertex 26.1663 4.90473 3
    endloop
  endfacet
  facet normal -0 0 1
    outer loop
      vertex 25.8573 4.64908 3
      vertex 27.7713 4.4 3
      vertex 26.0199 4.76718 3
    endloop
  endfacet
  facet normal 0 0 1
    outer loop
      vertex 25 2.8 3
      vertex 25.8573 4.64908 3
      vertex 25.6812 4.55228 3
    endloop
  endfacet
  facet normal 0 0 1
    outer loop
      vertex 25 2.8 3
      vertex 25.6812 4.55228 3
      vertex 25.4944 4.47831 3
    endloop
  endfacet
  facet normal 0 0 1
    outer loop
      vertex 25 2.8 3
      vertex 25.4944 4.47831 3
      vertex 25.2998 4.42834 3
    endloop
  endfacet
  facet normal 0 0 1
    outer loop
      vertex 25 2.8 3
      vertex 25.2998 4.42834 3
      vertex 25.1005 4.40316 3
    endloop
  endfacet
  facet normal 0 0 1
    outer loop
      vertex 25.8573 4.64908 3
      vertex 25 2.8 3
      vertex 27.7713 4.4 3
    endloop
  endfacet
  facet normal -0 0 1
    outer loop
      vertex 24.8995 4.40316 3
      vertex 25 2.8 3
      vertex 25.1005 4.40316 3
    endloop
  endfacet
  facet normal 0 0 1
    outer loop
      vertex 24.7002 4.42834 3
      vertex 25 2.8 3
      vertex 24.8995 4.40316 3
    endloop
  endfacet
  facet normal 0 0 1
    outer loop
      vertex 24.5056 4.47831 3
      vertex 25 2.8 3
      vertex 24.7002 4.42834 3
    endloop
  endfacet
  facet normal 0 0 1
    outer loop
      vertex 24.3188 4.55228 3
      vertex 25 2.8 3
      vertex 24.5056 4.47831 3
    endloop
  endfacet
  facet normal 0 0 1
    outer loop
      vertex 24.1427 4.64908 3
      vertex 25 2.8 3
      vertex 24.3188 4.55228 3
    endloop
  endfacet
  facet normal 0 0 1
    outer loop
      vertex 22.2287 4.4 3
      vertex 24.1427 4.64908 3
      vertex 23.9801 4.76718 3
    endloop
  endfacet
  facet normal 0 0 1
    outer loop
      vertex 22.2287 4.4 3
      vertex 23.9801 4.76718 3
      vertex 23.8337 4.90473 3
    endloop
  endfacet
  facet normal 0 0 1
    outer loop
      vertex 22.2287 4.4 3
      vertex 23.8337 4.90473 3
      vertex 23.7056 5.05954 3
    endloop
  endfacet
  facet normal 0 0 1
    outer loop
      vertex 22.2287 4.4 3
      vertex 23.7056 5.05954 3
      vertex 23.5979 5.22919 3
    endloop
  endfacet
  facet normal 0 0 1
    outer loop
      vertex 22.2287 4.4 3
      vertex 23.4 6 3
      vertex 22.2287 7.6 3
    endloop
  endfacet
  facet normal 0 0 1
    outer loop
      vertex 23.4 6 3
      vertex 22.2287 4.4 3
      vertex 23.4126 5.79947 3
    endloop
  endfacet
  facet normal 0 0 1
    outer loop
      vertex 23.4126 5.79947 3
      vertex 22.2287 4.4 3
      vertex 23.4503 5.6021 3
    endloop
  endfacet
  facet normal 0 0 1
    outer loop
      vertex 23.4503 5.6021 3
      vertex 22.2287 4.4 3
      vertex 23.5124 5.411 3
    endloop
  endfacet
  facet normal 0 0 1
    outer loop
      vertex 23.5124 5.411 3
      vertex 22.2287 4.4 3
      vertex 23.5979 5.22919 3
    endloop
  endfacet
  facet normal 0 0 1
    outer loop
      vertex 24.1427 4.64908 3
      vertex 22.2287 4.4 3
      vertex 25 2.8 3
    endloop
  endfacet
  facet normal -0.5 0.866025 0
    outer loop
      vertex 27.7713 4.4 3
      vertex 25 2.8 6
      vertex 27.7713 4.4 6
    endloop
  endfacet
  facet normal -0.5 0.866025 0
    outer loop
      vertex 25 2.8 6
      vertex 27.7713 4.4 3
      vertex 25 2.8 3
    endloop
  endfacet
  facet normal 0.5 0.866025 -0
    outer loop
      vertex 25 2.8 3
      vertex 22.2287 4.4 6
      vertex 25 2.8 6
    endloop
  endfacet
  facet normal 0.5 0.866025 0
    outer loop
      vertex 22.2287 4.4 6
      vertex 25 2.8 3
      vertex 22.2287 4.4 3
    endloop
  endfacet
  facet normal -1 0 0
    outer loop
      vertex 27.7713 4.4 3
      vertex 27.7713 7.6 6
      vertex 27.7713 7.6 3
    endloop
  endfacet
  facet normal -1 -0 0
    outer loop
      vertex 27.7713 7.6 6
      vertex 27.7713 4.4 3
      vertex 27.7713 4.4 6
    endloop
  endfacet
  facet normal -0.904828 -0.425778 0
    outer loop
      vertex 26.4876 42.589 0
      vertex 26.4021 42.7708 3
      vertex 26.4021 42.7708 0
    endloop
  endfacet
  facet normal -0.904828 -0.425778 0
    outer loop
      vertex 26.4021 42.7708 3
      vertex 26.4876 42.589 0
      vertex 26.4876 42.589 3
    endloop
  endfacet
  facet normal -0.844327 -0.535828 0
    outer loop
      vertex 26.4021 42.7708 0
      vertex 26.2944 42.9405 3
      vertex 26.2944 42.9405 0
    endloop
  endfacet
  facet normal -0.844327 -0.535828 0
    outer loop
      vertex 26.2944 42.9405 3
      vertex 26.4021 42.7708 0
      vertex 26.4021 42.7708 3
    endloop
  endfacet
  facet normal -0.368122 -0.929778 0
    outer loop
      vertex 25.4944 43.5217 0
      vertex 25.6812 43.4477 3
      vertex 25.4944 43.5217 3
    endloop
  endfacet
  facet normal -0.368122 -0.929778 -0
    outer loop
      vertex 25.6812 43.4477 3
      vertex 25.4944 43.5217 0
      vertex 25.6812 43.4477 0
    endloop
  endfacet
  facet normal 0.368122 -0.929778 0
    outer loop
      vertex 24.3188 43.4477 0
      vertex 24.5056 43.5217 3
      vertex 24.3188 43.4477 3
    endloop
  endfacet
  facet normal 0.368122 -0.929778 0
    outer loop
      vertex 24.5056 43.5217 3
      vertex 24.3188 43.4477 0
      vertex 24.5056 43.5217 0
    endloop
  endfacet
  facet normal 0.904828 -0.425778 0
    outer loop
      vertex 23.5124 42.589 3
      vertex 23.5979 42.7708 0
      vertex 23.5979 42.7708 3
    endloop
  endfacet
  facet normal 0.904828 -0.425778 0
    outer loop
      vertex 23.5979 42.7708 0
      vertex 23.5124 42.589 3
      vertex 23.5124 42.589 0
    endloop
  endfacet
  facet normal -0.982287 0.187383 0
    outer loop
      vertex 26.5497 41.6021 0
      vertex 26.5874 41.7995 3
      vertex 26.5874 41.7995 0
    endloop
  endfacet
  facet normal -0.982287 0.187383 0
    outer loop
      vertex 26.5874 41.7995 3
      vertex 26.5497 41.6021 0
      vertex 26.5497 41.6021 3
    endloop
  endfacet
  facet normal -0.481753 0.876307 0
    outer loop
      vertex 25.8573 40.6491 0
      vertex 25.6812 40.5523 3
      vertex 25.8573 40.6491 3
    endloop
  endfacet
  facet normal -0.481753 0.876307 0
    outer loop
      vertex 25.6812 40.5523 3
      vertex 25.8573 40.6491 0
      vertex 25.6812 40.5523 0
    endloop
  endfacet
  facet normal -0.125322 -0.992116 0
    outer loop
      vertex 25.1005 43.5968 0
      vertex 25.2998 43.5717 3
      vertex 25.1005 43.5968 3
    endloop
  endfacet
  facet normal -0.125322 -0.992116 -0
    outer loop
      vertex 25.2998 43.5717 3
      vertex 25.1005 43.5968 0
      vertex 25.2998 43.5717 0
    endloop
  endfacet
  facet normal -0.587796 -0.809009 0
    outer loop
      vertex 25.8573 43.3509 0
      vertex 26.0199 43.2328 3
      vertex 25.8573 43.3509 3
    endloop
  endfacet
  facet normal -0.587796 -0.809009 -0
    outer loop
      vertex 26.0199 43.2328 3
      vertex 25.8573 43.3509 0
      vertex 26.0199 43.2328 0
    endloop
  endfacet
  facet normal 0.998027 -0.0627849 0
    outer loop
      vertex 23.4 42 3
      vertex 23.4126 42.2005 0
      vertex 23.4126 42.2005 3
    endloop
  endfacet
  facet normal 0.998027 -0.0627849 0
    outer loop
      vertex 23.4126 42.2005 0
      vertex 23.4 42 3
      vertex 23.4 42 0
    endloop
  endfacet
  facet normal 0.982287 -0.187383 0
    outer loop
      vertex 23.4126 42.2005 3
      vertex 23.4503 42.3979 0
      vertex 23.4503 42.3979 3
    endloop
  endfacet
  facet normal 0.982287 -0.187383 0
    outer loop
      vertex 23.4503 42.3979 0
      vertex 23.4126 42.2005 3
      vertex 23.4126 42.2005 0
    endloop
  endfacet
  facet normal 0.770516 -0.63742 0
    outer loop
      vertex 23.7056 42.9405 3
      vertex 23.8337 43.0953 0
      vertex 23.8337 43.0953 3
    endloop
  endfacet
  facet normal 0.770516 -0.63742 0
    outer loop
      vertex 23.8337 43.0953 0
      vertex 23.7056 42.9405 3
      vertex 23.7056 42.9405 0
    endloop
  endfacet
  facet normal 0.481753 -0.876307 0
    outer loop
      vertex 24.1427 43.3509 0
      vertex 24.3188 43.4477 3
      vertex 24.1427 43.3509 3
    endloop
  endfacet
  facet normal 0.481753 -0.876307 0
    outer loop
      vertex 24.3188 43.4477 3
      vertex 24.1427 43.3509 0
      vertex 24.3188 43.4477 0
    endloop
  endfacet
  facet normal 0.587796 -0.809009 0
    outer loop
      vertex 23.9801 43.2328 0
      vertex 24.1427 43.3509 3
      vertex 23.9801 43.2328 3
    endloop
  endfacet
  facet normal 0.587796 -0.809009 0
    outer loop
      vertex 24.1427 43.3509 3
      vertex 23.9801 43.2328 0
      vertex 24.1427 43.3509 0
    endloop
  endfacet
  facet normal -0.951057 0.309017 0
    outer loop
      vertex 26.4876 41.411 0
      vertex 26.5497 41.6021 3
      vertex 26.5497 41.6021 0
    endloop
  endfacet
  facet normal -0.951057 0.309017 0
    outer loop
      vertex 26.5497 41.6021 3
      vertex 26.4876 41.411 0
      vertex 26.4876 41.411 3
    endloop
  endfacet
  facet normal 0.125322 0.992116 -0
    outer loop
      vertex 24.8995 40.4032 0
      vertex 24.7002 40.4283 3
      vertex 24.8995 40.4032 3
    endloop
  endfacet
  facet normal 0.125322 0.992116 0
    outer loop
      vertex 24.7002 40.4283 3
      vertex 24.8995 40.4032 0
      vertex 24.7002 40.4283 0
    endloop
  endfacet
  facet normal -0.982287 -0.187383 0
    outer loop
      vertex 26.5874 42.2005 0
      vertex 26.5497 42.3979 3
      vertex 26.5497 42.3979 0
    endloop
  endfacet
  facet normal -0.982287 -0.187383 0
    outer loop
      vertex 26.5497 42.3979 3
      vertex 26.5874 42.2005 0
      vertex 26.5874 42.2005 3
    endloop
  endfacet
  facet normal -0.951057 -0.309017 0
    outer loop
      vertex 26.5497 42.3979 0
      vertex 26.4876 42.589 3
      vertex 26.4876 42.589 0
    endloop
  endfacet
  facet normal -0.951057 -0.309017 0
    outer loop
      vertex 26.4876 42.589 3
      vertex 26.5497 42.3979 0
      vertex 26.5497 42.3979 3
    endloop
  endfacet
  facet normal -0.68454 -0.728975 0
    outer loop
      vertex 26.0199 43.2328 0
      vertex 26.1663 43.0953 3
      vertex 26.0199 43.2328 3
    endloop
  endfacet
  facet normal -0.68454 -0.728975 -0
    outer loop
      vertex 26.1663 43.0953 3
      vertex 26.0199 43.2328 0
      vertex 26.1663 43.0953 0
    endloop
  endfacet
  facet normal -0.770516 -0.63742 0
    outer loop
      vertex 26.2944 42.9405 0
      vertex 26.1663 43.0953 3
      vertex 26.1663 43.0953 0
    endloop
  endfacet
  facet normal -0.770516 -0.63742 0
    outer loop
      vertex 26.1663 43.0953 3
      vertex 26.2944 42.9405 0
      vertex 26.2944 42.9405 3
    endloop
  endfacet
  facet normal 0 -1 0
    outer loop
      vertex 24.8995 43.5968 0
      vertex 25.1005 43.5968 3
      vertex 24.8995 43.5968 3
    endloop
  endfacet
  facet normal 0 -1 -0
    outer loop
      vertex 25.1005 43.5968 3
      vertex 24.8995 43.5968 0
      vertex 25.1005 43.5968 0
    endloop
  endfacet
  facet normal -0.248686 -0.968584 0
    outer loop
      vertex 25.2998 43.5717 0
      vertex 25.4944 43.5217 3
      vertex 25.2998 43.5717 3
    endloop
  endfacet
  facet normal -0.248686 -0.968584 -0
    outer loop
      vertex 25.4944 43.5217 3
      vertex 25.2998 43.5717 0
      vertex 25.4944 43.5217 0
    endloop
  endfacet
  facet normal -0.481753 -0.876307 0
    outer loop
      vertex 25.6812 43.4477 0
      vertex 25.8573 43.3509 3
      vertex 25.6812 43.4477 3
    endloop
  endfacet
  facet normal -0.481753 -0.876307 -0
    outer loop
      vertex 25.8573 43.3509 3
      vertex 25.6812 43.4477 0
      vertex 25.8573 43.3509 0
    endloop
  endfacet
  facet normal 0.844327 -0.535828 0
    outer loop
      vertex 23.5979 42.7708 3
      vertex 23.7056 42.9405 0
      vertex 23.7056 42.9405 3
    endloop
  endfacet
  facet normal 0.844327 -0.535828 0
    outer loop
      vertex 23.7056 42.9405 0
      vertex 23.5979 42.7708 3
      vertex 23.5979 42.7708 0
    endloop
  endfacet
  facet normal 0.125322 -0.992116 0
    outer loop
      vertex 24.7002 43.5717 0
      vertex 24.8995 43.5968 3
      vertex 24.7002 43.5717 3
    endloop
  endfacet
  facet normal 0.125322 -0.992116 0
    outer loop
      vertex 24.8995 43.5968 3
      vertex 24.7002 43.5717 0
      vertex 24.8995 43.5968 0
    endloop
  endfacet
  facet normal 0.248686 -0.968584 0
    outer loop
      vertex 24.5056 43.5217 0
      vertex 24.7002 43.5717 3
      vertex 24.5056 43.5217 3
    endloop
  endfacet
  facet normal 0.248686 -0.968584 0
    outer loop
      vertex 24.7002 43.5717 3
      vertex 24.5056 43.5217 0
      vertex 24.7002 43.5717 0
    endloop
  endfacet
  facet normal 0.68454 -0.728975 0
    outer loop
      vertex 23.8337 43.0953 0
      vertex 23.9801 43.2328 3
      vertex 23.8337 43.0953 3
    endloop
  endfacet
  facet normal 0.68454 -0.728975 0
    outer loop
      vertex 23.9801 43.2328 3
      vertex 23.8337 43.0953 0
      vertex 23.9801 43.2328 0
    endloop
  endfacet
  facet normal -0.998027 -0.0627849 0
    outer loop
      vertex 26.6 42 0
      vertex 26.5874 42.2005 3
      vertex 26.5874 42.2005 0
    endloop
  endfacet
  facet normal -0.998027 -0.0627849 0
    outer loop
      vertex 26.5874 42.2005 3
      vertex 26.6 42 0
      vertex 26.6 42 3
    endloop
  endfacet
  facet normal -0.844327 0.535828 0
    outer loop
      vertex 26.2944 41.0595 0
      vertex 26.4021 41.2292 3
      vertex 26.4021 41.2292 0
    endloop
  endfacet
  facet normal -0.844327 0.535828 0
    outer loop
      vertex 26.4021 41.2292 3
      vertex 26.2944 41.0595 0
      vertex 26.2944 41.0595 3
    endloop
  endfacet
  facet normal -0.904828 0.425778 0
    outer loop
      vertex 26.4021 41.2292 0
      vertex 26.4876 41.411 3
      vertex 26.4876 41.411 0
    endloop
  endfacet
  facet normal -0.904828 0.425778 0
    outer loop
      vertex 26.4876 41.411 3
      vertex 26.4021 41.2292 0
      vertex 26.4021 41.2292 3
    endloop
  endfacet
  facet normal 0.248686 0.968584 -0
    outer loop
      vertex 24.7002 40.4283 0
      vertex 24.5056 40.4783 3
      vertex 24.7002 40.4283 3
    endloop
  endfacet
  facet normal 0.248686 0.968584 0
    outer loop
      vertex 24.5056 40.4783 3
      vertex 24.7002 40.4283 0
      vertex 24.5056 40.4783 0
    endloop
  endfacet
  facet normal 0.998027 0.0627849 0
    outer loop
      vertex 23.4126 41.7995 3
      vertex 23.4 42 0
      vertex 23.4 42 3
    endloop
  endfacet
  facet normal 0.998027 0.0627849 0
    outer loop
      vertex 23.4 42 0
      vertex 23.4126 41.7995 3
      vertex 23.4126 41.7995 0
    endloop
  endfacet
  facet normal 0.982287 0.187383 0
    outer loop
      vertex 23.4503 41.6021 3
      vertex 23.4126 41.7995 0
      vertex 23.4126 41.7995 3
    endloop
  endfacet
  facet normal 0.982287 0.187383 0
    outer loop
      vertex 23.4126 41.7995 0
      vertex 23.4503 41.6021 3
      vertex 23.4503 41.6021 0
    endloop
  endfacet
  facet normal 0.951057 -0.309017 0
    outer loop
      vertex 23.4503 42.3979 3
      vertex 23.5124 42.589 0
      vertex 23.5124 42.589 3
    endloop
  endfacet
  facet normal 0.951057 -0.309017 0
    outer loop
      vertex 23.5124 42.589 0
      vertex 23.4503 42.3979 3
      vertex 23.4503 42.3979 0
    endloop
  endfacet
  facet normal -0.998027 0.0627849 0
    outer loop
      vertex 26.5874 41.7995 0
      vertex 26.6 42 3
      vertex 26.6 42 0
    endloop
  endfacet
  facet normal -0.998027 0.0627849 0
    outer loop
      vertex 26.6 42 3
      vertex 26.5874 41.7995 0
      vertex 26.5874 41.7995 3
    endloop
  endfacet
  facet normal 0.368122 0.929778 -0
    outer loop
      vertex 24.5056 40.4783 0
      vertex 24.3188 40.5523 3
      vertex 24.5056 40.4783 3
    endloop
  endfacet
  facet normal 0.368122 0.929778 0
    outer loop
      vertex 24.3188 40.5523 3
      vertex 24.5056 40.4783 0
      vertex 24.3188 40.5523 0
    endloop
  endfacet
  facet normal 0.951057 0.309017 0
    outer loop
      vertex 23.5124 41.411 3
      vertex 23.4503 41.6021 0
      vertex 23.4503 41.6021 3
    endloop
  endfacet
  facet normal 0.951057 0.309017 0
    outer loop
      vertex 23.4503 41.6021 0
      vertex 23.5124 41.411 3
      vertex 23.5124 41.411 0
    endloop
  endfacet
  facet normal 0.770516 0.63742 0
    outer loop
      vertex 23.8337 40.9047 3
      vertex 23.7056 41.0595 0
      vertex 23.7056 41.0595 3
    endloop
  endfacet
  facet normal 0.770516 0.63742 0
    outer loop
      vertex 23.7056 41.0595 0
      vertex 23.8337 40.9047 3
      vertex 23.8337 40.9047 0
    endloop
  endfacet
  facet normal -0.125322 0.992116 0
    outer loop
      vertex 25.2998 40.4283 0
      vertex 25.1005 40.4032 3
      vertex 25.2998 40.4283 3
    endloop
  endfacet
  facet normal -0.125322 0.992116 0
    outer loop
      vertex 25.1005 40.4032 3
      vertex 25.2998 40.4283 0
      vertex 25.1005 40.4032 0
    endloop
  endfacet
  facet normal -0.368122 0.929778 0
    outer loop
      vertex 25.6812 40.5523 0
      vertex 25.4944 40.4783 3
      vertex 25.6812 40.5523 3
    endloop
  endfacet
  facet normal -0.368122 0.929778 0
    outer loop
      vertex 25.4944 40.4783 3
      vertex 25.6812 40.5523 0
      vertex 25.4944 40.4783 0
    endloop
  endfacet
  facet normal -0.248686 0.968584 0
    outer loop
      vertex 25.4944 40.4783 0
      vertex 25.2998 40.4283 3
      vertex 25.4944 40.4783 3
    endloop
  endfacet
  facet normal -0.248686 0.968584 0
    outer loop
      vertex 25.2998 40.4283 3
      vertex 25.4944 40.4783 0
      vertex 25.2998 40.4283 0
    endloop
  endfacet
  facet normal -0.770516 0.63742 0
    outer loop
      vertex 26.1663 40.9047 0
      vertex 26.2944 41.0595 3
      vertex 26.2944 41.0595 0
    endloop
  endfacet
  facet normal -0.770516 0.63742 0
    outer loop
      vertex 26.2944 41.0595 3
      vertex 26.1663 40.9047 0
      vertex 26.1663 40.9047 3
    endloop
  endfacet
  facet normal -0.587796 0.809009 0
    outer loop
      vertex 26.0199 40.7672 0
      vertex 25.8573 40.6491 3
      vertex 26.0199 40.7672 3
    endloop
  endfacet
  facet normal -0.587796 0.809009 0
    outer loop
      vertex 25.8573 40.6491 3
      vertex 26.0199 40.7672 0
      vertex 25.8573 40.6491 0
    endloop
  endfacet
  facet normal 0.68454 0.728975 -0
    outer loop
      vertex 23.9801 40.7672 0
      vertex 23.8337 40.9047 3
      vertex 23.9801 40.7672 3
    endloop
  endfacet
  facet normal 0.68454 0.728975 0
    outer loop
      vertex 23.8337 40.9047 3
      vertex 23.9801 40.7672 0
      vertex 23.8337 40.9047 0
    endloop
  endfacet
  facet normal 0 1 -0
    outer loop
      vertex 25.1005 40.4032 0
      vertex 24.8995 40.4032 3
      vertex 25.1005 40.4032 3
    endloop
  endfacet
  facet normal 0 1 0
    outer loop
      vertex 24.8995 40.4032 3
      vertex 25.1005 40.4032 0
      vertex 24.8995 40.4032 0
    endloop
  endfacet
  facet normal 0.587796 0.809009 -0
    outer loop
      vertex 24.1427 40.6491 0
      vertex 23.9801 40.7672 3
      vertex 24.1427 40.6491 3
    endloop
  endfacet
  facet normal 0.587796 0.809009 0
    outer loop
      vertex 23.9801 40.7672 3
      vertex 24.1427 40.6491 0
      vertex 23.9801 40.7672 0
    endloop
  endfacet
  facet normal 0.481753 0.876307 -0
    outer loop
      vertex 24.3188 40.5523 0
      vertex 24.1427 40.6491 3
      vertex 24.3188 40.5523 3
    endloop
  endfacet
  facet normal 0.481753 0.876307 0
    outer loop
      vertex 24.1427 40.6491 3
      vertex 24.3188 40.5523 0
      vertex 24.1427 40.6491 0
    endloop
  endfacet
  facet normal 0.844327 0.535828 0
    outer loop
      vertex 23.7056 41.0595 3
      vertex 23.5979 41.2292 0
      vertex 23.5979 41.2292 3
    endloop
  endfacet
  facet normal 0.844327 0.535828 0
    outer loop
      vertex 23.5979 41.2292 0
      vertex 23.7056 41.0595 3
      vertex 23.7056 41.0595 0
    endloop
  endfacet
  facet normal 0.904828 0.425778 0
    outer loop
      vertex 23.5979 41.2292 3
      vertex 23.5124 41.411 0
      vertex 23.5124 41.411 3
    endloop
  endfacet
  facet normal 0.904828 0.425778 0
    outer loop
      vertex 23.5124 41.411 0
      vertex 23.5979 41.2292 3
      vertex 23.5979 41.2292 0
    endloop
  endfacet
  facet normal -0.68454 0.728975 0
    outer loop
      vertex 26.1663 40.9047 0
      vertex 26.0199 40.7672 3
      vertex 26.1663 40.9047 3
    endloop
  endfacet
  facet normal -0.68454 0.728975 0
    outer loop
      vertex 26.0199 40.7672 3
      vertex 26.1663 40.9047 0
      vertex 26.0199 40.7672 0
    endloop
  endfacet
  facet normal -0.5 -0.866025 0
    outer loop
      vertex 25 45.2 3
      vertex 27.7713 43.6 6
      vertex 25 45.2 6
    endloop
  endfacet
  facet normal -0.5 -0.866025 -0
    outer loop
      vertex 27.7713 43.6 6
      vertex 25 45.2 3
      vertex 27.7713 43.6 3
    endloop
  endfacet
  facet normal 1 -0 0
    outer loop
      vertex 22.2287 40.4 6
      vertex 22.2287 43.6 3
      vertex 22.2287 43.6 6
    endloop
  endfacet
  facet normal 1 0 0
    outer loop
      vertex 22.2287 43.6 3
      vertex 22.2287 40.4 6
      vertex 22.2287 40.4 3
    endloop
  endfacet
  facet normal 0.5 -0.866025 0
    outer loop
      vertex 22.2287 43.6 3
      vertex 25 45.2 6
      vertex 22.2287 43.6 6
    endloop
  endfacet
  facet normal 0.5 -0.866025 0
    outer loop
      vertex 25 45.2 6
      vertex 22.2287 43.6 3
      vertex 25 45.2 3
    endloop
  endfacet
  facet normal -1 0 0
    outer loop
      vertex 27.7713 40.4 3
      vertex 27.7713 43.6 6
      vertex 27.7713 43.6 3
    endloop
  endfacet
  facet normal -1 -0 0
    outer loop
      vertex 27.7713 43.6 6
      vertex 27.7713 40.4 3
      vertex 27.7713 40.4 6
    endloop
  endfacet
  facet normal 0 0 1
    outer loop
      vertex 27.7713 43.6 3
      vertex 26.6 42 3
      vertex 27.7713 40.4 3
    endloop
  endfacet
  facet normal 0 0 1
    outer loop
      vertex 27.7713 43.6 3
      vertex 26.5874 42.2005 3
      vertex 26.6 42 3
    endloop
  endfacet
  facet normal 0 0 1
    outer loop
      vertex 27.7713 43.6 3
      vertex 26.5497 42.3979 3
      vertex 26.5874 42.2005 3
    endloop
  endfacet
  facet normal 0 0 1
    outer loop
      vertex 27.7713 43.6 3
      vertex 26.4876 42.589 3
      vertex 26.5497 42.3979 3
    endloop
  endfacet
  facet normal 0 0 1
    outer loop
      vertex 27.7713 43.6 3
      vertex 26.4021 42.7708 3
      vertex 26.4876 42.589 3
    endloop
  endfacet
  facet normal 0 0 1
    outer loop
      vertex 27.7713 43.6 3
      vertex 26.2944 42.9405 3
      vertex 26.4021 42.7708 3
    endloop
  endfacet
  facet normal 0 0 1
    outer loop
      vertex 27.7713 43.6 3
      vertex 26.1663 43.0953 3
      vertex 26.2944 42.9405 3
    endloop
  endfacet
  facet normal 0 0 1
    outer loop
      vertex 27.7713 43.6 3
      vertex 26.0199 43.2328 3
      vertex 26.1663 43.0953 3
    endloop
  endfacet
  facet normal 0 0 1
    outer loop
      vertex 27.7713 43.6 3
      vertex 25.8573 43.3509 3
      vertex 26.0199 43.2328 3
    endloop
  endfacet
  facet normal 0 0 1
    outer loop
      vertex 25 45.2 3
      vertex 25.8573 43.3509 3
      vertex 27.7713 43.6 3
    endloop
  endfacet
  facet normal 0 0 1
    outer loop
      vertex 25.8573 43.3509 3
      vertex 25 45.2 3
      vertex 25.6812 43.4477 3
    endloop
  endfacet
  facet normal 0 0 1
    outer loop
      vertex 25.6812 43.4477 3
      vertex 25 45.2 3
      vertex 25.4944 43.5217 3
    endloop
  endfacet
  facet normal 0 0 1
    outer loop
      vertex 25.4944 43.5217 3
      vertex 25 45.2 3
      vertex 25.2998 43.5717 3
    endloop
  endfacet
  facet normal 0 0 1
    outer loop
      vertex 25.2998 43.5717 3
      vertex 25 45.2 3
      vertex 25.1005 43.5968 3
    endloop
  endfacet
  facet normal 0 0 1
    outer loop
      vertex 25 45.2 3
      vertex 24.8995 43.5968 3
      vertex 25.1005 43.5968 3
    endloop
  endfacet
  facet normal 0 0 1
    outer loop
      vertex 25 45.2 3
      vertex 24.7002 43.5717 3
      vertex 24.8995 43.5968 3
    endloop
  endfacet
  facet normal 0 0 1
    outer loop
      vertex 25 45.2 3
      vertex 24.5056 43.5217 3
      vertex 24.7002 43.5717 3
    endloop
  endfacet
  facet normal 0 0 1
    outer loop
      vertex 25 45.2 3
      vertex 24.3188 43.4477 3
      vertex 24.5056 43.5217 3
    endloop
  endfacet
  facet normal 0 0 1
    outer loop
      vertex 25 45.2 3
      vertex 24.1427 43.3509 3
      vertex 24.3188 43.4477 3
    endloop
  endfacet
  facet normal -0 0 1
    outer loop
      vertex 22.2287 43.6 3
      vertex 24.1427 43.3509 3
      vertex 25 45.2 3
    endloop
  endfacet
  facet normal 0 0 1
    outer loop
      vertex 24.1427 43.3509 3
      vertex 22.2287 43.6 3
      vertex 23.9801 43.2328 3
    endloop
  endfacet
  facet normal 0 0 1
    outer loop
      vertex 23.9801 43.2328 3
      vertex 22.2287 43.6 3
      vertex 23.8337 43.0953 3
    endloop
  endfacet
  facet normal 0 0 1
    outer loop
      vertex 23.8337 43.0953 3
      vertex 22.2287 43.6 3
      vertex 23.7056 42.9405 3
    endloop
  endfacet
  facet normal 0 0 1
    outer loop
      vertex 23.4126 42.2005 3
      vertex 22.2287 43.6 3
      vertex 23.4 42 3
    endloop
  endfacet
  facet normal 0 0 1
    outer loop
      vertex 23.4503 42.3979 3
      vertex 22.2287 43.6 3
      vertex 23.4126 42.2005 3
    endloop
  endfacet
  facet normal 0 0 1
    outer loop
      vertex 23.5124 42.589 3
      vertex 22.2287 43.6 3
      vertex 23.4503 42.3979 3
    endloop
  endfacet
  facet normal 0 0 1
    outer loop
      vertex 23.5979 42.7708 3
      vertex 22.2287 43.6 3
      vertex 23.5124 42.589 3
    endloop
  endfacet
  facet normal 0 0 1
    outer loop
      vertex 23.7056 42.9405 3
      vertex 22.2287 43.6 3
      vertex 23.5979 42.7708 3
    endloop
  endfacet
  facet normal -0 0 1
    outer loop
      vertex 26.5874 41.7995 3
      vertex 27.7713 40.4 3
      vertex 26.6 42 3
    endloop
  endfacet
  facet normal -0 0 1
    outer loop
      vertex 26.5497 41.6021 3
      vertex 27.7713 40.4 3
      vertex 26.5874 41.7995 3
    endloop
  endfacet
  facet normal -0 0 1
    outer loop
      vertex 26.4876 41.411 3
      vertex 27.7713 40.4 3
      vertex 26.5497 41.6021 3
    endloop
  endfacet
  facet normal -0 0 1
    outer loop
      vertex 26.4021 41.2292 3
      vertex 27.7713 40.4 3
      vertex 26.4876 41.411 3
    endloop
  endfacet
  facet normal -0 0 1
    outer loop
      vertex 26.2944 41.0595 3
      vertex 27.7713 40.4 3
      vertex 26.4021 41.2292 3
    endloop
  endfacet
  facet normal -0 0 1
    outer loop
      vertex 26.1663 40.9047 3
      vertex 27.7713 40.4 3
      vertex 26.2944 41.0595 3
    endloop
  endfacet
  facet normal -0 0 1
    outer loop
      vertex 26.0199 40.7672 3
      vertex 27.7713 40.4 3
      vertex 26.1663 40.9047 3
    endloop
  endfacet
  facet normal -0 0 1
    outer loop
      vertex 25.8573 40.6491 3
      vertex 27.7713 40.4 3
      vertex 26.0199 40.7672 3
    endloop
  endfacet
  facet normal 0 0 1
    outer loop
      vertex 25 38.8 3
      vertex 25.8573 40.6491 3
      vertex 25.6812 40.5523 3
    endloop
  endfacet
  facet normal 0 0 1
    outer loop
      vertex 25 38.8 3
      vertex 25.6812 40.5523 3
      vertex 25.4944 40.4783 3
    endloop
  endfacet
  facet normal 0 0 1
    outer loop
      vertex 25 38.8 3
      vertex 25.4944 40.4783 3
      vertex 25.2998 40.4283 3
    endloop
  endfacet
  facet normal 0 0 1
    outer loop
      vertex 25 38.8 3
      vertex 25.2998 40.4283 3
      vertex 25.1005 40.4032 3
    endloop
  endfacet
  facet normal 0 0 1
    outer loop
      vertex 25.8573 40.6491 3
      vertex 25 38.8 3
      vertex 27.7713 40.4 3
    endloop
  endfacet
  facet normal -0 0 1
    outer loop
      vertex 24.8995 40.4032 3
      vertex 25 38.8 3
      vertex 25.1005 40.4032 3
    endloop
  endfacet
  facet normal 0 0 1
    outer loop
      vertex 24.7002 40.4283 3
      vertex 25 38.8 3
      vertex 24.8995 40.4032 3
    endloop
  endfacet
  facet normal 0 0 1
    outer loop
      vertex 24.5056 40.4783 3
      vertex 25 38.8 3
      vertex 24.7002 40.4283 3
    endloop
  endfacet
  facet normal 0 0 1
    outer loop
      vertex 24.3188 40.5523 3
      vertex 25 38.8 3
      vertex 24.5056 40.4783 3
    endloop
  endfacet
  facet normal 0 0 1
    outer loop
      vertex 24.1427 40.6491 3
      vertex 25 38.8 3
      vertex 24.3188 40.5523 3
    endloop
  endfacet
  facet normal 0 0 1
    outer loop
      vertex 22.2287 40.4 3
      vertex 24.1427 40.6491 3
      vertex 23.9801 40.7672 3
    endloop
  endfacet
  facet normal 0 0 1
    outer loop
      vertex 22.2287 40.4 3
      vertex 23.9801 40.7672 3
      vertex 23.8337 40.9047 3
    endloop
  endfacet
  facet normal 0 0 1
    outer loop
      vertex 22.2287 40.4 3
      vertex 23.8337 40.9047 3
      vertex 23.7056 41.0595 3
    endloop
  endfacet
  facet normal 0 0 1
    outer loop
      vertex 22.2287 40.4 3
      vertex 23.7056 41.0595 3
      vertex 23.5979 41.2292 3
    endloop
  endfacet
  facet normal 0 0 1
    outer loop
      vertex 22.2287 40.4 3
      vertex 23.4 42 3
      vertex 22.2287 43.6 3
    endloop
  endfacet
  facet normal 0 0 1
    outer loop
      vertex 23.4 42 3
      vertex 22.2287 40.4 3
      vertex 23.4126 41.7995 3
    endloop
  endfacet
  facet normal 0 0 1
    outer loop
      vertex 23.4126 41.7995 3
      vertex 22.2287 40.4 3
      vertex 23.4503 41.6021 3
    endloop
  endfacet
  facet normal 0 0 1
    outer loop
      vertex 23.4503 41.6021 3
      vertex 22.2287 40.4 3
      vertex 23.5124 41.411 3
    endloop
  endfacet
  facet normal 0 0 1
    outer loop
      vertex 23.5124 41.411 3
      vertex 22.2287 40.4 3
      vertex 23.5979 41.2292 3
    endloop
  endfacet
  facet normal 0 0 1
    outer loop
      vertex 24.1427 40.6491 3
      vertex 22.2287 40.4 3
      vertex 25 38.8 3
    endloop
  endfacet
  facet normal -0.5 0.866025 0
    outer loop
      vertex 27.7713 40.4 3
      vertex 25 38.8 6
      vertex 27.7713 40.4 6
    endloop
  endfacet
  facet normal -0.5 0.866025 0
    outer loop
      vertex 25 38.8 6
      vertex 27.7713 40.4 3
      vertex 25 38.8 3
    endloop
  endfacet
  facet normal 0.5 0.866025 -0
    outer loop
      vertex 25 38.8 3
      vertex 22.2287 40.4 6
      vertex 25 38.8 6
    endloop
  endfacet
  facet normal 0.5 0.866025 0
    outer loop
      vertex 22.2287 40.4 6
      vertex 25 38.8 3
      vertex 22.2287 40.4 3
    endloop
  endfacet
  facet normal -0.904827 0 0.425779
    outer loop
      vertex 17.0723 0 7.38685
      vertex 17.4733 48 8.23907
      vertex 17.0723 48 7.38685
    endloop
  endfacet
  facet normal -0.904827 0 0.425779
    outer loop
      vertex 17.4733 48 8.23907
      vertex 17.0723 0 7.38685
      vertex 17.4733 0 8.23907
    endloop
  endfacet
  facet normal 0.481754 0 0.876307
    outer loop
      vertex 6.4813 48 4.66754
      vertex 7.30665 0 4.2138
      vertex 7.30665 48 4.2138
    endloop
  endfacet
  facet normal 0.481754 0 0.876307
    outer loop
      vertex 7.30665 0 4.2138
      vertex 6.4813 48 4.66754
      vertex 6.4813 0 4.66754
    endloop
  endfacet
  facet normal 0.844328 -0 0.535827
    outer loop
      vertex 3.9277 0 7.38685
      vertex 4.43237 48 6.59161
      vertex 3.9277 48 7.38685
    endloop
  endfacet
  facet normal 0.844328 0 0.535827
    outer loop
      vertex 4.43237 48 6.59161
      vertex 3.9277 0 7.38685
      vertex 4.43237 0 6.59161
    endloop
  endfacet
  facet normal 0.587785 0 0.809017
    outer loop
      vertex 5.71932 48 5.22115
      vertex 6.4813 0 4.66754
      vertex 6.4813 48 4.66754
    endloop
  endfacet
  facet normal 0.587785 0 0.809017
    outer loop
      vertex 6.4813 0 4.66754
      vertex 5.71932 48 5.22115
      vertex 5.71932 0 5.22115
    endloop
  endfacet
  facet normal -0.368124 0 0.929777
    outer loop
      vertex 12.8176 48 3.86708
      vertex 13.6933 0 4.2138
      vertex 13.6933 48 4.2138
    endloop
  endfacet
  facet normal -0.368124 0 0.929777
    outer loop
      vertex 13.6933 0 4.2138
      vertex 12.8176 48 3.86708
      vertex 12.8176 0 3.86708
    endloop
  endfacet
  facet normal 0.998027 0 -0.0627912
    outer loop
      vertex 3.05796 0 11.9212
      vertex 3.05914 48 11.94
      vertex 3.05914 0 11.94
    endloop
  endfacet
  facet normal 0.998027 -4.56934e-10 -0.06279
    outer loop
      vertex 3.05914 48 11.94
      vertex 3.05796 0 11.9212
      vertex 3.00118 48 11.0188
    endloop
  endfacet
  facet normal 0.368124 0 0.929777
    outer loop
      vertex 7.30665 48 4.2138
      vertex 8.18237 0 3.86708
      vertex 8.18237 48 3.86708
    endloop
  endfacet
  facet normal 0.368124 0 0.929777
    outer loop
      vertex 8.18237 0 3.86708
      vertex 7.30665 48 4.2138
      vertex 7.30665 0 4.2138
    endloop
  endfacet
  facet normal 0.684547 0 0.728969
    outer loop
      vertex 5.03273 48 5.8659
      vertex 5.71932 0 5.22115
      vertex 5.71932 48 5.22115
    endloop
  endfacet
  facet normal 0.684547 0 0.728969
    outer loop
      vertex 5.71932 0 5.22115
      vertex 5.03273 48 5.8659
      vertex 5.03273 0 5.8659
    endloop
  endfacet
  facet normal -0.998027 0 0.06279
    outer loop
      vertex 17.9409 0 10.06
      vertex 18 48 11
      vertex 17.9409 48 10.06
    endloop
  endfacet
  facet normal -0.998027 0 0.06279
    outer loop
      vertex 18 48 11
      vertex 17.9409 0 10.06
      vertex 18 0 11
    endloop
  endfacet
  facet normal -0.951057 0 -0.309017
    outer loop
      vertex 17.7644 0 12.8652
      vertex 17.4733 48 13.7609
      vertex 17.7644 48 12.8652
    endloop
  endfacet
  facet normal -0.951057 -0 -0.309017
    outer loop
      vertex 17.4733 48 13.7609
      vertex 17.7644 0 12.8652
      vertex 17.4733 0 13.7609
    endloop
  endfacet
  facet normal 0.998027 4.56934e-10 0.06279
    outer loop
      vertex 3.05914 0 10.06
      vertex 3.05796 48 10.0788
      vertex 3.00118 0 10.9812
    endloop
  endfacet
  facet normal 0.998027 0 0.0627912
    outer loop
      vertex 3.05796 48 10.0788
      vertex 3.05914 0 10.06
      vertex 3.05914 48 10.06
    endloop
  endfacet
  facet normal 0.951057 -0 0.309017
    outer loop
      vertex 3.23563 0 9.13483
      vertex 3.52668 48 8.23907
      vertex 3.23563 48 9.13483
    endloop
  endfacet
  facet normal 0.951057 0 0.309017
    outer loop
      vertex 3.52668 48 8.23907
      vertex 3.23563 0 9.13483
      vertex 3.52668 0 8.23907
    endloop
  endfacet
  facet normal 0.904827 -0 0.425779
    outer loop
      vertex 3.52668 0 8.23907
      vertex 3.9277 48 7.38685
      vertex 3.52668 48 8.23907
    endloop
  endfacet
  facet normal 0.904827 0 0.425779
    outer loop
      vertex 3.9277 48 7.38685
      vertex 3.52668 0 8.23907
      vertex 3.9277 0 7.38685
    endloop
  endfacet
  facet normal 0.24869 0 0.968583
    outer loop
      vertex 8.18237 48 3.86708
      vertex 9.09464 0 3.63284
      vertex 9.09464 48 3.63284
    endloop
  endfacet
  facet normal 0.24869 0 0.968583
    outer loop
      vertex 9.09464 0 3.63284
      vertex 8.18237 48 3.86708
      vertex 8.18237 0 3.86708
    endloop
  endfacet
  facet normal 0.998027 7.65131e-10 -0.06279
    outer loop
      vertex 3 0 11
      vertex 3.00118 48 11.0188
      vertex 3.05796 0 11.9212
    endloop
  endfacet
  facet normal 0.998027 1.24755e-09 -0.0627912
    outer loop
      vertex 3.00118 48 11.0188
      vertex 3 0 11
      vertex 3 48 11
    endloop
  endfacet
  facet normal 0.998027 -1.24755e-09 0.0627912
    outer loop
      vertex 3.00118 0 10.9812
      vertex 3 48 11
      vertex 3 0 11
    endloop
  endfacet
  facet normal 0.998027 -7.65131e-10 0.06279
    outer loop
      vertex 3 48 11
      vertex 3.00118 0 10.9812
      vertex 3.05796 48 10.0788
    endloop
  endfacet
  facet normal 0.770513 -0 0.637424
    outer loop
      vertex 4.43237 0 6.59161
      vertex 5.03273 48 5.8659
      vertex 4.43237 48 6.59161
    endloop
  endfacet
  facet normal 0.770513 0 0.637424
    outer loop
      vertex 5.03273 48 5.8659
      vertex 4.43237 0 6.59161
      vertex 5.03273 0 5.8659
    endloop
  endfacet
  facet normal 0.125333 0 0.992115
    outer loop
      vertex 9.09464 48 3.63284
      vertex 10.0291 0 3.5148
      vertex 10.0291 48 3.5148
    endloop
  endfacet
  facet normal 0.125333 0 0.992115
    outer loop
      vertex 10.0291 0 3.5148
      vertex 9.09464 48 3.63284
      vertex 9.09464 0 3.63284
    endloop
  endfacet
  facet normal -0.684547 0 0.728969
    outer loop
      vertex 15.2807 48 5.22115
      vertex 15.9673 0 5.8659
      vertex 15.9673 48 5.8659
    endloop
  endfacet
  facet normal -0.684547 0 0.728969
    outer loop
      vertex 15.9673 0 5.8659
      vertex 15.2807 48 5.22115
      vertex 15.2807 0 5.22115
    endloop
  endfacet
  facet normal -0.998027 0 -0.06279
    outer loop
      vertex 18 0 11
      vertex 17.9409 48 11.94
      vertex 18 48 11
    endloop
  endfacet
  facet normal -0.998027 -0 -0.06279
    outer loop
      vertex 17.9409 48 11.94
      vertex 18 0 11
      vertex 17.9409 0 11.94
    endloop
  endfacet
  facet normal 0.982287 -0 0.187382
    outer loop
      vertex 3.05914 0 10.06
      vertex 3.23563 48 9.13483
      vertex 3.05914 48 10.06
    endloop
  endfacet
  facet normal 0.982287 0 0.187382
    outer loop
      vertex 3.23563 48 9.13483
      vertex 3.05914 0 10.06
      vertex 3.23563 0 9.13483
    endloop
  endfacet
  facet normal -0.24869 0 0.968583
    outer loop
      vertex 11.9054 48 3.63284
      vertex 12.8176 0 3.86708
      vertex 12.8176 48 3.86708
    endloop
  endfacet
  facet normal -0.24869 0 0.968583
    outer loop
      vertex 12.8176 0 3.86708
      vertex 11.9054 48 3.63284
      vertex 11.9054 0 3.63284
    endloop
  endfacet
  facet normal -0.125333 0 0.992115
    outer loop
      vertex 10.9709 48 3.5148
      vertex 11.9054 0 3.63284
      vertex 11.9054 48 3.63284
    endloop
  endfacet
  facet normal -0.125333 0 0.992115
    outer loop
      vertex 11.9054 0 3.63284
      vertex 10.9709 48 3.5148
      vertex 10.9709 0 3.5148
    endloop
  endfacet
  facet normal -0.951057 0 0.309017
    outer loop
      vertex 17.4733 0 8.23907
      vertex 17.7644 48 9.13483
      vertex 17.4733 48 8.23907
    endloop
  endfacet
  facet normal -0.951057 0 0.309017
    outer loop
      vertex 17.7644 48 9.13483
      vertex 17.4733 0 8.23907
      vertex 17.7644 0 9.13483
    endloop
  endfacet
  facet normal -0.770513 0 0.637424
    outer loop
      vertex 15.9673 0 5.8659
      vertex 16.5676 48 6.59161
      vertex 15.9673 48 5.8659
    endloop
  endfacet
  facet normal -0.770513 0 0.637424
    outer loop
      vertex 16.5676 48 6.59161
      vertex 15.9673 0 5.8659
      vertex 16.5676 0 6.59161
    endloop
  endfacet
  facet normal -0.982287 0 -0.187382
    outer loop
      vertex 17.9409 0 11.94
      vertex 17.7644 48 12.8652
      vertex 17.9409 48 11.94
    endloop
  endfacet
  facet normal -0.982287 -0 -0.187382
    outer loop
      vertex 17.7644 48 12.8652
      vertex 17.9409 0 11.94
      vertex 17.7644 0 12.8652
    endloop
  endfacet
  facet normal -0.904825 0 -0.425783
    outer loop
      vertex 17.4733 0 13.7609
      vertex 17.3608 48 14
      vertex 17.4733 48 13.7609
    endloop
  endfacet
  facet normal -0.904825 -0 -0.425783
    outer loop
      vertex 17.3608 48 14
      vertex 17.4733 0 13.7609
      vertex 17.3608 0 14
    endloop
  endfacet
  facet normal 0.982287 0 -0.187382
    outer loop
      vertex 3.23563 0 12.8652
      vertex 3.05914 48 11.94
      vertex 3.23563 48 12.8652
    endloop
  endfacet
  facet normal 0.982287 0 -0.187382
    outer loop
      vertex 3.05914 48 11.94
      vertex 3.23563 0 12.8652
      vertex 3.05914 0 11.94
    endloop
  endfacet
  facet normal 0.904828 0 -0.425778
    outer loop
      vertex 3.63917 0 14
      vertex 3.52668 48 13.7609
      vertex 3.63917 48 14
    endloop
  endfacet
  facet normal 0.904828 0 -0.425778
    outer loop
      vertex 3.52668 48 13.7609
      vertex 3.63917 0 14
      vertex 3.52668 0 13.7609
    endloop
  endfacet
  facet normal -0.481754 0 0.876307
    outer loop
      vertex 13.6933 48 4.2138
      vertex 14.5187 0 4.66754
      vertex 14.5187 48 4.66754
    endloop
  endfacet
  facet normal -0.481754 0 0.876307
    outer loop
      vertex 14.5187 0 4.66754
      vertex 13.6933 48 4.2138
      vertex 13.6933 0 4.2138
    endloop
  endfacet
  facet normal -0 0 1
    outer loop
      vertex 10.0291 48 3.5148
      vertex 10.9709 0 3.5148
      vertex 10.9709 48 3.5148
    endloop
  endfacet
  facet normal 0 0 1
    outer loop
      vertex 10.9709 0 3.5148
      vertex 10.0291 48 3.5148
      vertex 10.0291 0 3.5148
    endloop
  endfacet
  facet normal -0.982287 0 0.187382
    outer loop
      vertex 17.7644 0 9.13483
      vertex 17.9409 48 10.06
      vertex 17.7644 48 9.13483
    endloop
  endfacet
  facet normal -0.982287 0 0.187382
    outer loop
      vertex 17.9409 48 10.06
      vertex 17.7644 0 9.13483
      vertex 17.9409 0 10.06
    endloop
  endfacet
  facet normal -0.844328 0 0.535827
    outer loop
      vertex 16.5676 0 6.59161
      vertex 17.0723 48 7.38685
      vertex 16.5676 48 6.59161
    endloop
  endfacet
  facet normal -0.844328 0 0.535827
    outer loop
      vertex 17.0723 48 7.38685
      vertex 16.5676 0 6.59161
      vertex 17.0723 0 7.38685
    endloop
  endfacet
  facet normal 0.951057 0 -0.309017
    outer loop
      vertex 3.52668 0 13.7609
      vertex 3.23563 48 12.8652
      vertex 3.52668 48 13.7609
    endloop
  endfacet
  facet normal 0.951057 0 -0.309017
    outer loop
      vertex 3.23563 48 12.8652
      vertex 3.52668 0 13.7609
      vertex 3.23563 0 12.8652
    endloop
  endfacet
  facet normal -0.587785 0 0.809017
    outer loop
      vertex 14.5187 48 4.66754
      vertex 15.2807 0 5.22115
      vertex 15.2807 48 5.22115
    endloop
  endfacet
  facet normal -0.587785 0 0.809017
    outer loop
      vertex 15.2807 0 5.22115
      vertex 14.5187 48 4.66754
      vertex 14.5187 0 4.66754
    endloop
  endfacet
endsolid OpenSCAD_Model
