solid OpenSCAD_Model
  facet normal -1 0 0
    outer loop
      vertex 0 24 0
      vertex 0 12.0959 39.8681
      vertex 0 24 80
    endloop
  endfacet
  facet normal -1 0 0
    outer loop
      vertex 0 24 0
      vertex 0 12.0628 39.6065
      vertex 0 12.0959 39.8681
    endloop
  endfacet
  facet normal -1 0 0
    outer loop
      vertex 0 24 0
      vertex 0 11.9972 39.3511
      vertex 0 12.0628 39.6065
    endloop
  endfacet
  facet normal -1 0 0
    outer loop
      vertex 0 24 0
      vertex 0 11.9001 39.1059
      vertex 0 11.9972 39.3511
    endloop
  endfacet
  facet normal -1 0 0
    outer loop
      vertex 0 24 0
      vertex 0 11.7731 38.8748
      vertex 0 11.9001 39.1059
    endloop
  endfacet
  facet normal -1 0 0
    outer loop
      vertex 0 24 0
      vertex 0 11.6181 38.6614
      vertex 0 11.7731 38.8748
    endloop
  endfacet
  facet normal -1 0 0
    outer loop
      vertex 0 24 0
      vertex 0 11.4375 38.4692
      vertex 0 11.6181 38.6614
    endloop
  endfacet
  facet normal -1 0 0
    outer loop
      vertex 0 24 0
      vertex 0 11.2343 38.3011
      vertex 0 11.4375 38.4692
    endloop
  endfacet
  facet normal -1 0 0
    outer loop
      vertex 0 24 0
      vertex 0 11.0117 38.1598
      vertex 0 11.2343 38.3011
    endloop
  endfacet
  facet normal -1 0 0
    outer loop
      vertex 0 24 0
      vertex 0 10.7731 38.0475
      vertex 0 11.0117 38.1598
    endloop
  endfacet
  facet normal -1 0 0
    outer loop
      vertex 0 24 0
      vertex 0 10.5222 37.966
      vertex 0 10.7731 38.0475
    endloop
  endfacet
  facet normal -1 0 0
    outer loop
      vertex 0 24 0
      vertex 0 10.2632 37.9166
      vertex 0 10.5222 37.966
    endloop
  endfacet
  facet normal -1 0 0
    outer loop
      vertex 0 0 0
      vertex 0 10.2632 37.9166
      vertex 0 24 0
    endloop
  endfacet
  facet normal -1 0 0
    outer loop
      vertex 0 10.2632 37.9166
      vertex 0 0 0
      vertex 0 10 37.9
    endloop
  endfacet
  facet normal -1 -0 0
    outer loop
      vertex 0 10 37.9
      vertex 0 0 0
      vertex 0 9.7368 37.9166
    endloop
  endfacet
  facet normal -1 -0 0
    outer loop
      vertex 0 9.7368 37.9166
      vertex 0 0 0
      vertex 0 9.47775 37.966
    endloop
  endfacet
  facet normal -1 -0 0
    outer loop
      vertex 0 9.47775 37.966
      vertex 0 0 0
      vertex 0 9.22694 38.0475
    endloop
  endfacet
  facet normal -1 -0 0
    outer loop
      vertex 0 9.22694 38.0475
      vertex 0 0 0
      vertex 0 8.98832 38.1598
    endloop
  endfacet
  facet normal -1 -0 0
    outer loop
      vertex 0 8.98832 38.1598
      vertex 0 0 0
      vertex 0 8.76565 38.3011
    endloop
  endfacet
  facet normal -1 -0 0
    outer loop
      vertex 0 8.76565 38.3011
      vertex 0 0 0
      vertex 0 8.56245 38.4692
    endloop
  endfacet
  facet normal -1 -0 0
    outer loop
      vertex 0 8.56245 38.4692
      vertex 0 0 0
      vertex 0 8.38192 38.6614
    endloop
  endfacet
  facet normal -1 -0 0
    outer loop
      vertex 0 8.38192 38.6614
      vertex 0 0 0
      vertex 0 8.22691 38.8748
    endloop
  endfacet
  facet normal -1 -0 0
    outer loop
      vertex 0 7.90414 39.8681
      vertex 0 0 0
      vertex 0 7.90414 40.1319
    endloop
  endfacet
  facet normal -1 -0 0
    outer loop
      vertex 0 7.9372 39.6065
      vertex 0 0 0
      vertex 0 7.90414 39.8681
    endloop
  endfacet
  facet normal -1 -0 0
    outer loop
      vertex 0 8.00278 39.3511
      vertex 0 0 0
      vertex 0 7.9372 39.6065
    endloop
  endfacet
  facet normal -1 -0 0
    outer loop
      vertex 0 8.09986 39.1059
      vertex 0 0 0
      vertex 0 8.00278 39.3511
    endloop
  endfacet
  facet normal -1 -0 0
    outer loop
      vertex 0 8.22691 38.8748
      vertex 0 0 0
      vertex 0 8.09986 39.1059
    endloop
  endfacet
  facet normal -1 0 0
    outer loop
      vertex 0 12.0959 40.1319
      vertex 0 24 80
      vertex 0 12.0959 39.8681
    endloop
  endfacet
  facet normal -1 0 0
    outer loop
      vertex 0 12.0628 40.3935
      vertex 0 24 80
      vertex 0 12.0959 40.1319
    endloop
  endfacet
  facet normal -1 0 0
    outer loop
      vertex 0 11.9972 40.6489
      vertex 0 24 80
      vertex 0 12.0628 40.3935
    endloop
  endfacet
  facet normal -1 0 0
    outer loop
      vertex 0 11.9001 40.8941
      vertex 0 24 80
      vertex 0 11.9972 40.6489
    endloop
  endfacet
  facet normal -1 0 0
    outer loop
      vertex 0 11.7731 41.1252
      vertex 0 24 80
      vertex 0 11.9001 40.8941
    endloop
  endfacet
  facet normal -1 0 0
    outer loop
      vertex 0 11.6181 41.3386
      vertex 0 24 80
      vertex 0 11.7731 41.1252
    endloop
  endfacet
  facet normal -1 0 0
    outer loop
      vertex 0 11.4375 41.5308
      vertex 0 24 80
      vertex 0 11.6181 41.3386
    endloop
  endfacet
  facet normal -1 0 0
    outer loop
      vertex 0 11.2343 41.6989
      vertex 0 24 80
      vertex 0 11.4375 41.5308
    endloop
  endfacet
  facet normal -1 0 0
    outer loop
      vertex 0 11.0117 41.8402
      vertex 0 24 80
      vertex 0 11.2343 41.6989
    endloop
  endfacet
  facet normal -1 0 0
    outer loop
      vertex 0 10.7731 41.9525
      vertex 0 24 80
      vertex 0 11.0117 41.8402
    endloop
  endfacet
  facet normal -1 0 0
    outer loop
      vertex 0 10.5222 42.034
      vertex 0 24 80
      vertex 0 10.7731 41.9525
    endloop
  endfacet
  facet normal -1 0 0
    outer loop
      vertex 0 10.2632 42.0834
      vertex 0 24 80
      vertex 0 10.5222 42.034
    endloop
  endfacet
  facet normal -1 0 0
    outer loop
      vertex 0 0 80
      vertex 0 10.2632 42.0834
      vertex 0 10 42.1
    endloop
  endfacet
  facet normal -1 0 0
    outer loop
      vertex 0 0 80
      vertex 0 10 42.1
      vertex 0 9.7368 42.0834
    endloop
  endfacet
  facet normal -1 0 0
    outer loop
      vertex 0 0 80
      vertex 0 9.7368 42.0834
      vertex 0 9.47775 42.034
    endloop
  endfacet
  facet normal -1 0 0
    outer loop
      vertex 0 0 80
      vertex 0 9.47775 42.034
      vertex 0 9.22694 41.9525
    endloop
  endfacet
  facet normal -1 0 0
    outer loop
      vertex 0 0 80
      vertex 0 9.22694 41.9525
      vertex 0 8.98832 41.8402
    endloop
  endfacet
  facet normal -1 0 0
    outer loop
      vertex 0 0 80
      vertex 0 8.98832 41.8402
      vertex 0 8.76565 41.6989
    endloop
  endfacet
  facet normal -1 0 0
    outer loop
      vertex 0 0 80
      vertex 0 8.76565 41.6989
      vertex 0 8.56245 41.5308
    endloop
  endfacet
  facet normal -1 0 0
    outer loop
      vertex 0 0 80
      vertex 0 8.56245 41.5308
      vertex 0 8.38192 41.3386
    endloop
  endfacet
  facet normal -1 0 0
    outer loop
      vertex 0 0 80
      vertex 0 8.38192 41.3386
      vertex 0 8.22691 41.1252
    endloop
  endfacet
  facet normal -1 0 0
    outer loop
      vertex 0 0 80
      vertex 0 8.22691 41.1252
      vertex 0 8.09986 40.8941
    endloop
  endfacet
  facet normal -1 0 0
    outer loop
      vertex 0 0 80
      vertex 0 7.90414 40.1319
      vertex 0 0 0
    endloop
  endfacet
  facet normal -1 0 0
    outer loop
      vertex 0 10.2632 42.0834
      vertex 0 0 80
      vertex 0 24 80
    endloop
  endfacet
  facet normal -1 0 0
    outer loop
      vertex 0 8.00278 40.6489
      vertex 0 0 80
      vertex 0 8.09986 40.8941
    endloop
  endfacet
  facet normal -1 0 0
    outer loop
      vertex 0 7.9372 40.3935
      vertex 0 0 80
      vertex 0 8.00278 40.6489
    endloop
  endfacet
  facet normal -1 0 0
    outer loop
      vertex 0 7.90414 40.1319
      vertex 0 0 80
      vertex 0 7.9372 40.3935
    endloop
  endfacet
  facet normal -0 0 1
    outer loop
      vertex 20.5 13 80
      vertex 23.7 7 80
      vertex 23.7 13 80
    endloop
  endfacet
  facet normal 0 0 1
    outer loop
      vertex 23.7 7 80
      vertex 20.5 13 80
      vertex 20.5 7 80
    endloop
  endfacet
  facet normal -0 0 1
    outer loop
      vertex 23.7 20.2 80
      vertex 27 18.8 80
      vertex 27 24 80
    endloop
  endfacet
  facet normal 0 0 1
    outer loop
      vertex 23.7 13 80
      vertex 27 18.8 80
      vertex 23.7 20.2 80
    endloop
  endfacet
  facet normal 0 0 1
    outer loop
      vertex 23.7 7 80
      vertex 27 12.8 80
      vertex 23.7 13 80
    endloop
  endfacet
  facet normal 0 0 1
    outer loop
      vertex 27 18.8 80
      vertex 23.7 13 80
      vertex 27 12.8 80
    endloop
  endfacet
  facet normal 0 0 1
    outer loop
      vertex 27 24 80
      vertex 3.5 20.2 80
      vertex 23.7 20.2 80
    endloop
  endfacet
  facet normal -0 0 1
    outer loop
      vertex 0 24 80
      vertex 3.5 20.2 80
      vertex 27 24 80
    endloop
  endfacet
  facet normal 0 0 1
    outer loop
      vertex 0 0 80
      vertex 3.5 20.2 80
      vertex 0 24 80
    endloop
  endfacet
  facet normal 0 0 1
    outer loop
      vertex 3.5 20.2 80
      vertex 0 0 80
      vertex 3.5 0 80
    endloop
  endfacet
  facet normal 0 0 1
    outer loop
      vertex 33 12.8 80
      vertex 27 18.8 80
      vertex 27 12.8 80
    endloop
  endfacet
  facet normal 0 0 1
    outer loop
      vertex 27 12.8 80
      vertex 23.7 7 80
      vertex 27 7.62939e-07 80
    endloop
  endfacet
  facet normal 0 0 1
    outer loop
      vertex 23.7 0 80
      vertex 27 7.62939e-07 80
      vertex 23.7 7 80
    endloop
  endfacet
  facet normal 0 0 1
    outer loop
      vertex 27 7.62939e-07 80
      vertex 23.7 0 80
      vertex 27 0 80
    endloop
  endfacet
  facet normal 1 0 0
    outer loop
      vertex 27 7.62939e-07 80
      vertex 27 0 80
      vertex 27 7.62939e-07 2.84217e-15
    endloop
  endfacet
  facet normal 1 0 0
    outer loop
      vertex 27 7.62939e-07 2.84217e-15
      vertex 27 12.8 0
      vertex 27 12.8 1.69407e-22
    endloop
  endfacet
  facet normal 1 0 0
    outer loop
      vertex 27 7.62939e-07 2.84217e-15
      vertex 27 0 0
      vertex 27 12.8 0
    endloop
  endfacet
  facet normal 1 0 0
    outer loop
      vertex 27 0 0
      vertex 27 7.62939e-07 2.84217e-15
      vertex 27 0 80
    endloop
  endfacet
  facet normal 1 -0 0
    outer loop
      vertex 27 18.8 80
      vertex 27 24 0
      vertex 27 24 80
    endloop
  endfacet
  facet normal 1 0 0
    outer loop
      vertex 27 24 0
      vertex 27 18.8 80
      vertex 27 18.8 0
    endloop
  endfacet
  facet normal 0 0 -1
    outer loop
      vertex 3.5 0 0
      vertex 0 0 0
      vertex 3.5 20.2 0
    endloop
  endfacet
  facet normal 0 0 -1
    outer loop
      vertex 20.5 7 0
      vertex 23.7 13 0
      vertex 23.7 7 0
    endloop
  endfacet
  facet normal -0 0 -1
    outer loop
      vertex 23.7 13 0
      vertex 20.5 7 0
      vertex 20.5 13 0
    endloop
  endfacet
  facet normal 0 0 -1
    outer loop
      vertex 23.7 7 0
      vertex 27 12.8 0
      vertex 27 0 0
    endloop
  endfacet
  facet normal 0 0 -1
    outer loop
      vertex 23.7 13 0
      vertex 27 12.8 0
      vertex 23.7 7 0
    endloop
  endfacet
  facet normal 0 0 -1
    outer loop
      vertex 23.7 7 0
      vertex 27 0 0
      vertex 23.7 0 0
    endloop
  endfacet
  facet normal 0 0 -1
    outer loop
      vertex 27 12.8 0
      vertex 23.7 13 0
      vertex 27 18.8 0
    endloop
  endfacet
  facet normal 0 0 -1
    outer loop
      vertex 23.7 20.2 0
      vertex 27 18.8 0
      vertex 23.7 13 0
    endloop
  endfacet
  facet normal 0 0 -1
    outer loop
      vertex 27 18.8 0
      vertex 23.7 20.2 0
      vertex 27 24 0
    endloop
  endfacet
  facet normal 0 0 -1
    outer loop
      vertex 3.5 20.2 0
      vertex 27 24 0
      vertex 23.7 20.2 0
    endloop
  endfacet
  facet normal 0 0 -1
    outer loop
      vertex 3.5 20.2 0
      vertex 0 24 0
      vertex 27 24 0
    endloop
  endfacet
  facet normal 0 0 -1
    outer loop
      vertex 0 24 0
      vertex 3.5 20.2 0
      vertex 0 0 0
    endloop
  endfacet
  facet normal -0 0 -1
    outer loop
      vertex 33 12.8 0
      vertex 27 12.8 0
      vertex 27 18.8 0
    endloop
  endfacet
  facet normal 0 1 -0
    outer loop
      vertex 27 24 0
      vertex 0 24 80
      vertex 27 24 80
    endloop
  endfacet
  facet normal 0 1 0
    outer loop
      vertex 0 24 80
      vertex 27 24 0
      vertex 0 24 0
    endloop
  endfacet
  facet normal 1 0 0
    outer loop
      vertex 3.5 20.2 80
      vertex 3.5 12.0959 40.1319
      vertex 3.5 20.2 0
    endloop
  endfacet
  facet normal 1 0 0
    outer loop
      vertex 3.5 20.2 80
      vertex 3.5 12.0628 40.3935
      vertex 3.5 12.0959 40.1319
    endloop
  endfacet
  facet normal 1 0 0
    outer loop
      vertex 3.5 20.2 80
      vertex 3.5 11.9972 40.6489
      vertex 3.5 12.0628 40.3935
    endloop
  endfacet
  facet normal 1 0 0
    outer loop
      vertex 3.5 20.2 80
      vertex 3.5 11.9001 40.8941
      vertex 3.5 11.9972 40.6489
    endloop
  endfacet
  facet normal 1 0 0
    outer loop
      vertex 3.5 20.2 80
      vertex 3.5 11.7731 41.1252
      vertex 3.5 11.9001 40.8941
    endloop
  endfacet
  facet normal 1 0 0
    outer loop
      vertex 3.5 20.2 80
      vertex 3.5 11.6181 41.3386
      vertex 3.5 11.7731 41.1252
    endloop
  endfacet
  facet normal 1 0 0
    outer loop
      vertex 3.5 20.2 80
      vertex 3.5 11.4375 41.5308
      vertex 3.5 11.6181 41.3386
    endloop
  endfacet
  facet normal 1 0 0
    outer loop
      vertex 3.5 20.2 80
      vertex 3.5 11.2343 41.6989
      vertex 3.5 11.4375 41.5308
    endloop
  endfacet
  facet normal 1 0 0
    outer loop
      vertex 3.5 20.2 80
      vertex 3.5 11.0117 41.8402
      vertex 3.5 11.2343 41.6989
    endloop
  endfacet
  facet normal 1 0 0
    outer loop
      vertex 3.5 20.2 80
      vertex 3.5 10.7731 41.9525
      vertex 3.5 11.0117 41.8402
    endloop
  endfacet
  facet normal 1 0 0
    outer loop
      vertex 3.5 20.2 80
      vertex 3.5 10.5222 42.034
      vertex 3.5 10.7731 41.9525
    endloop
  endfacet
  facet normal 1 0 0
    outer loop
      vertex 3.5 20.2 80
      vertex 3.5 10.2632 42.0834
      vertex 3.5 10.5222 42.034
    endloop
  endfacet
  facet normal 1 0 0
    outer loop
      vertex 3.5 20.2 80
      vertex 3.5 10 42.1
      vertex 3.5 10.2632 42.0834
    endloop
  endfacet
  facet normal 1 -0 0
    outer loop
      vertex 3.5 0 80
      vertex 3.5 10 42.1
      vertex 3.5 20.2 80
    endloop
  endfacet
  facet normal 1 0 0
    outer loop
      vertex 3.5 10 42.1
      vertex 3.5 0 80
      vertex 3.5 9.7368 42.0834
    endloop
  endfacet
  facet normal 1 0 0
    outer loop
      vertex 3.5 9.7368 42.0834
      vertex 3.5 0 80
      vertex 3.5 9.47775 42.034
    endloop
  endfacet
  facet normal 1 0 0
    outer loop
      vertex 3.5 9.47775 42.034
      vertex 3.5 0 80
      vertex 3.5 9.22694 41.9525
    endloop
  endfacet
  facet normal 1 0 0
    outer loop
      vertex 3.5 9.22694 41.9525
      vertex 3.5 0 80
      vertex 3.5 8.98832 41.8402
    endloop
  endfacet
  facet normal 1 0 0
    outer loop
      vertex 3.5 8.98832 41.8402
      vertex 3.5 0 80
      vertex 3.5 8.76565 41.6989
    endloop
  endfacet
  facet normal 1 0 0
    outer loop
      vertex 3.5 8.76565 41.6989
      vertex 3.5 0 80
      vertex 3.5 8.56245 41.5308
    endloop
  endfacet
  facet normal 1 0 0
    outer loop
      vertex 3.5 8.56245 41.5308
      vertex 3.5 0 80
      vertex 3.5 8.38192 41.3386
    endloop
  endfacet
  facet normal 1 0 0
    outer loop
      vertex 3.5 8.38192 41.3386
      vertex 3.5 0 80
      vertex 3.5 8.22691 41.1252
    endloop
  endfacet
  facet normal 1 0 0
    outer loop
      vertex 3.5 8.22691 41.1252
      vertex 3.5 0 80
      vertex 3.5 8.09986 40.8941
    endloop
  endfacet
  facet normal 1 0 0
    outer loop
      vertex 3.5 7.90414 40.1319
      vertex 3.5 0 80
      vertex 3.5 7.90414 39.8681
    endloop
  endfacet
  facet normal 1 0 0
    outer loop
      vertex 3.5 7.9372 40.3935
      vertex 3.5 0 80
      vertex 3.5 7.90414 40.1319
    endloop
  endfacet
  facet normal 1 0 0
    outer loop
      vertex 3.5 8.00278 40.6489
      vertex 3.5 0 80
      vertex 3.5 7.9372 40.3935
    endloop
  endfacet
  facet normal 1 0 0
    outer loop
      vertex 3.5 8.09986 40.8941
      vertex 3.5 0 80
      vertex 3.5 8.00278 40.6489
    endloop
  endfacet
  facet normal 1 -0 0
    outer loop
      vertex 3.5 12.0959 39.8681
      vertex 3.5 20.2 0
      vertex 3.5 12.0959 40.1319
    endloop
  endfacet
  facet normal 1 -0 0
    outer loop
      vertex 3.5 12.0628 39.6065
      vertex 3.5 20.2 0
      vertex 3.5 12.0959 39.8681
    endloop
  endfacet
  facet normal 1 -0 0
    outer loop
      vertex 3.5 11.9972 39.3511
      vertex 3.5 20.2 0
      vertex 3.5 12.0628 39.6065
    endloop
  endfacet
  facet normal 1 -0 0
    outer loop
      vertex 3.5 11.9001 39.1059
      vertex 3.5 20.2 0
      vertex 3.5 11.9972 39.3511
    endloop
  endfacet
  facet normal 1 -0 0
    outer loop
      vertex 3.5 11.7731 38.8748
      vertex 3.5 20.2 0
      vertex 3.5 11.9001 39.1059
    endloop
  endfacet
  facet normal 1 -0 0
    outer loop
      vertex 3.5 11.6181 38.6614
      vertex 3.5 20.2 0
      vertex 3.5 11.7731 38.8748
    endloop
  endfacet
  facet normal 1 -0 0
    outer loop
      vertex 3.5 11.4375 38.4692
      vertex 3.5 20.2 0
      vertex 3.5 11.6181 38.6614
    endloop
  endfacet
  facet normal 1 -0 0
    outer loop
      vertex 3.5 11.2343 38.3011
      vertex 3.5 20.2 0
      vertex 3.5 11.4375 38.4692
    endloop
  endfacet
  facet normal 1 -0 0
    outer loop
      vertex 3.5 11.0117 38.1598
      vertex 3.5 20.2 0
      vertex 3.5 11.2343 38.3011
    endloop
  endfacet
  facet normal 1 -0 0
    outer loop
      vertex 3.5 10.7731 38.0475
      vertex 3.5 20.2 0
      vertex 3.5 11.0117 38.1598
    endloop
  endfacet
  facet normal 1 -0 0
    outer loop
      vertex 3.5 10.5222 37.966
      vertex 3.5 20.2 0
      vertex 3.5 10.7731 38.0475
    endloop
  endfacet
  facet normal 1 -0 0
    outer loop
      vertex 3.5 10.2632 37.9166
      vertex 3.5 20.2 0
      vertex 3.5 10.5222 37.966
    endloop
  endfacet
  facet normal 1 -0 0
    outer loop
      vertex 3.5 10 37.9
      vertex 3.5 20.2 0
      vertex 3.5 10.2632 37.9166
    endloop
  endfacet
  facet normal 1 0 0
    outer loop
      vertex 3.5 0 0
      vertex 3.5 10 37.9
      vertex 3.5 9.7368 37.9166
    endloop
  endfacet
  facet normal 1 0 0
    outer loop
      vertex 3.5 0 0
      vertex 3.5 9.7368 37.9166
      vertex 3.5 9.47775 37.966
    endloop
  endfacet
  facet normal 1 0 0
    outer loop
      vertex 3.5 0 0
      vertex 3.5 9.47775 37.966
      vertex 3.5 9.22694 38.0475
    endloop
  endfacet
  facet normal 1 0 0
    outer loop
      vertex 3.5 0 0
      vertex 3.5 9.22694 38.0475
      vertex 3.5 8.98832 38.1598
    endloop
  endfacet
  facet normal 1 0 0
    outer loop
      vertex 3.5 0 0
      vertex 3.5 8.98832 38.1598
      vertex 3.5 8.76565 38.3011
    endloop
  endfacet
  facet normal 1 0 0
    outer loop
      vertex 3.5 0 0
      vertex 3.5 8.76565 38.3011
      vertex 3.5 8.56245 38.4692
    endloop
  endfacet
  facet normal 1 0 0
    outer loop
      vertex 3.5 0 0
      vertex 3.5 8.56245 38.4692
      vertex 3.5 8.38192 38.6614
    endloop
  endfacet
  facet normal 1 0 0
    outer loop
      vertex 3.5 0 0
      vertex 3.5 8.38192 38.6614
      vertex 3.5 8.22691 38.8748
    endloop
  endfacet
  facet normal 1 0 0
    outer loop
      vertex 3.5 0 0
      vertex 3.5 8.22691 38.8748
      vertex 3.5 8.09986 39.1059
    endloop
  endfacet
  facet normal 1 0 0
    outer loop
      vertex 3.5 0 0
      vertex 3.5 8.09986 39.1059
      vertex 3.5 8.00278 39.3511
    endloop
  endfacet
  facet normal 1 0 0
    outer loop
      vertex 3.5 0 0
      vertex 3.5 7.90414 39.8681
      vertex 3.5 0 80
    endloop
  endfacet
  facet normal 1 0 0
    outer loop
      vertex 3.5 10 37.9
      vertex 3.5 0 0
      vertex 3.5 20.2 0
    endloop
  endfacet
  facet normal 1 0 0
    outer loop
      vertex 3.5 7.9372 39.6065
      vertex 3.5 0 0
      vertex 3.5 8.00278 39.3511
    endloop
  endfacet
  facet normal 1 0 0
    outer loop
      vertex 3.5 7.90414 39.8681
      vertex 3.5 0 0
      vertex 3.5 7.9372 39.6065
    endloop
  endfacet
  facet normal -1 0 0
    outer loop
      vertex 23.7 0 0
      vertex 23.7 7 80
      vertex 23.7 7 0
    endloop
  endfacet
  facet normal -1 -0 0
    outer loop
      vertex 23.7 7 80
      vertex 23.7 0 0
      vertex 23.7 0 80
    endloop
  endfacet
  facet normal -1 0 0
    outer loop
      vertex 23.7 13 0
      vertex 23.7 20.2 80
      vertex 23.7 20.2 0
    endloop
  endfacet
  facet normal -1 -0 0
    outer loop
      vertex 23.7 20.2 80
      vertex 23.7 13 0
      vertex 23.7 13 80
    endloop
  endfacet
  facet normal 0 -1 0
    outer loop
      vertex 3.5 20.2 0
      vertex 23.7 20.2 80
      vertex 3.5 20.2 80
    endloop
  endfacet
  facet normal 0 -1 -0
    outer loop
      vertex 23.7 20.2 80
      vertex 3.5 20.2 0
      vertex 23.7 20.2 0
    endloop
  endfacet
  facet normal 0 -1 0
    outer loop
      vertex 0 0 0
      vertex 3.5 0 80
      vertex 0 0 80
    endloop
  endfacet
  facet normal 0 -1 -0
    outer loop
      vertex 3.5 0 80
      vertex 0 0 0
      vertex 3.5 0 0
    endloop
  endfacet
  facet normal 0 -1 0
    outer loop
      vertex 23.7 0 0
      vertex 27 0 80
      vertex 23.7 0 80
    endloop
  endfacet
  facet normal 0 -1 -0
    outer loop
      vertex 27 0 80
      vertex 23.7 0 0
      vertex 27 0 0
    endloop
  endfacet
  facet normal 0 -0.187393 -0.982285
    outer loop
      vertex 0 10.2632 42.0834
      vertex 3.5 10.5222 42.034
      vertex 3.5 10.2632 42.0834
    endloop
  endfacet
  facet normal -0 -0.187393 -0.982285
    outer loop
      vertex 3.5 10.5222 42.034
      vertex 0 10.2632 42.0834
      vertex 0 10.5222 42.034
    endloop
  endfacet
  facet normal 0 -0.425775 0.904829
    outer loop
      vertex 0 11.0117 38.1598
      vertex 3.5 10.7731 38.0475
      vertex 3.5 11.0117 38.1598
    endloop
  endfacet
  facet normal 0 -0.425775 0.904829
    outer loop
      vertex 3.5 10.7731 38.0475
      vertex 0 11.0117 38.1598
      vertex 0 10.7731 38.0475
    endloop
  endfacet
  facet normal -0 0.187379 0.982288
    outer loop
      vertex 0 9.7368 37.9166
      vertex 3.5 9.47775 37.966
      vertex 3.5 9.7368 37.9166
    endloop
  endfacet
  facet normal 0 0.187379 0.982288
    outer loop
      vertex 3.5 9.47775 37.966
      vertex 0 9.7368 37.9166
      vertex 0 9.47775 37.966
    endloop
  endfacet
  facet normal 0 -0.809019 0.587783
    outer loop
      vertex 0 11.6181 38.6614
      vertex 3.5 11.7731 38.8748
      vertex 0 11.7731 38.8748
    endloop
  endfacet
  facet normal 0 -0.809019 0.587783
    outer loop
      vertex 3.5 11.7731 38.8748
      vertex 0 11.6181 38.6614
      vertex 3.5 11.6181 38.6614
    endloop
  endfacet
  facet normal 0 -0.87631 -0.481748
    outer loop
      vertex 0 11.9001 40.8941
      vertex 3.5 11.7731 41.1252
      vertex 0 11.7731 41.1252
    endloop
  endfacet
  facet normal 0 -0.87631 -0.481748
    outer loop
      vertex 3.5 11.7731 41.1252
      vertex 0 11.9001 40.8941
      vertex 3.5 11.9001 40.8941
    endloop
  endfacet
  facet normal 0 -0.309015 -0.951057
    outer loop
      vertex 0 10.5222 42.034
      vertex 3.5 10.7731 41.9525
      vertex 3.5 10.5222 42.034
    endloop
  endfacet
  facet normal -0 -0.309015 -0.951057
    outer loop
      vertex 3.5 10.7731 41.9525
      vertex 0 10.5222 42.034
      vertex 0 10.7731 41.9525
    endloop
  endfacet
  facet normal -0 0.535826 0.844328
    outer loop
      vertex 0 8.98832 38.1598
      vertex 3.5 8.76565 38.3011
      vertex 3.5 8.98832 38.1598
    endloop
  endfacet
  facet normal 0 0.535826 0.844328
    outer loop
      vertex 3.5 8.76565 38.3011
      vertex 0 8.98832 38.1598
      vertex 0 8.76565 38.3011
    endloop
  endfacet
  facet normal -0 0.309028 0.951053
    outer loop
      vertex 0 9.47775 37.966
      vertex 3.5 9.22694 38.0475
      vertex 3.5 9.47775 37.966
    endloop
  endfacet
  facet normal 0 0.309028 0.951053
    outer loop
      vertex 3.5 9.22694 38.0475
      vertex 0 9.47775 37.966
      vertex 0 9.22694 38.0475
    endloop
  endfacet
  facet normal 0 0.968583 -0.248691
    outer loop
      vertex 3.5 7.9372 40.3935
      vertex 0 8.00278 40.6489
      vertex 3.5 8.00278 40.6489
    endloop
  endfacet
  facet normal 0 0.968583 -0.248691
    outer loop
      vertex 0 8.00278 40.6489
      vertex 3.5 7.9372 40.3935
      vertex 0 7.9372 40.3935
    endloop
  endfacet
  facet normal 0 0.187393 -0.982285
    outer loop
      vertex 0 9.47775 42.034
      vertex 3.5 9.7368 42.0834
      vertex 3.5 9.47775 42.034
    endloop
  endfacet
  facet normal 0 0.187393 -0.982285
    outer loop
      vertex 3.5 9.7368 42.0834
      vertex 0 9.47775 42.034
      vertex 0 9.7368 42.0834
    endloop
  endfacet
  facet normal 0 -0.535826 0.844328
    outer loop
      vertex 0 11.2343 38.3011
      vertex 3.5 11.0117 38.1598
      vertex 3.5 11.2343 38.3011
    endloop
  endfacet
  facet normal 0 -0.535826 0.844328
    outer loop
      vertex 3.5 11.0117 38.1598
      vertex 0 11.2343 38.3011
      vertex 0 11.0117 38.1598
    endloop
  endfacet
  facet normal 0 -0.535826 -0.844328
    outer loop
      vertex 0 11.0117 41.8402
      vertex 3.5 11.2343 41.6989
      vertex 3.5 11.0117 41.8402
    endloop
  endfacet
  facet normal -0 -0.535826 -0.844328
    outer loop
      vertex 3.5 11.2343 41.6989
      vertex 0 11.0117 41.8402
      vertex 0 11.2343 41.6989
    endloop
  endfacet
  facet normal 0 -0.968583 -0.248691
    outer loop
      vertex 0 12.0628 40.3935
      vertex 3.5 11.9972 40.6489
      vertex 0 11.9972 40.6489
    endloop
  endfacet
  facet normal 0 -0.968583 -0.248691
    outer loop
      vertex 3.5 11.9972 40.6489
      vertex 0 12.0628 40.3935
      vertex 3.5 12.0628 40.3935
    endloop
  endfacet
  facet normal 0 -0.637425 -0.770513
    outer loop
      vertex 0 11.2343 41.6989
      vertex 3.5 11.4375 41.5308
      vertex 3.5 11.2343 41.6989
    endloop
  endfacet
  facet normal -0 -0.637425 -0.770513
    outer loop
      vertex 3.5 11.4375 41.5308
      vertex 0 11.2343 41.6989
      vertex 0 11.4375 41.5308
    endloop
  endfacet
  facet normal -0 0.0627779 0.998028
    outer loop
      vertex 0 10 37.9
      vertex 3.5 9.7368 37.9166
      vertex 3.5 10 37.9
    endloop
  endfacet
  facet normal 0 0.0627779 0.998028
    outer loop
      vertex 3.5 9.7368 37.9166
      vertex 0 10 37.9
      vertex 0 9.7368 37.9166
    endloop
  endfacet
  facet normal 0 0.929776 0.368125
    outer loop
      vertex 3.5 8.09986 39.1059
      vertex 0 8.00278 39.3511
      vertex 3.5 8.00278 39.3511
    endloop
  endfacet
  facet normal 0 0.929776 0.368125
    outer loop
      vertex 0 8.00278 39.3511
      vertex 3.5 8.09986 39.1059
      vertex 0 8.09986 39.1059
    endloop
  endfacet
  facet normal -0 0.425775 0.904829
    outer loop
      vertex 0 9.22694 38.0475
      vertex 3.5 8.98832 38.1598
      vertex 3.5 9.22694 38.0475
    endloop
  endfacet
  facet normal 0 0.425775 0.904829
    outer loop
      vertex 3.5 8.98832 38.1598
      vertex 0 9.22694 38.0475
      vertex 0 8.98832 38.1598
    endloop
  endfacet
  facet normal 0 1 -0
    outer loop
      vertex 3.5 7.90414 39.8681
      vertex 0 7.90414 40.1319
      vertex 3.5 7.90414 40.1319
    endloop
  endfacet
  facet normal 0 1 0
    outer loop
      vertex 0 7.90414 40.1319
      vertex 3.5 7.90414 39.8681
      vertex 0 7.90414 39.8681
    endloop
  endfacet
  facet normal 0 -0.187379 0.982288
    outer loop
      vertex 0 10.5222 37.966
      vertex 3.5 10.2632 37.9166
      vertex 3.5 10.5222 37.966
    endloop
  endfacet
  facet normal 0 -0.187379 0.982288
    outer loop
      vertex 3.5 10.2632 37.9166
      vertex 0 10.5222 37.966
      vertex 0 10.2632 37.9166
    endloop
  endfacet
  facet normal 0 -0.637425 0.770513
    outer loop
      vertex 0 11.4375 38.4692
      vertex 3.5 11.2343 38.3011
      vertex 3.5 11.4375 38.4692
    endloop
  endfacet
  facet normal 0 -0.637425 0.770513
    outer loop
      vertex 3.5 11.2343 38.3011
      vertex 0 11.4375 38.4692
      vertex 0 11.2343 38.3011
    endloop
  endfacet
  facet normal 0 -0.968584 0.248688
    outer loop
      vertex 0 11.9972 39.3511
      vertex 3.5 12.0628 39.6065
      vertex 0 12.0628 39.6065
    endloop
  endfacet
  facet normal 0 -0.968584 0.248688
    outer loop
      vertex 3.5 12.0628 39.6065
      vertex 0 11.9972 39.3511
      vertex 3.5 11.9972 39.3511
    endloop
  endfacet
  facet normal 0 -1 0
    outer loop
      vertex 0 12.0959 39.8681
      vertex 3.5 12.0959 40.1319
      vertex 0 12.0959 40.1319
    endloop
  endfacet
  facet normal 0 -1 -0
    outer loop
      vertex 3.5 12.0959 40.1319
      vertex 0 12.0959 39.8681
      vertex 3.5 12.0959 39.8681
    endloop
  endfacet
  facet normal 0 0.0627779 -0.998028
    outer loop
      vertex 0 9.7368 42.0834
      vertex 3.5 10 42.1
      vertex 3.5 9.7368 42.0834
    endloop
  endfacet
  facet normal 0 0.0627779 -0.998028
    outer loop
      vertex 3.5 10 42.1
      vertex 0 9.7368 42.0834
      vertex 0 10 42.1
    endloop
  endfacet
  facet normal 0 -0.0627781 -0.998028
    outer loop
      vertex 0 10 42.1
      vertex 3.5 10.2632 42.0834
      vertex 3.5 10 42.1
    endloop
  endfacet
  facet normal -0 -0.0627781 -0.998028
    outer loop
      vertex 3.5 10.2632 42.0834
      vertex 0 10 42.1
      vertex 0 10.2632 42.0834
    endloop
  endfacet
  facet normal 0 -0.425775 -0.904829
    outer loop
      vertex 0 10.7731 41.9525
      vertex 3.5 11.0117 41.8402
      vertex 3.5 10.7731 41.9525
    endloop
  endfacet
  facet normal -0 -0.425775 -0.904829
    outer loop
      vertex 3.5 11.0117 41.8402
      vertex 0 10.7731 41.9525
      vertex 0 11.0117 41.8402
    endloop
  endfacet
  facet normal 0 -0.929776 -0.368125
    outer loop
      vertex 0 11.9972 40.6489
      vertex 3.5 11.9001 40.8941
      vertex 0 11.9001 40.8941
    endloop
  endfacet
  facet normal 0 -0.929776 -0.368125
    outer loop
      vertex 3.5 11.9001 40.8941
      vertex 0 11.9972 40.6489
      vertex 3.5 11.9972 40.6489
    endloop
  endfacet
  facet normal 0 -0.992115 -0.125334
    outer loop
      vertex 0 12.0959 40.1319
      vertex 3.5 12.0628 40.3935
      vertex 0 12.0628 40.3935
    endloop
  endfacet
  facet normal 0 -0.992115 -0.125334
    outer loop
      vertex 3.5 12.0628 40.3935
      vertex 0 12.0959 40.1319
      vertex 3.5 12.0959 40.1319
    endloop
  endfacet
  facet normal 0 -0.728972 -0.684543
    outer loop
      vertex 0 11.6181 41.3386
      vertex 3.5 11.4375 41.5308
      vertex 0 11.4375 41.5308
    endloop
  endfacet
  facet normal 0 -0.728972 -0.684543
    outer loop
      vertex 3.5 11.4375 41.5308
      vertex 0 11.6181 41.3386
      vertex 3.5 11.6181 41.3386
    endloop
  endfacet
  facet normal 0 -0.809014 -0.58779
    outer loop
      vertex 0 11.7731 41.1252
      vertex 3.5 11.6181 41.3386
      vertex 0 11.6181 41.3386
    endloop
  endfacet
  facet normal 0 -0.809014 -0.58779
    outer loop
      vertex 3.5 11.6181 41.3386
      vertex 0 11.7731 41.1252
      vertex 3.5 11.7731 41.1252
    endloop
  endfacet
  facet normal 0 -0.0627781 0.998028
    outer loop
      vertex 0 10.2632 37.9166
      vertex 3.5 10 37.9
      vertex 3.5 10.2632 37.9166
    endloop
  endfacet
  facet normal 0 -0.0627781 0.998028
    outer loop
      vertex 3.5 10 37.9
      vertex 0 10.2632 37.9166
      vertex 0 10 37.9
    endloop
  endfacet
  facet normal 0 0.809019 0.587783
    outer loop
      vertex 3.5 8.38192 38.6614
      vertex 0 8.22691 38.8748
      vertex 3.5 8.22691 38.8748
    endloop
  endfacet
  facet normal 0 0.809019 0.587783
    outer loop
      vertex 0 8.22691 38.8748
      vertex 3.5 8.38192 38.6614
      vertex 0 8.38192 38.6614
    endloop
  endfacet
  facet normal 0 0.992115 0.125334
    outer loop
      vertex 3.5 7.9372 39.6065
      vertex 0 7.90414 39.8681
      vertex 3.5 7.90414 39.8681
    endloop
  endfacet
  facet normal 0 0.992115 0.125334
    outer loop
      vertex 0 7.90414 39.8681
      vertex 3.5 7.9372 39.6065
      vertex 0 7.9372 39.6065
    endloop
  endfacet
  facet normal -0 0.637425 0.770513
    outer loop
      vertex 0 8.76565 38.3011
      vertex 3.5 8.56245 38.4692
      vertex 3.5 8.76565 38.3011
    endloop
  endfacet
  facet normal 0 0.637425 0.770513
    outer loop
      vertex 3.5 8.56245 38.4692
      vertex 0 8.76565 38.3011
      vertex 0 8.56245 38.4692
    endloop
  endfacet
  facet normal 0 0.968584 0.248688
    outer loop
      vertex 3.5 8.00278 39.3511
      vertex 0 7.9372 39.6065
      vertex 3.5 7.9372 39.6065
    endloop
  endfacet
  facet normal 0 0.968584 0.248688
    outer loop
      vertex 0 7.9372 39.6065
      vertex 3.5 8.00278 39.3511
      vertex 0 8.00278 39.3511
    endloop
  endfacet
  facet normal 0 0.929776 -0.368125
    outer loop
      vertex 3.5 8.00278 40.6489
      vertex 0 8.09986 40.8941
      vertex 3.5 8.09986 40.8941
    endloop
  endfacet
  facet normal 0 0.929776 -0.368125
    outer loop
      vertex 0 8.09986 40.8941
      vertex 3.5 8.00278 40.6489
      vertex 0 8.00278 40.6489
    endloop
  endfacet
  facet normal 0 0.425775 -0.904829
    outer loop
      vertex 0 8.98832 41.8402
      vertex 3.5 9.22694 41.9525
      vertex 3.5 8.98832 41.8402
    endloop
  endfacet
  facet normal 0 0.425775 -0.904829
    outer loop
      vertex 3.5 9.22694 41.9525
      vertex 0 8.98832 41.8402
      vertex 0 9.22694 41.9525
    endloop
  endfacet
  facet normal 0 0.309015 -0.951057
    outer loop
      vertex 0 9.22694 41.9525
      vertex 3.5 9.47775 42.034
      vertex 3.5 9.22694 41.9525
    endloop
  endfacet
  facet normal 0 0.309015 -0.951057
    outer loop
      vertex 3.5 9.47775 42.034
      vertex 0 9.22694 41.9525
      vertex 0 9.47775 42.034
    endloop
  endfacet
  facet normal 0 -0.309028 0.951053
    outer loop
      vertex 0 10.7731 38.0475
      vertex 3.5 10.5222 37.966
      vertex 3.5 10.7731 38.0475
    endloop
  endfacet
  facet normal 0 -0.309028 0.951053
    outer loop
      vertex 3.5 10.5222 37.966
      vertex 0 10.7731 38.0475
      vertex 0 10.5222 37.966
    endloop
  endfacet
  facet normal 0 -0.728965 0.684551
    outer loop
      vertex 0 11.4375 38.4692
      vertex 3.5 11.6181 38.6614
      vertex 0 11.6181 38.6614
    endloop
  endfacet
  facet normal 0 -0.728965 0.684551
    outer loop
      vertex 3.5 11.6181 38.6614
      vertex 0 11.4375 38.4692
      vertex 3.5 11.4375 38.4692
    endloop
  endfacet
  facet normal 0 -0.929776 0.368125
    outer loop
      vertex 0 11.9001 39.1059
      vertex 3.5 11.9972 39.3511
      vertex 0 11.9972 39.3511
    endloop
  endfacet
  facet normal 0 -0.929776 0.368125
    outer loop
      vertex 3.5 11.9972 39.3511
      vertex 0 11.9001 39.1059
      vertex 3.5 11.9001 39.1059
    endloop
  endfacet
  facet normal 0 -0.876306 0.481754
    outer loop
      vertex 0 11.7731 38.8748
      vertex 3.5 11.9001 39.1059
      vertex 0 11.9001 39.1059
    endloop
  endfacet
  facet normal 0 -0.876306 0.481754
    outer loop
      vertex 3.5 11.9001 39.1059
      vertex 0 11.7731 38.8748
      vertex 3.5 11.7731 38.8748
    endloop
  endfacet
  facet normal 0 -0.992115 0.125334
    outer loop
      vertex 0 12.0628 39.6065
      vertex 3.5 12.0959 39.8681
      vertex 0 12.0959 39.8681
    endloop
  endfacet
  facet normal 0 -0.992115 0.125334
    outer loop
      vertex 3.5 12.0959 39.8681
      vertex 0 12.0628 39.6065
      vertex 3.5 12.0628 39.6065
    endloop
  endfacet
  facet normal 0 0.728965 0.684551
    outer loop
      vertex 3.5 8.56245 38.4692
      vertex 0 8.38192 38.6614
      vertex 3.5 8.38192 38.6614
    endloop
  endfacet
  facet normal 0 0.728965 0.684551
    outer loop
      vertex 0 8.38192 38.6614
      vertex 3.5 8.56245 38.4692
      vertex 0 8.56245 38.4692
    endloop
  endfacet
  facet normal 0 0.876306 0.481754
    outer loop
      vertex 3.5 8.22691 38.8748
      vertex 0 8.09986 39.1059
      vertex 3.5 8.09986 39.1059
    endloop
  endfacet
  facet normal 0 0.876306 0.481754
    outer loop
      vertex 0 8.09986 39.1059
      vertex 3.5 8.22691 38.8748
      vertex 0 8.22691 38.8748
    endloop
  endfacet
  facet normal 0 0.87631 -0.481748
    outer loop
      vertex 3.5 8.09986 40.8941
      vertex 0 8.22691 41.1252
      vertex 3.5 8.22691 41.1252
    endloop
  endfacet
  facet normal 0 0.87631 -0.481748
    outer loop
      vertex 0 8.22691 41.1252
      vertex 3.5 8.09986 40.8941
      vertex 0 8.09986 40.8941
    endloop
  endfacet
  facet normal 0 0.992115 -0.125334
    outer loop
      vertex 3.5 7.90414 40.1319
      vertex 0 7.9372 40.3935
      vertex 3.5 7.9372 40.3935
    endloop
  endfacet
  facet normal 0 0.992115 -0.125334
    outer loop
      vertex 0 7.9372 40.3935
      vertex 3.5 7.90414 40.1319
      vertex 0 7.90414 40.1319
    endloop
  endfacet
  facet normal 0 0.728972 -0.684543
    outer loop
      vertex 3.5 8.38192 41.3386
      vertex 0 8.56245 41.5308
      vertex 3.5 8.56245 41.5308
    endloop
  endfacet
  facet normal 0 0.728972 -0.684543
    outer loop
      vertex 0 8.56245 41.5308
      vertex 3.5 8.38192 41.3386
      vertex 0 8.38192 41.3386
    endloop
  endfacet
  facet normal 0 0.809014 -0.58779
    outer loop
      vertex 3.5 8.22691 41.1252
      vertex 0 8.38192 41.3386
      vertex 3.5 8.38192 41.3386
    endloop
  endfacet
  facet normal 0 0.809014 -0.58779
    outer loop
      vertex 0 8.38192 41.3386
      vertex 3.5 8.22691 41.1252
      vertex 0 8.22691 41.1252
    endloop
  endfacet
  facet normal 0 0.535826 -0.844328
    outer loop
      vertex 0 8.76565 41.6989
      vertex 3.5 8.98832 41.8402
      vertex 3.5 8.76565 41.6989
    endloop
  endfacet
  facet normal 0 0.535826 -0.844328
    outer loop
      vertex 3.5 8.98832 41.8402
      vertex 0 8.76565 41.6989
      vertex 0 8.98832 41.8402
    endloop
  endfacet
  facet normal 0 0.637425 -0.770513
    outer loop
      vertex 0 8.56245 41.5308
      vertex 3.5 8.76565 41.6989
      vertex 3.5 8.56245 41.5308
    endloop
  endfacet
  facet normal 0 0.637425 -0.770513
    outer loop
      vertex 3.5 8.76565 41.6989
      vertex 0 8.56245 41.5308
      vertex 0 8.76565 41.6989
    endloop
  endfacet
  facet normal -0 0 1
    outer loop
      vertex 27 12.8 80
      vertex 33 6.8 80
      vertex 33 12.8 80
    endloop
  endfacet
  facet normal 0 0 1
    outer loop
      vertex 27 7.62939e-07 80
      vertex 33 6.8 80
      vertex 27 12.8 80
    endloop
  endfacet
  facet normal 0 0 1
    outer loop
      vertex 33 6.8 80
      vertex 27 7.62939e-07 80
      vertex 33 7.62939e-07 80
    endloop
  endfacet
  facet normal 0.722873 -0 0.690981
    outer loop
      vertex 33 7.62939e-07 80
      vertex 65.5 6.8 46
      vertex 33 6.8 80
    endloop
  endfacet
  facet normal 0.722873 0 0.690981
    outer loop
      vertex 65.5 6.8 46
      vertex 33 7.62939e-07 80
      vertex 65.5 7.62939e-07 46
    endloop
  endfacet
  facet normal 1 -0 0
    outer loop
      vertex 65.5 7.62939e-07 46
      vertex 65.5 6.8 34
      vertex 65.5 6.8 46
    endloop
  endfacet
  facet normal 1 0 0
    outer loop
      vertex 65.5 6.8 34
      vertex 65.5 7.62939e-07 46
      vertex 65.5 7.62939e-07 34
    endloop
  endfacet
  facet normal 0 -2.22045e-16 -1
    outer loop
      vertex 27 7.62939e-07 2.84217e-15
      vertex 33 6.8 1.33227e-15
      vertex 33 7.62939e-07 2.84217e-15
    endloop
  endfacet
  facet normal 7.05861e-24 -2.22045e-16 -1
    outer loop
      vertex 27 12.8 1.69407e-22
      vertex 33 6.8 1.33227e-15
      vertex 27 7.62939e-07 2.84217e-15
    endloop
  endfacet
  facet normal 0 -2.22045e-16 -1
    outer loop
      vertex 33 6.8 1.33227e-15
      vertex 27 12.8 1.69407e-22
      vertex 33 12.8 1.69407e-22
    endloop
  endfacet
  facet normal 0 -1 0
    outer loop
      vertex 42.5069 7.62939e-07 42.1953
      vertex 33 7.62939e-07 80
      vertex 27 7.62939e-07 80
    endloop
  endfacet
  facet normal 0 -1 0
    outer loop
      vertex 33 7.62939e-07 80
      vertex 43.7367 7.62939e-07 42.5949
      vertex 44.0633 7.62939e-07 42.5949
    endloop
  endfacet
  facet normal 0 -1 0
    outer loop
      vertex 33 7.62939e-07 80
      vertex 43.4128 7.62939e-07 42.5539
      vertex 43.7367 7.62939e-07 42.5949
    endloop
  endfacet
  facet normal 0 -1 0
    outer loop
      vertex 33 7.62939e-07 80
      vertex 43.0966 7.62939e-07 42.4727
      vertex 43.4128 7.62939e-07 42.5539
    endloop
  endfacet
  facet normal 0 -1 0
    outer loop
      vertex 33 7.62939e-07 80
      vertex 42.793 7.62939e-07 42.3526
      vertex 43.0966 7.62939e-07 42.4727
    endloop
  endfacet
  facet normal 0 -1 0
    outer loop
      vertex 33 7.62939e-07 80
      vertex 42.5069 7.62939e-07 42.1953
      vertex 42.793 7.62939e-07 42.3526
    endloop
  endfacet
  facet normal 0 -1 0
    outer loop
      vertex 27 7.62939e-07 80
      vertex 42.2427 7.62939e-07 42.0033
      vertex 42.5069 7.62939e-07 42.1953
    endloop
  endfacet
  facet normal 0 -1 0
    outer loop
      vertex 27 7.62939e-07 80
      vertex 42.0047 7.62939e-07 41.7798
      vertex 42.2427 7.62939e-07 42.0033
    endloop
  endfacet
  facet normal 0 -1 0
    outer loop
      vertex 27 7.62939e-07 80
      vertex 41.7966 7.62939e-07 41.5282
      vertex 42.0047 7.62939e-07 41.7798
    endloop
  endfacet
  facet normal 0 -1 0
    outer loop
      vertex 27 7.62939e-07 80
      vertex 41.6216 7.62939e-07 41.2526
      vertex 41.7966 7.62939e-07 41.5282
    endloop
  endfacet
  facet normal 0 -1 0
    outer loop
      vertex 27 7.62939e-07 80
      vertex 41.4826 7.62939e-07 40.9571
      vertex 41.6216 7.62939e-07 41.2526
    endloop
  endfacet
  facet normal 0 -1 0
    outer loop
      vertex 27 7.62939e-07 80
      vertex 41.3817 7.62939e-07 40.6466
      vertex 41.4826 7.62939e-07 40.9571
    endloop
  endfacet
  facet normal 0 -1 0
    outer loop
      vertex 27 7.62939e-07 80
      vertex 41.3205 7.62939e-07 40.3259
      vertex 41.3817 7.62939e-07 40.6466
    endloop
  endfacet
  facet normal 0 -1 0
    outer loop
      vertex 27 7.62939e-07 80
      vertex 41.3 7.62939e-07 40
      vertex 41.3205 7.62939e-07 40.3259
    endloop
  endfacet
  facet normal 0 -1 0
    outer loop
      vertex 27 7.62939e-07 2.84217e-15
      vertex 41.3 7.62939e-07 40
      vertex 27 7.62939e-07 80
    endloop
  endfacet
  facet normal 0 -1 -0
    outer loop
      vertex 41.3 7.62939e-07 40
      vertex 27 7.62939e-07 2.84217e-15
      vertex 41.3205 7.62939e-07 39.6741
    endloop
  endfacet
  facet normal 0 -1 -0
    outer loop
      vertex 41.3205 7.62939e-07 39.6741
      vertex 27 7.62939e-07 2.84217e-15
      vertex 41.3817 7.62939e-07 39.3534
    endloop
  endfacet
  facet normal 0 -1 0
    outer loop
      vertex 33 7.62939e-07 2.84217e-15
      vertex 44.0633 7.62939e-07 37.4051
      vertex 43.7367 7.62939e-07 37.4051
    endloop
  endfacet
  facet normal 0 -1 0
    outer loop
      vertex 33 7.62939e-07 2.84217e-15
      vertex 43.7367 7.62939e-07 37.4051
      vertex 43.4128 7.62939e-07 37.4461
    endloop
  endfacet
  facet normal 0 -1 -0
    outer loop
      vertex 41.3817 7.62939e-07 39.3534
      vertex 27 7.62939e-07 2.84217e-15
      vertex 41.4826 7.62939e-07 39.0429
    endloop
  endfacet
  facet normal 0 -1 0
    outer loop
      vertex 27 7.62939e-07 2.84217e-15
      vertex 41.6216 7.62939e-07 38.7474
      vertex 41.4826 7.62939e-07 39.0429
    endloop
  endfacet
  facet normal 0 -1 0
    outer loop
      vertex 27 7.62939e-07 2.84217e-15
      vertex 41.7966 7.62939e-07 38.4718
      vertex 41.6216 7.62939e-07 38.7474
    endloop
  endfacet
  facet normal 0 -1 0
    outer loop
      vertex 27 7.62939e-07 2.84217e-15
      vertex 42.0047 7.62939e-07 38.2202
      vertex 41.7966 7.62939e-07 38.4718
    endloop
  endfacet
  facet normal 0 -1 0
    outer loop
      vertex 27 7.62939e-07 2.84217e-15
      vertex 42.2427 7.62939e-07 37.9967
      vertex 42.0047 7.62939e-07 38.2202
    endloop
  endfacet
  facet normal 0 -1 0
    outer loop
      vertex 27 7.62939e-07 2.84217e-15
      vertex 42.5069 7.62939e-07 37.8047
      vertex 42.2427 7.62939e-07 37.9967
    endloop
  endfacet
  facet normal 0 -1 0
    outer loop
      vertex 33 7.62939e-07 2.84217e-15
      vertex 42.5069 7.62939e-07 37.8047
      vertex 27 7.62939e-07 2.84217e-15
    endloop
  endfacet
  facet normal 0 -1 -0
    outer loop
      vertex 42.5069 7.62939e-07 37.8047
      vertex 33 7.62939e-07 2.84217e-15
      vertex 42.793 7.62939e-07 37.6474
    endloop
  endfacet
  facet normal 0 -1 -0
    outer loop
      vertex 42.793 7.62939e-07 37.6474
      vertex 33 7.62939e-07 2.84217e-15
      vertex 43.0966 7.62939e-07 37.5273
    endloop
  endfacet
  facet normal 0 -1 -0
    outer loop
      vertex 43.0966 7.62939e-07 37.5273
      vertex 33 7.62939e-07 2.84217e-15
      vertex 43.4128 7.62939e-07 37.4461
    endloop
  endfacet
  facet normal 0 -1 -0
    outer loop
      vertex 44.0633 7.62939e-07 37.4051
      vertex 33 7.62939e-07 2.84217e-15
      vertex 65.5 7.62939e-07 34
    endloop
  endfacet
  facet normal 0 -1 0
    outer loop
      vertex 33 7.62939e-07 80
      vertex 44.0633 7.62939e-07 42.5949
      vertex 44.3872 7.62939e-07 42.5539
    endloop
  endfacet
  facet normal 0 -1 0
    outer loop
      vertex 44.7034 7.62939e-07 42.4727
      vertex 33 7.62939e-07 80
      vertex 44.3872 7.62939e-07 42.5539
    endloop
  endfacet
  facet normal 0 -1 0
    outer loop
      vertex 33 7.62939e-07 80
      vertex 44.7034 7.62939e-07 42.4727
      vertex 65.5 7.62939e-07 46
    endloop
  endfacet
  facet normal 0 -1 0
    outer loop
      vertex 45.007 7.62939e-07 42.3526
      vertex 65.5 7.62939e-07 46
      vertex 44.7034 7.62939e-07 42.4727
    endloop
  endfacet
  facet normal 0 -1 0
    outer loop
      vertex 45.2931 7.62939e-07 42.1953
      vertex 65.5 7.62939e-07 46
      vertex 45.007 7.62939e-07 42.3526
    endloop
  endfacet
  facet normal 0 -1 0
    outer loop
      vertex 45.5573 7.62939e-07 42.0033
      vertex 65.5 7.62939e-07 46
      vertex 45.2931 7.62939e-07 42.1953
    endloop
  endfacet
  facet normal 0 -1 0
    outer loop
      vertex 45.7953 7.62939e-07 41.7798
      vertex 65.5 7.62939e-07 46
      vertex 45.5573 7.62939e-07 42.0033
    endloop
  endfacet
  facet normal 0 -1 0
    outer loop
      vertex 46.0034 7.62939e-07 41.5282
      vertex 65.5 7.62939e-07 46
      vertex 45.7953 7.62939e-07 41.7798
    endloop
  endfacet
  facet normal 0 -1 0
    outer loop
      vertex 46.1784 7.62939e-07 41.2526
      vertex 65.5 7.62939e-07 46
      vertex 46.0034 7.62939e-07 41.5282
    endloop
  endfacet
  facet normal 0 -1 0
    outer loop
      vertex 46.3174 7.62939e-07 40.9571
      vertex 65.5 7.62939e-07 46
      vertex 46.1784 7.62939e-07 41.2526
    endloop
  endfacet
  facet normal 0 -1 0
    outer loop
      vertex 46.4183 7.62939e-07 40.6466
      vertex 65.5 7.62939e-07 46
      vertex 46.3174 7.62939e-07 40.9571
    endloop
  endfacet
  facet normal 0 -1 0
    outer loop
      vertex 46.4795 7.62939e-07 40.3259
      vertex 65.5 7.62939e-07 46
      vertex 46.4183 7.62939e-07 40.6466
    endloop
  endfacet
  facet normal 0 -1 0
    outer loop
      vertex 46.5 7.62939e-07 40
      vertex 65.5 7.62939e-07 46
      vertex 46.4795 7.62939e-07 40.3259
    endloop
  endfacet
  facet normal 0 -1 0
    outer loop
      vertex 65.5 7.62939e-07 34
      vertex 46.5 7.62939e-07 40
      vertex 46.4795 7.62939e-07 39.6741
    endloop
  endfacet
  facet normal 0 -1 0
    outer loop
      vertex 65.5 7.62939e-07 34
      vertex 46.4795 7.62939e-07 39.6741
      vertex 46.4183 7.62939e-07 39.3534
    endloop
  endfacet
  facet normal 0 -1 0
    outer loop
      vertex 65.5 7.62939e-07 34
      vertex 46.4183 7.62939e-07 39.3534
      vertex 46.3174 7.62939e-07 39.0429
    endloop
  endfacet
  facet normal 0 -1 0
    outer loop
      vertex 65.5 7.62939e-07 34
      vertex 46.3174 7.62939e-07 39.0429
      vertex 46.1784 7.62939e-07 38.7474
    endloop
  endfacet
  facet normal 0 -1 0
    outer loop
      vertex 65.5 7.62939e-07 34
      vertex 46.1784 7.62939e-07 38.7474
      vertex 46.0034 7.62939e-07 38.4718
    endloop
  endfacet
  facet normal 0 -1 0
    outer loop
      vertex 65.5 7.62939e-07 34
      vertex 46.0034 7.62939e-07 38.4718
      vertex 45.7953 7.62939e-07 38.2202
    endloop
  endfacet
  facet normal 0 -1 0
    outer loop
      vertex 65.5 7.62939e-07 34
      vertex 45.7953 7.62939e-07 38.2202
      vertex 45.5573 7.62939e-07 37.9967
    endloop
  endfacet
  facet normal 0 -1 0
    outer loop
      vertex 65.5 7.62939e-07 34
      vertex 45.5573 7.62939e-07 37.9967
      vertex 45.2931 7.62939e-07 37.8047
    endloop
  endfacet
  facet normal 0 -1 0
    outer loop
      vertex 65.5 7.62939e-07 34
      vertex 45.2931 7.62939e-07 37.8047
      vertex 45.007 7.62939e-07 37.6474
    endloop
  endfacet
  facet normal 0 -1 0
    outer loop
      vertex 46.5 7.62939e-07 40
      vertex 65.5 7.62939e-07 34
      vertex 65.5 7.62939e-07 46
    endloop
  endfacet
  facet normal 0 -1 0
    outer loop
      vertex 44.7034 7.62939e-07 37.5273
      vertex 65.5 7.62939e-07 34
      vertex 45.007 7.62939e-07 37.6474
    endloop
  endfacet
  facet normal 0 -1 0
    outer loop
      vertex 44.3872 7.62939e-07 37.4461
      vertex 65.5 7.62939e-07 34
      vertex 44.7034 7.62939e-07 37.5273
    endloop
  endfacet
  facet normal 0 -1 0
    outer loop
      vertex 65.5 7.62939e-07 34
      vertex 44.3872 7.62939e-07 37.4461
      vertex 44.0633 7.62939e-07 37.4051
    endloop
  endfacet
  facet normal 0 1 0
    outer loop
      vertex 33 12.8 80
      vertex 44.3872 12.8 42.5539
      vertex 44.0633 12.8 42.5949
    endloop
  endfacet
  facet normal 0 1 0
    outer loop
      vertex 33 12.8 80
      vertex 44.7034 12.8 42.4727
      vertex 44.3872 12.8 42.5539
    endloop
  endfacet
  facet normal 0 1 0
    outer loop
      vertex 68.5 12.8 46
      vertex 45.007 12.8 42.3526
      vertex 44.7034 12.8 42.4727
    endloop
  endfacet
  facet normal 0 1 0
    outer loop
      vertex 68.5 12.8 46
      vertex 45.2931 12.8 42.1953
      vertex 45.007 12.8 42.3526
    endloop
  endfacet
  facet normal 0 1 0
    outer loop
      vertex 68.5 12.8 46
      vertex 45.5573 12.8 42.0033
      vertex 45.2931 12.8 42.1953
    endloop
  endfacet
  facet normal 0 1 0
    outer loop
      vertex 68.5 12.8 46
      vertex 45.7953 12.8 41.7798
      vertex 45.5573 12.8 42.0033
    endloop
  endfacet
  facet normal 0 1 0
    outer loop
      vertex 68.5 12.8 46
      vertex 46.0034 12.8 41.5282
      vertex 45.7953 12.8 41.7798
    endloop
  endfacet
  facet normal 0 1 0
    outer loop
      vertex 68.5 12.8 46
      vertex 46.1784 12.8 41.2526
      vertex 46.0034 12.8 41.5282
    endloop
  endfacet
  facet normal 0 1 0
    outer loop
      vertex 68.5 12.8 46
      vertex 46.3174 12.8 40.9571
      vertex 46.1784 12.8 41.2526
    endloop
  endfacet
  facet normal 0 1 0
    outer loop
      vertex 68.5 12.8 46
      vertex 46.4183 12.8 40.6466
      vertex 46.3174 12.8 40.9571
    endloop
  endfacet
  facet normal 0 1 0
    outer loop
      vertex 68.5 12.8 46
      vertex 46.4795 12.8 40.3259
      vertex 46.4183 12.8 40.6466
    endloop
  endfacet
  facet normal 0 1 0
    outer loop
      vertex 68.5 12.8 46
      vertex 46.5 12.8 40
      vertex 46.4795 12.8 40.3259
    endloop
  endfacet
  facet normal 0 1 -0
    outer loop
      vertex 68.5 12.8 34
      vertex 46.5 12.8 40
      vertex 68.5 12.8 46
    endloop
  endfacet
  facet normal 0 1 0
    outer loop
      vertex 46.5 12.8 40
      vertex 68.5 12.8 34
      vertex 46.4795 12.8 39.6741
    endloop
  endfacet
  facet normal 0 1 0
    outer loop
      vertex 46.4795 12.8 39.6741
      vertex 68.5 12.8 34
      vertex 46.4183 12.8 39.3534
    endloop
  endfacet
  facet normal 0 1 0
    outer loop
      vertex 46.4183 12.8 39.3534
      vertex 68.5 12.8 34
      vertex 46.3174 12.8 39.0429
    endloop
  endfacet
  facet normal 0 1 0
    outer loop
      vertex 46.3174 12.8 39.0429
      vertex 68.5 12.8 34
      vertex 46.1784 12.8 38.7474
    endloop
  endfacet
  facet normal 0 1 0
    outer loop
      vertex 46.1784 12.8 38.7474
      vertex 68.5 12.8 34
      vertex 46.0034 12.8 38.4718
    endloop
  endfacet
  facet normal 0 1 0
    outer loop
      vertex 46.0034 12.8 38.4718
      vertex 68.5 12.8 34
      vertex 45.7953 12.8 38.2202
    endloop
  endfacet
  facet normal 0 1 0
    outer loop
      vertex 45.7953 12.8 38.2202
      vertex 68.5 12.8 34
      vertex 45.5573 12.8 37.9967
    endloop
  endfacet
  facet normal 0 1 0
    outer loop
      vertex 45.5573 12.8 37.9967
      vertex 68.5 12.8 34
      vertex 45.2931 12.8 37.8047
    endloop
  endfacet
  facet normal 0 1 0
    outer loop
      vertex 45.2931 12.8 37.8047
      vertex 68.5 12.8 34
      vertex 45.007 12.8 37.6474
    endloop
  endfacet
  facet normal 0 1 0
    outer loop
      vertex 44.3872 12.8 37.4461
      vertex 33 12.8 0
      vertex 44.0633 12.8 37.4051
    endloop
  endfacet
  facet normal 0 1 0
    outer loop
      vertex 44.7034 12.8 37.5273
      vertex 33 12.8 0
      vertex 44.3872 12.8 37.4461
    endloop
  endfacet
  facet normal 0 1 0
    outer loop
      vertex 33 12.8 0
      vertex 44.7034 12.8 37.5273
      vertex 68.5 12.8 34
    endloop
  endfacet
  facet normal 0 1 0
    outer loop
      vertex 45.007 12.8 37.6474
      vertex 68.5 12.8 34
      vertex 44.7034 12.8 37.5273
    endloop
  endfacet
  facet normal 0 1 -0
    outer loop
      vertex 44.7034 12.8 42.4727
      vertex 33 12.8 80
      vertex 68.5 12.8 46
    endloop
  endfacet
  facet normal 0 1 -0
    outer loop
      vertex 43.7367 12.8 42.5949
      vertex 33 12.8 80
      vertex 44.0633 12.8 42.5949
    endloop
  endfacet
  facet normal 0 1 -0
    outer loop
      vertex 43.4128 12.8 42.5539
      vertex 33 12.8 80
      vertex 43.7367 12.8 42.5949
    endloop
  endfacet
  facet normal 0 1 -0
    outer loop
      vertex 43.0966 12.8 42.4727
      vertex 33 12.8 80
      vertex 43.4128 12.8 42.5539
    endloop
  endfacet
  facet normal 0 1 -0
    outer loop
      vertex 42.793 12.8 42.3526
      vertex 33 12.8 80
      vertex 43.0966 12.8 42.4727
    endloop
  endfacet
  facet normal 0 1 -0
    outer loop
      vertex 42.5069 12.8 42.1953
      vertex 33 12.8 80
      vertex 42.793 12.8 42.3526
    endloop
  endfacet
  facet normal 0 1 -0
    outer loop
      vertex 42.2427 12.8 42.0033
      vertex 33 12.8 80
      vertex 42.5069 12.8 42.1953
    endloop
  endfacet
  facet normal 0 1 -0
    outer loop
      vertex 42.0047 12.8 41.7798
      vertex 33 12.8 80
      vertex 42.2427 12.8 42.0033
    endloop
  endfacet
  facet normal 0 1 -0
    outer loop
      vertex 41.7966 12.8 41.5282
      vertex 33 12.8 80
      vertex 42.0047 12.8 41.7798
    endloop
  endfacet
  facet normal 0 1 -0
    outer loop
      vertex 41.6216 12.8 41.2526
      vertex 33 12.8 80
      vertex 41.7966 12.8 41.5282
    endloop
  endfacet
  facet normal 0 1 -0
    outer loop
      vertex 41.4826 12.8 40.9571
      vertex 33 12.8 80
      vertex 41.6216 12.8 41.2526
    endloop
  endfacet
  facet normal 0 1 -0
    outer loop
      vertex 41.3817 12.8 40.6466
      vertex 33 12.8 80
      vertex 41.4826 12.8 40.9571
    endloop
  endfacet
  facet normal 0 1 -0
    outer loop
      vertex 41.3205 12.8 40.3259
      vertex 33 12.8 80
      vertex 41.3817 12.8 40.6466
    endloop
  endfacet
  facet normal 0 1 -0
    outer loop
      vertex 41.3 12.8 40
      vertex 33 12.8 80
      vertex 41.3205 12.8 40.3259
    endloop
  endfacet
  facet normal 0 1 0
    outer loop
      vertex 33 12.8 0
      vertex 41.3 12.8 40
      vertex 41.3205 12.8 39.6741
    endloop
  endfacet
  facet normal 0 1 0
    outer loop
      vertex 33 12.8 0
      vertex 41.3205 12.8 39.6741
      vertex 41.3817 12.8 39.3534
    endloop
  endfacet
  facet normal 0 1 0
    outer loop
      vertex 44.0633 12.8 37.4051
      vertex 33 12.8 0
      vertex 43.7367 12.8 37.4051
    endloop
  endfacet
  facet normal 0 1 0
    outer loop
      vertex 41.3 12.8 40
      vertex 33 12.8 0
      vertex 33 12.8 80
    endloop
  endfacet
  facet normal 0 1 0
    outer loop
      vertex 41.4826 12.8 39.0429
      vertex 33 12.8 0
      vertex 41.3817 12.8 39.3534
    endloop
  endfacet
  facet normal 0 1 0
    outer loop
      vertex 41.6216 12.8 38.7474
      vertex 33 12.8 0
      vertex 41.4826 12.8 39.0429
    endloop
  endfacet
  facet normal 0 1 0
    outer loop
      vertex 41.7966 12.8 38.4718
      vertex 33 12.8 0
      vertex 41.6216 12.8 38.7474
    endloop
  endfacet
  facet normal 0 1 0
    outer loop
      vertex 42.0047 12.8 38.2202
      vertex 33 12.8 0
      vertex 41.7966 12.8 38.4718
    endloop
  endfacet
  facet normal 0 1 0
    outer loop
      vertex 42.2427 12.8 37.9967
      vertex 33 12.8 0
      vertex 42.0047 12.8 38.2202
    endloop
  endfacet
  facet normal 0 1 0
    outer loop
      vertex 42.5069 12.8 37.8047
      vertex 33 12.8 0
      vertex 42.2427 12.8 37.9967
    endloop
  endfacet
  facet normal 0 1 0
    outer loop
      vertex 42.793 12.8 37.6474
      vertex 33 12.8 0
      vertex 42.5069 12.8 37.8047
    endloop
  endfacet
  facet normal 0 1 0
    outer loop
      vertex 43.0966 12.8 37.5273
      vertex 33 12.8 0
      vertex 42.793 12.8 37.6474
    endloop
  endfacet
  facet normal 0 1 0
    outer loop
      vertex 43.4128 12.8 37.4461
      vertex 33 12.8 0
      vertex 43.0966 12.8 37.5273
    endloop
  endfacet
  facet normal 0 1 0
    outer loop
      vertex 43.7367 12.8 37.4051
      vertex 33 12.8 0
      vertex 43.4128 12.8 37.4461
    endloop
  endfacet
  facet normal 0.722873 0 -0.690981
    outer loop
      vertex 65.5 7.62939e-07 34
      vertex 33 6.8 1.33227e-15
      vertex 65.5 6.8 34
    endloop
  endfacet
  facet normal 0.722873 -1.53429e-16 -0.690981
    outer loop
      vertex 33 6.8 1.33227e-15
      vertex 65.5 7.62939e-07 34
      vertex 33 7.62939e-07 2.84217e-15
    endloop
  endfacet
  facet normal 0.691684 0 0.7222
    outer loop
      vertex 33 12.8 80
      vertex 68.5 6.8 46
      vertex 68.5 12.8 46
    endloop
  endfacet
  facet normal 0.691684 0 0.7222
    outer loop
      vertex 68.5 6.8 46
      vertex 33 12.8 80
      vertex 33 6.8 80
    endloop
  endfacet
  facet normal 1 -0 0
    outer loop
      vertex 68.5 6.8 46
      vertex 68.5 12.8 34
      vertex 68.5 12.8 46
    endloop
  endfacet
  facet normal 1 0 0
    outer loop
      vertex 68.5 12.8 34
      vertex 68.5 6.8 46
      vertex 68.5 6.8 34
    endloop
  endfacet
  facet normal 0 -1 0
    outer loop
      vertex 65.5 6.8 46
      vertex 68.5 6.8 46
      vertex 33 6.8 80
    endloop
  endfacet
  facet normal 0 -1 0
    outer loop
      vertex 65.5 6.8 34
      vertex 68.5 6.8 46
      vertex 65.5 6.8 46
    endloop
  endfacet
  facet normal 0 -1 0
    outer loop
      vertex 65.5 6.8 34
      vertex 68.5 6.8 34
      vertex 68.5 6.8 46
    endloop
  endfacet
  facet normal -0 -1 0
    outer loop
      vertex 68.5 6.8 34
      vertex 65.5 6.8 34
      vertex 33 6.8 1.33227e-15
    endloop
  endfacet
  facet normal 0.691684 0 -0.7222
    outer loop
      vertex 33 6.8 1.33227e-15
      vertex 68.5 12.8 34
      vertex 68.5 6.8 34
    endloop
  endfacet
  facet normal 0.691684 -1.60361e-16 -0.7222
    outer loop
      vertex 33 12.8 1.69407e-22
      vertex 68.5 12.8 34
      vertex 33 6.8 1.33227e-15
    endloop
  endfacet
  facet normal 0.691684 0 -0.7222
    outer loop
      vertex 68.5 12.8 34
      vertex 33 12.8 1.69407e-22
      vertex 33 12.8 0
    endloop
  endfacet
  facet normal -0.844326 0 -0.53583
    outer loop
      vertex 46.1784 7.62939e-07 41.2526
      vertex 46.0034 12.8 41.5282
      vertex 46.1784 12.8 41.2526
    endloop
  endfacet
  facet normal -0.844326 -0 -0.53583
    outer loop
      vertex 46.0034 12.8 41.5282
      vertex 46.1784 7.62939e-07 41.2526
      vertex 46.0034 7.62939e-07 41.5282
    endloop
  endfacet
  facet normal -0.125326 0 -0.992116
    outer loop
      vertex 44.0633 7.62939e-07 42.5949
      vertex 44.3872 12.8 42.5539
      vertex 44.3872 7.62939e-07 42.5539
    endloop
  endfacet
  facet normal -0.125326 0 -0.992116
    outer loop
      vertex 44.3872 12.8 42.5539
      vertex 44.0633 7.62939e-07 42.5949
      vertex 44.0633 12.8 42.5949
    endloop
  endfacet
  facet normal -0.248688 0 -0.968584
    outer loop
      vertex 44.3872 7.62939e-07 42.5539
      vertex 44.7034 12.8 42.4727
      vertex 44.7034 7.62939e-07 42.4727
    endloop
  endfacet
  facet normal -0.248688 0 -0.968584
    outer loop
      vertex 44.7034 12.8 42.4727
      vertex 44.3872 7.62939e-07 42.5539
      vertex 44.3872 12.8 42.5539
    endloop
  endfacet
  facet normal 0.48176 0 -0.876303
    outer loop
      vertex 42.5069 7.62939e-07 42.1953
      vertex 42.793 12.8 42.3526
      vertex 42.793 7.62939e-07 42.3526
    endloop
  endfacet
  facet normal 0.48176 0 -0.876303
    outer loop
      vertex 42.793 12.8 42.3526
      vertex 42.5069 7.62939e-07 42.1953
      vertex 42.5069 12.8 42.1953
    endloop
  endfacet
  facet normal 0.951056 0 -0.309019
    outer loop
      vertex 41.4826 7.62939e-07 40.9571
      vertex 41.3817 12.8 40.6466
      vertex 41.4826 12.8 40.9571
    endloop
  endfacet
  facet normal 0.951056 0 -0.309019
    outer loop
      vertex 41.3817 12.8 40.6466
      vertex 41.4826 7.62939e-07 40.9571
      vertex 41.3817 7.62939e-07 40.6466
    endloop
  endfacet
  facet normal -0.982286 0 0.187386
    outer loop
      vertex 46.4183 7.62939e-07 39.3534
      vertex 46.4795 12.8 39.6741
      vertex 46.4183 12.8 39.3534
    endloop
  endfacet
  facet normal -0.982286 0 0.187386
    outer loop
      vertex 46.4795 12.8 39.6741
      vertex 46.4183 7.62939e-07 39.3534
      vertex 46.4795 7.62939e-07 39.6741
    endloop
  endfacet
  facet normal -0.982286 0 -0.187389
    outer loop
      vertex 46.4795 7.62939e-07 40.3259
      vertex 46.4183 12.8 40.6466
      vertex 46.4795 12.8 40.3259
    endloop
  endfacet
  facet normal -0.982286 -0 -0.187389
    outer loop
      vertex 46.4183 12.8 40.6466
      vertex 46.4795 7.62939e-07 40.3259
      vertex 46.4183 7.62939e-07 40.6466
    endloop
  endfacet
  facet normal 0 0 -1
    outer loop
      vertex 43.7367 7.62939e-07 42.5949
      vertex 44.0633 12.8 42.5949
      vertex 44.0633 7.62939e-07 42.5949
    endloop
  endfacet
  facet normal -0 0 -1
    outer loop
      vertex 44.0633 12.8 42.5949
      vertex 43.7367 7.62939e-07 42.5949
      vertex 43.7367 12.8 42.5949
    endloop
  endfacet
  facet normal -0.368127 0 -0.929775
    outer loop
      vertex 44.7034 7.62939e-07 42.4727
      vertex 45.007 12.8 42.3526
      vertex 45.007 7.62939e-07 42.3526
    endloop
  endfacet
  facet normal -0.368127 0 -0.929775
    outer loop
      vertex 45.007 12.8 42.3526
      vertex 44.7034 7.62939e-07 42.4727
      vertex 44.7034 12.8 42.4727
    endloop
  endfacet
  facet normal 0.998026 -0 0.0627972
    outer loop
      vertex 41.3 7.62939e-07 40
      vertex 41.3205 12.8 39.6741
      vertex 41.3 12.8 40
    endloop
  endfacet
  facet normal 0.998026 0 0.0627972
    outer loop
      vertex 41.3205 12.8 39.6741
      vertex 41.3 7.62939e-07 40
      vertex 41.3205 7.62939e-07 39.6741
    endloop
  endfacet
  facet normal 0.844326 0 -0.53583
    outer loop
      vertex 41.7966 7.62939e-07 41.5282
      vertex 41.6216 12.8 41.2526
      vertex 41.7966 12.8 41.5282
    endloop
  endfacet
  facet normal 0.844326 0 -0.53583
    outer loop
      vertex 41.6216 12.8 41.2526
      vertex 41.7966 7.62939e-07 41.5282
      vertex 41.6216 7.62939e-07 41.2526
    endloop
  endfacet
  facet normal 0.248691 0 -0.968583
    outer loop
      vertex 43.0966 7.62939e-07 42.4727
      vertex 43.4128 12.8 42.5539
      vertex 43.4128 7.62939e-07 42.5539
    endloop
  endfacet
  facet normal 0.248691 0 -0.968583
    outer loop
      vertex 43.4128 12.8 42.5539
      vertex 43.0966 7.62939e-07 42.4727
      vertex 43.0966 12.8 42.4727
    endloop
  endfacet
  facet normal 0.770516 0 -0.637421
    outer loop
      vertex 42.0047 7.62939e-07 41.7798
      vertex 41.7966 12.8 41.5282
      vertex 42.0047 12.8 41.7798
    endloop
  endfacet
  facet normal 0.770516 0 -0.637421
    outer loop
      vertex 41.7966 12.8 41.5282
      vertex 42.0047 7.62939e-07 41.7798
      vertex 41.7966 7.62939e-07 41.5282
    endloop
  endfacet
  facet normal -0.998027 0 -0.0627856
    outer loop
      vertex 46.5 7.62939e-07 40
      vertex 46.4795 12.8 40.3259
      vertex 46.5 12.8 40
    endloop
  endfacet
  facet normal -0.998027 -0 -0.0627856
    outer loop
      vertex 46.4795 12.8 40.3259
      vertex 46.5 7.62939e-07 40
      vertex 46.4795 7.62939e-07 40.3259
    endloop
  endfacet
  facet normal -0.951055 0 0.309023
    outer loop
      vertex 46.3174 7.62939e-07 39.0429
      vertex 46.4183 12.8 39.3534
      vertex 46.3174 12.8 39.0429
    endloop
  endfacet
  facet normal -0.951055 0 0.309023
    outer loop
      vertex 46.4183 12.8 39.3534
      vertex 46.3174 7.62939e-07 39.0429
      vertex 46.4183 7.62939e-07 39.3534
    endloop
  endfacet
  facet normal 0.587784 0 0.809018
    outer loop
      vertex 42.2427 12.8 37.9967
      vertex 42.5069 7.62939e-07 37.8047
      vertex 42.5069 12.8 37.8047
    endloop
  endfacet
  facet normal 0.587784 0 0.809018
    outer loop
      vertex 42.5069 7.62939e-07 37.8047
      vertex 42.2427 12.8 37.9967
      vertex 42.2427 7.62939e-07 37.9967
    endloop
  endfacet
  facet normal -0.587784 0 0.809018
    outer loop
      vertex 45.2931 12.8 37.8047
      vertex 45.5573 7.62939e-07 37.9967
      vertex 45.5573 12.8 37.9967
    endloop
  endfacet
  facet normal -0.587784 0 0.809018
    outer loop
      vertex 45.5573 7.62939e-07 37.9967
      vertex 45.2931 12.8 37.8047
      vertex 45.2931 7.62939e-07 37.8047
    endloop
  endfacet
  facet normal -0.770516 0 -0.637421
    outer loop
      vertex 46.0034 7.62939e-07 41.5282
      vertex 45.7953 12.8 41.7798
      vertex 46.0034 12.8 41.5282
    endloop
  endfacet
  facet normal -0.770516 -0 -0.637421
    outer loop
      vertex 45.7953 12.8 41.7798
      vertex 46.0034 7.62939e-07 41.5282
      vertex 45.7953 7.62939e-07 41.7798
    endloop
  endfacet
  facet normal -0.587784 0 -0.809018
    outer loop
      vertex 45.2931 7.62939e-07 42.1953
      vertex 45.5573 12.8 42.0033
      vertex 45.5573 7.62939e-07 42.0033
    endloop
  endfacet
  facet normal -0.587784 0 -0.809018
    outer loop
      vertex 45.5573 12.8 42.0033
      vertex 45.2931 7.62939e-07 42.1953
      vertex 45.2931 12.8 42.1953
    endloop
  endfacet
  facet normal 0.125326 0 -0.992116
    outer loop
      vertex 43.4128 7.62939e-07 42.5539
      vertex 43.7367 12.8 42.5949
      vertex 43.7367 7.62939e-07 42.5949
    endloop
  endfacet
  facet normal 0.125326 0 -0.992116
    outer loop
      vertex 43.7367 12.8 42.5949
      vertex 43.4128 7.62939e-07 42.5539
      vertex 43.4128 12.8 42.5539
    endloop
  endfacet
  facet normal -0.48176 0 -0.876303
    outer loop
      vertex 45.007 7.62939e-07 42.3526
      vertex 45.2931 12.8 42.1953
      vertex 45.2931 7.62939e-07 42.1953
    endloop
  endfacet
  facet normal -0.48176 0 -0.876303
    outer loop
      vertex 45.2931 12.8 42.1953
      vertex 45.007 7.62939e-07 42.3526
      vertex 45.007 12.8 42.3526
    endloop
  endfacet
  facet normal 0.982288 0 -0.187377
    outer loop
      vertex 41.3817 7.62939e-07 40.6466
      vertex 41.3205 12.8 40.3259
      vertex 41.3817 12.8 40.6466
    endloop
  endfacet
  facet normal 0.982288 0 -0.187377
    outer loop
      vertex 41.3205 12.8 40.3259
      vertex 41.3817 7.62939e-07 40.6466
      vertex 41.3205 7.62939e-07 40.3259
    endloop
  endfacet
  facet normal 0.998026 0 -0.0627972
    outer loop
      vertex 41.3205 7.62939e-07 40.3259
      vertex 41.3 12.8 40
      vertex 41.3205 12.8 40.3259
    endloop
  endfacet
  facet normal 0.998026 0 -0.0627972
    outer loop
      vertex 41.3 12.8 40
      vertex 41.3205 7.62939e-07 40.3259
      vertex 41.3 7.62939e-07 40
    endloop
  endfacet
  facet normal 0.904831 0 -0.425772
    outer loop
      vertex 41.6216 7.62939e-07 41.2526
      vertex 41.4826 12.8 40.9571
      vertex 41.6216 12.8 41.2526
    endloop
  endfacet
  facet normal 0.904831 0 -0.425772
    outer loop
      vertex 41.4826 12.8 40.9571
      vertex 41.6216 7.62939e-07 41.2526
      vertex 41.4826 7.62939e-07 40.9571
    endloop
  endfacet
  facet normal 0.368123 0 -0.929777
    outer loop
      vertex 42.793 7.62939e-07 42.3526
      vertex 43.0966 12.8 42.4727
      vertex 43.0966 7.62939e-07 42.4727
    endloop
  endfacet
  facet normal 0.368123 0 -0.929777
    outer loop
      vertex 43.0966 12.8 42.4727
      vertex 42.793 7.62939e-07 42.3526
      vertex 42.793 12.8 42.3526
    endloop
  endfacet
  facet normal 0.684542 0 -0.728973
    outer loop
      vertex 42.0047 7.62939e-07 41.7798
      vertex 42.2427 12.8 42.0033
      vertex 42.2427 7.62939e-07 42.0033
    endloop
  endfacet
  facet normal 0.684542 0 -0.728973
    outer loop
      vertex 42.2427 12.8 42.0033
      vertex 42.0047 7.62939e-07 41.7798
      vertex 42.0047 12.8 41.7798
    endloop
  endfacet
  facet normal 0.587784 0 -0.809018
    outer loop
      vertex 42.2427 7.62939e-07 42.0033
      vertex 42.5069 12.8 42.1953
      vertex 42.5069 7.62939e-07 42.1953
    endloop
  endfacet
  facet normal 0.587784 0 -0.809018
    outer loop
      vertex 42.5069 12.8 42.1953
      vertex 42.2427 7.62939e-07 42.0033
      vertex 42.2427 12.8 42.0033
    endloop
  endfacet
  facet normal -0.998027 0 0.0627856
    outer loop
      vertex 46.4795 7.62939e-07 39.6741
      vertex 46.5 12.8 40
      vertex 46.4795 12.8 39.6741
    endloop
  endfacet
  facet normal -0.998027 0 0.0627856
    outer loop
      vertex 46.5 12.8 40
      vertex 46.4795 7.62939e-07 39.6741
      vertex 46.5 7.62939e-07 40
    endloop
  endfacet
  facet normal -0.84433 0 0.535824
    outer loop
      vertex 46.0034 7.62939e-07 38.4718
      vertex 46.1784 12.8 38.7474
      vertex 46.0034 12.8 38.4718
    endloop
  endfacet
  facet normal -0.84433 0 0.535824
    outer loop
      vertex 46.1784 12.8 38.7474
      vertex 46.0034 7.62939e-07 38.4718
      vertex 46.1784 7.62939e-07 38.7474
    endloop
  endfacet
  facet normal 0.684542 0 0.728973
    outer loop
      vertex 42.0047 12.8 38.2202
      vertex 42.2427 7.62939e-07 37.9967
      vertex 42.2427 12.8 37.9967
    endloop
  endfacet
  facet normal 0.684542 0 0.728973
    outer loop
      vertex 42.2427 7.62939e-07 37.9967
      vertex 42.0047 12.8 38.2202
      vertex 42.0047 7.62939e-07 38.2202
    endloop
  endfacet
  facet normal -0.248688 0 0.968584
    outer loop
      vertex 44.3872 12.8 37.4461
      vertex 44.7034 7.62939e-07 37.5273
      vertex 44.7034 12.8 37.5273
    endloop
  endfacet
  facet normal -0.248688 0 0.968584
    outer loop
      vertex 44.7034 7.62939e-07 37.5273
      vertex 44.3872 12.8 37.4461
      vertex 44.3872 7.62939e-07 37.4461
    endloop
  endfacet
  facet normal -0.904831 0 -0.425772
    outer loop
      vertex 46.3174 7.62939e-07 40.9571
      vertex 46.1784 12.8 41.2526
      vertex 46.3174 12.8 40.9571
    endloop
  endfacet
  facet normal -0.904831 -0 -0.425772
    outer loop
      vertex 46.1784 12.8 41.2526
      vertex 46.3174 7.62939e-07 40.9571
      vertex 46.1784 7.62939e-07 41.2526
    endloop
  endfacet
  facet normal -0.951056 0 -0.309019
    outer loop
      vertex 46.4183 7.62939e-07 40.6466
      vertex 46.3174 12.8 40.9571
      vertex 46.4183 12.8 40.6466
    endloop
  endfacet
  facet normal -0.951056 -0 -0.309019
    outer loop
      vertex 46.3174 12.8 40.9571
      vertex 46.4183 7.62939e-07 40.6466
      vertex 46.3174 7.62939e-07 40.9571
    endloop
  endfacet
  facet normal -0.684542 0 -0.728973
    outer loop
      vertex 45.5573 7.62939e-07 42.0033
      vertex 45.7953 12.8 41.7798
      vertex 45.7953 7.62939e-07 41.7798
    endloop
  endfacet
  facet normal -0.684542 0 -0.728973
    outer loop
      vertex 45.7953 12.8 41.7798
      vertex 45.5573 7.62939e-07 42.0033
      vertex 45.5573 12.8 42.0033
    endloop
  endfacet
  facet normal -0.904831 0 0.425772
    outer loop
      vertex 46.1784 7.62939e-07 38.7474
      vertex 46.3174 12.8 39.0429
      vertex 46.1784 12.8 38.7474
    endloop
  endfacet
  facet normal -0.904831 0 0.425772
    outer loop
      vertex 46.3174 12.8 39.0429
      vertex 46.1784 7.62939e-07 38.7474
      vertex 46.3174 7.62939e-07 39.0429
    endloop
  endfacet
  facet normal -0 0 1
    outer loop
      vertex 43.7367 12.8 37.4051
      vertex 44.0633 7.62939e-07 37.4051
      vertex 44.0633 12.8 37.4051
    endloop
  endfacet
  facet normal 0 0 1
    outer loop
      vertex 44.0633 7.62939e-07 37.4051
      vertex 43.7367 12.8 37.4051
      vertex 43.7367 7.62939e-07 37.4051
    endloop
  endfacet
  facet normal 0.982288 -0 0.187375
    outer loop
      vertex 41.3205 7.62939e-07 39.6741
      vertex 41.3817 12.8 39.3534
      vertex 41.3205 12.8 39.6741
    endloop
  endfacet
  facet normal 0.982288 0 0.187375
    outer loop
      vertex 41.3817 12.8 39.3534
      vertex 41.3205 7.62939e-07 39.6741
      vertex 41.3817 7.62939e-07 39.3534
    endloop
  endfacet
  facet normal 0.904831 -0 0.425772
    outer loop
      vertex 41.4826 7.62939e-07 39.0429
      vertex 41.6216 12.8 38.7474
      vertex 41.4826 12.8 39.0429
    endloop
  endfacet
  facet normal 0.904831 0 0.425772
    outer loop
      vertex 41.6216 12.8 38.7474
      vertex 41.4826 7.62939e-07 39.0429
      vertex 41.6216 7.62939e-07 38.7474
    endloop
  endfacet
  facet normal -0.48176 0 0.876303
    outer loop
      vertex 45.007 12.8 37.6474
      vertex 45.2931 7.62939e-07 37.8047
      vertex 45.2931 12.8 37.8047
    endloop
  endfacet
  facet normal -0.48176 0 0.876303
    outer loop
      vertex 45.2931 7.62939e-07 37.8047
      vertex 45.007 12.8 37.6474
      vertex 45.007 7.62939e-07 37.6474
    endloop
  endfacet
  facet normal -0.368127 0 0.929775
    outer loop
      vertex 44.7034 12.8 37.5273
      vertex 45.007 7.62939e-07 37.6474
      vertex 45.007 12.8 37.6474
    endloop
  endfacet
  facet normal -0.368127 0 0.929775
    outer loop
      vertex 45.007 7.62939e-07 37.6474
      vertex 44.7034 12.8 37.5273
      vertex 44.7034 7.62939e-07 37.5273
    endloop
  endfacet
  facet normal -0.770511 0 0.637427
    outer loop
      vertex 45.7953 7.62939e-07 38.2202
      vertex 46.0034 12.8 38.4718
      vertex 45.7953 12.8 38.2202
    endloop
  endfacet
  facet normal -0.770511 0 0.637427
    outer loop
      vertex 46.0034 12.8 38.4718
      vertex 45.7953 7.62939e-07 38.2202
      vertex 46.0034 7.62939e-07 38.4718
    endloop
  endfacet
  facet normal -0.125337 0 0.992114
    outer loop
      vertex 44.0633 12.8 37.4051
      vertex 44.3872 7.62939e-07 37.4461
      vertex 44.3872 12.8 37.4461
    endloop
  endfacet
  facet normal -0.125337 0 0.992114
    outer loop
      vertex 44.3872 7.62939e-07 37.4461
      vertex 44.0633 12.8 37.4051
      vertex 44.0633 7.62939e-07 37.4051
    endloop
  endfacet
  facet normal 0.48176 0 0.876303
    outer loop
      vertex 42.5069 12.8 37.8047
      vertex 42.793 7.62939e-07 37.6474
      vertex 42.793 12.8 37.6474
    endloop
  endfacet
  facet normal 0.48176 0 0.876303
    outer loop
      vertex 42.793 7.62939e-07 37.6474
      vertex 42.5069 12.8 37.8047
      vertex 42.5069 7.62939e-07 37.8047
    endloop
  endfacet
  facet normal 0.248691 0 0.968583
    outer loop
      vertex 43.0966 12.8 37.5273
      vertex 43.4128 7.62939e-07 37.4461
      vertex 43.4128 12.8 37.4461
    endloop
  endfacet
  facet normal 0.248691 0 0.968583
    outer loop
      vertex 43.4128 7.62939e-07 37.4461
      vertex 43.0966 12.8 37.5273
      vertex 43.0966 7.62939e-07 37.5273
    endloop
  endfacet
  facet normal 0.951055 -0 0.309023
    outer loop
      vertex 41.3817 7.62939e-07 39.3534
      vertex 41.4826 12.8 39.0429
      vertex 41.3817 12.8 39.3534
    endloop
  endfacet
  facet normal 0.951055 0 0.309023
    outer loop
      vertex 41.4826 12.8 39.0429
      vertex 41.3817 7.62939e-07 39.3534
      vertex 41.4826 7.62939e-07 39.0429
    endloop
  endfacet
  facet normal 0.770511 -0 0.637427
    outer loop
      vertex 41.7966 7.62939e-07 38.4718
      vertex 42.0047 12.8 38.2202
      vertex 41.7966 12.8 38.4718
    endloop
  endfacet
  facet normal 0.770511 0 0.637427
    outer loop
      vertex 42.0047 12.8 38.2202
      vertex 41.7966 7.62939e-07 38.4718
      vertex 42.0047 7.62939e-07 38.2202
    endloop
  endfacet
  facet normal 0.84433 -0 0.535824
    outer loop
      vertex 41.6216 7.62939e-07 38.7474
      vertex 41.7966 12.8 38.4718
      vertex 41.6216 12.8 38.7474
    endloop
  endfacet
  facet normal 0.84433 0 0.535824
    outer loop
      vertex 41.7966 12.8 38.4718
      vertex 41.6216 7.62939e-07 38.7474
      vertex 41.7966 7.62939e-07 38.4718
    endloop
  endfacet
  facet normal -0.684542 0 0.728973
    outer loop
      vertex 45.5573 12.8 37.9967
      vertex 45.7953 7.62939e-07 38.2202
      vertex 45.7953 12.8 38.2202
    endloop
  endfacet
  facet normal -0.684542 0 0.728973
    outer loop
      vertex 45.7953 7.62939e-07 38.2202
      vertex 45.5573 12.8 37.9967
      vertex 45.5573 7.62939e-07 37.9967
    endloop
  endfacet
  facet normal 0.368123 0 0.929777
    outer loop
      vertex 42.793 12.8 37.6474
      vertex 43.0966 7.62939e-07 37.5273
      vertex 43.0966 12.8 37.5273
    endloop
  endfacet
  facet normal 0.368123 0 0.929777
    outer loop
      vertex 43.0966 7.62939e-07 37.5273
      vertex 42.793 12.8 37.6474
      vertex 42.793 7.62939e-07 37.6474
    endloop
  endfacet
  facet normal 0.125337 0 0.992114
    outer loop
      vertex 43.4128 12.8 37.4461
      vertex 43.7367 7.62939e-07 37.4051
      vertex 43.7367 12.8 37.4051
    endloop
  endfacet
  facet normal 0.125337 0 0.992114
    outer loop
      vertex 43.7367 7.62939e-07 37.4051
      vertex 43.4128 12.8 37.4461
      vertex 43.4128 7.62939e-07 37.4461
    endloop
  endfacet
  facet normal -1 0 0
    outer loop
      vertex 20.5 7 0
      vertex 20.5 13 80
      vertex 20.5 13 0
    endloop
  endfacet
  facet normal -1 -0 0
    outer loop
      vertex 20.5 13 80
      vertex 20.5 7 0
      vertex 20.5 7 80
    endloop
  endfacet
  facet normal 0 -1 0
    outer loop
      vertex 20.5 7 0
      vertex 23.7 7 80
      vertex 20.5 7 80
    endloop
  endfacet
  facet normal 0 -1 -0
    outer loop
      vertex 23.7 7 80
      vertex 20.5 7 0
      vertex 23.7 7 0
    endloop
  endfacet
  facet normal 0 1 -0
    outer loop
      vertex 23.7 13 0
      vertex 20.5 13 80
      vertex 23.7 13 80
    endloop
  endfacet
  facet normal 0 1 0
    outer loop
      vertex 20.5 13 80
      vertex 23.7 13 0
      vertex 20.5 13 0
    endloop
  endfacet
  facet normal 0 -1 0
    outer loop
      vertex 27 12.8 0
      vertex 33 12.8 1.69407e-22
      vertex 27 12.8 1.69407e-22
    endloop
  endfacet
  facet normal 0 -1 -0
    outer loop
      vertex 33 12.8 1.69407e-22
      vertex 27 12.8 0
      vertex 33 12.8 0
    endloop
  endfacet
  facet normal 0.707107 0.707107 -0
    outer loop
      vertex 33 12.8 0
      vertex 27 18.8 80
      vertex 33 12.8 80
    endloop
  endfacet
  facet normal 0.707107 0.707107 0
    outer loop
      vertex 27 18.8 80
      vertex 33 12.8 0
      vertex 27 18.8 0
    endloop
  endfacet
endsolid OpenSCAD_Model
