solid OpenSCAD_Model
  facet normal 0 1 0
    outer loop
      vertex 27 59.5 18.5
      vertex 23.6 59.5 3.5
      vertex 23.6 59.5 18.5
    endloop
  endfacet
  facet normal 0 1 0
    outer loop
      vertex 23.6 59.5 3.5
      vertex 27 59.5 0
      vertex 3.4 59.5 3.5
    endloop
  endfacet
  facet normal 0 1 -0
    outer loop
      vertex 27 59.5 0
      vertex 23.6 59.5 3.5
      vertex 27 59.5 18.5
    endloop
  endfacet
  facet normal 0 1 -0
    outer loop
      vertex 3.4 59.5 3.5
      vertex 0 59.5 18.5
      vertex 3.4 59.5 18.5
    endloop
  endfacet
  facet normal 0 1 0
    outer loop
      vertex 3.4 59.5 3.5
      vertex 0 59.5 0
      vertex 0 59.5 18.5
    endloop
  endfacet
  facet normal 0 1 0
    outer loop
      vertex 0 59.5 0
      vertex 3.4 59.5 3.5
      vertex 27 59.5 0
    endloop
  endfacet
  facet normal 0 0 -1
    outer loop
      vertex 15.0989 47.7657 0
      vertex 27 59.5 0
      vertex 27 0 0
    endloop
  endfacet
  facet normal 0 0 -1
    outer loop
      vertex 27 59.5 0
      vertex 15.4541 48.5634 0
      vertex 15.5 49 0
    endloop
  endfacet
  facet normal 0 0 -1
    outer loop
      vertex 27 59.5 0
      vertex 15.3184 48.1459 0
      vertex 15.4541 48.5634 0
    endloop
  endfacet
  facet normal 0 0 -1
    outer loop
      vertex 27 59.5 0
      vertex 15.0989 47.7657 0
      vertex 15.3184 48.1459 0
    endloop
  endfacet
  facet normal 0 0 -1
    outer loop
      vertex 27 0 0
      vertex 14.8052 47.4394 0
      vertex 15.0989 47.7657 0
    endloop
  endfacet
  facet normal 0 0 -1
    outer loop
      vertex 27 0 0
      vertex 14.45 47.1813 0
      vertex 14.8052 47.4394 0
    endloop
  endfacet
  facet normal 0 0 -1
    outer loop
      vertex 27 0 0
      vertex 14.0489 47.0028 0
      vertex 14.45 47.1813 0
    endloop
  endfacet
  facet normal 0 0 -1
    outer loop
      vertex 27 0 0
      vertex 13.6195 46.9115 0
      vertex 14.0489 47.0028 0
    endloop
  endfacet
  facet normal 0 0 -1
    outer loop
      vertex 27 0 0
      vertex 13.1805 46.9115 0
      vertex 13.6195 46.9115 0
    endloop
  endfacet
  facet normal 0 0 -1
    outer loop
      vertex 0 0 0
      vertex 13.1805 46.9115 0
      vertex 27 0 0
    endloop
  endfacet
  facet normal -0 0 -1
    outer loop
      vertex 13.1805 46.9115 0
      vertex 0 0 0
      vertex 12.7511 47.0028 0
    endloop
  endfacet
  facet normal -0 0 -1
    outer loop
      vertex 12.7511 47.0028 0
      vertex 0 0 0
      vertex 12.35 47.1813 0
    endloop
  endfacet
  facet normal -0 0 -1
    outer loop
      vertex 12.35 47.1813 0
      vertex 0 0 0
      vertex 11.9948 47.4394 0
    endloop
  endfacet
  facet normal -0 0 -1
    outer loop
      vertex 11.9948 47.4394 0
      vertex 0 0 0
      vertex 11.7011 47.7657 0
    endloop
  endfacet
  facet normal 0 0 -1
    outer loop
      vertex 0 59.5 0
      vertex 11.7011 47.7657 0
      vertex 0 0 0
    endloop
  endfacet
  facet normal 0 0 -1
    outer loop
      vertex 11.4816 48.1459 0
      vertex 0 59.5 0
      vertex 11.3459 48.5634 0
    endloop
  endfacet
  facet normal 0 0 -1
    outer loop
      vertex 11.7011 47.7657 0
      vertex 0 59.5 0
      vertex 11.4816 48.1459 0
    endloop
  endfacet
  facet normal 0 0 -1
    outer loop
      vertex 15.4541 49.4366 0
      vertex 27 59.5 0
      vertex 15.5 49 0
    endloop
  endfacet
  facet normal 0 0 -1
    outer loop
      vertex 15.3184 49.8541 0
      vertex 27 59.5 0
      vertex 15.4541 49.4366 0
    endloop
  endfacet
  facet normal 0 0 -1
    outer loop
      vertex 15.0989 50.2343 0
      vertex 27 59.5 0
      vertex 15.3184 49.8541 0
    endloop
  endfacet
  facet normal 0 0 -1
    outer loop
      vertex 14.8052 50.5606 0
      vertex 27 59.5 0
      vertex 15.0989 50.2343 0
    endloop
  endfacet
  facet normal 0 0 -1
    outer loop
      vertex 14.45 50.8187 0
      vertex 27 59.5 0
      vertex 14.8052 50.5606 0
    endloop
  endfacet
  facet normal 0 0 -1
    outer loop
      vertex 14.0489 50.9972 0
      vertex 27 59.5 0
      vertex 14.45 50.8187 0
    endloop
  endfacet
  facet normal 0 0 -1
    outer loop
      vertex 13.6195 51.0885 0
      vertex 27 59.5 0
      vertex 14.0489 50.9972 0
    endloop
  endfacet
  facet normal 0 0 -1
    outer loop
      vertex 13.1805 51.0885 0
      vertex 27 59.5 0
      vertex 13.6195 51.0885 0
    endloop
  endfacet
  facet normal 0 0 -1
    outer loop
      vertex 0 59.5 0
      vertex 13.1805 51.0885 0
      vertex 12.7511 50.9972 0
    endloop
  endfacet
  facet normal 0 0 -1
    outer loop
      vertex 0 59.5 0
      vertex 12.7511 50.9972 0
      vertex 12.35 50.8187 0
    endloop
  endfacet
  facet normal 0 0 -1
    outer loop
      vertex 11.3459 48.5634 0
      vertex 0 59.5 0
      vertex 11.3 49 0
    endloop
  endfacet
  facet normal 0 0 -1
    outer loop
      vertex 13.1805 51.0885 0
      vertex 0 59.5 0
      vertex 27 59.5 0
    endloop
  endfacet
  facet normal 0 0 -1
    outer loop
      vertex 11.9948 50.5606 0
      vertex 0 59.5 0
      vertex 12.35 50.8187 0
    endloop
  endfacet
  facet normal 0 0 -1
    outer loop
      vertex 11.7011 50.2343 0
      vertex 0 59.5 0
      vertex 11.9948 50.5606 0
    endloop
  endfacet
  facet normal 0 0 -1
    outer loop
      vertex 11.4816 49.8541 0
      vertex 0 59.5 0
      vertex 11.7011 50.2343 0
    endloop
  endfacet
  facet normal 0 0 -1
    outer loop
      vertex 11.3459 49.4366 0
      vertex 0 59.5 0
      vertex 11.4816 49.8541 0
    endloop
  endfacet
  facet normal 0 0 -1
    outer loop
      vertex 11.3 49 0
      vertex 0 59.5 0
      vertex 11.3459 49.4366 0
    endloop
  endfacet
  facet normal 0 0.707107 0.707107
    outer loop
      vertex 27 59.5 18.5
      vertex 23.6 54.5 23.5
      vertex 27 54.5 23.5
    endloop
  endfacet
  facet normal 0 0.707107 0.707107
    outer loop
      vertex 23.6 54.5 23.5
      vertex 27 59.5 18.5
      vertex 23.6 59.5 18.5
    endloop
  endfacet
  facet normal 0 0.707107 0.707107
    outer loop
      vertex 3.4 59.5 18.5
      vertex 0 54.5 23.5
      vertex 3.4 54.5 23.5
    endloop
  endfacet
  facet normal 0 0.707107 0.707107
    outer loop
      vertex 0 54.5 23.5
      vertex 3.4 59.5 18.5
      vertex 0 59.5 18.5
    endloop
  endfacet
  facet normal 1 0 0
    outer loop
      vertex 27 54.5 23.5
      vertex 27 59.5 0
      vertex 27 59.5 18.5
    endloop
  endfacet
  facet normal 1 0 0
    outer loop
      vertex 27 0 0
      vertex 27 54.5 23.5
      vertex 27 0 23.5
    endloop
  endfacet
  facet normal 1 0 0
    outer loop
      vertex 27 54.5 23.5
      vertex 27 0 0
      vertex 27 59.5 0
    endloop
  endfacet
  facet normal -1 0 0
    outer loop
      vertex 0 59.5 0
      vertex 0 54.5 23.5
      vertex 0 59.5 18.5
    endloop
  endfacet
  facet normal -1 0 0
    outer loop
      vertex 0 0 0
      vertex 0 54.5 23.5
      vertex 0 59.5 0
    endloop
  endfacet
  facet normal -1 -0 0
    outer loop
      vertex 0 54.5 23.5
      vertex 0 0 0
      vertex 0 0 23.5
    endloop
  endfacet
  facet normal 0 -1 0
    outer loop
      vertex 0 0 23.5
      vertex 13.1805 0 15.5885
      vertex 27 0 23.5
    endloop
  endfacet
  facet normal 0 -1 0
    outer loop
      vertex 0 0 23.5
      vertex 12.7511 0 15.4972
      vertex 13.1805 0 15.5885
    endloop
  endfacet
  facet normal 0 -1 0
    outer loop
      vertex 0 0 23.5
      vertex 12.35 0 15.3187
      vertex 12.7511 0 15.4972
    endloop
  endfacet
  facet normal 0 -1 0
    outer loop
      vertex 0 0 23.5
      vertex 11.9948 0 15.0606
      vertex 12.35 0 15.3187
    endloop
  endfacet
  facet normal 0 -1 0
    outer loop
      vertex 0 0 23.5
      vertex 11.7011 0 14.7343
      vertex 11.9948 0 15.0606
    endloop
  endfacet
  facet normal 0 -1 0
    outer loop
      vertex 0 0 23.5
      vertex 11.4816 0 14.3541
      vertex 11.7011 0 14.7343
    endloop
  endfacet
  facet normal 0 -1 0
    outer loop
      vertex 0 0 23.5
      vertex 11.3459 0 13.9366
      vertex 11.4816 0 14.3541
    endloop
  endfacet
  facet normal 0 -1 0
    outer loop
      vertex 0 0 23.5
      vertex 11.3375 0 13.8572
      vertex 11.3459 0 13.9366
    endloop
  endfacet
  facet normal 0 -1 0
    outer loop
      vertex 0 0 23.5
      vertex 11.3 0 13.5
      vertex 11.3375 0 13.8572
    endloop
  endfacet
  facet normal 0 -1 0
    outer loop
      vertex 0 0 23.5
      vertex 11.3083 0 13.4206
      vertex 11.3 0 13.5
    endloop
  endfacet
  facet normal 0 -1 0
    outer loop
      vertex 0 0 23.5
      vertex 11.3459 0 13.0634
      vertex 11.3083 0 13.4206
    endloop
  endfacet
  facet normal 0 -1 0
    outer loop
      vertex 0 0 0
      vertex 11.3459 0 13.0634
      vertex 0 0 23.5
    endloop
  endfacet
  facet normal 0 -1 -0
    outer loop
      vertex 11.3459 0 13.0634
      vertex 0 0 0
      vertex 11.4816 0 12.6459
    endloop
  endfacet
  facet normal 0 -1 -0
    outer loop
      vertex 11.4816 0 12.6459
      vertex 0 0 0
      vertex 11.7011 0 12.2657
    endloop
  endfacet
  facet normal 0 -1 -0
    outer loop
      vertex 13.1805 0 11.4115
      vertex 0 0 0
      vertex 13.6195 0 11.4115
    endloop
  endfacet
  facet normal 0 -1 -0
    outer loop
      vertex 12.7511 0 11.5028
      vertex 0 0 0
      vertex 13.1805 0 11.4115
    endloop
  endfacet
  facet normal 0 -1 -0
    outer loop
      vertex 12.35 0 11.6813
      vertex 0 0 0
      vertex 12.7511 0 11.5028
    endloop
  endfacet
  facet normal 0 -1 -0
    outer loop
      vertex 11.9948 0 11.9394
      vertex 0 0 0
      vertex 12.35 0 11.6813
    endloop
  endfacet
  facet normal 0 -1 -0
    outer loop
      vertex 11.7011 0 12.2657
      vertex 0 0 0
      vertex 11.9948 0 11.9394
    endloop
  endfacet
  facet normal 0 -1 0
    outer loop
      vertex 13.6195 0 15.5885
      vertex 27 0 23.5
      vertex 13.1805 0 15.5885
    endloop
  endfacet
  facet normal 0 -1 0
    outer loop
      vertex 14.0489 0 15.4972
      vertex 27 0 23.5
      vertex 13.6195 0 15.5885
    endloop
  endfacet
  facet normal 0 -1 0
    outer loop
      vertex 14.45 0 15.3187
      vertex 27 0 23.5
      vertex 14.0489 0 15.4972
    endloop
  endfacet
  facet normal 0 -1 0
    outer loop
      vertex 14.8052 0 15.0606
      vertex 27 0 23.5
      vertex 14.45 0 15.3187
    endloop
  endfacet
  facet normal 0 -1 0
    outer loop
      vertex 15.0989 0 14.7343
      vertex 27 0 23.5
      vertex 14.8052 0 15.0606
    endloop
  endfacet
  facet normal 0 -1 0
    outer loop
      vertex 15.3184 0 14.3541
      vertex 27 0 23.5
      vertex 15.0989 0 14.7343
    endloop
  endfacet
  facet normal 0 -1 0
    outer loop
      vertex 15.4541 0 13.9366
      vertex 27 0 23.5
      vertex 15.3184 0 14.3541
    endloop
  endfacet
  facet normal 0 -1 0
    outer loop
      vertex 15.5 0 13.5
      vertex 27 0 23.5
      vertex 15.4541 0 13.9366
    endloop
  endfacet
  facet normal 0 -1 0
    outer loop
      vertex 15.4541 0 13.0634
      vertex 27 0 23.5
      vertex 15.5 0 13.5
    endloop
  endfacet
  facet normal 0 -1 0
    outer loop
      vertex 27 0 0
      vertex 15.4541 0 13.0634
      vertex 15.3184 0 12.6459
    endloop
  endfacet
  facet normal 0 -1 0
    outer loop
      vertex 27 0 0
      vertex 15.3184 0 12.6459
      vertex 15.0989 0 12.2657
    endloop
  endfacet
  facet normal 0 -1 0
    outer loop
      vertex 27 0 0
      vertex 15.0989 0 12.2657
      vertex 14.8052 0 11.9394
    endloop
  endfacet
  facet normal 0 -1 0
    outer loop
      vertex 27 0 0
      vertex 13.6195 0 11.4115
      vertex 0 0 0
    endloop
  endfacet
  facet normal 0 -1 0
    outer loop
      vertex 13.6195 0 11.4115
      vertex 27 0 0
      vertex 14.0489 0 11.5028
    endloop
  endfacet
  facet normal 0 -1 0
    outer loop
      vertex 14.0489 0 11.5028
      vertex 27 0 0
      vertex 14.45 0 11.6813
    endloop
  endfacet
  facet normal 0 -1 0
    outer loop
      vertex 15.4541 0 13.0634
      vertex 27 0 0
      vertex 27 0 23.5
    endloop
  endfacet
  facet normal 0 -1 0
    outer loop
      vertex 14.45 0 11.6813
      vertex 27 0 0
      vertex 14.8052 0 11.9394
    endloop
  endfacet
  facet normal -0 0 1
    outer loop
      vertex 0 54.5 23.5
      vertex 3.4 34.4 23.5
      vertex 3.4 54.5 23.5
    endloop
  endfacet
  facet normal 0 0 1
    outer loop
      vertex 3.4 34.4 23.5
      vertex 0 54.5 23.5
      vertex 3.4 23.7 23.5
    endloop
  endfacet
  facet normal 0 0 1
    outer loop
      vertex 0 0 23.5
      vertex 3.4 23.7 23.5
      vertex 0 54.5 23.5
    endloop
  endfacet
  facet normal -0 0 1
    outer loop
      vertex 3.4 34.4 23.5
      vertex 23.6 23.7 23.5
      vertex 23.6 34.4 23.5
    endloop
  endfacet
  facet normal 0 0 1
    outer loop
      vertex 23.6 23.7 23.5
      vertex 3.4 34.4 23.5
      vertex 3.4 23.7 23.5
    endloop
  endfacet
  facet normal 0 0 1
    outer loop
      vertex 23.6 34.4 23.5
      vertex 27 54.5 23.5
      vertex 23.6 54.5 23.5
    endloop
  endfacet
  facet normal 0 0 1
    outer loop
      vertex 23.6 23.7 23.5
      vertex 27 54.5 23.5
      vertex 23.6 34.4 23.5
    endloop
  endfacet
  facet normal 0 0 1
    outer loop
      vertex 27 54.5 23.5
      vertex 23.6 23.7 23.5
      vertex 27 0 23.5
    endloop
  endfacet
  facet normal -0 0 1
    outer loop
      vertex 23.6 3.5 23.5
      vertex 27 0 23.5
      vertex 23.6 23.7 23.5
    endloop
  endfacet
  facet normal -0 0 1
    outer loop
      vertex 3.4 3.5 23.5
      vertex 27 0 23.5
      vertex 23.6 3.5 23.5
    endloop
  endfacet
  facet normal 0 0 1
    outer loop
      vertex 3.4 3.5 23.5
      vertex 0 0 23.5
      vertex 27 0 23.5
    endloop
  endfacet
  facet normal 0 0 1
    outer loop
      vertex 3.4 23.7 23.5
      vertex 0 0 23.5
      vertex 3.4 3.5 23.5
    endloop
  endfacet
  facet normal 1 -0 0
    outer loop
      vertex 3.4 3.5 23.5
      vertex 3.4 23.7 3.5
      vertex 3.4 23.7 23.5
    endloop
  endfacet
  facet normal 1 0 0
    outer loop
      vertex 3.4 23.7 3.5
      vertex 3.4 3.5 23.5
      vertex 3.4 3.5 3.5
    endloop
  endfacet
  facet normal 1 0 0
    outer loop
      vertex 3.4 54.5 23.5
      vertex 3.4 59.5 3.5
      vertex 3.4 59.5 18.5
    endloop
  endfacet
  facet normal 1 0 0
    outer loop
      vertex 3.4 34.4 3.5
      vertex 3.4 54.5 23.5
      vertex 3.4 34.4 23.5
    endloop
  endfacet
  facet normal 1 0 0
    outer loop
      vertex 3.4 54.5 23.5
      vertex 3.4 34.4 3.5
      vertex 3.4 59.5 3.5
    endloop
  endfacet
  facet normal -1 0 0
    outer loop
      vertex 23.6 3.5 3.5
      vertex 23.6 23.7 23.5
      vertex 23.6 23.7 3.5
    endloop
  endfacet
  facet normal -1 -0 0
    outer loop
      vertex 23.6 23.7 23.5
      vertex 23.6 3.5 3.5
      vertex 23.6 3.5 23.5
    endloop
  endfacet
  facet normal -1 0 0
    outer loop
      vertex 23.6 59.5 3.5
      vertex 23.6 54.5 23.5
      vertex 23.6 59.5 18.5
    endloop
  endfacet
  facet normal -1 0 0
    outer loop
      vertex 23.6 34.4 3.5
      vertex 23.6 54.5 23.5
      vertex 23.6 59.5 3.5
    endloop
  endfacet
  facet normal -1 -0 0
    outer loop
      vertex 23.6 54.5 23.5
      vertex 23.6 34.4 3.5
      vertex 23.6 34.4 23.5
    endloop
  endfacet
  facet normal 0 0 1
    outer loop
      vertex 15.4541 48.5634 3.5
      vertex 23.6 59.5 3.5
      vertex 15.5 49 3.5
    endloop
  endfacet
  facet normal 0 0 1
    outer loop
      vertex 23.6 59.5 3.5
      vertex 15.4541 49.4366 3.5
      vertex 15.5 49 3.5
    endloop
  endfacet
  facet normal 0 0 1
    outer loop
      vertex 23.6 59.5 3.5
      vertex 15.3184 49.8541 3.5
      vertex 15.4541 49.4366 3.5
    endloop
  endfacet
  facet normal 0 0 1
    outer loop
      vertex 23.6 59.5 3.5
      vertex 15.0989 50.2343 3.5
      vertex 15.3184 49.8541 3.5
    endloop
  endfacet
  facet normal 0 0 1
    outer loop
      vertex 23.6 59.5 3.5
      vertex 14.8052 50.5606 3.5
      vertex 15.0989 50.2343 3.5
    endloop
  endfacet
  facet normal 0 0 1
    outer loop
      vertex 23.6 59.5 3.5
      vertex 14.45 50.8187 3.5
      vertex 14.8052 50.5606 3.5
    endloop
  endfacet
  facet normal 0 0 1
    outer loop
      vertex 23.6 59.5 3.5
      vertex 14.0489 50.9972 3.5
      vertex 14.45 50.8187 3.5
    endloop
  endfacet
  facet normal 0 0 1
    outer loop
      vertex 23.6 59.5 3.5
      vertex 13.6195 51.0885 3.5
      vertex 14.0489 50.9972 3.5
    endloop
  endfacet
  facet normal 0 0 1
    outer loop
      vertex 23.6 59.5 3.5
      vertex 13.1805 51.0885 3.5
      vertex 13.6195 51.0885 3.5
    endloop
  endfacet
  facet normal -0 0 1
    outer loop
      vertex 3.4 59.5 3.5
      vertex 13.1805 51.0885 3.5
      vertex 23.6 59.5 3.5
    endloop
  endfacet
  facet normal 0 0 1
    outer loop
      vertex 13.1805 51.0885 3.5
      vertex 3.4 59.5 3.5
      vertex 12.7511 50.9972 3.5
    endloop
  endfacet
  facet normal 0 0 1
    outer loop
      vertex 12.7511 50.9972 3.5
      vertex 3.4 59.5 3.5
      vertex 12.35 50.8187 3.5
    endloop
  endfacet
  facet normal 0 0 1
    outer loop
      vertex 11.3459 49.4366 3.5
      vertex 3.4 59.5 3.5
      vertex 11.3 49 3.5
    endloop
  endfacet
  facet normal 0 0 1
    outer loop
      vertex 11.4816 49.8541 3.5
      vertex 3.4 59.5 3.5
      vertex 11.3459 49.4366 3.5
    endloop
  endfacet
  facet normal 0 0 1
    outer loop
      vertex 11.7011 50.2343 3.5
      vertex 3.4 59.5 3.5
      vertex 11.4816 49.8541 3.5
    endloop
  endfacet
  facet normal 0 0 1
    outer loop
      vertex 11.9948 50.5606 3.5
      vertex 3.4 59.5 3.5
      vertex 11.7011 50.2343 3.5
    endloop
  endfacet
  facet normal 0 0 1
    outer loop
      vertex 12.35 50.8187 3.5
      vertex 3.4 59.5 3.5
      vertex 11.9948 50.5606 3.5
    endloop
  endfacet
  facet normal 0 0 1
    outer loop
      vertex 23.6 59.5 3.5
      vertex 15.4541 48.5634 3.5
      vertex 23.6 34.4 3.5
    endloop
  endfacet
  facet normal -0 0 1
    outer loop
      vertex 15.3184 48.1459 3.5
      vertex 23.6 34.4 3.5
      vertex 15.4541 48.5634 3.5
    endloop
  endfacet
  facet normal -0 0 1
    outer loop
      vertex 15.0989 47.7657 3.5
      vertex 23.6 34.4 3.5
      vertex 15.3184 48.1459 3.5
    endloop
  endfacet
  facet normal -0 0 1
    outer loop
      vertex 14.8052 47.4394 3.5
      vertex 23.6 34.4 3.5
      vertex 15.0989 47.7657 3.5
    endloop
  endfacet
  facet normal -0 0 1
    outer loop
      vertex 14.45 47.1813 3.5
      vertex 23.6 34.4 3.5
      vertex 14.8052 47.4394 3.5
    endloop
  endfacet
  facet normal -0 0 1
    outer loop
      vertex 14.0489 47.0028 3.5
      vertex 23.6 34.4 3.5
      vertex 14.45 47.1813 3.5
    endloop
  endfacet
  facet normal -0 0 1
    outer loop
      vertex 13.6195 46.9115 3.5
      vertex 23.6 34.4 3.5
      vertex 14.0489 47.0028 3.5
    endloop
  endfacet
  facet normal -0 0 1
    outer loop
      vertex 13.1805 46.9115 3.5
      vertex 23.6 34.4 3.5
      vertex 13.6195 46.9115 3.5
    endloop
  endfacet
  facet normal 0 0 1
    outer loop
      vertex 3.4 34.4 3.5
      vertex 13.1805 46.9115 3.5
      vertex 12.7511 47.0028 3.5
    endloop
  endfacet
  facet normal 0 0 1
    outer loop
      vertex 3.4 34.4 3.5
      vertex 12.7511 47.0028 3.5
      vertex 12.35 47.1813 3.5
    endloop
  endfacet
  facet normal 0 0 1
    outer loop
      vertex 3.4 34.4 3.5
      vertex 12.35 47.1813 3.5
      vertex 11.9948 47.4394 3.5
    endloop
  endfacet
  facet normal 0 0 1
    outer loop
      vertex 3.4 34.4 3.5
      vertex 11.9948 47.4394 3.5
      vertex 11.7011 47.7657 3.5
    endloop
  endfacet
  facet normal 0 0 1
    outer loop
      vertex 3.4 59.5 3.5
      vertex 11.3459 48.5634 3.5
      vertex 11.3 49 3.5
    endloop
  endfacet
  facet normal 0 0 1
    outer loop
      vertex 3.4 34.4 3.5
      vertex 11.3459 48.5634 3.5
      vertex 3.4 59.5 3.5
    endloop
  endfacet
  facet normal 0 0 1
    outer loop
      vertex 11.3459 48.5634 3.5
      vertex 3.4 34.4 3.5
      vertex 11.4816 48.1459 3.5
    endloop
  endfacet
  facet normal 0 0 1
    outer loop
      vertex 13.1805 46.9115 3.5
      vertex 3.4 34.4 3.5
      vertex 23.6 34.4 3.5
    endloop
  endfacet
  facet normal 0 0 1
    outer loop
      vertex 11.4816 48.1459 3.5
      vertex 3.4 34.4 3.5
      vertex 11.7011 47.7657 3.5
    endloop
  endfacet
  facet normal -0 0 1
    outer loop
      vertex 3.4 23.7 3.5
      vertex 23.6 3.5 3.5
      vertex 23.6 23.7 3.5
    endloop
  endfacet
  facet normal 0 0 1
    outer loop
      vertex 23.6 3.5 3.5
      vertex 3.4 23.7 3.5
      vertex 3.4 3.5 3.5
    endloop
  endfacet
  facet normal 0 1 0
    outer loop
      vertex 23.6 3.5 23.5
      vertex 13.6195 3.5 15.5885
      vertex 3.4 3.5 23.5
    endloop
  endfacet
  facet normal 0 1 0
    outer loop
      vertex 23.6 3.5 23.5
      vertex 14.0489 3.5 15.4972
      vertex 13.6195 3.5 15.5885
    endloop
  endfacet
  facet normal 0 1 0
    outer loop
      vertex 23.6 3.5 23.5
      vertex 14.45 3.5 15.3187
      vertex 14.0489 3.5 15.4972
    endloop
  endfacet
  facet normal 0 1 0
    outer loop
      vertex 23.6 3.5 23.5
      vertex 14.8052 3.5 15.0606
      vertex 14.45 3.5 15.3187
    endloop
  endfacet
  facet normal 0 1 0
    outer loop
      vertex 23.6 3.5 23.5
      vertex 15.0989 3.5 14.7343
      vertex 14.8052 3.5 15.0606
    endloop
  endfacet
  facet normal 0 1 0
    outer loop
      vertex 23.6 3.5 23.5
      vertex 15.3184 3.5 14.3541
      vertex 15.0989 3.5 14.7343
    endloop
  endfacet
  facet normal 0 1 0
    outer loop
      vertex 23.6 3.5 23.5
      vertex 15.4541 3.5 13.9366
      vertex 15.3184 3.5 14.3541
    endloop
  endfacet
  facet normal 0 1 0
    outer loop
      vertex 23.6 3.5 23.5
      vertex 15.5 3.5 13.5
      vertex 15.4541 3.5 13.9366
    endloop
  endfacet
  facet normal 0 1 -0
    outer loop
      vertex 23.6 3.5 3.5
      vertex 15.5 3.5 13.5
      vertex 23.6 3.5 23.5
    endloop
  endfacet
  facet normal 0 1 0
    outer loop
      vertex 15.5 3.5 13.5
      vertex 23.6 3.5 3.5
      vertex 15.4541 3.5 13.0634
    endloop
  endfacet
  facet normal 0 1 0
    outer loop
      vertex 15.4541 3.5 13.0634
      vertex 23.6 3.5 3.5
      vertex 15.3184 3.5 12.6459
    endloop
  endfacet
  facet normal 0 1 0
    outer loop
      vertex 13.6195 3.5 11.4115
      vertex 23.6 3.5 3.5
      vertex 13.1805 3.5 11.4115
    endloop
  endfacet
  facet normal 0 1 0
    outer loop
      vertex 14.0489 3.5 11.5028
      vertex 23.6 3.5 3.5
      vertex 13.6195 3.5 11.4115
    endloop
  endfacet
  facet normal 0 1 0
    outer loop
      vertex 14.45 3.5 11.6813
      vertex 23.6 3.5 3.5
      vertex 14.0489 3.5 11.5028
    endloop
  endfacet
  facet normal 0 1 0
    outer loop
      vertex 14.8052 3.5 11.9394
      vertex 23.6 3.5 3.5
      vertex 14.45 3.5 11.6813
    endloop
  endfacet
  facet normal 0 1 0
    outer loop
      vertex 15.0989 3.5 12.2657
      vertex 23.6 3.5 3.5
      vertex 14.8052 3.5 11.9394
    endloop
  endfacet
  facet normal 0 1 0
    outer loop
      vertex 15.3184 3.5 12.6459
      vertex 23.6 3.5 3.5
      vertex 15.0989 3.5 12.2657
    endloop
  endfacet
  facet normal 0 1 -0
    outer loop
      vertex 13.1805 3.5 15.5885
      vertex 3.4 3.5 23.5
      vertex 13.6195 3.5 15.5885
    endloop
  endfacet
  facet normal 0 1 -0
    outer loop
      vertex 12.7511 3.5 15.4972
      vertex 3.4 3.5 23.5
      vertex 13.1805 3.5 15.5885
    endloop
  endfacet
  facet normal 0 1 -0
    outer loop
      vertex 12.35 3.5 15.3187
      vertex 3.4 3.5 23.5
      vertex 12.7511 3.5 15.4972
    endloop
  endfacet
  facet normal 0 1 -0
    outer loop
      vertex 11.9948 3.5 15.0606
      vertex 3.4 3.5 23.5
      vertex 12.35 3.5 15.3187
    endloop
  endfacet
  facet normal 0 1 -0
    outer loop
      vertex 11.7011 3.5 14.7343
      vertex 3.4 3.5 23.5
      vertex 11.9948 3.5 15.0606
    endloop
  endfacet
  facet normal 0 1 -0
    outer loop
      vertex 11.4816 3.5 14.3541
      vertex 3.4 3.5 23.5
      vertex 11.7011 3.5 14.7343
    endloop
  endfacet
  facet normal 0 1 -0
    outer loop
      vertex 11.3459 3.5 13.9366
      vertex 3.4 3.5 23.5
      vertex 11.4816 3.5 14.3541
    endloop
  endfacet
  facet normal 0 1 -0
    outer loop
      vertex 11.3083 3.5 13.5794
      vertex 3.4 3.5 23.5
      vertex 11.3459 3.5 13.9366
    endloop
  endfacet
  facet normal 0 1 -0
    outer loop
      vertex 11.3 3.5 13.5
      vertex 3.4 3.5 23.5
      vertex 11.3083 3.5 13.5794
    endloop
  endfacet
  facet normal 0 1 0
    outer loop
      vertex 3.4 3.5 3.5
      vertex 11.3 3.5 13.5
      vertex 11.3375 3.5 13.1428
    endloop
  endfacet
  facet normal 0 1 0
    outer loop
      vertex 3.4 3.5 3.5
      vertex 11.3375 3.5 13.1428
      vertex 11.3459 3.5 13.0634
    endloop
  endfacet
  facet normal 0 1 0
    outer loop
      vertex 3.4 3.5 3.5
      vertex 11.3459 3.5 13.0634
      vertex 11.4816 3.5 12.6459
    endloop
  endfacet
  facet normal 0 1 0
    outer loop
      vertex 3.4 3.5 3.5
      vertex 11.4816 3.5 12.6459
      vertex 11.7011 3.5 12.2657
    endloop
  endfacet
  facet normal 0 1 0
    outer loop
      vertex 3.4 3.5 3.5
      vertex 13.1805 3.5 11.4115
      vertex 23.6 3.5 3.5
    endloop
  endfacet
  facet normal 0 1 0
    outer loop
      vertex 13.1805 3.5 11.4115
      vertex 3.4 3.5 3.5
      vertex 12.7511 3.5 11.5028
    endloop
  endfacet
  facet normal 0 1 0
    outer loop
      vertex 12.7511 3.5 11.5028
      vertex 3.4 3.5 3.5
      vertex 12.35 3.5 11.6813
    endloop
  endfacet
  facet normal 0 1 0
    outer loop
      vertex 11.3 3.5 13.5
      vertex 3.4 3.5 3.5
      vertex 3.4 3.5 23.5
    endloop
  endfacet
  facet normal 0 1 0
    outer loop
      vertex 11.9948 3.5 11.9394
      vertex 3.4 3.5 3.5
      vertex 11.7011 3.5 12.2657
    endloop
  endfacet
  facet normal 0 1 0
    outer loop
      vertex 12.35 3.5 11.6813
      vertex 3.4 3.5 3.5
      vertex 11.9948 3.5 11.9394
    endloop
  endfacet
  facet normal -0.994522 -0.10453 0
    outer loop
      vertex 15.5 49 0
      vertex 15.4541 49.4366 3.5
      vertex 15.4541 49.4366 0
    endloop
  endfacet
  facet normal -0.994522 -0.10453 0
    outer loop
      vertex 15.4541 49.4366 3.5
      vertex 15.5 49 0
      vertex 15.5 49 3.5
    endloop
  endfacet
  facet normal 0.207905 -0.978149 0
    outer loop
      vertex 12.7511 50.9972 0
      vertex 13.1805 51.0885 3.5
      vertex 12.7511 50.9972 3.5
    endloop
  endfacet
  facet normal 0.207905 -0.978149 0
    outer loop
      vertex 13.1805 51.0885 3.5
      vertex 12.7511 50.9972 0
      vertex 13.1805 51.0885 0
    endloop
  endfacet
  facet normal -0.587785 -0.809017 0
    outer loop
      vertex 14.45 50.8187 0
      vertex 14.8052 50.5606 3.5
      vertex 14.45 50.8187 3.5
    endloop
  endfacet
  facet normal -0.587785 -0.809017 -0
    outer loop
      vertex 14.8052 50.5606 3.5
      vertex 14.45 50.8187 0
      vertex 14.8052 50.5606 0
    endloop
  endfacet
  facet normal 0.866026 -0.499999 0
    outer loop
      vertex 11.4816 49.8541 3.5
      vertex 11.7011 50.2343 0
      vertex 11.7011 50.2343 3.5
    endloop
  endfacet
  facet normal 0.866026 -0.499999 0
    outer loop
      vertex 11.7011 50.2343 0
      vertex 11.4816 49.8541 3.5
      vertex 11.4816 49.8541 0
    endloop
  endfacet
  facet normal 0.951056 -0.309019 0
    outer loop
      vertex 11.3459 49.4366 3.5
      vertex 11.4816 49.8541 0
      vertex 11.4816 49.8541 3.5
    endloop
  endfacet
  facet normal 0.951056 -0.309019 0
    outer loop
      vertex 11.4816 49.8541 0
      vertex 11.3459 49.4366 3.5
      vertex 11.3459 49.4366 0
    endloop
  endfacet
  facet normal 0.587785 -0.809017 0
    outer loop
      vertex 11.9948 50.5606 0
      vertex 12.35 50.8187 3.5
      vertex 11.9948 50.5606 3.5
    endloop
  endfacet
  facet normal 0.587785 -0.809017 0
    outer loop
      vertex 12.35 50.8187 3.5
      vertex 11.9948 50.5606 0
      vertex 12.35 50.8187 0
    endloop
  endfacet
  facet normal -0.866024 0.500003 0
    outer loop
      vertex 15.0989 47.7657 0
      vertex 15.3184 48.1459 3.5
      vertex 15.3184 48.1459 0
    endloop
  endfacet
  facet normal -0.866024 0.500003 0
    outer loop
      vertex 15.3184 48.1459 3.5
      vertex 15.0989 47.7657 0
      vertex 15.0989 47.7657 3.5
    endloop
  endfacet
  facet normal -0.866026 -0.499999 0
    outer loop
      vertex 15.3184 49.8541 0
      vertex 15.0989 50.2343 3.5
      vertex 15.0989 50.2343 0
    endloop
  endfacet
  facet normal -0.866026 -0.499999 0
    outer loop
      vertex 15.0989 50.2343 3.5
      vertex 15.3184 49.8541 0
      vertex 15.3184 49.8541 3.5
    endloop
  endfacet
  facet normal -0.951056 -0.309018 0
    outer loop
      vertex 15.4541 49.4366 0
      vertex 15.3184 49.8541 3.5
      vertex 15.3184 49.8541 0
    endloop
  endfacet
  facet normal -0.951056 -0.309018 0
    outer loop
      vertex 15.3184 49.8541 3.5
      vertex 15.4541 49.4366 0
      vertex 15.4541 49.4366 3.5
    endloop
  endfacet
  facet normal -0.743146 -0.66913 0
    outer loop
      vertex 15.0989 50.2343 0
      vertex 14.8052 50.5606 3.5
      vertex 14.8052 50.5606 0
    endloop
  endfacet
  facet normal -0.743146 -0.66913 0
    outer loop
      vertex 14.8052 50.5606 3.5
      vertex 15.0989 50.2343 0
      vertex 15.0989 50.2343 3.5
    endloop
  endfacet
  facet normal -0.207905 -0.978149 0
    outer loop
      vertex 13.6195 51.0885 0
      vertex 14.0489 50.9972 3.5
      vertex 13.6195 51.0885 3.5
    endloop
  endfacet
  facet normal -0.207905 -0.978149 -0
    outer loop
      vertex 14.0489 50.9972 3.5
      vertex 13.6195 51.0885 0
      vertex 14.0489 50.9972 0
    endloop
  endfacet
  facet normal 0 -1 0
    outer loop
      vertex 13.1805 51.0885 0
      vertex 13.6195 51.0885 3.5
      vertex 13.1805 51.0885 3.5
    endloop
  endfacet
  facet normal 0 -1 -0
    outer loop
      vertex 13.6195 51.0885 3.5
      vertex 13.1805 51.0885 0
      vertex 13.6195 51.0885 0
    endloop
  endfacet
  facet normal -0.406737 -0.913545 0
    outer loop
      vertex 14.0489 50.9972 0
      vertex 14.45 50.8187 3.5
      vertex 14.0489 50.9972 3.5
    endloop
  endfacet
  facet normal -0.406737 -0.913545 -0
    outer loop
      vertex 14.45 50.8187 3.5
      vertex 14.0489 50.9972 0
      vertex 14.45 50.8187 0
    endloop
  endfacet
  facet normal 0.994522 -0.104528 0
    outer loop
      vertex 11.3 49 3.5
      vertex 11.3459 49.4366 0
      vertex 11.3459 49.4366 3.5
    endloop
  endfacet
  facet normal 0.994522 -0.104528 0
    outer loop
      vertex 11.3459 49.4366 0
      vertex 11.3 49 3.5
      vertex 11.3 49 0
    endloop
  endfacet
  facet normal 0.743146 -0.66913 0
    outer loop
      vertex 11.7011 50.2343 3.5
      vertex 11.9948 50.5606 0
      vertex 11.9948 50.5606 3.5
    endloop
  endfacet
  facet normal 0.743146 -0.66913 0
    outer loop
      vertex 11.9948 50.5606 0
      vertex 11.7011 50.2343 3.5
      vertex 11.7011 50.2343 0
    endloop
  endfacet
  facet normal 0.406737 -0.913545 0
    outer loop
      vertex 12.35 50.8187 0
      vertex 12.7511 50.9972 3.5
      vertex 12.35 50.8187 3.5
    endloop
  endfacet
  facet normal 0.406737 -0.913545 0
    outer loop
      vertex 12.7511 50.9972 3.5
      vertex 12.35 50.8187 0
      vertex 12.7511 50.9972 0
    endloop
  endfacet
  facet normal -0.994522 0.10453 0
    outer loop
      vertex 15.4541 48.5634 0
      vertex 15.5 49 3.5
      vertex 15.5 49 0
    endloop
  endfacet
  facet normal -0.994522 0.10453 0
    outer loop
      vertex 15.5 49 3.5
      vertex 15.4541 48.5634 0
      vertex 15.4541 48.5634 3.5
    endloop
  endfacet
  facet normal 0 1 -0
    outer loop
      vertex 13.6195 46.9115 0
      vertex 13.1805 46.9115 3.5
      vertex 13.6195 46.9115 3.5
    endloop
  endfacet
  facet normal 0 1 0
    outer loop
      vertex 13.1805 46.9115 3.5
      vertex 13.6195 46.9115 0
      vertex 13.1805 46.9115 0
    endloop
  endfacet
  facet normal -0.406737 0.913545 0
    outer loop
      vertex 14.45 47.1813 0
      vertex 14.0489 47.0028 3.5
      vertex 14.45 47.1813 3.5
    endloop
  endfacet
  facet normal -0.406737 0.913545 0
    outer loop
      vertex 14.0489 47.0028 3.5
      vertex 14.45 47.1813 0
      vertex 14.0489 47.0028 0
    endloop
  endfacet
  facet normal -0.951057 0.309015 0
    outer loop
      vertex 15.3184 48.1459 0
      vertex 15.4541 48.5634 3.5
      vertex 15.4541 48.5634 0
    endloop
  endfacet
  facet normal -0.951057 0.309015 0
    outer loop
      vertex 15.4541 48.5634 3.5
      vertex 15.3184 48.1459 0
      vertex 15.3184 48.1459 3.5
    endloop
  endfacet
  facet normal 0.994522 0.104528 0
    outer loop
      vertex 11.3459 48.5634 3.5
      vertex 11.3 49 0
      vertex 11.3 49 3.5
    endloop
  endfacet
  facet normal 0.994522 0.104528 0
    outer loop
      vertex 11.3 49 0
      vertex 11.3459 48.5634 3.5
      vertex 11.3459 48.5634 0
    endloop
  endfacet
  facet normal 0.743146 0.66913 0
    outer loop
      vertex 11.9948 47.4394 3.5
      vertex 11.7011 47.7657 0
      vertex 11.7011 47.7657 3.5
    endloop
  endfacet
  facet normal 0.743146 0.66913 0
    outer loop
      vertex 11.7011 47.7657 0
      vertex 11.9948 47.4394 3.5
      vertex 11.9948 47.4394 0
    endloop
  endfacet
  facet normal 0.951057 0.309017 0
    outer loop
      vertex 11.4816 48.1459 3.5
      vertex 11.3459 48.5634 0
      vertex 11.3459 48.5634 3.5
    endloop
  endfacet
  facet normal 0.951057 0.309017 0
    outer loop
      vertex 11.3459 48.5634 0
      vertex 11.4816 48.1459 3.5
      vertex 11.4816 48.1459 0
    endloop
  endfacet
  facet normal 0.866024 0.500003 0
    outer loop
      vertex 11.7011 47.7657 3.5
      vertex 11.4816 48.1459 0
      vertex 11.4816 48.1459 3.5
    endloop
  endfacet
  facet normal 0.866024 0.500003 0
    outer loop
      vertex 11.4816 48.1459 0
      vertex 11.7011 47.7657 3.5
      vertex 11.7011 47.7657 0
    endloop
  endfacet
  facet normal -0.743146 0.66913 0
    outer loop
      vertex 14.8052 47.4394 0
      vertex 15.0989 47.7657 3.5
      vertex 15.0989 47.7657 0
    endloop
  endfacet
  facet normal -0.743146 0.66913 0
    outer loop
      vertex 15.0989 47.7657 3.5
      vertex 14.8052 47.4394 0
      vertex 14.8052 47.4394 3.5
    endloop
  endfacet
  facet normal -0.587785 0.809017 0
    outer loop
      vertex 14.8052 47.4394 0
      vertex 14.45 47.1813 3.5
      vertex 14.8052 47.4394 3.5
    endloop
  endfacet
  facet normal -0.587785 0.809017 0
    outer loop
      vertex 14.45 47.1813 3.5
      vertex 14.8052 47.4394 0
      vertex 14.45 47.1813 0
    endloop
  endfacet
  facet normal -0.207914 0.978147 0
    outer loop
      vertex 14.0489 47.0028 0
      vertex 13.6195 46.9115 3.5
      vertex 14.0489 47.0028 3.5
    endloop
  endfacet
  facet normal -0.207914 0.978147 0
    outer loop
      vertex 13.6195 46.9115 3.5
      vertex 14.0489 47.0028 0
      vertex 13.6195 46.9115 0
    endloop
  endfacet
  facet normal 0.406737 0.913545 -0
    outer loop
      vertex 12.7511 47.0028 0
      vertex 12.35 47.1813 3.5
      vertex 12.7511 47.0028 3.5
    endloop
  endfacet
  facet normal 0.406737 0.913545 0
    outer loop
      vertex 12.35 47.1813 3.5
      vertex 12.7511 47.0028 0
      vertex 12.35 47.1813 0
    endloop
  endfacet
  facet normal 0.587785 0.809017 -0
    outer loop
      vertex 12.35 47.1813 0
      vertex 11.9948 47.4394 3.5
      vertex 12.35 47.1813 3.5
    endloop
  endfacet
  facet normal 0.587785 0.809017 0
    outer loop
      vertex 11.9948 47.4394 3.5
      vertex 12.35 47.1813 0
      vertex 11.9948 47.4394 0
    endloop
  endfacet
  facet normal 0.207914 0.978147 -0
    outer loop
      vertex 13.1805 46.9115 0
      vertex 12.7511 47.0028 3.5
      vertex 13.1805 46.9115 3.5
    endloop
  endfacet
  facet normal 0.207914 0.978147 0
    outer loop
      vertex 12.7511 47.0028 3.5
      vertex 13.1805 46.9115 0
      vertex 12.7511 47.0028 0
    endloop
  endfacet
  facet normal -0.994522 0 0.10453
    outer loop
      vertex 15.4541 0 13.0634
      vertex 15.5 3.5 13.5
      vertex 15.4541 3.5 13.0634
    endloop
  endfacet
  facet normal -0.994522 0 0.10453
    outer loop
      vertex 15.5 3.5 13.5
      vertex 15.4541 0 13.0634
      vertex 15.5 0 13.5
    endloop
  endfacet
  facet normal 0.994522 0 -0.104529
    outer loop
      vertex 11.3375 0 13.8572
      vertex 11.3459 3.5 13.9366
      vertex 11.3459 0 13.9366
    endloop
  endfacet
  facet normal 0.994522 -1.42864e-08 -0.104528
    outer loop
      vertex 11.3459 3.5 13.9366
      vertex 11.3375 0 13.8572
      vertex 11.3083 3.5 13.5794
    endloop
  endfacet
  facet normal -0.207912 0 -0.978148
    outer loop
      vertex 13.6195 0 15.5885
      vertex 14.0489 3.5 15.4972
      vertex 14.0489 0 15.4972
    endloop
  endfacet
  facet normal -0.207912 0 -0.978148
    outer loop
      vertex 14.0489 3.5 15.4972
      vertex 13.6195 0 15.5885
      vertex 13.6195 3.5 15.5885
    endloop
  endfacet
  facet normal 0.866025 -0 0.5
    outer loop
      vertex 11.4816 0 12.6459
      vertex 11.7011 3.5 12.2657
      vertex 11.4816 3.5 12.6459
    endloop
  endfacet
  facet normal 0.866025 0 0.5
    outer loop
      vertex 11.7011 3.5 12.2657
      vertex 11.4816 0 12.6459
      vertex 11.7011 0 12.2657
    endloop
  endfacet
  facet normal -0.866025 0 -0.5
    outer loop
      vertex 15.3184 0 14.3541
      vertex 15.0989 3.5 14.7343
      vertex 15.3184 3.5 14.3541
    endloop
  endfacet
  facet normal -0.866025 -0 -0.5
    outer loop
      vertex 15.0989 3.5 14.7343
      vertex 15.3184 0 14.3541
      vertex 15.0989 0 14.7343
    endloop
  endfacet
  facet normal 0.587785 0 0.809017
    outer loop
      vertex 11.9948 3.5 11.9394
      vertex 12.35 0 11.6813
      vertex 12.35 3.5 11.6813
    endloop
  endfacet
  facet normal 0.587785 0 0.809017
    outer loop
      vertex 12.35 0 11.6813
      vertex 11.9948 3.5 11.9394
      vertex 11.9948 0 11.9394
    endloop
  endfacet
  facet normal 0.994522 7.86589e-09 -0.104528
    outer loop
      vertex 11.3 0 13.5
      vertex 11.3083 3.5 13.5794
      vertex 11.3375 0 13.8572
    endloop
  endfacet
  facet normal 0.994522 2.84818e-08 -0.104529
    outer loop
      vertex 11.3083 3.5 13.5794
      vertex 11.3 0 13.5
      vertex 11.3 3.5 13.5
    endloop
  endfacet
  facet normal 0.994522 1.42864e-08 0.104528
    outer loop
      vertex 11.3459 0 13.0634
      vertex 11.3375 3.5 13.1428
      vertex 11.3083 0 13.4206
    endloop
  endfacet
  facet normal 0.994522 0 0.104529
    outer loop
      vertex 11.3375 3.5 13.1428
      vertex 11.3459 0 13.0634
      vertex 11.3459 3.5 13.0634
    endloop
  endfacet
  facet normal 0.743146 -0 0.66913
    outer loop
      vertex 11.7011 0 12.2657
      vertex 11.9948 3.5 11.9394
      vertex 11.7011 3.5 12.2657
    endloop
  endfacet
  facet normal 0.743146 0 0.66913
    outer loop
      vertex 11.9948 3.5 11.9394
      vertex 11.7011 0 12.2657
      vertex 11.9948 0 11.9394
    endloop
  endfacet
  facet normal 0.406736 0 0.913546
    outer loop
      vertex 12.35 3.5 11.6813
      vertex 12.7511 0 11.5028
      vertex 12.7511 3.5 11.5028
    endloop
  endfacet
  facet normal 0.406736 0 0.913546
    outer loop
      vertex 12.7511 0 11.5028
      vertex 12.35 3.5 11.6813
      vertex 12.35 0 11.6813
    endloop
  endfacet
  facet normal 0.994522 -2.84818e-08 0.104529
    outer loop
      vertex 11.3083 0 13.4206
      vertex 11.3 3.5 13.5
      vertex 11.3 0 13.5
    endloop
  endfacet
  facet normal 0.994522 -7.86589e-09 0.104528
    outer loop
      vertex 11.3 3.5 13.5
      vertex 11.3083 0 13.4206
      vertex 11.3375 3.5 13.1428
    endloop
  endfacet
  facet normal 0.207912 0 0.978148
    outer loop
      vertex 12.7511 3.5 11.5028
      vertex 13.1805 0 11.4115
      vertex 13.1805 3.5 11.4115
    endloop
  endfacet
  facet normal 0.207912 0 0.978148
    outer loop
      vertex 13.1805 0 11.4115
      vertex 12.7511 3.5 11.5028
      vertex 12.7511 0 11.5028
    endloop
  endfacet
  facet normal 0.951056 -0 0.309018
    outer loop
      vertex 11.3459 0 13.0634
      vertex 11.4816 3.5 12.6459
      vertex 11.3459 3.5 13.0634
    endloop
  endfacet
  facet normal 0.951056 0 0.309018
    outer loop
      vertex 11.4816 3.5 12.6459
      vertex 11.3459 0 13.0634
      vertex 11.4816 0 12.6459
    endloop
  endfacet
  facet normal -0 0 1
    outer loop
      vertex 13.1805 3.5 11.4115
      vertex 13.6195 0 11.4115
      vertex 13.6195 3.5 11.4115
    endloop
  endfacet
  facet normal 0 0 1
    outer loop
      vertex 13.6195 0 11.4115
      vertex 13.1805 3.5 11.4115
      vertex 13.1805 0 11.4115
    endloop
  endfacet
  facet normal -0.587785 0 0.809017
    outer loop
      vertex 14.45 3.5 11.6813
      vertex 14.8052 0 11.9394
      vertex 14.8052 3.5 11.9394
    endloop
  endfacet
  facet normal -0.587785 0 0.809017
    outer loop
      vertex 14.8052 0 11.9394
      vertex 14.45 3.5 11.6813
      vertex 14.45 0 11.6813
    endloop
  endfacet
  facet normal -0.406736 0 -0.913546
    outer loop
      vertex 14.0489 0 15.4972
      vertex 14.45 3.5 15.3187
      vertex 14.45 0 15.3187
    endloop
  endfacet
  facet normal -0.406736 0 -0.913546
    outer loop
      vertex 14.45 3.5 15.3187
      vertex 14.0489 0 15.4972
      vertex 14.0489 3.5 15.4972
    endloop
  endfacet
  facet normal -0.951057 0 -0.309016
    outer loop
      vertex 15.4541 0 13.9366
      vertex 15.3184 3.5 14.3541
      vertex 15.4541 3.5 13.9366
    endloop
  endfacet
  facet normal -0.951057 -0 -0.309016
    outer loop
      vertex 15.3184 3.5 14.3541
      vertex 15.4541 0 13.9366
      vertex 15.3184 0 14.3541
    endloop
  endfacet
  facet normal 0 0 -1
    outer loop
      vertex 13.1805 0 15.5885
      vertex 13.6195 3.5 15.5885
      vertex 13.6195 0 15.5885
    endloop
  endfacet
  facet normal -0 0 -1
    outer loop
      vertex 13.6195 3.5 15.5885
      vertex 13.1805 0 15.5885
      vertex 13.1805 3.5 15.5885
    endloop
  endfacet
  facet normal 0.406736 0 -0.913546
    outer loop
      vertex 12.35 0 15.3187
      vertex 12.7511 3.5 15.4972
      vertex 12.7511 0 15.4972
    endloop
  endfacet
  facet normal 0.406736 0 -0.913546
    outer loop
      vertex 12.7511 3.5 15.4972
      vertex 12.35 0 15.3187
      vertex 12.35 3.5 15.3187
    endloop
  endfacet
  facet normal 0.743146 0 -0.66913
    outer loop
      vertex 11.9948 0 15.0606
      vertex 11.7011 3.5 14.7343
      vertex 11.9948 3.5 15.0606
    endloop
  endfacet
  facet normal 0.743146 0 -0.66913
    outer loop
      vertex 11.7011 3.5 14.7343
      vertex 11.9948 0 15.0606
      vertex 11.7011 0 14.7343
    endloop
  endfacet
  facet normal 0.587785 0 -0.809017
    outer loop
      vertex 11.9948 0 15.0606
      vertex 12.35 3.5 15.3187
      vertex 12.35 0 15.3187
    endloop
  endfacet
  facet normal 0.587785 0 -0.809017
    outer loop
      vertex 12.35 3.5 15.3187
      vertex 11.9948 0 15.0606
      vertex 11.9948 3.5 15.0606
    endloop
  endfacet
  facet normal 0.951056 0 -0.309018
    outer loop
      vertex 11.4816 0 14.3541
      vertex 11.3459 3.5 13.9366
      vertex 11.4816 3.5 14.3541
    endloop
  endfacet
  facet normal 0.951056 0 -0.309018
    outer loop
      vertex 11.3459 3.5 13.9366
      vertex 11.4816 0 14.3541
      vertex 11.3459 0 13.9366
    endloop
  endfacet
  facet normal -0.207912 0 0.978148
    outer loop
      vertex 13.6195 3.5 11.4115
      vertex 14.0489 0 11.5028
      vertex 14.0489 3.5 11.5028
    endloop
  endfacet
  facet normal -0.207912 0 0.978148
    outer loop
      vertex 14.0489 0 11.5028
      vertex 13.6195 3.5 11.4115
      vertex 13.6195 0 11.4115
    endloop
  endfacet
  facet normal -0.406736 0 0.913546
    outer loop
      vertex 14.0489 3.5 11.5028
      vertex 14.45 0 11.6813
      vertex 14.45 3.5 11.6813
    endloop
  endfacet
  facet normal -0.406736 0 0.913546
    outer loop
      vertex 14.45 0 11.6813
      vertex 14.0489 3.5 11.5028
      vertex 14.0489 0 11.5028
    endloop
  endfacet
  facet normal -0.866025 0 0.5
    outer loop
      vertex 15.0989 0 12.2657
      vertex 15.3184 3.5 12.6459
      vertex 15.0989 3.5 12.2657
    endloop
  endfacet
  facet normal -0.866025 0 0.5
    outer loop
      vertex 15.3184 3.5 12.6459
      vertex 15.0989 0 12.2657
      vertex 15.3184 0 12.6459
    endloop
  endfacet
  facet normal -0.951057 0 0.309016
    outer loop
      vertex 15.3184 0 12.6459
      vertex 15.4541 3.5 13.0634
      vertex 15.3184 3.5 12.6459
    endloop
  endfacet
  facet normal -0.951057 0 0.309016
    outer loop
      vertex 15.4541 3.5 13.0634
      vertex 15.3184 0 12.6459
      vertex 15.4541 0 13.0634
    endloop
  endfacet
  facet normal -0.743146 0 0.66913
    outer loop
      vertex 14.8052 0 11.9394
      vertex 15.0989 3.5 12.2657
      vertex 14.8052 3.5 11.9394
    endloop
  endfacet
  facet normal -0.743146 0 0.66913
    outer loop
      vertex 15.0989 3.5 12.2657
      vertex 14.8052 0 11.9394
      vertex 15.0989 0 12.2657
    endloop
  endfacet
  facet normal -0.743146 0 -0.66913
    outer loop
      vertex 15.0989 0 14.7343
      vertex 14.8052 3.5 15.0606
      vertex 15.0989 3.5 14.7343
    endloop
  endfacet
  facet normal -0.743146 -0 -0.66913
    outer loop
      vertex 14.8052 3.5 15.0606
      vertex 15.0989 0 14.7343
      vertex 14.8052 0 15.0606
    endloop
  endfacet
  facet normal -0.587785 0 -0.809017
    outer loop
      vertex 14.45 0 15.3187
      vertex 14.8052 3.5 15.0606
      vertex 14.8052 0 15.0606
    endloop
  endfacet
  facet normal -0.587785 0 -0.809017
    outer loop
      vertex 14.8052 3.5 15.0606
      vertex 14.45 0 15.3187
      vertex 14.45 3.5 15.3187
    endloop
  endfacet
  facet normal -0.994522 0 -0.10453
    outer loop
      vertex 15.5 0 13.5
      vertex 15.4541 3.5 13.9366
      vertex 15.5 3.5 13.5
    endloop
  endfacet
  facet normal -0.994522 -0 -0.10453
    outer loop
      vertex 15.4541 3.5 13.9366
      vertex 15.5 0 13.5
      vertex 15.4541 0 13.9366
    endloop
  endfacet
  facet normal 0.207912 0 -0.978148
    outer loop
      vertex 12.7511 0 15.4972
      vertex 13.1805 3.5 15.5885
      vertex 13.1805 0 15.5885
    endloop
  endfacet
  facet normal 0.207912 0 -0.978148
    outer loop
      vertex 13.1805 3.5 15.5885
      vertex 12.7511 0 15.4972
      vertex 12.7511 3.5 15.4972
    endloop
  endfacet
  facet normal 0.866025 0 -0.5
    outer loop
      vertex 11.7011 0 14.7343
      vertex 11.4816 3.5 14.3541
      vertex 11.7011 3.5 14.7343
    endloop
  endfacet
  facet normal 0.866025 0 -0.5
    outer loop
      vertex 11.4816 3.5 14.3541
      vertex 11.7011 0 14.7343
      vertex 11.4816 0 14.3541
    endloop
  endfacet
  facet normal 0 -1 0
    outer loop
      vertex 3.4 23.7 3.5
      vertex 23.6 23.7 23.5
      vertex 3.4 23.7 23.5
    endloop
  endfacet
  facet normal 0 -1 -0
    outer loop
      vertex 23.6 23.7 23.5
      vertex 3.4 23.7 3.5
      vertex 23.6 23.7 3.5
    endloop
  endfacet
  facet normal 0 1 -0
    outer loop
      vertex 23.6 34.4 3.5
      vertex 3.4 34.4 23.5
      vertex 23.6 34.4 23.5
    endloop
  endfacet
  facet normal 0 1 0
    outer loop
      vertex 3.4 34.4 23.5
      vertex 23.6 34.4 3.5
      vertex 3.4 34.4 3.5
    endloop
  endfacet
endsolid OpenSCAD_Model
