solid OpenSCAD_Model
  facet normal -0.844328 -0.535826 0
    outer loop
      vertex 2.67274 1.46935 0
      vertex 2.4675 1.79274 10
      vertex 2.4675 1.79274 0
    endloop
  endfacet
  facet normal -0.844328 -0.535826 0
    outer loop
      vertex 2.4675 1.79274 10
      vertex 2.67274 1.46935 0
      vertex 2.67274 1.46935 10
    endloop
  endfacet
  facet normal -0.24869 -0.968583 0
    outer loop
      vertex 0.571512 2.99598 0
      vertex 0.942501 2.90072 10
      vertex 0.571512 2.99598 10
    endloop
  endfacet
  facet normal -0.24869 -0.968583 -0
    outer loop
      vertex 0.942501 2.90072 10
      vertex 0.571512 2.99598 0
      vertex 0.942501 2.90072 0
    endloop
  endfacet
  facet normal -0.368125 -0.929777 0
    outer loop
      vertex 0.942501 2.90072 0
      vertex 1.29863 2.75972 10
      vertex 0.942501 2.90072 10
    endloop
  endfacet
  facet normal -0.368125 -0.929777 -0
    outer loop
      vertex 1.29863 2.75972 10
      vertex 0.942501 2.90072 0
      vertex 1.29863 2.75972 0
    endloop
  endfacet
  facet normal 0.368125 -0.929777 0
    outer loop
      vertex -1.29863 2.75972 0
      vertex -0.942501 2.90072 10
      vertex -1.29863 2.75972 10
    endloop
  endfacet
  facet normal 0.368125 -0.929777 0
    outer loop
      vertex -0.942501 2.90072 10
      vertex -1.29863 2.75972 0
      vertex -0.942501 2.90072 0
    endloop
  endfacet
  facet normal -0.982287 -0.187382 0
    outer loop
      vertex 3.02595 0.382266 0
      vertex 2.95418 0.758504 10
      vertex 2.95418 0.758504 0
    endloop
  endfacet
  facet normal -0.982287 -0.187382 0
    outer loop
      vertex 2.95418 0.758504 10
      vertex 3.02595 0.382266 0
      vertex 3.02595 0.382266 10
    endloop
  endfacet
  facet normal -0.587786 -0.809016 0
    outer loop
      vertex 1.63427 2.5752 0
      vertex 1.94414 2.35007 10
      vertex 1.63427 2.5752 10
    endloop
  endfacet
  facet normal -0.587786 -0.809016 -0
    outer loop
      vertex 1.94414 2.35007 10
      vertex 1.63427 2.5752 0
      vertex 1.94414 2.35007 0
    endloop
  endfacet
  facet normal 0.481751 -0.876308 0
    outer loop
      vertex -1.5 2.64902 0
      vertex -1.29863 2.75972 10
      vertex -1.5 2.64902 10
    endloop
  endfacet
  facet normal 0.481751 -0.876308 0
    outer loop
      vertex -1.29863 2.75972 10
      vertex -1.5 2.64902 0
      vertex -1.29863 2.75972 0
    endloop
  endfacet
  facet normal 0.125332 -0.992115 0
    outer loop
      vertex -0.571512 2.99598 0
      vertex -0.19151 3.04398 10
      vertex -0.571512 2.99598 10
    endloop
  endfacet
  facet normal 0.125332 -0.992115 0
    outer loop
      vertex -0.19151 3.04398 10
      vertex -0.571512 2.99598 0
      vertex -0.19151 3.04398 0
    endloop
  endfacet
  facet normal -0.684548 -0.728967 0
    outer loop
      vertex 1.94414 2.35007 0
      vertex 2.22335 2.08787 10
      vertex 1.94414 2.35007 10
    endloop
  endfacet
  facet normal -0.684548 -0.728967 -0
    outer loop
      vertex 2.22335 2.08787 10
      vertex 1.94414 2.35007 0
      vertex 2.22335 2.08787 0
    endloop
  endfacet
  facet normal -0.770512 -0.637426 0
    outer loop
      vertex 2.4675 1.79274 0
      vertex 2.22335 2.08787 10
      vertex 2.22335 2.08787 0
    endloop
  endfacet
  facet normal -0.770512 -0.637426 0
    outer loop
      vertex 2.22335 2.08787 10
      vertex 2.4675 1.79274 0
      vertex 2.4675 1.79274 10
    endloop
  endfacet
  facet normal 0 -1 0
    outer loop
      vertex -0.19151 3.04398 0
      vertex 0.19151 3.04398 10
      vertex -0.19151 3.04398 10
    endloop
  endfacet
  facet normal 0 -1 -0
    outer loop
      vertex 0.19151 3.04398 10
      vertex -0.19151 3.04398 0
      vertex 0.19151 3.04398 0
    endloop
  endfacet
  facet normal -0.481751 -0.876308 0
    outer loop
      vertex 1.29863 2.75972 0
      vertex 1.63427 2.5752 10
      vertex 1.29863 2.75972 10
    endloop
  endfacet
  facet normal -0.481751 -0.876308 -0
    outer loop
      vertex 1.63427 2.5752 10
      vertex 1.29863 2.75972 0
      vertex 1.63427 2.5752 0
    endloop
  endfacet
  facet normal 0.24869 -0.968583 0
    outer loop
      vertex -0.942501 2.90072 0
      vertex -0.571512 2.99598 10
      vertex -0.942501 2.90072 10
    endloop
  endfacet
  facet normal 0.24869 -0.968583 0
    outer loop
      vertex -0.571512 2.99598 10
      vertex -0.942501 2.90072 0
      vertex -0.571512 2.99598 0
    endloop
  endfacet
  facet normal -0.998027 -0.0627895 0
    outer loop
      vertex 3.05 0 0
      vertex 3.02595 0.382266 10
      vertex 3.02595 0.382266 0
    endloop
  endfacet
  facet normal -0.998027 -0.0627895 0
    outer loop
      vertex 3.02595 0.382266 10
      vertex 3.05 0 0
      vertex 3.05 0 10
    endloop
  endfacet
  facet normal -0.998027 0.0627895 0
    outer loop
      vertex 3.02595 -0.382266 0
      vertex 3.05 0 10
      vertex 3.05 0 0
    endloop
  endfacet
  facet normal -0.998027 0.0627895 0
    outer loop
      vertex 3.05 0 10
      vertex 3.02595 -0.382266 0
      vertex 3.02595 -0.382266 10
    endloop
  endfacet
  facet normal -0.982287 0.187382 0
    outer loop
      vertex 2.95418 -0.758504 0
      vertex 3.02595 -0.382266 10
      vertex 3.02595 -0.382266 0
    endloop
  endfacet
  facet normal -0.982287 0.187382 0
    outer loop
      vertex 3.02595 -0.382266 10
      vertex 2.95418 -0.758504 0
      vertex 2.95418 -0.758504 10
    endloop
  endfacet
  facet normal 0 1 -0
    outer loop
      vertex 0.19151 -3.04398 0
      vertex -0.19151 -3.04398 10
      vertex 0.19151 -3.04398 10
    endloop
  endfacet
  facet normal 0 1 0
    outer loop
      vertex -0.19151 -3.04398 10
      vertex 0.19151 -3.04398 0
      vertex -0.19151 -3.04398 0
    endloop
  endfacet
  facet normal -0.125332 0.992115 0
    outer loop
      vertex 0.571512 -2.99598 0
      vertex 0.19151 -3.04398 10
      vertex 0.571512 -2.99598 10
    endloop
  endfacet
  facet normal -0.125332 0.992115 0
    outer loop
      vertex 0.19151 -3.04398 10
      vertex 0.571512 -2.99598 0
      vertex 0.19151 -3.04398 0
    endloop
  endfacet
  facet normal -0.904828 -0.425778 0
    outer loop
      vertex 2.83582 1.12278 0
      vertex 2.67274 1.46935 10
      vertex 2.67274 1.46935 0
    endloop
  endfacet
  facet normal -0.904828 -0.425778 0
    outer loop
      vertex 2.67274 1.46935 10
      vertex 2.83582 1.12278 0
      vertex 2.83582 1.12278 10
    endloop
  endfacet
  facet normal -0.951056 -0.309017 0
    outer loop
      vertex 2.95418 0.758504 0
      vertex 2.83582 1.12278 10
      vertex 2.83582 1.12278 0
    endloop
  endfacet
  facet normal -0.951056 -0.309017 0
    outer loop
      vertex 2.83582 1.12278 10
      vertex 2.95418 0.758504 0
      vertex 2.95418 0.758504 10
    endloop
  endfacet
  facet normal -0.125332 -0.992115 0
    outer loop
      vertex 0.19151 3.04398 0
      vertex 0.571512 2.99598 10
      vertex 0.19151 3.04398 10
    endloop
  endfacet
  facet normal -0.125332 -0.992115 -0
    outer loop
      vertex 0.571512 2.99598 10
      vertex 0.19151 3.04398 0
      vertex 0.571512 2.99598 0
    endloop
  endfacet
  facet normal -0.770512 0.637426 0
    outer loop
      vertex 2.22335 -2.08787 0
      vertex 2.4675 -1.79274 10
      vertex 2.4675 -1.79274 0
    endloop
  endfacet
  facet normal -0.770512 0.637426 0
    outer loop
      vertex 2.4675 -1.79274 10
      vertex 2.22335 -2.08787 0
      vertex 2.22335 -2.08787 10
    endloop
  endfacet
  facet normal -0.844328 0.535826 0
    outer loop
      vertex 2.4675 -1.79274 0
      vertex 2.67274 -1.46935 10
      vertex 2.67274 -1.46935 0
    endloop
  endfacet
  facet normal -0.844328 0.535826 0
    outer loop
      vertex 2.67274 -1.46935 10
      vertex 2.4675 -1.79274 0
      vertex 2.4675 -1.79274 10
    endloop
  endfacet
  facet normal -0.904828 0.425778 0
    outer loop
      vertex 2.67274 -1.46935 0
      vertex 2.83582 -1.12278 10
      vertex 2.83582 -1.12278 0
    endloop
  endfacet
  facet normal -0.904828 0.425778 0
    outer loop
      vertex 2.83582 -1.12278 10
      vertex 2.67274 -1.46935 0
      vertex 2.67274 -1.46935 10
    endloop
  endfacet
  facet normal 0.368125 0.929777 -0
    outer loop
      vertex -0.942501 -2.90072 0
      vertex -1.29863 -2.75972 10
      vertex -0.942501 -2.90072 10
    endloop
  endfacet
  facet normal 0.368125 0.929777 0
    outer loop
      vertex -1.29863 -2.75972 10
      vertex -0.942501 -2.90072 0
      vertex -1.29863 -2.75972 0
    endloop
  endfacet
  facet normal -0.368125 0.929777 0
    outer loop
      vertex 1.29863 -2.75972 0
      vertex 0.942501 -2.90072 10
      vertex 1.29863 -2.75972 10
    endloop
  endfacet
  facet normal -0.368125 0.929777 0
    outer loop
      vertex 0.942501 -2.90072 10
      vertex 1.29863 -2.75972 0
      vertex 0.942501 -2.90072 0
    endloop
  endfacet
  facet normal -0.24869 0.968583 0
    outer loop
      vertex 0.942501 -2.90072 0
      vertex 0.571512 -2.99598 10
      vertex 0.942501 -2.90072 10
    endloop
  endfacet
  facet normal -0.24869 0.968583 0
    outer loop
      vertex 0.571512 -2.99598 10
      vertex 0.942501 -2.90072 0
      vertex 0.571512 -2.99598 0
    endloop
  endfacet
  facet normal -0.684548 0.728967 0
    outer loop
      vertex 2.22335 -2.08787 0
      vertex 1.94414 -2.35007 10
      vertex 2.22335 -2.08787 10
    endloop
  endfacet
  facet normal -0.684548 0.728967 0
    outer loop
      vertex 1.94414 -2.35007 10
      vertex 2.22335 -2.08787 0
      vertex 1.94414 -2.35007 0
    endloop
  endfacet
  facet normal -0.587786 0.809016 0
    outer loop
      vertex 1.94414 -2.35007 0
      vertex 1.63427 -2.5752 10
      vertex 1.94414 -2.35007 10
    endloop
  endfacet
  facet normal -0.587786 0.809016 0
    outer loop
      vertex 1.63427 -2.5752 10
      vertex 1.94414 -2.35007 0
      vertex 1.63427 -2.5752 0
    endloop
  endfacet
  facet normal -0.951056 0.309017 0
    outer loop
      vertex 2.83582 -1.12278 0
      vertex 2.95418 -0.758504 10
      vertex 2.95418 -0.758504 0
    endloop
  endfacet
  facet normal -0.951056 0.309017 0
    outer loop
      vertex 2.95418 -0.758504 10
      vertex 2.83582 -1.12278 0
      vertex 2.83582 -1.12278 10
    endloop
  endfacet
  facet normal 0.24869 0.968583 -0
    outer loop
      vertex -0.571512 -2.99598 0
      vertex -0.942501 -2.90072 10
      vertex -0.571512 -2.99598 10
    endloop
  endfacet
  facet normal 0.24869 0.968583 0
    outer loop
      vertex -0.942501 -2.90072 10
      vertex -0.571512 -2.99598 0
      vertex -0.942501 -2.90072 0
    endloop
  endfacet
  facet normal 0.125332 0.992115 -0
    outer loop
      vertex -0.19151 -3.04398 0
      vertex -0.571512 -2.99598 10
      vertex -0.19151 -3.04398 10
    endloop
  endfacet
  facet normal 0.125332 0.992115 0
    outer loop
      vertex -0.571512 -2.99598 10
      vertex -0.19151 -3.04398 0
      vertex -0.571512 -2.99598 0
    endloop
  endfacet
  facet normal -0.481751 0.876308 0
    outer loop
      vertex 1.63427 -2.5752 0
      vertex 1.29863 -2.75972 10
      vertex 1.63427 -2.5752 10
    endloop
  endfacet
  facet normal -0.481751 0.876308 0
    outer loop
      vertex 1.29863 -2.75972 10
      vertex 1.63427 -2.5752 0
      vertex 1.29863 -2.75972 0
    endloop
  endfacet
  facet normal 0.481751 0.876308 -0
    outer loop
      vertex -1.29863 -2.75972 0
      vertex -1.5 -2.64902 10
      vertex -1.29863 -2.75972 10
    endloop
  endfacet
  facet normal 0.481751 0.876308 0
    outer loop
      vertex -1.5 -2.64902 10
      vertex -1.29863 -2.75972 0
      vertex -1.5 -2.64902 0
    endloop
  endfacet
  facet normal -0.998027 -0.0627894 0
    outer loop
      vertex 3.05 32 0
      vertex 3.02595 32.3823 10
      vertex 3.02595 32.3823 0
    endloop
  endfacet
  facet normal -0.998027 -0.0627894 0
    outer loop
      vertex 3.02595 32.3823 10
      vertex 3.05 32 0
      vertex 3.05 32 10
    endloop
  endfacet
  facet normal 0.12533 -0.992115 0
    outer loop
      vertex -0.571512 34.996 0
      vertex -0.19151 35.044 10
      vertex -0.571512 34.996 10
    endloop
  endfacet
  facet normal 0.12533 -0.992115 0
    outer loop
      vertex -0.19151 35.044 10
      vertex -0.571512 34.996 0
      vertex -0.19151 35.044 0
    endloop
  endfacet
  facet normal -0.125335 0.992114 0
    outer loop
      vertex 0.571512 29.004 0
      vertex 0.19151 28.956 10
      vertex 0.571512 29.004 10
    endloop
  endfacet
  facet normal -0.125335 0.992114 0
    outer loop
      vertex 0.19151 28.956 10
      vertex 0.571512 29.004 0
      vertex 0.19151 28.956 0
    endloop
  endfacet
  facet normal -0.587781 -0.80902 0
    outer loop
      vertex 1.63427 34.5752 0
      vertex 1.94414 34.3501 10
      vertex 1.63427 34.5752 10
    endloop
  endfacet
  facet normal -0.587781 -0.80902 -0
    outer loop
      vertex 1.94414 34.3501 10
      vertex 1.63427 34.5752 0
      vertex 1.94414 34.3501 0
    endloop
  endfacet
  facet normal 0.481741 -0.876314 0
    outer loop
      vertex -1.5 34.649 0
      vertex -1.29863 34.7597 10
      vertex -1.5 34.649 10
    endloop
  endfacet
  facet normal 0.481741 -0.876314 0
    outer loop
      vertex -1.29863 34.7597 10
      vertex -1.5 34.649 0
      vertex -1.29863 34.7597 0
    endloop
  endfacet
  facet normal -0.844328 0.535826 0
    outer loop
      vertex 2.4675 30.2073 0
      vertex 2.67274 30.5307 10
      vertex 2.67274 30.5307 0
    endloop
  endfacet
  facet normal -0.844328 0.535826 0
    outer loop
      vertex 2.67274 30.5307 10
      vertex 2.4675 30.2073 0
      vertex 2.4675 30.2073 10
    endloop
  endfacet
  facet normal -0.844327 -0.535829 0
    outer loop
      vertex 2.67274 33.4693 0
      vertex 2.4675 33.7927 10
      vertex 2.4675 33.7927 0
    endloop
  endfacet
  facet normal -0.844327 -0.535829 0
    outer loop
      vertex 2.4675 33.7927 10
      vertex 2.67274 33.4693 0
      vertex 2.67274 33.4693 10
    endloop
  endfacet
  facet normal -0.248688 -0.968584 0
    outer loop
      vertex 0.571512 34.996 0
      vertex 0.942501 34.9007 10
      vertex 0.571512 34.996 10
    endloop
  endfacet
  facet normal -0.248688 -0.968584 -0
    outer loop
      vertex 0.942501 34.9007 10
      vertex 0.571512 34.996 0
      vertex 0.942501 34.9007 0
    endloop
  endfacet
  facet normal -0.12533 -0.992115 0
    outer loop
      vertex 0.19151 35.044 0
      vertex 0.571512 34.996 10
      vertex 0.19151 35.044 10
    endloop
  endfacet
  facet normal -0.12533 -0.992115 -0
    outer loop
      vertex 0.571512 34.996 10
      vertex 0.19151 35.044 0
      vertex 0.571512 34.996 0
    endloop
  endfacet
  facet normal -0.368131 -0.929774 0
    outer loop
      vertex 0.942501 34.9007 0
      vertex 1.29863 34.7597 10
      vertex 0.942501 34.9007 10
    endloop
  endfacet
  facet normal -0.368131 -0.929774 -0
    outer loop
      vertex 1.29863 34.7597 10
      vertex 0.942501 34.9007 0
      vertex 1.29863 34.7597 0
    endloop
  endfacet
  facet normal 0.248688 -0.968584 0
    outer loop
      vertex -0.942501 34.9007 0
      vertex -0.571512 34.996 10
      vertex -0.942501 34.9007 10
    endloop
  endfacet
  facet normal 0.248688 -0.968584 0
    outer loop
      vertex -0.571512 34.996 10
      vertex -0.942501 34.9007 0
      vertex -0.571512 34.996 0
    endloop
  endfacet
  facet normal -0.982287 0.187382 0
    outer loop
      vertex 2.95418 31.2415 0
      vertex 3.02595 31.6177 10
      vertex 3.02595 31.6177 0
    endloop
  endfacet
  facet normal -0.982287 0.187382 0
    outer loop
      vertex 3.02595 31.6177 10
      vertex 2.95418 31.2415 0
      vertex 2.95418 31.2415 10
    endloop
  endfacet
  facet normal -0.248688 0.968584 0
    outer loop
      vertex 0.942501 29.0993 0
      vertex 0.571512 29.004 10
      vertex 0.942501 29.0993 10
    endloop
  endfacet
  facet normal -0.248688 0.968584 0
    outer loop
      vertex 0.571512 29.004 10
      vertex 0.942501 29.0993 0
      vertex 0.571512 29.004 0
    endloop
  endfacet
  facet normal -0.481753 0.876307 0
    outer loop
      vertex 1.63427 29.4248 0
      vertex 1.29863 29.2403 10
      vertex 1.63427 29.4248 10
    endloop
  endfacet
  facet normal -0.481753 0.876307 0
    outer loop
      vertex 1.29863 29.2403 10
      vertex 1.63427 29.4248 0
      vertex 1.29863 29.2403 0
    endloop
  endfacet
  facet normal -0.951057 -0.309016 0
    outer loop
      vertex 2.95418 32.7585 0
      vertex 2.83582 33.1228 10
      vertex 2.83582 33.1228 0
    endloop
  endfacet
  facet normal -0.951057 -0.309016 0
    outer loop
      vertex 2.83582 33.1228 10
      vertex 2.95418 32.7585 0
      vertex 2.95418 32.7585 10
    endloop
  endfacet
  facet normal -0.982287 -0.187383 0
    outer loop
      vertex 3.02595 32.3823 0
      vertex 2.95418 32.7585 10
      vertex 2.95418 32.7585 0
    endloop
  endfacet
  facet normal -0.982287 -0.187383 0
    outer loop
      vertex 2.95418 32.7585 10
      vertex 3.02595 32.3823 0
      vertex 3.02595 32.3823 10
    endloop
  endfacet
  facet normal -0.904828 -0.425777 0
    outer loop
      vertex 2.83582 33.1228 0
      vertex 2.67274 33.4693 10
      vertex 2.67274 33.4693 0
    endloop
  endfacet
  facet normal -0.904828 -0.425777 0
    outer loop
      vertex 2.67274 33.4693 10
      vertex 2.83582 33.1228 0
      vertex 2.83582 33.1228 10
    endloop
  endfacet
  facet normal -0.684551 -0.728965 0
    outer loop
      vertex 1.94414 34.3501 0
      vertex 2.22335 34.0879 10
      vertex 1.94414 34.3501 10
    endloop
  endfacet
  facet normal -0.684551 -0.728965 -0
    outer loop
      vertex 2.22335 34.0879 10
      vertex 1.94414 34.3501 0
      vertex 2.22335 34.0879 0
    endloop
  endfacet
  facet normal -0.770513 -0.637425 0
    outer loop
      vertex 2.4675 33.7927 0
      vertex 2.22335 34.0879 10
      vertex 2.22335 34.0879 0
    endloop
  endfacet
  facet normal -0.770513 -0.637425 0
    outer loop
      vertex 2.22335 34.0879 10
      vertex 2.4675 33.7927 0
      vertex 2.4675 33.7927 10
    endloop
  endfacet
  facet normal 0 -1 0
    outer loop
      vertex -0.19151 35.044 0
      vertex 0.19151 35.044 10
      vertex -0.19151 35.044 10
    endloop
  endfacet
  facet normal 0 -1 -0
    outer loop
      vertex 0.19151 35.044 10
      vertex -0.19151 35.044 0
      vertex 0.19151 35.044 0
    endloop
  endfacet
  facet normal -0.48175 -0.876309 0
    outer loop
      vertex 1.29863 34.7597 0
      vertex 1.63427 34.5752 10
      vertex 1.29863 34.7597 10
    endloop
  endfacet
  facet normal -0.48175 -0.876309 -0
    outer loop
      vertex 1.63427 34.5752 10
      vertex 1.29863 34.7597 0
      vertex 1.63427 34.5752 0
    endloop
  endfacet
  facet normal 0.368131 -0.929774 0
    outer loop
      vertex -1.29863 34.7597 0
      vertex -0.942501 34.9007 10
      vertex -1.29863 34.7597 10
    endloop
  endfacet
  facet normal 0.368131 -0.929774 0
    outer loop
      vertex -0.942501 34.9007 10
      vertex -1.29863 34.7597 0
      vertex -0.942501 34.9007 0
    endloop
  endfacet
  facet normal -0.998027 0.0627894 0
    outer loop
      vertex 3.02595 31.6177 0
      vertex 3.05 32 10
      vertex 3.05 32 0
    endloop
  endfacet
  facet normal -0.998027 0.0627894 0
    outer loop
      vertex 3.05 32 10
      vertex 3.02595 31.6177 0
      vertex 3.02595 31.6177 10
    endloop
  endfacet
  facet normal -0.770511 0.637427 0
    outer loop
      vertex 2.22335 29.9121 0
      vertex 2.4675 30.2073 10
      vertex 2.4675 30.2073 0
    endloop
  endfacet
  facet normal -0.770511 0.637427 0
    outer loop
      vertex 2.4675 30.2073 10
      vertex 2.22335 29.9121 0
      vertex 2.22335 29.9121 10
    endloop
  endfacet
  facet normal -0.587785 0.809017 0
    outer loop
      vertex 1.94414 29.6499 0
      vertex 1.63427 29.4248 10
      vertex 1.94414 29.6499 10
    endloop
  endfacet
  facet normal -0.587785 0.809017 0
    outer loop
      vertex 1.63427 29.4248 10
      vertex 1.94414 29.6499 0
      vertex 1.63427 29.4248 0
    endloop
  endfacet
  facet normal -0.684551 0.728965 0
    outer loop
      vertex 2.22335 29.9121 0
      vertex 1.94414 29.6499 10
      vertex 2.22335 29.9121 10
    endloop
  endfacet
  facet normal -0.684551 0.728965 0
    outer loop
      vertex 1.94414 29.6499 10
      vertex 2.22335 29.9121 0
      vertex 1.94414 29.6499 0
    endloop
  endfacet
  facet normal -0.904828 0.425777 0
    outer loop
      vertex 2.67274 30.5307 0
      vertex 2.83582 30.8772 10
      vertex 2.83582 30.8772 0
    endloop
  endfacet
  facet normal -0.904828 0.425777 0
    outer loop
      vertex 2.83582 30.8772 10
      vertex 2.67274 30.5307 0
      vertex 2.67274 30.5307 10
    endloop
  endfacet
  facet normal -0.368122 0.929777 0
    outer loop
      vertex 1.29863 29.2403 0
      vertex 0.942501 29.0993 10
      vertex 1.29863 29.2403 10
    endloop
  endfacet
  facet normal -0.368122 0.929777 0
    outer loop
      vertex 0.942501 29.0993 10
      vertex 1.29863 29.2403 0
      vertex 0.942501 29.0993 0
    endloop
  endfacet
  facet normal -0.951056 0.309018 0
    outer loop
      vertex 2.83582 30.8772 0
      vertex 2.95418 31.2415 10
      vertex 2.95418 31.2415 0
    endloop
  endfacet
  facet normal -0.951056 0.309018 0
    outer loop
      vertex 2.95418 31.2415 10
      vertex 2.83582 30.8772 0
      vertex 2.83582 30.8772 10
    endloop
  endfacet
  facet normal 0.248688 0.968584 -0
    outer loop
      vertex -0.571512 29.004 0
      vertex -0.942501 29.0993 10
      vertex -0.571512 29.004 10
    endloop
  endfacet
  facet normal 0.248688 0.968584 0
    outer loop
      vertex -0.942501 29.0993 10
      vertex -0.571512 29.004 0
      vertex -0.942501 29.0993 0
    endloop
  endfacet
  facet normal 0.125335 0.992114 -0
    outer loop
      vertex -0.19151 28.956 0
      vertex -0.571512 29.004 10
      vertex -0.19151 28.956 10
    endloop
  endfacet
  facet normal 0.125335 0.992114 0
    outer loop
      vertex -0.571512 29.004 10
      vertex -0.19151 28.956 0
      vertex -0.571512 29.004 0
    endloop
  endfacet
  facet normal 0.481754 0.876307 -0
    outer loop
      vertex -1.29863 29.2403 0
      vertex -1.5 29.351 10
      vertex -1.29863 29.2403 10
    endloop
  endfacet
  facet normal 0.481754 0.876307 0
    outer loop
      vertex -1.5 29.351 10
      vertex -1.29863 29.2403 0
      vertex -1.5 29.351 0
    endloop
  endfacet
  facet normal 0 1 -0
    outer loop
      vertex 0.19151 28.956 0
      vertex -0.19151 28.956 10
      vertex 0.19151 28.956 10
    endloop
  endfacet
  facet normal 0 1 0
    outer loop
      vertex -0.19151 28.956 10
      vertex 0.19151 28.956 0
      vertex -0.19151 28.956 0
    endloop
  endfacet
  facet normal 0.368122 0.929777 -0
    outer loop
      vertex -0.942501 29.0993 0
      vertex -1.29863 29.2403 10
      vertex -0.942501 29.0993 10
    endloop
  endfacet
  facet normal 0.368122 0.929777 0
    outer loop
      vertex -1.29863 29.2403 10
      vertex -0.942501 29.0993 0
      vertex -1.29863 29.2403 0
    endloop
  endfacet
  facet normal 0.905172 -0.425046 0
    outer loop
      vertex 15 0 10
      vertex 21.6489 14.1594 0
      vertex 21.6489 14.1594 10
    endloop
  endfacet
  facet normal 0.905172 -0.425046 0
    outer loop
      vertex 21.6489 14.1594 0
      vertex 15 0 10
      vertex 15 0 0
    endloop
  endfacet
  facet normal 0.998027 0.0627909 0
    outer loop
      vertex 22 16 10
      vertex 21.9606 16.6267 0
      vertex 21.9606 16.6267 10
    endloop
  endfacet
  facet normal 0.998027 0.0627909 0
    outer loop
      vertex 21.9606 16.6267 0
      vertex 22 16 10
      vertex 22 16 0
    endloop
  endfacet
  facet normal 0.951057 0.309017 0
    outer loop
      vertex 21.8429 17.2435 10
      vertex 21.6489 17.8406 0
      vertex 21.6489 17.8406 10
    endloop
  endfacet
  facet normal 0.951057 0.309017 0
    outer loop
      vertex 21.6489 17.8406 0
      vertex 21.8429 17.2435 10
      vertex 21.8429 17.2435 0
    endloop
  endfacet
  facet normal 0.333224 -0.942848 0
    outer loop
      vertex 1.54508 -4.75528 0
      vertex 15 0 10
      vertex 1.54508 -4.75528 10
    endloop
  endfacet
  facet normal 0.333224 -0.942848 0
    outer loop
      vertex 15 0 10
      vertex 1.54508 -4.75528 0
      vertex 15 0 0
    endloop
  endfacet
  facet normal 0.998027 -0.0627909 0
    outer loop
      vertex 21.9606 15.3733 10
      vertex 22 16 0
      vertex 22 16 10
    endloop
  endfacet
  facet normal 0.998027 -0.0627909 0
    outer loop
      vertex 22 16 0
      vertex 21.9606 15.3733 10
      vertex 21.9606 15.3733 0
    endloop
  endfacet
  facet normal 0.125333 -0.992115 0
    outer loop
      vertex 0.313952 -4.99013 0
      vertex 0.936906 -4.91144 10
      vertex 0.313952 -4.99013 10
    endloop
  endfacet
  facet normal 0.125333 -0.992115 0
    outer loop
      vertex 0.936906 -4.91144 10
      vertex 0.313952 -4.99013 0
      vertex 0.936906 -4.91144 0
    endloop
  endfacet
  facet normal 0.905172 0.425046 0
    outer loop
      vertex 21.6489 17.8406 10
      vertex 15 32 0
      vertex 15 32 10
    endloop
  endfacet
  facet normal 0.905172 0.425046 0
    outer loop
      vertex 15 32 0
      vertex 21.6489 17.8406 10
      vertex 21.6489 17.8406 0
    endloop
  endfacet
  facet normal 0.982287 0.187383 0
    outer loop
      vertex 21.9606 16.6267 10
      vertex 21.8429 17.2435 0
      vertex 21.8429 17.2435 10
    endloop
  endfacet
  facet normal 0.982287 0.187383 0
    outer loop
      vertex 21.8429 17.2435 0
      vertex 21.9606 16.6267 10
      vertex 21.9606 16.6267 0
    endloop
  endfacet
  facet normal -0.125333 -0.992115 0
    outer loop
      vertex -0.936906 -4.91144 0
      vertex -0.313952 -4.99013 10
      vertex -0.936906 -4.91144 10
    endloop
  endfacet
  facet normal -0.125333 -0.992115 -0
    outer loop
      vertex -0.313952 -4.99013 10
      vertex -0.936906 -4.91144 0
      vertex -0.313952 -4.99013 0
    endloop
  endfacet
  facet normal -0.24869 -0.968583 0
    outer loop
      vertex -1.5 -4.76686 0
      vertex -0.936906 -4.91144 10
      vertex -1.5 -4.76686 10
    endloop
  endfacet
  facet normal -0.24869 -0.968583 -0
    outer loop
      vertex -0.936906 -4.91144 10
      vertex -1.5 -4.76686 0
      vertex -0.936906 -4.91144 0
    endloop
  endfacet
  facet normal 0.982287 -0.187383 0
    outer loop
      vertex 21.8429 14.7565 10
      vertex 21.9606 15.3733 0
      vertex 21.9606 15.3733 10
    endloop
  endfacet
  facet normal 0.982287 -0.187383 0
    outer loop
      vertex 21.9606 15.3733 0
      vertex 21.8429 14.7565 10
      vertex 21.8429 14.7565 0
    endloop
  endfacet
  facet normal 0.951057 -0.309016 0
    outer loop
      vertex 21.6489 14.1594 10
      vertex 21.8429 14.7565 0
      vertex 21.8429 14.7565 10
    endloop
  endfacet
  facet normal 0.951057 -0.309016 0
    outer loop
      vertex 21.8429 14.7565 0
      vertex 21.6489 14.1594 10
      vertex 21.6489 14.1594 0
    endloop
  endfacet
  facet normal 0.24869 -0.968583 0
    outer loop
      vertex 0.936906 -4.91144 0
      vertex 1.54508 -4.75528 10
      vertex 0.936906 -4.91144 10
    endloop
  endfacet
  facet normal 0.24869 -0.968583 0
    outer loop
      vertex 1.54508 -4.75528 10
      vertex 0.936906 -4.91144 0
      vertex 1.54508 -4.75528 0
    endloop
  endfacet
  facet normal 0 0 -1
    outer loop
      vertex 11 27 0
      vertex 3.02595 31.6177 0
      vertex 3.05 32 0
    endloop
  endfacet
  facet normal 0 0 -1
    outer loop
      vertex 11 27 0
      vertex 2.95418 31.2415 0
      vertex 3.02595 31.6177 0
    endloop
  endfacet
  facet normal 0 0 -1
    outer loop
      vertex 11 27 0
      vertex 2.83582 30.8772 0
      vertex 2.95418 31.2415 0
    endloop
  endfacet
  facet normal 0 0 -1
    outer loop
      vertex 11 27 0
      vertex 2.67274 30.5307 0
      vertex 2.83582 30.8772 0
    endloop
  endfacet
  facet normal 0 0 -1
    outer loop
      vertex 11 27 0
      vertex 2.4675 30.2073 0
      vertex 2.67274 30.5307 0
    endloop
  endfacet
  facet normal 0 0 -1
    outer loop
      vertex 11 27 0
      vertex 2.22335 29.9121 0
      vertex 2.4675 30.2073 0
    endloop
  endfacet
  facet normal 0 0 -1
    outer loop
      vertex 11 27 0
      vertex 1.94414 29.6499 0
      vertex 2.22335 29.9121 0
    endloop
  endfacet
  facet normal 0 0 -1
    outer loop
      vertex 11 27 0
      vertex 1.63427 29.4248 0
      vertex 1.94414 29.6499 0
    endloop
  endfacet
  facet normal 0 0 -1
    outer loop
      vertex 11 27 0
      vertex 1.29863 29.2403 0
      vertex 1.63427 29.4248 0
    endloop
  endfacet
  facet normal 0 0 -1
    outer loop
      vertex -1.5 27 0
      vertex 1.29863 29.2403 0
      vertex 11 27 0
    endloop
  endfacet
  facet normal 0 0 -1
    outer loop
      vertex 1.29863 29.2403 0
      vertex -1.5 27 0
      vertex 0.942501 29.0993 0
    endloop
  endfacet
  facet normal 0 0 -1
    outer loop
      vertex 0.942501 29.0993 0
      vertex -1.5 27 0
      vertex 0.571512 29.004 0
    endloop
  endfacet
  facet normal 0 0 -1
    outer loop
      vertex 0.571512 29.004 0
      vertex -1.5 27 0
      vertex 0.19151 28.956 0
    endloop
  endfacet
  facet normal -0 0 -1
    outer loop
      vertex 0.19151 28.956 0
      vertex -1.5 27 0
      vertex -0.19151 28.956 0
    endloop
  endfacet
  facet normal -0 0 -1
    outer loop
      vertex -0.19151 28.956 0
      vertex -1.5 27 0
      vertex -0.571512 29.004 0
    endloop
  endfacet
  facet normal 0 0 -1
    outer loop
      vertex -1.5 27 0
      vertex -0.942501 29.0993 0
      vertex -0.571512 29.004 0
    endloop
  endfacet
  facet normal 0 0 -1
    outer loop
      vertex -1.5 27 0
      vertex -1.29863 29.2403 0
      vertex -0.942501 29.0993 0
    endloop
  endfacet
  facet normal -0 0 -1
    outer loop
      vertex -1.29863 29.2403 0
      vertex -1.5 27 0
      vertex -1.5 29.351 0
    endloop
  endfacet
  facet normal 0 0 -1
    outer loop
      vertex 21.6489 17.8406 0
      vertex 11 27 0
      vertex 15 32 0
    endloop
  endfacet
  facet normal 0 0 -1
    outer loop
      vertex 3.02595 32.3823 0
      vertex 11 27 0
      vertex 3.05 32 0
    endloop
  endfacet
  facet normal 0 0 -1
    outer loop
      vertex 11 27 0
      vertex 3.02595 32.3823 0
      vertex 15 32 0
    endloop
  endfacet
  facet normal 0 0 -1
    outer loop
      vertex 2.95418 32.7585 0
      vertex 15 32 0
      vertex 3.02595 32.3823 0
    endloop
  endfacet
  facet normal 0 0 -1
    outer loop
      vertex 2.83582 33.1228 0
      vertex 15 32 0
      vertex 2.95418 32.7585 0
    endloop
  endfacet
  facet normal 0 0 -1
    outer loop
      vertex 2.67274 33.4693 0
      vertex 15 32 0
      vertex 2.83582 33.1228 0
    endloop
  endfacet
  facet normal 0 0 -1
    outer loop
      vertex 1.54508 36.7553 0
      vertex 2.67274 33.4693 0
      vertex 2.4675 33.7927 0
    endloop
  endfacet
  facet normal 0 0 -1
    outer loop
      vertex 1.54508 36.7553 0
      vertex 2.4675 33.7927 0
      vertex 2.22335 34.0879 0
    endloop
  endfacet
  facet normal 0 0 -1
    outer loop
      vertex 1.54508 36.7553 0
      vertex 2.22335 34.0879 0
      vertex 1.94414 34.3501 0
    endloop
  endfacet
  facet normal 0 0 -1
    outer loop
      vertex 1.54508 36.7553 0
      vertex 1.94414 34.3501 0
      vertex 1.63427 34.5752 0
    endloop
  endfacet
  facet normal 0 0 -1
    outer loop
      vertex 2.67274 33.4693 0
      vertex 1.54508 36.7553 0
      vertex 15 32 0
    endloop
  endfacet
  facet normal 0 0 -1
    outer loop
      vertex 1.29863 34.7597 0
      vertex 1.54508 36.7553 0
      vertex 1.63427 34.5752 0
    endloop
  endfacet
  facet normal 0 0 -1
    outer loop
      vertex 0.942501 34.9007 0
      vertex 1.54508 36.7553 0
      vertex 1.29863 34.7597 0
    endloop
  endfacet
  facet normal 0 0 -1
    outer loop
      vertex 0.942501 34.9007 0
      vertex 0.936906 36.9114 0
      vertex 1.54508 36.7553 0
    endloop
  endfacet
  facet normal 0 0 -1
    outer loop
      vertex 0.571512 34.996 0
      vertex 0.936906 36.9114 0
      vertex 0.942501 34.9007 0
    endloop
  endfacet
  facet normal 0 0 -1
    outer loop
      vertex 0.571512 34.996 0
      vertex 0.313952 36.9901 0
      vertex 0.936906 36.9114 0
    endloop
  endfacet
  facet normal 0 0 -1
    outer loop
      vertex 0.19151 35.044 0
      vertex 0.313952 36.9901 0
      vertex 0.571512 34.996 0
    endloop
  endfacet
  facet normal 0 0 -1
    outer loop
      vertex -0.19151 35.044 0
      vertex 0.313952 36.9901 0
      vertex 0.19151 35.044 0
    endloop
  endfacet
  facet normal 0 0 -1
    outer loop
      vertex -0.19151 35.044 0
      vertex -0.313952 36.9901 0
      vertex 0.313952 36.9901 0
    endloop
  endfacet
  facet normal 0 0 -1
    outer loop
      vertex -0.571512 34.996 0
      vertex -0.313952 36.9901 0
      vertex -0.19151 35.044 0
    endloop
  endfacet
  facet normal 0 0 -1
    outer loop
      vertex -0.571512 34.996 0
      vertex -0.936906 36.9114 0
      vertex -0.313952 36.9901 0
    endloop
  endfacet
  facet normal 0 0 -1
    outer loop
      vertex -1.5 36.7669 0
      vertex -0.571512 34.996 0
      vertex -0.942501 34.9007 0
    endloop
  endfacet
  facet normal 0 0 -1
    outer loop
      vertex -1.5 36.7669 0
      vertex -0.942501 34.9007 0
      vertex -1.29863 34.7597 0
    endloop
  endfacet
  facet normal 0 0 -1
    outer loop
      vertex -1.5 36.7669 0
      vertex -1.29863 34.7597 0
      vertex -1.5 34.649 0
    endloop
  endfacet
  facet normal 0 0 -1
    outer loop
      vertex -0.571512 34.996 0
      vertex -1.5 36.7669 0
      vertex -0.936906 36.9114 0
    endloop
  endfacet
  facet normal 0 0 -1
    outer loop
      vertex 3.02595 0.382266 0
      vertex 11 5 0
      vertex 3.05 0 0
    endloop
  endfacet
  facet normal 0 0 -1
    outer loop
      vertex 2.95418 0.758504 0
      vertex 11 5 0
      vertex 3.02595 0.382266 0
    endloop
  endfacet
  facet normal 0 0 -1
    outer loop
      vertex 2.83582 1.12278 0
      vertex 11 5 0
      vertex 2.95418 0.758504 0
    endloop
  endfacet
  facet normal 0 0 -1
    outer loop
      vertex 2.67274 1.46935 0
      vertex 11 5 0
      vertex 2.83582 1.12278 0
    endloop
  endfacet
  facet normal 0 0 -1
    outer loop
      vertex 2.4675 1.79274 0
      vertex 11 5 0
      vertex 2.67274 1.46935 0
    endloop
  endfacet
  facet normal 0 0 -1
    outer loop
      vertex 2.22335 2.08787 0
      vertex 11 5 0
      vertex 2.4675 1.79274 0
    endloop
  endfacet
  facet normal 0 0 -1
    outer loop
      vertex 1.94414 2.35007 0
      vertex 11 5 0
      vertex 2.22335 2.08787 0
    endloop
  endfacet
  facet normal 0 0 -1
    outer loop
      vertex 1.63427 2.5752 0
      vertex 11 5 0
      vertex 1.94414 2.35007 0
    endloop
  endfacet
  facet normal 0 0 -1
    outer loop
      vertex 1.29863 2.75972 0
      vertex 11 5 0
      vertex 1.63427 2.5752 0
    endloop
  endfacet
  facet normal 0 0 -1
    outer loop
      vertex -1.5 5 0
      vertex 1.29863 2.75972 0
      vertex 0.942501 2.90072 0
    endloop
  endfacet
  facet normal 0 0 -1
    outer loop
      vertex -1.5 5 0
      vertex 0.942501 2.90072 0
      vertex 0.571512 2.99598 0
    endloop
  endfacet
  facet normal 0 0 -1
    outer loop
      vertex -1.5 5 0
      vertex 0.571512 2.99598 0
      vertex 0.19151 3.04398 0
    endloop
  endfacet
  facet normal 0 0 -1
    outer loop
      vertex -1.5 5 0
      vertex 0.19151 3.04398 0
      vertex -0.19151 3.04398 0
    endloop
  endfacet
  facet normal 0 0 -1
    outer loop
      vertex -1.5 5 0
      vertex -0.19151 3.04398 0
      vertex -0.571512 2.99598 0
    endloop
  endfacet
  facet normal 0 0 -1
    outer loop
      vertex 1.29863 2.75972 0
      vertex -1.5 5 0
      vertex 11 5 0
    endloop
  endfacet
  facet normal 0 0 -1
    outer loop
      vertex -0.942501 2.90072 0
      vertex -1.5 5 0
      vertex -0.571512 2.99598 0
    endloop
  endfacet
  facet normal 0 0 -1
    outer loop
      vertex -1.29863 2.75972 0
      vertex -1.5 5 0
      vertex -0.942501 2.90072 0
    endloop
  endfacet
  facet normal 0 0 -1
    outer loop
      vertex -1.5 5 0
      vertex -1.29863 2.75972 0
      vertex -1.5 2.64902 0
    endloop
  endfacet
  facet normal 0 0 -1
    outer loop
      vertex 18.2 16 0
      vertex 22 16 0
      vertex 21.9606 15.3733 0
    endloop
  endfacet
  facet normal 0 0 -1
    outer loop
      vertex 18.1905 15.8496 0
      vertex 21.9606 15.3733 0
      vertex 21.8429 14.7565 0
    endloop
  endfacet
  facet normal 0 0 -1
    outer loop
      vertex 22 16 0
      vertex 18.2 16 0
      vertex 21.9606 16.6267 0
    endloop
  endfacet
  facet normal 0 0 -1
    outer loop
      vertex 18.1623 15.7016 0
      vertex 21.8429 14.7565 0
      vertex 21.6489 14.1594 0
    endloop
  endfacet
  facet normal 0 0 -1
    outer loop
      vertex 18.1905 16.1504 0
      vertex 21.9606 16.6267 0
      vertex 18.2 16 0
    endloop
  endfacet
  facet normal -0 0 -1
    outer loop
      vertex 21.9606 16.6267 0
      vertex 18.1905 16.1504 0
      vertex 21.8429 17.2435 0
    endloop
  endfacet
  facet normal 0 0 -1
    outer loop
      vertex 21.9606 15.3733 0
      vertex 18.1905 15.8496 0
      vertex 18.2 16 0
    endloop
  endfacet
  facet normal 0 0 -1
    outer loop
      vertex 21.8429 14.7565 0
      vertex 18.1623 15.7016 0
      vertex 18.1905 15.8496 0
    endloop
  endfacet
  facet normal 0 0 -1
    outer loop
      vertex 21.6489 14.1594 0
      vertex 18.1157 15.5583 0
      vertex 18.1623 15.7016 0
    endloop
  endfacet
  facet normal 0 0 -1
    outer loop
      vertex 21.6489 14.1594 0
      vertex 18.0516 15.4219 0
      vertex 18.1157 15.5583 0
    endloop
  endfacet
  facet normal 0 0 -1
    outer loop
      vertex 21.6489 14.1594 0
      vertex 17.9708 15.2947 0
      vertex 18.0516 15.4219 0
    endloop
  endfacet
  facet normal 0 0 -1
    outer loop
      vertex 21.6489 14.1594 0
      vertex 17.8748 15.1785 0
      vertex 17.9708 15.2947 0
    endloop
  endfacet
  facet normal 0 0 -1
    outer loop
      vertex 21.6489 14.1594 0
      vertex 17.7649 15.0754 0
      vertex 17.8748 15.1785 0
    endloop
  endfacet
  facet normal 0 0 -1
    outer loop
      vertex 21.6489 14.1594 0
      vertex 17.643 14.9868 0
      vertex 17.7649 15.0754 0
    endloop
  endfacet
  facet normal 0 0 -1
    outer loop
      vertex 21.6489 14.1594 0
      vertex 17.5109 14.9142 0
      vertex 17.643 14.9868 0
    endloop
  endfacet
  facet normal 0 0 -1
    outer loop
      vertex 21.6489 14.1594 0
      vertex 17.3708 14.8587 0
      vertex 17.5109 14.9142 0
    endloop
  endfacet
  facet normal 0 0 -1
    outer loop
      vertex 21.6489 14.1594 0
      vertex 17.2249 14.8213 0
      vertex 17.3708 14.8587 0
    endloop
  endfacet
  facet normal 0 0 -1
    outer loop
      vertex 11 5 0
      vertex 17.2249 14.8213 0
      vertex 21.6489 14.1594 0
    endloop
  endfacet
  facet normal 0 0 -1
    outer loop
      vertex 17.2249 14.8213 0
      vertex 11 5 0
      vertex 17.0753 14.8024 0
    endloop
  endfacet
  facet normal -0 0 -1
    outer loop
      vertex 17.0753 14.8024 0
      vertex 11 5 0
      vertex 16.9247 14.8024 0
    endloop
  endfacet
  facet normal -0 0 -1
    outer loop
      vertex 15.8377 15.7016 0
      vertex 11 5 0
      vertex 15.8095 15.8496 0
    endloop
  endfacet
  facet normal -0 0 -1
    outer loop
      vertex 15.8843 15.5583 0
      vertex 11 5 0
      vertex 15.8377 15.7016 0
    endloop
  endfacet
  facet normal -0 0 -1
    outer loop
      vertex 15.9484 15.4219 0
      vertex 11 5 0
      vertex 15.8843 15.5583 0
    endloop
  endfacet
  facet normal -0 0 -1
    outer loop
      vertex 16.0292 15.2947 0
      vertex 11 5 0
      vertex 15.9484 15.4219 0
    endloop
  endfacet
  facet normal -0 0 -1
    outer loop
      vertex 16.1252 15.1785 0
      vertex 11 5 0
      vertex 16.0292 15.2947 0
    endloop
  endfacet
  facet normal -0 0 -1
    outer loop
      vertex 16.2351 15.0754 0
      vertex 11 5 0
      vertex 16.1252 15.1785 0
    endloop
  endfacet
  facet normal -0 0 -1
    outer loop
      vertex 16.357 14.9868 0
      vertex 11 5 0
      vertex 16.2351 15.0754 0
    endloop
  endfacet
  facet normal -0 0 -1
    outer loop
      vertex 16.4891 14.9142 0
      vertex 11 5 0
      vertex 16.357 14.9868 0
    endloop
  endfacet
  facet normal -0 0 -1
    outer loop
      vertex 16.6292 14.8587 0
      vertex 11 5 0
      vertex 16.4891 14.9142 0
    endloop
  endfacet
  facet normal -0 0 -1
    outer loop
      vertex 16.7751 14.8213 0
      vertex 11 5 0
      vertex 16.6292 14.8587 0
    endloop
  endfacet
  facet normal -0 0 -1
    outer loop
      vertex 16.9247 14.8024 0
      vertex 11 5 0
      vertex 16.7751 14.8213 0
    endloop
  endfacet
  facet normal 0 0 -1
    outer loop
      vertex 11 5 0
      vertex 21.6489 14.1594 0
      vertex 15 0 0
    endloop
  endfacet
  facet normal 0 0 -1
    outer loop
      vertex 18.1623 16.2984 0
      vertex 21.8429 17.2435 0
      vertex 18.1905 16.1504 0
    endloop
  endfacet
  facet normal -0 0 -1
    outer loop
      vertex 21.8429 17.2435 0
      vertex 18.1623 16.2984 0
      vertex 21.6489 17.8406 0
    endloop
  endfacet
  facet normal 0 0 -1
    outer loop
      vertex 18.1157 16.4417 0
      vertex 21.6489 17.8406 0
      vertex 18.1623 16.2984 0
    endloop
  endfacet
  facet normal 0 0 -1
    outer loop
      vertex 18.0516 16.5781 0
      vertex 21.6489 17.8406 0
      vertex 18.1157 16.4417 0
    endloop
  endfacet
  facet normal 0 0 -1
    outer loop
      vertex 17.9708 16.7053 0
      vertex 21.6489 17.8406 0
      vertex 18.0516 16.5781 0
    endloop
  endfacet
  facet normal 0 0 -1
    outer loop
      vertex 17.8748 16.8215 0
      vertex 21.6489 17.8406 0
      vertex 17.9708 16.7053 0
    endloop
  endfacet
  facet normal 0 0 -1
    outer loop
      vertex 17.7649 16.9246 0
      vertex 21.6489 17.8406 0
      vertex 17.8748 16.8215 0
    endloop
  endfacet
  facet normal 0 0 -1
    outer loop
      vertex 17.643 17.0132 0
      vertex 21.6489 17.8406 0
      vertex 17.7649 16.9246 0
    endloop
  endfacet
  facet normal 0 0 -1
    outer loop
      vertex 17.5109 17.0858 0
      vertex 21.6489 17.8406 0
      vertex 17.643 17.0132 0
    endloop
  endfacet
  facet normal 0 0 -1
    outer loop
      vertex 17.3708 17.1413 0
      vertex 21.6489 17.8406 0
      vertex 17.5109 17.0858 0
    endloop
  endfacet
  facet normal 0 0 -1
    outer loop
      vertex 17.2249 17.1787 0
      vertex 21.6489 17.8406 0
      vertex 17.3708 17.1413 0
    endloop
  endfacet
  facet normal 0 0 -1
    outer loop
      vertex 11 27 0
      vertex 17.2249 17.1787 0
      vertex 17.0753 17.1976 0
    endloop
  endfacet
  facet normal 0 0 -1
    outer loop
      vertex 11 27 0
      vertex 17.0753 17.1976 0
      vertex 16.9247 17.1976 0
    endloop
  endfacet
  facet normal 0 0 -1
    outer loop
      vertex 11 27 0
      vertex 16.9247 17.1976 0
      vertex 16.7751 17.1787 0
    endloop
  endfacet
  facet normal 0 0 -1
    outer loop
      vertex 11 27 0
      vertex 21.6489 17.8406 0
      vertex 17.2249 17.1787 0
    endloop
  endfacet
  facet normal 0 0 -1
    outer loop
      vertex 11 27 0
      vertex 16.7751 17.1787 0
      vertex 16.6292 17.1413 0
    endloop
  endfacet
  facet normal 0 0 -1
    outer loop
      vertex 11 27 0
      vertex 16.6292 17.1413 0
      vertex 16.4891 17.0858 0
    endloop
  endfacet
  facet normal 0 0 -1
    outer loop
      vertex 11 27 0
      vertex 16.4891 17.0858 0
      vertex 16.357 17.0132 0
    endloop
  endfacet
  facet normal 0 0 -1
    outer loop
      vertex 11 27 0
      vertex 16.357 17.0132 0
      vertex 16.2351 16.9246 0
    endloop
  endfacet
  facet normal 0 0 -1
    outer loop
      vertex 11 27 0
      vertex 16.2351 16.9246 0
      vertex 16.1252 16.8215 0
    endloop
  endfacet
  facet normal 0 0 -1
    outer loop
      vertex 11 27 0
      vertex 16.1252 16.8215 0
      vertex 16.0292 16.7053 0
    endloop
  endfacet
  facet normal 0 0 -1
    outer loop
      vertex 11 27 0
      vertex 16.0292 16.7053 0
      vertex 15.9484 16.5781 0
    endloop
  endfacet
  facet normal 0 0 -1
    outer loop
      vertex 11 27 0
      vertex 15.9484 16.5781 0
      vertex 15.8843 16.4417 0
    endloop
  endfacet
  facet normal 0 0 -1
    outer loop
      vertex 11 27 0
      vertex 15.8843 16.4417 0
      vertex 15.8377 16.2984 0
    endloop
  endfacet
  facet normal 0 0 -1
    outer loop
      vertex 15.8 16 0
      vertex 11 27 0
      vertex 15.8095 16.1504 0
    endloop
  endfacet
  facet normal 0 0 -1
    outer loop
      vertex 11 27 0
      vertex 15.8 16 0
      vertex 11 5 0
    endloop
  endfacet
  facet normal -0 0 -1
    outer loop
      vertex 15.8095 15.8496 0
      vertex 11 5 0
      vertex 15.8 16 0
    endloop
  endfacet
  facet normal 0 0 -1
    outer loop
      vertex 15.8095 16.1504 0
      vertex 11 27 0
      vertex 15.8377 16.2984 0
    endloop
  endfacet
  facet normal 0 0 -1
    outer loop
      vertex 3.02595 -0.382266 0
      vertex 11 5 0
      vertex 15 0 0
    endloop
  endfacet
  facet normal 0 0 -1
    outer loop
      vertex 11 5 0
      vertex 3.02595 -0.382266 0
      vertex 3.05 0 0
    endloop
  endfacet
  facet normal 0 0 -1
    outer loop
      vertex 15 0 0
      vertex 2.95418 -0.758504 0
      vertex 3.02595 -0.382266 0
    endloop
  endfacet
  facet normal 0 0 -1
    outer loop
      vertex 15 0 0
      vertex 2.83582 -1.12278 0
      vertex 2.95418 -0.758504 0
    endloop
  endfacet
  facet normal 0 0 -1
    outer loop
      vertex 15 0 0
      vertex 2.67274 -1.46935 0
      vertex 2.83582 -1.12278 0
    endloop
  endfacet
  facet normal 0 0 -1
    outer loop
      vertex 1.54508 -4.75528 0
      vertex 2.67274 -1.46935 0
      vertex 15 0 0
    endloop
  endfacet
  facet normal 0 0 -1
    outer loop
      vertex 2.67274 -1.46935 0
      vertex 1.54508 -4.75528 0
      vertex 2.4675 -1.79274 0
    endloop
  endfacet
  facet normal 0 0 -1
    outer loop
      vertex 2.4675 -1.79274 0
      vertex 1.54508 -4.75528 0
      vertex 2.22335 -2.08787 0
    endloop
  endfacet
  facet normal 0 0 -1
    outer loop
      vertex 2.22335 -2.08787 0
      vertex 1.54508 -4.75528 0
      vertex 1.94414 -2.35007 0
    endloop
  endfacet
  facet normal 0 0 -1
    outer loop
      vertex 1.94414 -2.35007 0
      vertex 1.54508 -4.75528 0
      vertex 1.63427 -2.5752 0
    endloop
  endfacet
  facet normal 0 0 -1
    outer loop
      vertex 1.54508 -4.75528 0
      vertex 1.29863 -2.75972 0
      vertex 1.63427 -2.5752 0
    endloop
  endfacet
  facet normal 0 0 -1
    outer loop
      vertex 1.54508 -4.75528 0
      vertex 0.942501 -2.90072 0
      vertex 1.29863 -2.75972 0
    endloop
  endfacet
  facet normal 0 0 -1
    outer loop
      vertex 0.936906 -4.91144 0
      vertex 0.942501 -2.90072 0
      vertex 1.54508 -4.75528 0
    endloop
  endfacet
  facet normal 0 0 -1
    outer loop
      vertex 0.936906 -4.91144 0
      vertex 0.571512 -2.99598 0
      vertex 0.942501 -2.90072 0
    endloop
  endfacet
  facet normal 0 0 -1
    outer loop
      vertex 0.313952 -4.99013 0
      vertex 0.571512 -2.99598 0
      vertex 0.936906 -4.91144 0
    endloop
  endfacet
  facet normal 0 0 -1
    outer loop
      vertex 0.313952 -4.99013 0
      vertex 0.19151 -3.04398 0
      vertex 0.571512 -2.99598 0
    endloop
  endfacet
  facet normal 0 0 -1
    outer loop
      vertex 0.313952 -4.99013 0
      vertex -0.19151 -3.04398 0
      vertex 0.19151 -3.04398 0
    endloop
  endfacet
  facet normal 0 0 -1
    outer loop
      vertex -0.313952 -4.99013 0
      vertex -0.19151 -3.04398 0
      vertex 0.313952 -4.99013 0
    endloop
  endfacet
  facet normal 0 0 -1
    outer loop
      vertex -0.313952 -4.99013 0
      vertex -0.571512 -2.99598 0
      vertex -0.19151 -3.04398 0
    endloop
  endfacet
  facet normal 0 0 -1
    outer loop
      vertex -0.936906 -4.91144 0
      vertex -0.571512 -2.99598 0
      vertex -0.313952 -4.99013 0
    endloop
  endfacet
  facet normal 0 0 -1
    outer loop
      vertex -1.5 -4.76686 0
      vertex -0.571512 -2.99598 0
      vertex -0.936906 -4.91144 0
    endloop
  endfacet
  facet normal -0 0 -1
    outer loop
      vertex -0.571512 -2.99598 0
      vertex -1.5 -4.76686 0
      vertex -0.942501 -2.90072 0
    endloop
  endfacet
  facet normal -0 0 -1
    outer loop
      vertex -0.942501 -2.90072 0
      vertex -1.5 -4.76686 0
      vertex -1.29863 -2.75972 0
    endloop
  endfacet
  facet normal -0 0 -1
    outer loop
      vertex -1.29863 -2.75972 0
      vertex -1.5 -4.76686 0
      vertex -1.5 -2.64902 0
    endloop
  endfacet
  facet normal 0 0 1
    outer loop
      vertex 11 5 10
      vertex 3.02595 0.382266 10
      vertex 3.05 0 10
    endloop
  endfacet
  facet normal 0 0 1
    outer loop
      vertex 11 5 10
      vertex 2.95418 0.758504 10
      vertex 3.02595 0.382266 10
    endloop
  endfacet
  facet normal 0 0 1
    outer loop
      vertex 11 5 10
      vertex 2.83582 1.12278 10
      vertex 2.95418 0.758504 10
    endloop
  endfacet
  facet normal 0 0 1
    outer loop
      vertex 11 5 10
      vertex 2.67274 1.46935 10
      vertex 2.83582 1.12278 10
    endloop
  endfacet
  facet normal 0 0 1
    outer loop
      vertex 11 5 10
      vertex 2.4675 1.79274 10
      vertex 2.67274 1.46935 10
    endloop
  endfacet
  facet normal 0 0 1
    outer loop
      vertex 11 5 10
      vertex 2.22335 2.08787 10
      vertex 2.4675 1.79274 10
    endloop
  endfacet
  facet normal 0 0 1
    outer loop
      vertex 11 5 10
      vertex 1.94414 2.35007 10
      vertex 2.22335 2.08787 10
    endloop
  endfacet
  facet normal 0 0 1
    outer loop
      vertex 11 5 10
      vertex 1.63427 2.5752 10
      vertex 1.94414 2.35007 10
    endloop
  endfacet
  facet normal 0 0 1
    outer loop
      vertex 11 5 10
      vertex 1.29863 2.75972 10
      vertex 1.63427 2.5752 10
    endloop
  endfacet
  facet normal -0 0 1
    outer loop
      vertex -1.5 5 10
      vertex 1.29863 2.75972 10
      vertex 11 5 10
    endloop
  endfacet
  facet normal 0 0 1
    outer loop
      vertex 1.29863 2.75972 10
      vertex -1.5 5 10
      vertex 0.942501 2.90072 10
    endloop
  endfacet
  facet normal 0 0 1
    outer loop
      vertex 0.942501 2.90072 10
      vertex -1.5 5 10
      vertex 0.571512 2.99598 10
    endloop
  endfacet
  facet normal 0 0 1
    outer loop
      vertex 0.571512 2.99598 10
      vertex -1.5 5 10
      vertex 0.19151 3.04398 10
    endloop
  endfacet
  facet normal 0 0 1
    outer loop
      vertex 0.19151 3.04398 10
      vertex -1.5 5 10
      vertex -0.19151 3.04398 10
    endloop
  endfacet
  facet normal 0 0 1
    outer loop
      vertex -0.19151 3.04398 10
      vertex -1.5 5 10
      vertex -0.571512 2.99598 10
    endloop
  endfacet
  facet normal 0 0 1
    outer loop
      vertex -1.5 5 10
      vertex -0.942501 2.90072 10
      vertex -0.571512 2.99598 10
    endloop
  endfacet
  facet normal 0 0 1
    outer loop
      vertex -1.5 5 10
      vertex -1.29863 2.75972 10
      vertex -0.942501 2.90072 10
    endloop
  endfacet
  facet normal 0 0 1
    outer loop
      vertex -1.29863 2.75972 10
      vertex -1.5 5 10
      vertex -1.5 2.64902 10
    endloop
  endfacet
  facet normal 0 0 1
    outer loop
      vertex 21.6489 14.1594 10
      vertex 11 5 10
      vertex 15 0 10
    endloop
  endfacet
  facet normal 0 0 1
    outer loop
      vertex 3.02595 -0.382266 10
      vertex 11 5 10
      vertex 3.05 0 10
    endloop
  endfacet
  facet normal 0 0 1
    outer loop
      vertex 11 5 10
      vertex 3.02595 -0.382266 10
      vertex 15 0 10
    endloop
  endfacet
  facet normal 0 0 1
    outer loop
      vertex 2.95418 -0.758504 10
      vertex 15 0 10
      vertex 3.02595 -0.382266 10
    endloop
  endfacet
  facet normal 0 0 1
    outer loop
      vertex 2.83582 -1.12278 10
      vertex 15 0 10
      vertex 2.95418 -0.758504 10
    endloop
  endfacet
  facet normal 0 0 1
    outer loop
      vertex 2.67274 -1.46935 10
      vertex 15 0 10
      vertex 2.83582 -1.12278 10
    endloop
  endfacet
  facet normal 0 0 1
    outer loop
      vertex 1.54508 -4.75528 10
      vertex 2.67274 -1.46935 10
      vertex 2.4675 -1.79274 10
    endloop
  endfacet
  facet normal 0 0 1
    outer loop
      vertex 1.54508 -4.75528 10
      vertex 2.4675 -1.79274 10
      vertex 2.22335 -2.08787 10
    endloop
  endfacet
  facet normal 0 0 1
    outer loop
      vertex 1.54508 -4.75528 10
      vertex 2.22335 -2.08787 10
      vertex 1.94414 -2.35007 10
    endloop
  endfacet
  facet normal 0 0 1
    outer loop
      vertex 1.54508 -4.75528 10
      vertex 1.94414 -2.35007 10
      vertex 1.63427 -2.5752 10
    endloop
  endfacet
  facet normal -0 0 1
    outer loop
      vertex 2.67274 -1.46935 10
      vertex 1.54508 -4.75528 10
      vertex 15 0 10
    endloop
  endfacet
  facet normal -0 0 1
    outer loop
      vertex 1.29863 -2.75972 10
      vertex 1.54508 -4.75528 10
      vertex 1.63427 -2.5752 10
    endloop
  endfacet
  facet normal -0 0 1
    outer loop
      vertex 0.942501 -2.90072 10
      vertex 1.54508 -4.75528 10
      vertex 1.29863 -2.75972 10
    endloop
  endfacet
  facet normal 0 0 1
    outer loop
      vertex 0.942501 -2.90072 10
      vertex 0.936906 -4.91144 10
      vertex 1.54508 -4.75528 10
    endloop
  endfacet
  facet normal -0 0 1
    outer loop
      vertex 0.571512 -2.99598 10
      vertex 0.936906 -4.91144 10
      vertex 0.942501 -2.90072 10
    endloop
  endfacet
  facet normal 0 0 1
    outer loop
      vertex 0.571512 -2.99598 10
      vertex 0.313952 -4.99013 10
      vertex 0.936906 -4.91144 10
    endloop
  endfacet
  facet normal -0 0 1
    outer loop
      vertex 0.19151 -3.04398 10
      vertex 0.313952 -4.99013 10
      vertex 0.571512 -2.99598 10
    endloop
  endfacet
  facet normal -0 0 1
    outer loop
      vertex -0.19151 -3.04398 10
      vertex 0.313952 -4.99013 10
      vertex 0.19151 -3.04398 10
    endloop
  endfacet
  facet normal 0 0 1
    outer loop
      vertex -0.19151 -3.04398 10
      vertex -0.313952 -4.99013 10
      vertex 0.313952 -4.99013 10
    endloop
  endfacet
  facet normal 0 0 1
    outer loop
      vertex -0.571512 -2.99598 10
      vertex -0.313952 -4.99013 10
      vertex -0.19151 -3.04398 10
    endloop
  endfacet
  facet normal 0 0 1
    outer loop
      vertex -0.571512 -2.99598 10
      vertex -0.936906 -4.91144 10
      vertex -0.313952 -4.99013 10
    endloop
  endfacet
  facet normal 0 0 1
    outer loop
      vertex -1.5 -4.76686 10
      vertex -0.571512 -2.99598 10
      vertex -0.942501 -2.90072 10
    endloop
  endfacet
  facet normal 0 0 1
    outer loop
      vertex -1.5 -4.76686 10
      vertex -0.942501 -2.90072 10
      vertex -1.29863 -2.75972 10
    endloop
  endfacet
  facet normal 0 0 1
    outer loop
      vertex -1.5 -4.76686 10
      vertex -1.29863 -2.75972 10
      vertex -1.5 -2.64902 10
    endloop
  endfacet
  facet normal 0 0 1
    outer loop
      vertex -0.571512 -2.99598 10
      vertex -1.5 -4.76686 10
      vertex -0.936906 -4.91144 10
    endloop
  endfacet
  facet normal -0 0 1
    outer loop
      vertex 3.02595 31.6177 10
      vertex 11 27 10
      vertex 3.05 32 10
    endloop
  endfacet
  facet normal -0 0 1
    outer loop
      vertex 2.95418 31.2415 10
      vertex 11 27 10
      vertex 3.02595 31.6177 10
    endloop
  endfacet
  facet normal -0 0 1
    outer loop
      vertex 2.83582 30.8772 10
      vertex 11 27 10
      vertex 2.95418 31.2415 10
    endloop
  endfacet
  facet normal -0 0 1
    outer loop
      vertex 2.67274 30.5307 10
      vertex 11 27 10
      vertex 2.83582 30.8772 10
    endloop
  endfacet
  facet normal -0 0 1
    outer loop
      vertex 2.4675 30.2073 10
      vertex 11 27 10
      vertex 2.67274 30.5307 10
    endloop
  endfacet
  facet normal -0 0 1
    outer loop
      vertex 2.22335 29.9121 10
      vertex 11 27 10
      vertex 2.4675 30.2073 10
    endloop
  endfacet
  facet normal -0 0 1
    outer loop
      vertex 1.94414 29.6499 10
      vertex 11 27 10
      vertex 2.22335 29.9121 10
    endloop
  endfacet
  facet normal -0 0 1
    outer loop
      vertex 1.63427 29.4248 10
      vertex 11 27 10
      vertex 1.94414 29.6499 10
    endloop
  endfacet
  facet normal -0 0 1
    outer loop
      vertex 1.29863 29.2403 10
      vertex 11 27 10
      vertex 1.63427 29.4248 10
    endloop
  endfacet
  facet normal 0 0 1
    outer loop
      vertex -1.5 27 10
      vertex 1.29863 29.2403 10
      vertex 0.942501 29.0993 10
    endloop
  endfacet
  facet normal 0 0 1
    outer loop
      vertex -1.5 27 10
      vertex 0.942501 29.0993 10
      vertex 0.571512 29.004 10
    endloop
  endfacet
  facet normal 0 0 1
    outer loop
      vertex -1.5 27 10
      vertex 0.571512 29.004 10
      vertex 0.19151 28.956 10
    endloop
  endfacet
  facet normal 0 0 1
    outer loop
      vertex -1.5 27 10
      vertex 0.19151 28.956 10
      vertex -0.19151 28.956 10
    endloop
  endfacet
  facet normal 0 0 1
    outer loop
      vertex -1.5 27 10
      vertex -0.19151 28.956 10
      vertex -0.571512 29.004 10
    endloop
  endfacet
  facet normal 0 0 1
    outer loop
      vertex 1.29863 29.2403 10
      vertex -1.5 27 10
      vertex 11 27 10
    endloop
  endfacet
  facet normal 0 0 1
    outer loop
      vertex -0.942501 29.0993 10
      vertex -1.5 27 10
      vertex -0.571512 29.004 10
    endloop
  endfacet
  facet normal 0 0 1
    outer loop
      vertex -1.29863 29.2403 10
      vertex -1.5 27 10
      vertex -0.942501 29.0993 10
    endloop
  endfacet
  facet normal 0 0 1
    outer loop
      vertex -1.5 27 10
      vertex -1.29863 29.2403 10
      vertex -1.5 29.351 10
    endloop
  endfacet
  facet normal 0 0 1
    outer loop
      vertex 18.2 16 10
      vertex 22 16 10
      vertex 21.9606 16.6267 10
    endloop
  endfacet
  facet normal 0 0 1
    outer loop
      vertex 18.1905 16.1504 10
      vertex 21.9606 16.6267 10
      vertex 21.8429 17.2435 10
    endloop
  endfacet
  facet normal 0 0 1
    outer loop
      vertex 22 16 10
      vertex 18.2 16 10
      vertex 21.9606 15.3733 10
    endloop
  endfacet
  facet normal 0 0 1
    outer loop
      vertex 18.1623 16.2984 10
      vertex 21.8429 17.2435 10
      vertex 21.6489 17.8406 10
    endloop
  endfacet
  facet normal -0 0 1
    outer loop
      vertex 18.1905 15.8496 10
      vertex 21.9606 15.3733 10
      vertex 18.2 16 10
    endloop
  endfacet
  facet normal 0 0 1
    outer loop
      vertex 21.9606 15.3733 10
      vertex 18.1905 15.8496 10
      vertex 21.8429 14.7565 10
    endloop
  endfacet
  facet normal 0 0 1
    outer loop
      vertex 21.9606 16.6267 10
      vertex 18.1905 16.1504 10
      vertex 18.2 16 10
    endloop
  endfacet
  facet normal 0 0 1
    outer loop
      vertex 21.8429 17.2435 10
      vertex 18.1623 16.2984 10
      vertex 18.1905 16.1504 10
    endloop
  endfacet
  facet normal 0 0 1
    outer loop
      vertex 21.6489 17.8406 10
      vertex 18.1157 16.4417 10
      vertex 18.1623 16.2984 10
    endloop
  endfacet
  facet normal 0 0 1
    outer loop
      vertex 21.6489 17.8406 10
      vertex 18.0516 16.5781 10
      vertex 18.1157 16.4417 10
    endloop
  endfacet
  facet normal 0 0 1
    outer loop
      vertex 21.6489 17.8406 10
      vertex 17.9708 16.7053 10
      vertex 18.0516 16.5781 10
    endloop
  endfacet
  facet normal 0 0 1
    outer loop
      vertex 21.6489 17.8406 10
      vertex 17.8748 16.8215 10
      vertex 17.9708 16.7053 10
    endloop
  endfacet
  facet normal 0 0 1
    outer loop
      vertex 21.6489 17.8406 10
      vertex 17.7649 16.9246 10
      vertex 17.8748 16.8215 10
    endloop
  endfacet
  facet normal 0 0 1
    outer loop
      vertex 21.6489 17.8406 10
      vertex 17.643 17.0132 10
      vertex 17.7649 16.9246 10
    endloop
  endfacet
  facet normal 0 0 1
    outer loop
      vertex 21.6489 17.8406 10
      vertex 17.5109 17.0858 10
      vertex 17.643 17.0132 10
    endloop
  endfacet
  facet normal 0 0 1
    outer loop
      vertex 21.6489 17.8406 10
      vertex 17.3708 17.1413 10
      vertex 17.5109 17.0858 10
    endloop
  endfacet
  facet normal 0 0 1
    outer loop
      vertex 21.6489 17.8406 10
      vertex 17.2249 17.1787 10
      vertex 17.3708 17.1413 10
    endloop
  endfacet
  facet normal 0 0 1
    outer loop
      vertex 11 27 10
      vertex 17.2249 17.1787 10
      vertex 21.6489 17.8406 10
    endloop
  endfacet
  facet normal 0 0 1
    outer loop
      vertex 17.2249 17.1787 10
      vertex 11 27 10
      vertex 17.0753 17.1976 10
    endloop
  endfacet
  facet normal 0 0 1
    outer loop
      vertex 17.0753 17.1976 10
      vertex 11 27 10
      vertex 16.9247 17.1976 10
    endloop
  endfacet
  facet normal 0 0 1
    outer loop
      vertex 15.8377 16.2984 10
      vertex 11 27 10
      vertex 15.8095 16.1504 10
    endloop
  endfacet
  facet normal 0 0 1
    outer loop
      vertex 15.8843 16.4417 10
      vertex 11 27 10
      vertex 15.8377 16.2984 10
    endloop
  endfacet
  facet normal 0 0 1
    outer loop
      vertex 15.9484 16.5781 10
      vertex 11 27 10
      vertex 15.8843 16.4417 10
    endloop
  endfacet
  facet normal 0 0 1
    outer loop
      vertex 16.0292 16.7053 10
      vertex 11 27 10
      vertex 15.9484 16.5781 10
    endloop
  endfacet
  facet normal 0 0 1
    outer loop
      vertex 16.1252 16.8215 10
      vertex 11 27 10
      vertex 16.0292 16.7053 10
    endloop
  endfacet
  facet normal 0 0 1
    outer loop
      vertex 16.2351 16.9246 10
      vertex 11 27 10
      vertex 16.1252 16.8215 10
    endloop
  endfacet
  facet normal 0 0 1
    outer loop
      vertex 16.357 17.0132 10
      vertex 11 27 10
      vertex 16.2351 16.9246 10
    endloop
  endfacet
  facet normal 0 0 1
    outer loop
      vertex 16.4891 17.0858 10
      vertex 11 27 10
      vertex 16.357 17.0132 10
    endloop
  endfacet
  facet normal 0 0 1
    outer loop
      vertex 16.6292 17.1413 10
      vertex 11 27 10
      vertex 16.4891 17.0858 10
    endloop
  endfacet
  facet normal 0 0 1
    outer loop
      vertex 16.7751 17.1787 10
      vertex 11 27 10
      vertex 16.6292 17.1413 10
    endloop
  endfacet
  facet normal 0 0 1
    outer loop
      vertex 16.9247 17.1976 10
      vertex 11 27 10
      vertex 16.7751 17.1787 10
    endloop
  endfacet
  facet normal -0 0 1
    outer loop
      vertex 11 27 10
      vertex 21.6489 17.8406 10
      vertex 15 32 10
    endloop
  endfacet
  facet normal -0 0 1
    outer loop
      vertex 18.1623 15.7016 10
      vertex 21.8429 14.7565 10
      vertex 18.1905 15.8496 10
    endloop
  endfacet
  facet normal 0 0 1
    outer loop
      vertex 21.8429 14.7565 10
      vertex 18.1623 15.7016 10
      vertex 21.6489 14.1594 10
    endloop
  endfacet
  facet normal -0 0 1
    outer loop
      vertex 18.1157 15.5583 10
      vertex 21.6489 14.1594 10
      vertex 18.1623 15.7016 10
    endloop
  endfacet
  facet normal -0 0 1
    outer loop
      vertex 18.0516 15.4219 10
      vertex 21.6489 14.1594 10
      vertex 18.1157 15.5583 10
    endloop
  endfacet
  facet normal -0 0 1
    outer loop
      vertex 17.9708 15.2947 10
      vertex 21.6489 14.1594 10
      vertex 18.0516 15.4219 10
    endloop
  endfacet
  facet normal -0 0 1
    outer loop
      vertex 17.8748 15.1785 10
      vertex 21.6489 14.1594 10
      vertex 17.9708 15.2947 10
    endloop
  endfacet
  facet normal -0 0 1
    outer loop
      vertex 17.7649 15.0754 10
      vertex 21.6489 14.1594 10
      vertex 17.8748 15.1785 10
    endloop
  endfacet
  facet normal -0 0 1
    outer loop
      vertex 17.643 14.9868 10
      vertex 21.6489 14.1594 10
      vertex 17.7649 15.0754 10
    endloop
  endfacet
  facet normal -0 0 1
    outer loop
      vertex 17.5109 14.9142 10
      vertex 21.6489 14.1594 10
      vertex 17.643 14.9868 10
    endloop
  endfacet
  facet normal -0 0 1
    outer loop
      vertex 17.3708 14.8587 10
      vertex 21.6489 14.1594 10
      vertex 17.5109 14.9142 10
    endloop
  endfacet
  facet normal -0 0 1
    outer loop
      vertex 17.2249 14.8213 10
      vertex 21.6489 14.1594 10
      vertex 17.3708 14.8587 10
    endloop
  endfacet
  facet normal 0 0 1
    outer loop
      vertex 11 5 10
      vertex 17.2249 14.8213 10
      vertex 17.0753 14.8024 10
    endloop
  endfacet
  facet normal 0 0 1
    outer loop
      vertex 11 5 10
      vertex 17.0753 14.8024 10
      vertex 16.9247 14.8024 10
    endloop
  endfacet
  facet normal 0 0 1
    outer loop
      vertex 11 5 10
      vertex 16.9247 14.8024 10
      vertex 16.7751 14.8213 10
    endloop
  endfacet
  facet normal 0 0 1
    outer loop
      vertex 11 5 10
      vertex 21.6489 14.1594 10
      vertex 17.2249 14.8213 10
    endloop
  endfacet
  facet normal 0 0 1
    outer loop
      vertex 11 5 10
      vertex 16.7751 14.8213 10
      vertex 16.6292 14.8587 10
    endloop
  endfacet
  facet normal 0 0 1
    outer loop
      vertex 11 5 10
      vertex 16.6292 14.8587 10
      vertex 16.4891 14.9142 10
    endloop
  endfacet
  facet normal 0 0 1
    outer loop
      vertex 11 5 10
      vertex 16.4891 14.9142 10
      vertex 16.357 14.9868 10
    endloop
  endfacet
  facet normal 0 0 1
    outer loop
      vertex 11 5 10
      vertex 16.357 14.9868 10
      vertex 16.2351 15.0754 10
    endloop
  endfacet
  facet normal 0 0 1
    outer loop
      vertex 11 5 10
      vertex 16.2351 15.0754 10
      vertex 16.1252 15.1785 10
    endloop
  endfacet
  facet normal 0 0 1
    outer loop
      vertex 11 5 10
      vertex 16.1252 15.1785 10
      vertex 16.0292 15.2947 10
    endloop
  endfacet
  facet normal 0 0 1
    outer loop
      vertex 11 5 10
      vertex 16.0292 15.2947 10
      vertex 15.9484 15.4219 10
    endloop
  endfacet
  facet normal 0 0 1
    outer loop
      vertex 11 5 10
      vertex 15.9484 15.4219 10
      vertex 15.8843 15.5583 10
    endloop
  endfacet
  facet normal 0 0 1
    outer loop
      vertex 11 5 10
      vertex 15.8843 15.5583 10
      vertex 15.8377 15.7016 10
    endloop
  endfacet
  facet normal 0 0 1
    outer loop
      vertex 15.8 16 10
      vertex 11 5 10
      vertex 15.8095 15.8496 10
    endloop
  endfacet
  facet normal 0 0 1
    outer loop
      vertex 11 5 10
      vertex 15.8 16 10
      vertex 11 27 10
    endloop
  endfacet
  facet normal 0 0 1
    outer loop
      vertex 15.8095 16.1504 10
      vertex 11 27 10
      vertex 15.8 16 10
    endloop
  endfacet
  facet normal 0 0 1
    outer loop
      vertex 15.8095 15.8496 10
      vertex 11 5 10
      vertex 15.8377 15.7016 10
    endloop
  endfacet
  facet normal 0 0 1
    outer loop
      vertex 3.02595 32.3823 10
      vertex 11 27 10
      vertex 15 32 10
    endloop
  endfacet
  facet normal 0 0 1
    outer loop
      vertex 11 27 10
      vertex 3.02595 32.3823 10
      vertex 3.05 32 10
    endloop
  endfacet
  facet normal 0 0 1
    outer loop
      vertex 15 32 10
      vertex 2.95418 32.7585 10
      vertex 3.02595 32.3823 10
    endloop
  endfacet
  facet normal 0 0 1
    outer loop
      vertex 15 32 10
      vertex 2.83582 33.1228 10
      vertex 2.95418 32.7585 10
    endloop
  endfacet
  facet normal 0 0 1
    outer loop
      vertex 15 32 10
      vertex 2.67274 33.4693 10
      vertex 2.83582 33.1228 10
    endloop
  endfacet
  facet normal 0 0 1
    outer loop
      vertex 1.54508 36.7553 10
      vertex 2.67274 33.4693 10
      vertex 15 32 10
    endloop
  endfacet
  facet normal 0 0 1
    outer loop
      vertex 2.67274 33.4693 10
      vertex 1.54508 36.7553 10
      vertex 2.4675 33.7927 10
    endloop
  endfacet
  facet normal 0 0 1
    outer loop
      vertex 2.4675 33.7927 10
      vertex 1.54508 36.7553 10
      vertex 2.22335 34.0879 10
    endloop
  endfacet
  facet normal 0 0 1
    outer loop
      vertex 2.22335 34.0879 10
      vertex 1.54508 36.7553 10
      vertex 1.94414 34.3501 10
    endloop
  endfacet
  facet normal 0 0 1
    outer loop
      vertex 1.94414 34.3501 10
      vertex 1.54508 36.7553 10
      vertex 1.63427 34.5752 10
    endloop
  endfacet
  facet normal 0 0 1
    outer loop
      vertex 1.54508 36.7553 10
      vertex 1.29863 34.7597 10
      vertex 1.63427 34.5752 10
    endloop
  endfacet
  facet normal 0 0 1
    outer loop
      vertex 1.54508 36.7553 10
      vertex 0.942501 34.9007 10
      vertex 1.29863 34.7597 10
    endloop
  endfacet
  facet normal 0 0 1
    outer loop
      vertex 0.936906 36.9114 10
      vertex 0.942501 34.9007 10
      vertex 1.54508 36.7553 10
    endloop
  endfacet
  facet normal 0 0 1
    outer loop
      vertex 0.936906 36.9114 10
      vertex 0.571512 34.996 10
      vertex 0.942501 34.9007 10
    endloop
  endfacet
  facet normal 0 0 1
    outer loop
      vertex 0.313952 36.9901 10
      vertex 0.571512 34.996 10
      vertex 0.936906 36.9114 10
    endloop
  endfacet
  facet normal 0 0 1
    outer loop
      vertex 0.313952 36.9901 10
      vertex 0.19151 35.044 10
      vertex 0.571512 34.996 10
    endloop
  endfacet
  facet normal 0 0 1
    outer loop
      vertex 0.313952 36.9901 10
      vertex -0.19151 35.044 10
      vertex 0.19151 35.044 10
    endloop
  endfacet
  facet normal -0 0 1
    outer loop
      vertex -0.313952 36.9901 10
      vertex -0.19151 35.044 10
      vertex 0.313952 36.9901 10
    endloop
  endfacet
  facet normal 0 0 1
    outer loop
      vertex -0.313952 36.9901 10
      vertex -0.571512 34.996 10
      vertex -0.19151 35.044 10
    endloop
  endfacet
  facet normal -0 0 1
    outer loop
      vertex -0.936906 36.9114 10
      vertex -0.571512 34.996 10
      vertex -0.313952 36.9901 10
    endloop
  endfacet
  facet normal -0 0 1
    outer loop
      vertex -1.5 36.7669 10
      vertex -0.571512 34.996 10
      vertex -0.936906 36.9114 10
    endloop
  endfacet
  facet normal 0 0 1
    outer loop
      vertex -0.571512 34.996 10
      vertex -1.5 36.7669 10
      vertex -0.942501 34.9007 10
    endloop
  endfacet
  facet normal 0 0 1
    outer loop
      vertex -0.942501 34.9007 10
      vertex -1.5 36.7669 10
      vertex -1.29863 34.7597 10
    endloop
  endfacet
  facet normal 0 0 1
    outer loop
      vertex -1.29863 34.7597 10
      vertex -1.5 36.7669 10
      vertex -1.5 34.649 10
    endloop
  endfacet
  facet normal 0.248691 0.968583 -0
    outer loop
      vertex 1.54508 36.7553 0
      vertex 0.936906 36.9114 10
      vertex 1.54508 36.7553 10
    endloop
  endfacet
  facet normal 0.248691 0.968583 0
    outer loop
      vertex 0.936906 36.9114 10
      vertex 1.54508 36.7553 0
      vertex 0.936906 36.9114 0
    endloop
  endfacet
  facet normal -0.248694 0.968582 0
    outer loop
      vertex -0.936906 36.9114 0
      vertex -1.5 36.7669 10
      vertex -0.936906 36.9114 10
    endloop
  endfacet
  facet normal -0.248694 0.968582 0
    outer loop
      vertex -1.5 36.7669 10
      vertex -0.936906 36.9114 0
      vertex -1.5 36.7669 0
    endloop
  endfacet
  facet normal 0.333224 0.942848 -0
    outer loop
      vertex 15 32 0
      vertex 1.54508 36.7553 10
      vertex 15 32 10
    endloop
  endfacet
  facet normal 0.333224 0.942848 0
    outer loop
      vertex 1.54508 36.7553 10
      vertex 15 32 0
      vertex 1.54508 36.7553 0
    endloop
  endfacet
  facet normal 0 1 -0
    outer loop
      vertex 0.313952 36.9901 0
      vertex -0.313952 36.9901 10
      vertex 0.313952 36.9901 10
    endloop
  endfacet
  facet normal 0 1 0
    outer loop
      vertex -0.313952 36.9901 10
      vertex 0.313952 36.9901 0
      vertex -0.313952 36.9901 0
    endloop
  endfacet
  facet normal 0 -1 0
    outer loop
      vertex -0.313952 -4.99013 0
      vertex 0.313952 -4.99013 10
      vertex -0.313952 -4.99013 10
    endloop
  endfacet
  facet normal 0 -1 -0
    outer loop
      vertex 0.313952 -4.99013 10
      vertex -0.313952 -4.99013 0
      vertex 0.313952 -4.99013 0
    endloop
  endfacet
  facet normal 0.125333 0.992115 -0
    outer loop
      vertex 0.936906 36.9114 0
      vertex 0.313952 36.9901 10
      vertex 0.936906 36.9114 10
    endloop
  endfacet
  facet normal 0.125333 0.992115 0
    outer loop
      vertex 0.313952 36.9901 10
      vertex 0.936906 36.9114 0
      vertex 0.313952 36.9901 0
    endloop
  endfacet
  facet normal -0.125333 0.992115 0
    outer loop
      vertex -0.313952 36.9901 0
      vertex -0.936906 36.9114 10
      vertex -0.313952 36.9901 10
    endloop
  endfacet
  facet normal -0.125333 0.992115 0
    outer loop
      vertex -0.936906 36.9114 10
      vertex -0.313952 36.9901 0
      vertex -0.936906 36.9114 0
    endloop
  endfacet
  facet normal -1 0 0
    outer loop
      vertex -1.5 34.649 0
      vertex -1.5 36.7669 10
      vertex -1.5 36.7669 0
    endloop
  endfacet
  facet normal -1 -0 0
    outer loop
      vertex -1.5 36.7669 10
      vertex -1.5 34.649 0
      vertex -1.5 34.649 10
    endloop
  endfacet
  facet normal -1 0 0
    outer loop
      vertex -1.5 27 0
      vertex -1.5 29.351 10
      vertex -1.5 29.351 0
    endloop
  endfacet
  facet normal -1 -0 0
    outer loop
      vertex -1.5 29.351 10
      vertex -1.5 27 0
      vertex -1.5 27 10
    endloop
  endfacet
  facet normal -1 0 0
    outer loop
      vertex -1.5 2.64902 0
      vertex -1.5 5 10
      vertex -1.5 5 0
    endloop
  endfacet
  facet normal -1 -0 0
    outer loop
      vertex -1.5 5 10
      vertex -1.5 2.64902 0
      vertex -1.5 2.64902 10
    endloop
  endfacet
  facet normal -1 0 0
    outer loop
      vertex -1.5 -4.76686 0
      vertex -1.5 -2.64902 10
      vertex -1.5 -2.64902 0
    endloop
  endfacet
  facet normal -1 -0 0
    outer loop
      vertex -1.5 -2.64902 10
      vertex -1.5 -4.76686 0
      vertex -1.5 -4.76686 10
    endloop
  endfacet
  facet normal -1 0 0
    outer loop
      vertex 11 5 0
      vertex 11 27 10
      vertex 11 27 0
    endloop
  endfacet
  facet normal -1 -0 0
    outer loop
      vertex 11 27 10
      vertex 11 5 0
      vertex 11 5 10
    endloop
  endfacet
  facet normal 0 1 -0
    outer loop
      vertex 11 5 0
      vertex -1.5 5 10
      vertex 11 5 10
    endloop
  endfacet
  facet normal 0 1 0
    outer loop
      vertex -1.5 5 10
      vertex 11 5 0
      vertex -1.5 5 0
    endloop
  endfacet
  facet normal 0 -1 0
    outer loop
      vertex -1.5 27 0
      vertex 11 27 10
      vertex -1.5 27 10
    endloop
  endfacet
  facet normal 0 -1 -0
    outer loop
      vertex 11 27 10
      vertex -1.5 27 0
      vertex 11 27 0
    endloop
  endfacet
  facet normal -0.587786 -0.809016 0
    outer loop
      vertex 17.643 17.0132 0
      vertex 17.7649 16.9246 10
      vertex 17.643 17.0132 10
    endloop
  endfacet
  facet normal -0.587786 -0.809016 -0
    outer loop
      vertex 17.7649 16.9246 10
      vertex 17.643 17.0132 0
      vertex 17.7649 16.9246 0
    endloop
  endfacet
  facet normal 0.982287 -0.187383 0
    outer loop
      vertex 15.8095 16.1504 10
      vertex 15.8377 16.2984 0
      vertex 15.8377 16.2984 10
    endloop
  endfacet
  facet normal 0.982287 -0.187383 0
    outer loop
      vertex 15.8377 16.2984 0
      vertex 15.8095 16.1504 10
      vertex 15.8095 16.1504 0
    endloop
  endfacet
  facet normal -0.982289 0.187371 0
    outer loop
      vertex 18.1623 15.7016 0
      vertex 18.1905 15.8496 10
      vertex 18.1905 15.8496 0
    endloop
  endfacet
  facet normal -0.982289 0.187371 0
    outer loop
      vertex 18.1905 15.8496 10
      vertex 18.1623 15.7016 0
      vertex 18.1623 15.7016 10
    endloop
  endfacet
  facet normal 0.481755 -0.876306 0
    outer loop
      vertex 16.357 17.0132 0
      vertex 16.4891 17.0858 10
      vertex 16.357 17.0132 10
    endloop
  endfacet
  facet normal 0.481755 -0.876306 0
    outer loop
      vertex 16.4891 17.0858 10
      vertex 16.357 17.0132 0
      vertex 16.4891 17.0858 0
    endloop
  endfacet
  facet normal 0.951057 -0.309016 0
    outer loop
      vertex 15.8377 16.2984 10
      vertex 15.8843 16.4417 0
      vertex 15.8843 16.4417 10
    endloop
  endfacet
  facet normal 0.951057 -0.309016 0
    outer loop
      vertex 15.8843 16.4417 0
      vertex 15.8377 16.2984 10
      vertex 15.8377 16.2984 0
    endloop
  endfacet
  facet normal -0.904828 -0.425778 0
    outer loop
      vertex 18.1157 16.4417 0
      vertex 18.0516 16.5781 10
      vertex 18.0516 16.5781 0
    endloop
  endfacet
  facet normal -0.904828 -0.425778 0
    outer loop
      vertex 18.0516 16.5781 10
      vertex 18.1157 16.4417 0
      vertex 18.1157 16.4417 10
    endloop
  endfacet
  facet normal -0.844327 -0.535828 0
    outer loop
      vertex 18.0516 16.5781 0
      vertex 17.9708 16.7053 10
      vertex 17.9708 16.7053 0
    endloop
  endfacet
  facet normal -0.844327 -0.535828 0
    outer loop
      vertex 17.9708 16.7053 10
      vertex 18.0516 16.5781 0
      vertex 18.0516 16.5781 10
    endloop
  endfacet
  facet normal -0.368122 -0.929778 0
    outer loop
      vertex 17.3708 17.1413 0
      vertex 17.5109 17.0858 10
      vertex 17.3708 17.1413 10
    endloop
  endfacet
  facet normal -0.368122 -0.929778 -0
    outer loop
      vertex 17.5109 17.0858 10
      vertex 17.3708 17.1413 0
      vertex 17.5109 17.0858 0
    endloop
  endfacet
  facet normal 0 -1 0
    outer loop
      vertex 16.9247 17.1976 0
      vertex 17.0753 17.1976 10
      vertex 16.9247 17.1976 10
    endloop
  endfacet
  facet normal 0 -1 -0
    outer loop
      vertex 17.0753 17.1976 10
      vertex 16.9247 17.1976 0
      vertex 17.0753 17.1976 0
    endloop
  endfacet
  facet normal 0.998027 -0.0627912 0
    outer loop
      vertex 15.8 16 10
      vertex 15.8095 16.1504 0
      vertex 15.8095 16.1504 10
    endloop
  endfacet
  facet normal 0.998027 -0.0627912 0
    outer loop
      vertex 15.8095 16.1504 0
      vertex 15.8 16 10
      vertex 15.8 16 0
    endloop
  endfacet
  facet normal 0.84433 -0.535824 0
    outer loop
      vertex 15.9484 16.5781 10
      vertex 16.0292 16.7053 0
      vertex 16.0292 16.7053 10
    endloop
  endfacet
  facet normal 0.84433 -0.535824 0
    outer loop
      vertex 16.0292 16.7053 0
      vertex 15.9484 16.5781 10
      vertex 15.9484 16.5781 0
    endloop
  endfacet
  facet normal 0.587792 -0.809012 0
    outer loop
      vertex 16.2351 16.9246 0
      vertex 16.357 17.0132 10
      vertex 16.2351 16.9246 10
    endloop
  endfacet
  facet normal 0.587792 -0.809012 0
    outer loop
      vertex 16.357 17.0132 10
      vertex 16.2351 16.9246 0
      vertex 16.357 17.0132 0
    endloop
  endfacet
  facet normal 0.248692 -0.968583 0
    outer loop
      vertex 16.6292 17.1413 0
      vertex 16.7751 17.1787 10
      vertex 16.6292 17.1413 10
    endloop
  endfacet
  facet normal 0.248692 -0.968583 0
    outer loop
      vertex 16.7751 17.1787 10
      vertex 16.6292 17.1413 0
      vertex 16.7751 17.1787 0
    endloop
  endfacet
  facet normal -0.998026 0.062803 0
    outer loop
      vertex 18.1905 15.8496 0
      vertex 18.2 16 10
      vertex 18.2 16 0
    endloop
  endfacet
  facet normal -0.998026 0.062803 0
    outer loop
      vertex 18.2 16 10
      vertex 18.1905 15.8496 0
      vertex 18.1905 15.8496 10
    endloop
  endfacet
  facet normal -0.481751 0.876308 0
    outer loop
      vertex 17.643 14.9868 0
      vertex 17.5109 14.9142 10
      vertex 17.643 14.9868 10
    endloop
  endfacet
  facet normal -0.481751 0.876308 0
    outer loop
      vertex 17.5109 14.9142 10
      vertex 17.643 14.9868 0
      vertex 17.5109 14.9142 0
    endloop
  endfacet
  facet normal -0.587786 0.809016 0
    outer loop
      vertex 17.7649 15.0754 0
      vertex 17.643 14.9868 10
      vertex 17.7649 15.0754 10
    endloop
  endfacet
  facet normal -0.587786 0.809016 0
    outer loop
      vertex 17.643 14.9868 10
      vertex 17.7649 15.0754 0
      vertex 17.643 14.9868 0
    endloop
  endfacet
  facet normal -0.844329 0.535826 0
    outer loop
      vertex 17.9708 15.2947 0
      vertex 18.0516 15.4219 10
      vertex 18.0516 15.4219 0
    endloop
  endfacet
  facet normal -0.844329 0.535826 0
    outer loop
      vertex 18.0516 15.4219 10
      vertex 17.9708 15.2947 0
      vertex 17.9708 15.2947 10
    endloop
  endfacet
  facet normal 0 1 -0
    outer loop
      vertex 17.0753 14.8024 0
      vertex 16.9247 14.8024 10
      vertex 17.0753 14.8024 10
    endloop
  endfacet
  facet normal 0 1 0
    outer loop
      vertex 16.9247 14.8024 10
      vertex 17.0753 14.8024 0
      vertex 16.9247 14.8024 0
    endloop
  endfacet
  facet normal 0.587792 0.809012 -0
    outer loop
      vertex 16.357 14.9868 0
      vertex 16.2351 15.0754 10
      vertex 16.357 14.9868 10
    endloop
  endfacet
  facet normal 0.587792 0.809012 0
    outer loop
      vertex 16.2351 15.0754 10
      vertex 16.357 14.9868 0
      vertex 16.2351 15.0754 0
    endloop
  endfacet
  facet normal 0.844332 0.535821 0
    outer loop
      vertex 16.0292 15.2947 10
      vertex 15.9484 15.4219 0
      vertex 15.9484 15.4219 10
    endloop
  endfacet
  facet normal 0.844332 0.535821 0
    outer loop
      vertex 15.9484 15.4219 0
      vertex 16.0292 15.2947 10
      vertex 16.0292 15.2947 0
    endloop
  endfacet
  facet normal -0.982289 -0.18737 0
    outer loop
      vertex 18.1905 16.1504 0
      vertex 18.1623 16.2984 10
      vertex 18.1623 16.2984 0
    endloop
  endfacet
  facet normal -0.982289 -0.18737 0
    outer loop
      vertex 18.1623 16.2984 10
      vertex 18.1905 16.1504 0
      vertex 18.1905 16.1504 10
    endloop
  endfacet
  facet normal -0.951053 -0.309027 0
    outer loop
      vertex 18.1623 16.2984 0
      vertex 18.1157 16.4417 10
      vertex 18.1157 16.4417 0
    endloop
  endfacet
  facet normal -0.951053 -0.309027 0
    outer loop
      vertex 18.1157 16.4417 10
      vertex 18.1623 16.2984 0
      vertex 18.1623 16.2984 10
    endloop
  endfacet
  facet normal -0.770517 -0.637419 0
    outer loop
      vertex 17.9708 16.7053 0
      vertex 17.8748 16.8215 10
      vertex 17.8748 16.8215 0
    endloop
  endfacet
  facet normal -0.770517 -0.637419 0
    outer loop
      vertex 17.8748 16.8215 10
      vertex 17.9708 16.7053 0
      vertex 17.9708 16.7053 10
    endloop
  endfacet
  facet normal -0.684545 -0.728971 0
    outer loop
      vertex 17.7649 16.9246 0
      vertex 17.8748 16.8215 10
      vertex 17.7649 16.9246 10
    endloop
  endfacet
  facet normal -0.684545 -0.728971 -0
    outer loop
      vertex 17.8748 16.8215 10
      vertex 17.7649 16.9246 0
      vertex 17.8748 16.8215 0
    endloop
  endfacet
  facet normal -0.481755 -0.876306 0
    outer loop
      vertex 17.5109 17.0858 0
      vertex 17.643 17.0132 10
      vertex 17.5109 17.0858 10
    endloop
  endfacet
  facet normal -0.481755 -0.876306 -0
    outer loop
      vertex 17.643 17.0132 10
      vertex 17.5109 17.0858 0
      vertex 17.643 17.0132 0
    endloop
  endfacet
  facet normal -0.248695 -0.968582 0
    outer loop
      vertex 17.2249 17.1787 0
      vertex 17.3708 17.1413 10
      vertex 17.2249 17.1787 10
    endloop
  endfacet
  facet normal -0.248695 -0.968582 -0
    outer loop
      vertex 17.3708 17.1413 10
      vertex 17.2249 17.1787 0
      vertex 17.3708 17.1413 0
    endloop
  endfacet
  facet normal -0.125328 -0.992115 0
    outer loop
      vertex 17.0753 17.1976 0
      vertex 17.2249 17.1787 10
      vertex 17.0753 17.1976 10
    endloop
  endfacet
  facet normal -0.125328 -0.992115 -0
    outer loop
      vertex 17.2249 17.1787 10
      vertex 17.0753 17.1976 0
      vertex 17.2249 17.1787 0
    endloop
  endfacet
  facet normal 0.904825 -0.425783 0
    outer loop
      vertex 15.8843 16.4417 10
      vertex 15.9484 16.5781 0
      vertex 15.9484 16.5781 10
    endloop
  endfacet
  facet normal 0.904825 -0.425783 0
    outer loop
      vertex 15.9484 16.5781 0
      vertex 15.8843 16.4417 10
      vertex 15.8843 16.4417 0
    endloop
  endfacet
  facet normal 0.368122 -0.929778 0
    outer loop
      vertex 16.4891 17.0858 0
      vertex 16.6292 17.1413 10
      vertex 16.4891 17.0858 10
    endloop
  endfacet
  facet normal 0.368122 -0.929778 0
    outer loop
      vertex 16.6292 17.1413 10
      vertex 16.4891 17.0858 0
      vertex 16.6292 17.1413 0
    endloop
  endfacet
  facet normal 0.125328 -0.992115 0
    outer loop
      vertex 16.7751 17.1787 0
      vertex 16.9247 17.1976 10
      vertex 16.7751 17.1787 10
    endloop
  endfacet
  facet normal 0.125328 -0.992115 0
    outer loop
      vertex 16.9247 17.1976 10
      vertex 16.7751 17.1787 0
      vertex 16.9247 17.1976 0
    endloop
  endfacet
  facet normal 0.684539 -0.728976 0
    outer loop
      vertex 16.1252 16.8215 0
      vertex 16.2351 16.9246 10
      vertex 16.1252 16.8215 10
    endloop
  endfacet
  facet normal 0.684539 -0.728976 0
    outer loop
      vertex 16.2351 16.9246 10
      vertex 16.1252 16.8215 0
      vertex 16.2351 16.9246 0
    endloop
  endfacet
  facet normal 0.770517 -0.637419 0
    outer loop
      vertex 16.0292 16.7053 10
      vertex 16.1252 16.8215 0
      vertex 16.1252 16.8215 10
    endloop
  endfacet
  facet normal 0.770517 -0.637419 0
    outer loop
      vertex 16.1252 16.8215 0
      vertex 16.0292 16.7053 10
      vertex 16.0292 16.7053 0
    endloop
  endfacet
  facet normal -0.998026 -0.0628038 0
    outer loop
      vertex 18.2 16 0
      vertex 18.1905 16.1504 10
      vertex 18.1905 16.1504 0
    endloop
  endfacet
  facet normal -0.998026 -0.0628038 0
    outer loop
      vertex 18.1905 16.1504 10
      vertex 18.2 16 0
      vertex 18.2 16 10
    endloop
  endfacet
  facet normal -0.125334 0.992115 0
    outer loop
      vertex 17.2249 14.8213 0
      vertex 17.0753 14.8024 10
      vertex 17.2249 14.8213 10
    endloop
  endfacet
  facet normal -0.125334 0.992115 0
    outer loop
      vertex 17.0753 14.8024 10
      vertex 17.2249 14.8213 0
      vertex 17.0753 14.8024 0
    endloop
  endfacet
  facet normal -0.368127 0.929775 0
    outer loop
      vertex 17.5109 14.9142 0
      vertex 17.3708 14.8587 10
      vertex 17.5109 14.9142 10
    endloop
  endfacet
  facet normal -0.368127 0.929775 0
    outer loop
      vertex 17.3708 14.8587 10
      vertex 17.5109 14.9142 0
      vertex 17.3708 14.8587 0
    endloop
  endfacet
  facet normal -0.684548 0.728967 0
    outer loop
      vertex 17.8748 15.1785 0
      vertex 17.7649 15.0754 10
      vertex 17.8748 15.1785 10
    endloop
  endfacet
  facet normal -0.684548 0.728967 0
    outer loop
      vertex 17.7649 15.0754 10
      vertex 17.8748 15.1785 0
      vertex 17.7649 15.0754 0
    endloop
  endfacet
  facet normal -0.951053 0.309029 0
    outer loop
      vertex 18.1157 15.5583 0
      vertex 18.1623 15.7016 10
      vertex 18.1623 15.7016 0
    endloop
  endfacet
  facet normal -0.951053 0.309029 0
    outer loop
      vertex 18.1623 15.7016 10
      vertex 18.1157 15.5583 0
      vertex 18.1157 15.5583 10
    endloop
  endfacet
  facet normal 0.248686 0.968584 -0
    outer loop
      vertex 16.7751 14.8213 0
      vertex 16.6292 14.8587 10
      vertex 16.7751 14.8213 10
    endloop
  endfacet
  facet normal 0.248686 0.968584 0
    outer loop
      vertex 16.6292 14.8587 10
      vertex 16.7751 14.8213 0
      vertex 16.6292 14.8587 0
    endloop
  endfacet
  facet normal 0.481751 0.876308 -0
    outer loop
      vertex 16.4891 14.9142 0
      vertex 16.357 14.9868 10
      vertex 16.4891 14.9142 10
    endloop
  endfacet
  facet normal 0.481751 0.876308 0
    outer loop
      vertex 16.357 14.9868 10
      vertex 16.4891 14.9142 0
      vertex 16.357 14.9868 0
    endloop
  endfacet
  facet normal 0.904827 0.42578 0
    outer loop
      vertex 15.9484 15.4219 10
      vertex 15.8843 15.5583 0
      vertex 15.8843 15.5583 10
    endloop
  endfacet
  facet normal 0.904827 0.42578 0
    outer loop
      vertex 15.8843 15.5583 0
      vertex 15.9484 15.4219 10
      vertex 15.9484 15.4219 0
    endloop
  endfacet
  facet normal 0.982287 0.187384 0
    outer loop
      vertex 15.8377 15.7016 10
      vertex 15.8095 15.8496 0
      vertex 15.8095 15.8496 10
    endloop
  endfacet
  facet normal 0.982287 0.187384 0
    outer loop
      vertex 15.8095 15.8496 0
      vertex 15.8377 15.7016 10
      vertex 15.8377 15.7016 0
    endloop
  endfacet
  facet normal 0.770512 0.637425 0
    outer loop
      vertex 16.1252 15.1785 10
      vertex 16.0292 15.2947 0
      vertex 16.0292 15.2947 10
    endloop
  endfacet
  facet normal 0.770512 0.637425 0
    outer loop
      vertex 16.0292 15.2947 0
      vertex 16.1252 15.1785 10
      vertex 16.1252 15.1785 0
    endloop
  endfacet
  facet normal 0.684542 0.728973 -0
    outer loop
      vertex 16.2351 15.0754 0
      vertex 16.1252 15.1785 10
      vertex 16.2351 15.0754 10
    endloop
  endfacet
  facet normal 0.684542 0.728973 0
    outer loop
      vertex 16.1252 15.1785 10
      vertex 16.2351 15.0754 0
      vertex 16.1252 15.1785 0
    endloop
  endfacet
  facet normal 0.998027 0.0627904 0
    outer loop
      vertex 15.8095 15.8496 10
      vertex 15.8 16 0
      vertex 15.8 16 10
    endloop
  endfacet
  facet normal 0.998027 0.0627904 0
    outer loop
      vertex 15.8 16 0
      vertex 15.8095 15.8496 10
      vertex 15.8095 15.8496 0
    endloop
  endfacet
  facet normal -0.248689 0.968583 0
    outer loop
      vertex 17.3708 14.8587 0
      vertex 17.2249 14.8213 10
      vertex 17.3708 14.8587 10
    endloop
  endfacet
  facet normal -0.248689 0.968583 0
    outer loop
      vertex 17.2249 14.8213 10
      vertex 17.3708 14.8587 0
      vertex 17.2249 14.8213 0
    endloop
  endfacet
  facet normal -0.770512 0.637425 0
    outer loop
      vertex 17.8748 15.1785 0
      vertex 17.9708 15.2947 10
      vertex 17.9708 15.2947 0
    endloop
  endfacet
  facet normal -0.770512 0.637425 0
    outer loop
      vertex 17.9708 15.2947 10
      vertex 17.8748 15.1785 0
      vertex 17.8748 15.1785 10
    endloop
  endfacet
  facet normal -0.904829 0.425775 0
    outer loop
      vertex 18.0516 15.4219 0
      vertex 18.1157 15.5583 10
      vertex 18.1157 15.5583 0
    endloop
  endfacet
  facet normal -0.904829 0.425775 0
    outer loop
      vertex 18.1157 15.5583 10
      vertex 18.0516 15.4219 0
      vertex 18.0516 15.4219 10
    endloop
  endfacet
  facet normal 0.125334 0.992115 -0
    outer loop
      vertex 16.9247 14.8024 0
      vertex 16.7751 14.8213 10
      vertex 16.9247 14.8024 10
    endloop
  endfacet
  facet normal 0.125334 0.992115 0
    outer loop
      vertex 16.7751 14.8213 10
      vertex 16.9247 14.8024 0
      vertex 16.7751 14.8213 0
    endloop
  endfacet
  facet normal 0.368127 0.929775 -0
    outer loop
      vertex 16.6292 14.8587 0
      vertex 16.4891 14.9142 10
      vertex 16.6292 14.8587 10
    endloop
  endfacet
  facet normal 0.368127 0.929775 0
    outer loop
      vertex 16.4891 14.9142 10
      vertex 16.6292 14.8587 0
      vertex 16.4891 14.9142 0
    endloop
  endfacet
  facet normal 0.951056 0.309018 0
    outer loop
      vertex 15.8843 15.5583 10
      vertex 15.8377 15.7016 0
      vertex 15.8377 15.7016 10
    endloop
  endfacet
  facet normal 0.951056 0.309018 0
    outer loop
      vertex 15.8377 15.7016 0
      vertex 15.8843 15.5583 10
      vertex 15.8843 15.5583 0
    endloop
  endfacet
endsolid OpenSCAD_Model
