solid OpenSCAD_Model
  facet normal -0 0 1
    outer loop
      vertex 14.1884 38 18
      vertex 16 0 18
      vertex 16 38 18
    endloop
  endfacet
  facet normal 0 0 1
    outer loop
      vertex 16 0 18
      vertex 14.1884 38 18
      vertex 14.1884 0 18
    endloop
  endfacet
  facet normal -0 0 1
    outer loop
      vertex 2 38 18
      vertex 3.81164 0 18
      vertex 3.81164 38 18
    endloop
  endfacet
  facet normal 0 0 1
    outer loop
      vertex 3.81164 0 18
      vertex 2 38 18
      vertex 2 0 18
    endloop
  endfacet
  facet normal 0 0 -1
    outer loop
      vertex 23.4876 6.589 0
      vertex 27 0 0
      vertex 23.5497 6.3979 0
    endloop
  endfacet
  facet normal 0 0 -1
    outer loop
      vertex 27 38 0
      vertex 23.5874 31.7995 0
      vertex 23.6 32 0
    endloop
  endfacet
  facet normal 0 0 -1
    outer loop
      vertex 27 0 0
      vertex 23.4876 6.589 0
      vertex 27 38 0
    endloop
  endfacet
  facet normal 0 0 -1
    outer loop
      vertex 27 38 0
      vertex 23.5497 31.6021 0
      vertex 23.5874 31.7995 0
    endloop
  endfacet
  facet normal 0 0 -1
    outer loop
      vertex 23.4876 31.411 0
      vertex 27 38 0
      vertex 23.4876 6.589 0
    endloop
  endfacet
  facet normal 0 0 -1
    outer loop
      vertex 27 38 0
      vertex 23.4876 31.411 0
      vertex 23.5497 31.6021 0
    endloop
  endfacet
  facet normal 0 0 -1
    outer loop
      vertex 23.4021 6.77081 0
      vertex 23.4876 31.411 0
      vertex 23.4876 6.589 0
    endloop
  endfacet
  facet normal 0 0 -1
    outer loop
      vertex 23.4021 6.77081 0
      vertex 23.4021 31.2292 0
      vertex 23.4876 31.411 0
    endloop
  endfacet
  facet normal 0 0 -1
    outer loop
      vertex 23.2944 6.94046 0
      vertex 23.4021 31.2292 0
      vertex 23.4021 6.77081 0
    endloop
  endfacet
  facet normal 0 0 -1
    outer loop
      vertex 23.2944 6.94046 0
      vertex 23.2944 31.0595 0
      vertex 23.4021 31.2292 0
    endloop
  endfacet
  facet normal 0 0 -1
    outer loop
      vertex 23.1663 7.09527 0
      vertex 23.2944 31.0595 0
      vertex 23.2944 6.94046 0
    endloop
  endfacet
  facet normal 0 0 -1
    outer loop
      vertex 23.1663 7.09527 0
      vertex 23.1663 30.9047 0
      vertex 23.2944 31.0595 0
    endloop
  endfacet
  facet normal 0 0 -1
    outer loop
      vertex 23.0199 7.23282 0
      vertex 23.1663 30.9047 0
      vertex 23.1663 7.09527 0
    endloop
  endfacet
  facet normal 0 0 -1
    outer loop
      vertex 23.0199 7.23282 0
      vertex 23.0199 30.7672 0
      vertex 23.1663 30.9047 0
    endloop
  endfacet
  facet normal 0 0 -1
    outer loop
      vertex 22.8573 7.35092 0
      vertex 23.0199 30.7672 0
      vertex 23.0199 7.23282 0
    endloop
  endfacet
  facet normal 0 0 -1
    outer loop
      vertex 22.8573 7.35092 0
      vertex 22.8573 30.6491 0
      vertex 23.0199 30.7672 0
    endloop
  endfacet
  facet normal 0 0 -1
    outer loop
      vertex 22.6812 7.44772 0
      vertex 22.8573 30.6491 0
      vertex 22.8573 7.35092 0
    endloop
  endfacet
  facet normal 0 0 -1
    outer loop
      vertex 22.6812 7.44772 0
      vertex 22.6812 30.5523 0
      vertex 22.8573 30.6491 0
    endloop
  endfacet
  facet normal 0 0 -1
    outer loop
      vertex 22.4944 7.52169 0
      vertex 22.6812 30.5523 0
      vertex 22.6812 7.44772 0
    endloop
  endfacet
  facet normal 0 0 -1
    outer loop
      vertex 22.4944 7.52169 0
      vertex 22.4944 30.4783 0
      vertex 22.6812 30.5523 0
    endloop
  endfacet
  facet normal 0 0 -1
    outer loop
      vertex 22.2998 7.57166 0
      vertex 22.4944 30.4783 0
      vertex 22.4944 7.52169 0
    endloop
  endfacet
  facet normal 0 0 -1
    outer loop
      vertex 22.2998 7.57166 0
      vertex 22.2998 30.4283 0
      vertex 22.4944 30.4783 0
    endloop
  endfacet
  facet normal 0 0 -1
    outer loop
      vertex 22.1005 7.59684 0
      vertex 22.2998 30.4283 0
      vertex 22.2998 7.57166 0
    endloop
  endfacet
  facet normal 0 0 -1
    outer loop
      vertex 22.1005 7.59684 0
      vertex 22.1005 30.4032 0
      vertex 22.2998 30.4283 0
    endloop
  endfacet
  facet normal 0 0 -1
    outer loop
      vertex 21.8995 7.59684 0
      vertex 22.1005 30.4032 0
      vertex 22.1005 7.59684 0
    endloop
  endfacet
  facet normal 0 0 -1
    outer loop
      vertex 21.8995 7.59684 0
      vertex 21.8995 30.4032 0
      vertex 22.1005 30.4032 0
    endloop
  endfacet
  facet normal 0 0 -1
    outer loop
      vertex 21.7002 7.57166 0
      vertex 21.8995 30.4032 0
      vertex 21.8995 7.59684 0
    endloop
  endfacet
  facet normal 0 0 -1
    outer loop
      vertex 21.7002 7.57166 0
      vertex 21.7002 30.4283 0
      vertex 21.8995 30.4032 0
    endloop
  endfacet
  facet normal 0 0 -1
    outer loop
      vertex 21.5056 7.52169 0
      vertex 21.7002 30.4283 0
      vertex 21.7002 7.57166 0
    endloop
  endfacet
  facet normal 0 0 -1
    outer loop
      vertex 21.5056 7.52169 0
      vertex 21.5056 30.4783 0
      vertex 21.7002 30.4283 0
    endloop
  endfacet
  facet normal 0 0 -1
    outer loop
      vertex 21.3188 7.44772 0
      vertex 21.5056 30.4783 0
      vertex 21.5056 7.52169 0
    endloop
  endfacet
  facet normal 0 0 -1
    outer loop
      vertex 21.3188 7.44772 0
      vertex 21.3188 30.5523 0
      vertex 21.5056 30.4783 0
    endloop
  endfacet
  facet normal 0 0 -1
    outer loop
      vertex 21.1427 7.35092 0
      vertex 21.3188 30.5523 0
      vertex 21.3188 7.44772 0
    endloop
  endfacet
  facet normal 0 0 -1
    outer loop
      vertex 21.1427 7.35092 0
      vertex 21.1427 30.6491 0
      vertex 21.3188 30.5523 0
    endloop
  endfacet
  facet normal 0 0 -1
    outer loop
      vertex 20.9801 7.23282 0
      vertex 21.1427 30.6491 0
      vertex 21.1427 7.35092 0
    endloop
  endfacet
  facet normal 0 0 -1
    outer loop
      vertex 20.9801 7.23282 0
      vertex 20.9801 30.7672 0
      vertex 21.1427 30.6491 0
    endloop
  endfacet
  facet normal 0 0 -1
    outer loop
      vertex 20.8337 7.09527 0
      vertex 20.9801 30.7672 0
      vertex 20.9801 7.23282 0
    endloop
  endfacet
  facet normal 0 0 -1
    outer loop
      vertex 20.8337 7.09527 0
      vertex 20.8337 30.9047 0
      vertex 20.9801 30.7672 0
    endloop
  endfacet
  facet normal 0 0 -1
    outer loop
      vertex 20.7056 6.94046 0
      vertex 20.8337 30.9047 0
      vertex 20.8337 7.09527 0
    endloop
  endfacet
  facet normal 0 0 -1
    outer loop
      vertex 20.7056 6.94046 0
      vertex 20.7056 31.0595 0
      vertex 20.8337 30.9047 0
    endloop
  endfacet
  facet normal 0 0 -1
    outer loop
      vertex 0 0 0
      vertex 20.7056 6.94046 0
      vertex 20.5979 6.77081 0
    endloop
  endfacet
  facet normal -0 0 -1
    outer loop
      vertex 20.7056 6.94046 0
      vertex 0 0 0
      vertex 20.7056 31.0595 0
    endloop
  endfacet
  facet normal 0 0 -1
    outer loop
      vertex 0 0 0
      vertex 20.5979 6.77081 0
      vertex 20.5124 6.589 0
    endloop
  endfacet
  facet normal 0 0 -1
    outer loop
      vertex 0 38 0
      vertex 20.7056 31.0595 0
      vertex 0 0 0
    endloop
  endfacet
  facet normal 0 0 -1
    outer loop
      vertex 0 0 0
      vertex 20.5124 6.589 0
      vertex 20.4503 6.3979 0
    endloop
  endfacet
  facet normal 0 0 -1
    outer loop
      vertex 20.7056 31.0595 0
      vertex 0 38 0
      vertex 20.5979 31.2292 0
    endloop
  endfacet
  facet normal 0 0 -1
    outer loop
      vertex 0 0 0
      vertex 20.4503 6.3979 0
      vertex 20.4126 6.20053 0
    endloop
  endfacet
  facet normal 0 0 -1
    outer loop
      vertex 20.5979 31.2292 0
      vertex 0 38 0
      vertex 20.5124 31.411 0
    endloop
  endfacet
  facet normal 0 0 -1
    outer loop
      vertex 0 0 0
      vertex 20.4126 6.20053 0
      vertex 20.4 6 0
    endloop
  endfacet
  facet normal 0 0 -1
    outer loop
      vertex 20.5124 31.411 0
      vertex 0 38 0
      vertex 20.4503 31.6021 0
    endloop
  endfacet
  facet normal 0 0 -1
    outer loop
      vertex 23.5874 6.20053 0
      vertex 27 0 0
      vertex 23.6 6 0
    endloop
  endfacet
  facet normal 0 0 -1
    outer loop
      vertex 27 0 0
      vertex 23.5874 5.79947 0
      vertex 23.6 6 0
    endloop
  endfacet
  facet normal 0 0 -1
    outer loop
      vertex 27 0 0
      vertex 23.5497 5.6021 0
      vertex 23.5874 5.79947 0
    endloop
  endfacet
  facet normal 0 0 -1
    outer loop
      vertex 27 0 0
      vertex 23.4876 5.411 0
      vertex 23.5497 5.6021 0
    endloop
  endfacet
  facet normal 0 0 -1
    outer loop
      vertex 27 0 0
      vertex 23.4021 5.22919 0
      vertex 23.4876 5.411 0
    endloop
  endfacet
  facet normal 0 0 -1
    outer loop
      vertex 27 0 0
      vertex 23.2944 5.05954 0
      vertex 23.4021 5.22919 0
    endloop
  endfacet
  facet normal 0 0 -1
    outer loop
      vertex 27 0 0
      vertex 23.1663 4.90473 0
      vertex 23.2944 5.05954 0
    endloop
  endfacet
  facet normal 0 0 -1
    outer loop
      vertex 27 0 0
      vertex 23.0199 4.76718 0
      vertex 23.1663 4.90473 0
    endloop
  endfacet
  facet normal 0 0 -1
    outer loop
      vertex 27 0 0
      vertex 22.8573 4.64908 0
      vertex 23.0199 4.76718 0
    endloop
  endfacet
  facet normal 0 0 -1
    outer loop
      vertex 27 0 0
      vertex 22.6812 4.55228 0
      vertex 22.8573 4.64908 0
    endloop
  endfacet
  facet normal 0 0 -1
    outer loop
      vertex 27 0 0
      vertex 22.4944 4.47831 0
      vertex 22.6812 4.55228 0
    endloop
  endfacet
  facet normal 0 0 -1
    outer loop
      vertex 27 0 0
      vertex 22.2998 4.42834 0
      vertex 22.4944 4.47831 0
    endloop
  endfacet
  facet normal 0 0 -1
    outer loop
      vertex 27 0 0
      vertex 22.1005 4.40316 0
      vertex 22.2998 4.42834 0
    endloop
  endfacet
  facet normal 0 0 -1
    outer loop
      vertex 27 0 0
      vertex 21.8995 4.40316 0
      vertex 22.1005 4.40316 0
    endloop
  endfacet
  facet normal 0 0 -1
    outer loop
      vertex 27 0 0
      vertex 21.7002 4.42834 0
      vertex 21.8995 4.40316 0
    endloop
  endfacet
  facet normal 0 0 -1
    outer loop
      vertex 27 0 0
      vertex 21.5056 4.47831 0
      vertex 21.7002 4.42834 0
    endloop
  endfacet
  facet normal 0 0 -1
    outer loop
      vertex 27 0 0
      vertex 21.3188 4.55228 0
      vertex 21.5056 4.47831 0
    endloop
  endfacet
  facet normal 0 0 -1
    outer loop
      vertex 0 0 0
      vertex 21.3188 4.55228 0
      vertex 27 0 0
    endloop
  endfacet
  facet normal -0 0 -1
    outer loop
      vertex 21.3188 4.55228 0
      vertex 0 0 0
      vertex 21.1427 4.64908 0
    endloop
  endfacet
  facet normal 0 0 -1
    outer loop
      vertex 20.4503 31.6021 0
      vertex 0 38 0
      vertex 20.4126 31.7995 0
    endloop
  endfacet
  facet normal -0 0 -1
    outer loop
      vertex 20.4126 5.79947 0
      vertex 0 0 0
      vertex 20.4 6 0
    endloop
  endfacet
  facet normal -0 0 -1
    outer loop
      vertex 20.4503 5.6021 0
      vertex 0 0 0
      vertex 20.4126 5.79947 0
    endloop
  endfacet
  facet normal -0 0 -1
    outer loop
      vertex 20.5124 5.411 0
      vertex 0 0 0
      vertex 20.4503 5.6021 0
    endloop
  endfacet
  facet normal -0 0 -1
    outer loop
      vertex 20.5979 5.22919 0
      vertex 0 0 0
      vertex 20.5124 5.411 0
    endloop
  endfacet
  facet normal -0 0 -1
    outer loop
      vertex 20.7056 5.05954 0
      vertex 0 0 0
      vertex 20.5979 5.22919 0
    endloop
  endfacet
  facet normal -0 0 -1
    outer loop
      vertex 20.8337 4.90473 0
      vertex 0 0 0
      vertex 20.7056 5.05954 0
    endloop
  endfacet
  facet normal -0 0 -1
    outer loop
      vertex 20.9801 4.76718 0
      vertex 0 0 0
      vertex 20.8337 4.90473 0
    endloop
  endfacet
  facet normal -0 0 -1
    outer loop
      vertex 21.1427 4.64908 0
      vertex 0 0 0
      vertex 20.9801 4.76718 0
    endloop
  endfacet
  facet normal 0 0 -1
    outer loop
      vertex 23.5497 6.3979 0
      vertex 27 0 0
      vertex 23.5874 6.20053 0
    endloop
  endfacet
  facet normal 0 0 -1
    outer loop
      vertex 23.5874 32.2005 0
      vertex 27 38 0
      vertex 23.6 32 0
    endloop
  endfacet
  facet normal 0 0 -1
    outer loop
      vertex 23.5497 32.3979 0
      vertex 27 38 0
      vertex 23.5874 32.2005 0
    endloop
  endfacet
  facet normal 0 0 -1
    outer loop
      vertex 23.4876 32.589 0
      vertex 27 38 0
      vertex 23.5497 32.3979 0
    endloop
  endfacet
  facet normal 0 0 -1
    outer loop
      vertex 23.4021 32.7708 0
      vertex 27 38 0
      vertex 23.4876 32.589 0
    endloop
  endfacet
  facet normal 0 0 -1
    outer loop
      vertex 23.2944 32.9405 0
      vertex 27 38 0
      vertex 23.4021 32.7708 0
    endloop
  endfacet
  facet normal 0 0 -1
    outer loop
      vertex 23.1663 33.0953 0
      vertex 27 38 0
      vertex 23.2944 32.9405 0
    endloop
  endfacet
  facet normal 0 0 -1
    outer loop
      vertex 23.0199 33.2328 0
      vertex 27 38 0
      vertex 23.1663 33.0953 0
    endloop
  endfacet
  facet normal 0 0 -1
    outer loop
      vertex 22.8573 33.3509 0
      vertex 27 38 0
      vertex 23.0199 33.2328 0
    endloop
  endfacet
  facet normal 0 0 -1
    outer loop
      vertex 22.6812 33.4477 0
      vertex 27 38 0
      vertex 22.8573 33.3509 0
    endloop
  endfacet
  facet normal 0 0 -1
    outer loop
      vertex 22.4944 33.5217 0
      vertex 27 38 0
      vertex 22.6812 33.4477 0
    endloop
  endfacet
  facet normal 0 0 -1
    outer loop
      vertex 22.2998 33.5717 0
      vertex 27 38 0
      vertex 22.4944 33.5217 0
    endloop
  endfacet
  facet normal 0 0 -1
    outer loop
      vertex 22.1005 33.5968 0
      vertex 27 38 0
      vertex 22.2998 33.5717 0
    endloop
  endfacet
  facet normal 0 0 -1
    outer loop
      vertex 21.8995 33.5968 0
      vertex 27 38 0
      vertex 22.1005 33.5968 0
    endloop
  endfacet
  facet normal 0 0 -1
    outer loop
      vertex 21.7002 33.5717 0
      vertex 27 38 0
      vertex 21.8995 33.5968 0
    endloop
  endfacet
  facet normal 0 0 -1
    outer loop
      vertex 21.5056 33.5217 0
      vertex 27 38 0
      vertex 21.7002 33.5717 0
    endloop
  endfacet
  facet normal 0 0 -1
    outer loop
      vertex 21.3188 33.4477 0
      vertex 27 38 0
      vertex 21.5056 33.5217 0
    endloop
  endfacet
  facet normal 0 0 -1
    outer loop
      vertex 0 38 0
      vertex 21.3188 33.4477 0
      vertex 21.1427 33.3509 0
    endloop
  endfacet
  facet normal 0 0 -1
    outer loop
      vertex 0 38 0
      vertex 21.1427 33.3509 0
      vertex 20.9801 33.2328 0
    endloop
  endfacet
  facet normal 0 0 -1
    outer loop
      vertex 20.4126 31.7995 0
      vertex 0 38 0
      vertex 20.4 32 0
    endloop
  endfacet
  facet normal 0 0 -1
    outer loop
      vertex 20.4 32 0
      vertex 0 38 0
      vertex 20.4126 32.2005 0
    endloop
  endfacet
  facet normal 0 0 -1
    outer loop
      vertex 20.4126 32.2005 0
      vertex 0 38 0
      vertex 20.4503 32.3979 0
    endloop
  endfacet
  facet normal 0 0 -1
    outer loop
      vertex 20.4503 32.3979 0
      vertex 0 38 0
      vertex 20.5124 32.589 0
    endloop
  endfacet
  facet normal 0 0 -1
    outer loop
      vertex 21.3188 33.4477 0
      vertex 0 38 0
      vertex 27 38 0
    endloop
  endfacet
  facet normal 0 0 -1
    outer loop
      vertex 20.8337 33.0953 0
      vertex 0 38 0
      vertex 20.9801 33.2328 0
    endloop
  endfacet
  facet normal 0 0 -1
    outer loop
      vertex 20.7056 32.9405 0
      vertex 0 38 0
      vertex 20.8337 33.0953 0
    endloop
  endfacet
  facet normal 0 0 -1
    outer loop
      vertex 20.5979 32.7708 0
      vertex 0 38 0
      vertex 20.7056 32.9405 0
    endloop
  endfacet
  facet normal 0 0 -1
    outer loop
      vertex 20.5124 32.589 0
      vertex 0 38 0
      vertex 20.5979 32.7708 0
    endloop
  endfacet
  facet normal 1 -0 0
    outer loop
      vertex 18 0 16
      vertex 18 38 6
      vertex 18 38 16
    endloop
  endfacet
  facet normal 1 0 0
    outer loop
      vertex 18 38 6
      vertex 18 0 16
      vertex 18 0 6
    endloop
  endfacet
  facet normal -1 0 0
    outer loop
      vertex 0 0 0
      vertex 0 38 16
      vertex 0 38 0
    endloop
  endfacet
  facet normal -1 -0 0
    outer loop
      vertex 0 38 16
      vertex 0 0 0
      vertex 0 0 16
    endloop
  endfacet
  facet normal 0 1 0
    outer loop
      vertex 27 38 6
      vertex 27 38 0
      vertex 18 38 6
    endloop
  endfacet
  facet normal 0 1 0
    outer loop
      vertex 16 38 18
      vertex 14.2578 38 17.8905
      vertex 14.1884 38 18
    endloop
  endfacet
  facet normal 0 1 0
    outer loop
      vertex 16 38 18
      vertex 14.5787 38 17.2087
      vertex 14.2578 38 17.8905
    endloop
  endfacet
  facet normal 0 1 0
    outer loop
      vertex 16 38 18
      vertex 14.8115 38 16.4921
      vertex 14.5787 38 17.2087
    endloop
  endfacet
  facet normal 0 1 0
    outer loop
      vertex 18 38 16
      vertex 14.8115 38 16.4921
      vertex 16 38 18
    endloop
  endfacet
  facet normal 0 1 0
    outer loop
      vertex 18 38 16
      vertex 14.9527 38 15.752
      vertex 14.8115 38 16.4921
    endloop
  endfacet
  facet normal 0 1 0
    outer loop
      vertex 18 38 16
      vertex 15 38 15
      vertex 14.9527 38 15.752
    endloop
  endfacet
  facet normal 0 1 0
    outer loop
      vertex 18 38 16
      vertex 14.9527 38 14.248
      vertex 15 38 15
    endloop
  endfacet
  facet normal 0 1 0
    outer loop
      vertex 18 38 16
      vertex 14.8115 38 13.5079
      vertex 14.9527 38 14.248
    endloop
  endfacet
  facet normal 0 1 0
    outer loop
      vertex 18 38 16
      vertex 14.5787 38 12.7913
      vertex 14.8115 38 13.5079
    endloop
  endfacet
  facet normal 0 1 -0
    outer loop
      vertex 18 38 6
      vertex 14.5787 38 12.7913
      vertex 18 38 16
    endloop
  endfacet
  facet normal 0 1 0
    outer loop
      vertex 14.5787 38 12.7913
      vertex 18 38 6
      vertex 14.2578 38 12.1095
    endloop
  endfacet
  facet normal 0 1 0
    outer loop
      vertex 14.2578 38 12.1095
      vertex 18 38 6
      vertex 13.8541 38 11.4733
    endloop
  endfacet
  facet normal 0 1 0
    outer loop
      vertex 0 38 0
      vertex 9.37674 38 9.01184
      vertex 18 38 6
    endloop
  endfacet
  facet normal 0 1 0
    outer loop
      vertex 10.1243 38 9.10628
      vertex 18 38 6
      vertex 9.37674 38 9.01184
    endloop
  endfacet
  facet normal 0 1 0
    outer loop
      vertex 10.8541 38 9.29366
      vertex 18 38 6
      vertex 10.1243 38 9.10628
    endloop
  endfacet
  facet normal 0 1 0
    outer loop
      vertex 11.5547 38 9.57104
      vertex 18 38 6
      vertex 10.8541 38 9.29366
    endloop
  endfacet
  facet normal 0 1 0
    outer loop
      vertex 12.215 38 9.93403
      vertex 18 38 6
      vertex 11.5547 38 9.57104
    endloop
  endfacet
  facet normal 0 1 0
    outer loop
      vertex 12.8245 38 10.3769
      vertex 18 38 6
      vertex 12.215 38 9.93403
    endloop
  endfacet
  facet normal 0 1 0
    outer loop
      vertex 13.3738 38 10.8927
      vertex 18 38 6
      vertex 12.8245 38 10.3769
    endloop
  endfacet
  facet normal 0 1 0
    outer loop
      vertex 13.8541 38 11.4733
      vertex 18 38 6
      vertex 13.3738 38 10.8927
    endloop
  endfacet
  facet normal 0 1 -0
    outer loop
      vertex 3.74216 38 17.8905
      vertex 2 38 18
      vertex 3.81164 38 18
    endloop
  endfacet
  facet normal 0 1 -0
    outer loop
      vertex 3.42134 38 17.2087
      vertex 2 38 18
      vertex 3.74216 38 17.8905
    endloop
  endfacet
  facet normal 0 1 -0
    outer loop
      vertex 3.1885 38 16.4921
      vertex 2 38 18
      vertex 3.42134 38 17.2087
    endloop
  endfacet
  facet normal 0 1 0
    outer loop
      vertex 3.1885 38 16.4921
      vertex 0 38 16
      vertex 2 38 18
    endloop
  endfacet
  facet normal 0 1 -0
    outer loop
      vertex 3.04731 38 15.752
      vertex 0 38 16
      vertex 3.1885 38 16.4921
    endloop
  endfacet
  facet normal 0 1 -0
    outer loop
      vertex 3 38 15
      vertex 0 38 16
      vertex 3.04731 38 15.752
    endloop
  endfacet
  facet normal 0 1 0
    outer loop
      vertex 3.04731 38 14.248
      vertex 0 38 16
      vertex 3 38 15
    endloop
  endfacet
  facet normal 0 1 0
    outer loop
      vertex 3.1885 38 13.5079
      vertex 0 38 16
      vertex 3.04731 38 14.248
    endloop
  endfacet
  facet normal 0 1 0
    outer loop
      vertex 3.42134 38 12.7913
      vertex 0 38 16
      vertex 3.1885 38 13.5079
    endloop
  endfacet
  facet normal 0 1 0
    outer loop
      vertex 3.74216 38 12.1095
      vertex 0 38 16
      vertex 3.42134 38 12.7913
    endloop
  endfacet
  facet normal 0 1 0
    outer loop
      vertex 0 38 0
      vertex 3.74216 38 12.1095
      vertex 4.1459 38 11.4733
    endloop
  endfacet
  facet normal 0 1 0
    outer loop
      vertex 0 38 0
      vertex 4.1459 38 11.4733
      vertex 4.62619 38 10.8927
    endloop
  endfacet
  facet normal 0 1 0
    outer loop
      vertex 9.37674 38 9.01184
      vertex 0 38 0
      vertex 8.62326 38 9.01184
    endloop
  endfacet
  facet normal 0 1 0
    outer loop
      vertex 8.62326 38 9.01184
      vertex 0 38 0
      vertex 7.87571 38 9.10628
    endloop
  endfacet
  facet normal 0 1 0
    outer loop
      vertex 0 38 0
      vertex 18 38 6
      vertex 27 38 0
    endloop
  endfacet
  facet normal 0 1 0
    outer loop
      vertex 7.87571 38 9.10628
      vertex 0 38 0
      vertex 7.1459 38 9.29366
    endloop
  endfacet
  facet normal 0 1 0
    outer loop
      vertex 3.74216 38 12.1095
      vertex 0 38 0
      vertex 0 38 16
    endloop
  endfacet
  facet normal 0 1 0
    outer loop
      vertex 5.17546 38 10.3769
      vertex 0 38 0
      vertex 4.62619 38 10.8927
    endloop
  endfacet
  facet normal 0 1 0
    outer loop
      vertex 5.78504 38 9.93403
      vertex 0 38 0
      vertex 5.17546 38 10.3769
    endloop
  endfacet
  facet normal 0 1 0
    outer loop
      vertex 6.44532 38 9.57104
      vertex 0 38 0
      vertex 5.78504 38 9.93403
    endloop
  endfacet
  facet normal 0 1 0
    outer loop
      vertex 7.1459 38 9.29366
      vertex 0 38 0
      vertex 6.44532 38 9.57104
    endloop
  endfacet
  facet normal 0.707107 -0 0.707107
    outer loop
      vertex 16 0 18
      vertex 18 38 16
      vertex 16 38 18
    endloop
  endfacet
  facet normal 0.707107 0 0.707107
    outer loop
      vertex 18 38 16
      vertex 16 0 18
      vertex 18 0 16
    endloop
  endfacet
  facet normal 0 -1 0
    outer loop
      vertex 2 0 18
      vertex 3.74216 0 17.8905
      vertex 3.81164 0 18
    endloop
  endfacet
  facet normal 0 -1 0
    outer loop
      vertex 2 0 18
      vertex 3.42134 0 17.2087
      vertex 3.74216 0 17.8905
    endloop
  endfacet
  facet normal 0 -1 0
    outer loop
      vertex 2 0 18
      vertex 3.1885 0 16.4921
      vertex 3.42134 0 17.2087
    endloop
  endfacet
  facet normal 0 -1 0
    outer loop
      vertex 0 0 16
      vertex 3.1885 0 16.4921
      vertex 2 0 18
    endloop
  endfacet
  facet normal 0 -1 0
    outer loop
      vertex 0 0 16
      vertex 3.04731 0 15.752
      vertex 3.1885 0 16.4921
    endloop
  endfacet
  facet normal 0 -1 0
    outer loop
      vertex 0 0 16
      vertex 3 0 15
      vertex 3.04731 0 15.752
    endloop
  endfacet
  facet normal 0 -1 0
    outer loop
      vertex 0 0 16
      vertex 3.04731 0 14.248
      vertex 3 0 15
    endloop
  endfacet
  facet normal 0 -1 0
    outer loop
      vertex 0 0 16
      vertex 3.1885 0 13.5079
      vertex 3.04731 0 14.248
    endloop
  endfacet
  facet normal 0 -1 0
    outer loop
      vertex 0 0 16
      vertex 3.42134 0 12.7913
      vertex 3.1885 0 13.5079
    endloop
  endfacet
  facet normal 0 -1 0
    outer loop
      vertex 0 0 16
      vertex 3.74216 0 12.1095
      vertex 3.42134 0 12.7913
    endloop
  endfacet
  facet normal 0 -1 0
    outer loop
      vertex 0 0 0
      vertex 3.74216 0 12.1095
      vertex 0 0 16
    endloop
  endfacet
  facet normal 0 -1 -0
    outer loop
      vertex 3.74216 0 12.1095
      vertex 0 0 0
      vertex 4.1459 0 11.4733
    endloop
  endfacet
  facet normal 0 -1 0
    outer loop
      vertex 0 0 0
      vertex 9.37674 0 9.01184
      vertex 8.62326 0 9.01184
    endloop
  endfacet
  facet normal 0 -1 0
    outer loop
      vertex 0 0 0
      vertex 8.62326 0 9.01184
      vertex 7.87571 0 9.10628
    endloop
  endfacet
  facet normal 0 -1 0
    outer loop
      vertex 0 0 0
      vertex 7.87571 0 9.10628
      vertex 7.1459 0 9.29366
    endloop
  endfacet
  facet normal 0 -1 -0
    outer loop
      vertex 4.1459 0 11.4733
      vertex 0 0 0
      vertex 4.62619 0 10.8927
    endloop
  endfacet
  facet normal 0 -1 0
    outer loop
      vertex 0 0 0
      vertex 5.17546 0 10.3769
      vertex 4.62619 0 10.8927
    endloop
  endfacet
  facet normal 0 -1 0
    outer loop
      vertex 0 0 0
      vertex 5.78504 0 9.93403
      vertex 5.17546 0 10.3769
    endloop
  endfacet
  facet normal 0 -1 0
    outer loop
      vertex 0 0 0
      vertex 6.44532 0 9.57104
      vertex 5.78504 0 9.93403
    endloop
  endfacet
  facet normal 0 -1 0
    outer loop
      vertex 0 0 0
      vertex 7.1459 0 9.29366
      vertex 6.44532 0 9.57104
    endloop
  endfacet
  facet normal 0 -1 -0
    outer loop
      vertex 9.37674 0 9.01184
      vertex 0 0 0
      vertex 18 0 6
    endloop
  endfacet
  facet normal 0 -1 0
    outer loop
      vertex 27 0 0
      vertex 18 0 6
      vertex 0 0 0
    endloop
  endfacet
  facet normal 0 -1 0
    outer loop
      vertex 18 0 6
      vertex 27 0 0
      vertex 27 0 6
    endloop
  endfacet
  facet normal 0 -1 0
    outer loop
      vertex 14.2578 0 17.8905
      vertex 16 0 18
      vertex 14.1884 0 18
    endloop
  endfacet
  facet normal 0 -1 0
    outer loop
      vertex 14.5787 0 17.2087
      vertex 16 0 18
      vertex 14.2578 0 17.8905
    endloop
  endfacet
  facet normal 0 -1 0
    outer loop
      vertex 14.8115 0 16.4921
      vertex 16 0 18
      vertex 14.5787 0 17.2087
    endloop
  endfacet
  facet normal 0 -1 0
    outer loop
      vertex 14.8115 0 16.4921
      vertex 18 0 16
      vertex 16 0 18
    endloop
  endfacet
  facet normal 0 -1 0
    outer loop
      vertex 14.9527 0 15.752
      vertex 18 0 16
      vertex 14.8115 0 16.4921
    endloop
  endfacet
  facet normal 0 -1 0
    outer loop
      vertex 15 0 15
      vertex 18 0 16
      vertex 14.9527 0 15.752
    endloop
  endfacet
  facet normal 0 -1 0
    outer loop
      vertex 14.9527 0 14.248
      vertex 18 0 16
      vertex 15 0 15
    endloop
  endfacet
  facet normal 0 -1 0
    outer loop
      vertex 14.8115 0 13.5079
      vertex 18 0 16
      vertex 14.9527 0 14.248
    endloop
  endfacet
  facet normal 0 -1 0
    outer loop
      vertex 14.5787 0 12.7913
      vertex 18 0 16
      vertex 14.8115 0 13.5079
    endloop
  endfacet
  facet normal 0 -1 0
    outer loop
      vertex 18 0 6
      vertex 14.5787 0 12.7913
      vertex 14.2578 0 12.1095
    endloop
  endfacet
  facet normal 0 -1 0
    outer loop
      vertex 18 0 6
      vertex 14.2578 0 12.1095
      vertex 13.8541 0 11.4733
    endloop
  endfacet
  facet normal 0 -1 0
    outer loop
      vertex 18 0 6
      vertex 13.8541 0 11.4733
      vertex 13.3738 0 10.8927
    endloop
  endfacet
  facet normal 0 -1 0
    outer loop
      vertex 14.5787 0 12.7913
      vertex 18 0 6
      vertex 18 0 16
    endloop
  endfacet
  facet normal 0 -1 0
    outer loop
      vertex 12.8245 0 10.3769
      vertex 18 0 6
      vertex 13.3738 0 10.8927
    endloop
  endfacet
  facet normal 0 -1 0
    outer loop
      vertex 12.215 0 9.93403
      vertex 18 0 6
      vertex 12.8245 0 10.3769
    endloop
  endfacet
  facet normal 0 -1 0
    outer loop
      vertex 11.5547 0 9.57104
      vertex 18 0 6
      vertex 12.215 0 9.93403
    endloop
  endfacet
  facet normal 0 -1 0
    outer loop
      vertex 10.8541 0 9.29366
      vertex 18 0 6
      vertex 11.5547 0 9.57104
    endloop
  endfacet
  facet normal 0 -1 0
    outer loop
      vertex 10.1243 0 9.10628
      vertex 18 0 6
      vertex 10.8541 0 9.29366
    endloop
  endfacet
  facet normal 0 -1 0
    outer loop
      vertex 18 0 6
      vertex 10.1243 0 9.10628
      vertex 9.37674 0 9.01184
    endloop
  endfacet
  facet normal -0.707107 0 0.707107
    outer loop
      vertex 0 0 16
      vertex 2 38 18
      vertex 0 38 16
    endloop
  endfacet
  facet normal -0.707107 0 0.707107
    outer loop
      vertex 2 38 18
      vertex 0 0 16
      vertex 2 0 18
    endloop
  endfacet
  facet normal -0 0 1
    outer loop
      vertex 22 28.8 6
      vertex 24.7713 7.6 6
      vertex 24.7713 30.4 6
    endloop
  endfacet
  facet normal 0 0 1
    outer loop
      vertex 22 28.8 6
      vertex 22 9.2 6
      vertex 24.7713 7.6 6
    endloop
  endfacet
  facet normal 0 0 1
    outer loop
      vertex 19.2287 30.4 6
      vertex 22 9.2 6
      vertex 22 28.8 6
    endloop
  endfacet
  facet normal 0 0 1
    outer loop
      vertex 22 9.2 6
      vertex 19.2287 30.4 6
      vertex 19.2287 7.6 6
    endloop
  endfacet
  facet normal 0 0 1
    outer loop
      vertex 24.7713 30.4 6
      vertex 27 38 6
      vertex 24.7713 33.6 6
    endloop
  endfacet
  facet normal 0 0 1
    outer loop
      vertex 27 38 6
      vertex 22 35.2 6
      vertex 24.7713 33.6 6
    endloop
  endfacet
  facet normal 0 0 1
    outer loop
      vertex 18 38 6
      vertex 19.2287 30.4 6
      vertex 19.2287 33.6 6
    endloop
  endfacet
  facet normal 0 0 1
    outer loop
      vertex 19.2287 30.4 6
      vertex 18 38 6
      vertex 19.2287 7.6 6
    endloop
  endfacet
  facet normal 0 0 1
    outer loop
      vertex 18 0 6
      vertex 19.2287 7.6 6
      vertex 18 38 6
    endloop
  endfacet
  facet normal 0 0 1
    outer loop
      vertex 22 35.2 6
      vertex 18 38 6
      vertex 19.2287 33.6 6
    endloop
  endfacet
  facet normal -0 0 1
    outer loop
      vertex 18 38 6
      vertex 22 35.2 6
      vertex 27 38 6
    endloop
  endfacet
  facet normal 0 0 1
    outer loop
      vertex 27 38 6
      vertex 24.7713 30.4 6
      vertex 27 0 6
    endloop
  endfacet
  facet normal -0 0 1
    outer loop
      vertex 24.7713 7.6 6
      vertex 27 0 6
      vertex 24.7713 30.4 6
    endloop
  endfacet
  facet normal -0 0 1
    outer loop
      vertex 24.7713 4.4 6
      vertex 27 0 6
      vertex 24.7713 7.6 6
    endloop
  endfacet
  facet normal -0 0 1
    outer loop
      vertex 22 2.8 6
      vertex 27 0 6
      vertex 24.7713 4.4 6
    endloop
  endfacet
  facet normal 0 0 1
    outer loop
      vertex 22 2.8 6
      vertex 18 0 6
      vertex 27 0 6
    endloop
  endfacet
  facet normal 0 0 1
    outer loop
      vertex 19.2287 4.4 6
      vertex 18 0 6
      vertex 22 2.8 6
    endloop
  endfacet
  facet normal 0 0 1
    outer loop
      vertex 19.2287 7.6 6
      vertex 18 0 6
      vertex 19.2287 4.4 6
    endloop
  endfacet
  facet normal 1 -0 0
    outer loop
      vertex 27 0 6
      vertex 27 38 0
      vertex 27 38 6
    endloop
  endfacet
  facet normal 1 0 0
    outer loop
      vertex 27 38 0
      vertex 27 0 6
      vertex 27 0 0
    endloop
  endfacet
  facet normal -0.998027 -0.0627843 0
    outer loop
      vertex 23.6 6 0
      vertex 23.5874 6.20053 3
      vertex 23.5874 6.20053 0
    endloop
  endfacet
  facet normal -0.998027 -0.0627843 0
    outer loop
      vertex 23.5874 6.20053 3
      vertex 23.6 6 0
      vertex 23.6 6 3
    endloop
  endfacet
  facet normal 0.998027 -0.0627843 0
    outer loop
      vertex 20.4 6 3
      vertex 20.4126 6.20053 0
      vertex 20.4126 6.20053 3
    endloop
  endfacet
  facet normal 0.998027 -0.0627843 0
    outer loop
      vertex 20.4126 6.20053 0
      vertex 20.4 6 3
      vertex 20.4 6 0
    endloop
  endfacet
  facet normal 0 -1 0
    outer loop
      vertex 21.8995 7.59684 0
      vertex 22.1005 7.59684 3
      vertex 21.8995 7.59684 3
    endloop
  endfacet
  facet normal 0 -1 -0
    outer loop
      vertex 22.1005 7.59684 3
      vertex 21.8995 7.59684 0
      vertex 22.1005 7.59684 0
    endloop
  endfacet
  facet normal 0 1 -0
    outer loop
      vertex 22.1005 4.40316 0
      vertex 21.8995 4.40316 3
      vertex 22.1005 4.40316 3
    endloop
  endfacet
  facet normal 0 1 0
    outer loop
      vertex 21.8995 4.40316 3
      vertex 22.1005 4.40316 0
      vertex 21.8995 4.40316 0
    endloop
  endfacet
  facet normal -0.684547 -0.728968 0
    outer loop
      vertex 23.0199 7.23282 0
      vertex 23.1663 7.09527 3
      vertex 23.0199 7.23282 3
    endloop
  endfacet
  facet normal -0.684547 -0.728968 -0
    outer loop
      vertex 23.1663 7.09527 3
      vertex 23.0199 7.23282 0
      vertex 23.1663 7.09527 0
    endloop
  endfacet
  facet normal 0.684547 -0.728968 0
    outer loop
      vertex 20.8337 7.09527 0
      vertex 20.9801 7.23282 3
      vertex 20.8337 7.09527 3
    endloop
  endfacet
  facet normal 0.684547 -0.728968 0
    outer loop
      vertex 20.9801 7.23282 3
      vertex 20.8337 7.09527 0
      vertex 20.9801 7.23282 0
    endloop
  endfacet
  facet normal 0.368126 -0.929776 0
    outer loop
      vertex 21.3188 7.44772 0
      vertex 21.5056 7.52169 3
      vertex 21.3188 7.44772 3
    endloop
  endfacet
  facet normal 0.368126 -0.929776 0
    outer loop
      vertex 21.5056 7.52169 3
      vertex 21.3188 7.44772 0
      vertex 21.5056 7.52169 0
    endloop
  endfacet
  facet normal -0.904826 -0.425781 0
    outer loop
      vertex 23.4876 6.589 0
      vertex 23.4021 6.77081 3
      vertex 23.4021 6.77081 0
    endloop
  endfacet
  facet normal -0.904826 -0.425781 0
    outer loop
      vertex 23.4021 6.77081 3
      vertex 23.4876 6.589 0
      vertex 23.4876 6.589 3
    endloop
  endfacet
  facet normal -0.844327 -0.535828 0
    outer loop
      vertex 23.4021 6.77081 0
      vertex 23.2944 6.94046 3
      vertex 23.2944 6.94046 0
    endloop
  endfacet
  facet normal -0.844327 -0.535828 0
    outer loop
      vertex 23.2944 6.94046 3
      vertex 23.4021 6.77081 0
      vertex 23.4021 6.77081 3
    endloop
  endfacet
  facet normal -0.368126 -0.929776 0
    outer loop
      vertex 22.4944 7.52169 0
      vertex 22.6812 7.44772 3
      vertex 22.4944 7.52169 3
    endloop
  endfacet
  facet normal -0.368126 -0.929776 -0
    outer loop
      vertex 22.6812 7.44772 3
      vertex 22.4944 7.52169 0
      vertex 22.6812 7.44772 0
    endloop
  endfacet
  facet normal -0.248686 -0.968584 0
    outer loop
      vertex 22.2998 7.57166 0
      vertex 22.4944 7.52169 3
      vertex 22.2998 7.57166 3
    endloop
  endfacet
  facet normal -0.248686 -0.968584 -0
    outer loop
      vertex 22.4944 7.52169 3
      vertex 22.2998 7.57166 0
      vertex 22.4944 7.52169 0
    endloop
  endfacet
  facet normal -0.587786 -0.809016 0
    outer loop
      vertex 22.8573 7.35092 0
      vertex 23.0199 7.23282 3
      vertex 22.8573 7.35092 3
    endloop
  endfacet
  facet normal -0.587786 -0.809016 -0
    outer loop
      vertex 23.0199 7.23282 3
      vertex 22.8573 7.35092 0
      vertex 23.0199 7.23282 0
    endloop
  endfacet
  facet normal 0.904826 -0.425781 0
    outer loop
      vertex 20.5124 6.589 3
      vertex 20.5979 6.77081 0
      vertex 20.5979 6.77081 3
    endloop
  endfacet
  facet normal 0.904826 -0.425781 0
    outer loop
      vertex 20.5979 6.77081 0
      vertex 20.5124 6.589 3
      vertex 20.5124 6.589 0
    endloop
  endfacet
  facet normal 0.770514 -0.637423 0
    outer loop
      vertex 20.7056 6.94046 3
      vertex 20.8337 7.09527 0
      vertex 20.8337 7.09527 3
    endloop
  endfacet
  facet normal 0.770514 -0.637423 0
    outer loop
      vertex 20.8337 7.09527 0
      vertex 20.7056 6.94046 3
      vertex 20.7056 6.94046 0
    endloop
  endfacet
  facet normal 0.481753 -0.876307 0
    outer loop
      vertex 21.1427 7.35092 0
      vertex 21.3188 7.44772 3
      vertex 21.1427 7.35092 3
    endloop
  endfacet
  facet normal 0.481753 -0.876307 0
    outer loop
      vertex 21.3188 7.44772 3
      vertex 21.1427 7.35092 0
      vertex 21.3188 7.44772 0
    endloop
  endfacet
  facet normal 0.248686 -0.968584 0
    outer loop
      vertex 21.5056 7.52169 0
      vertex 21.7002 7.57166 3
      vertex 21.5056 7.52169 3
    endloop
  endfacet
  facet normal 0.248686 -0.968584 0
    outer loop
      vertex 21.7002 7.57166 3
      vertex 21.5056 7.52169 0
      vertex 21.7002 7.57166 0
    endloop
  endfacet
  facet normal -0.368126 0.929776 0
    outer loop
      vertex 22.6812 4.55228 0
      vertex 22.4944 4.47831 3
      vertex 22.6812 4.55228 3
    endloop
  endfacet
  facet normal -0.368126 0.929776 0
    outer loop
      vertex 22.4944 4.47831 3
      vertex 22.6812 4.55228 0
      vertex 22.4944 4.47831 0
    endloop
  endfacet
  facet normal -0.951058 -0.309014 0
    outer loop
      vertex 23.5497 6.3979 0
      vertex 23.4876 6.589 3
      vertex 23.4876 6.589 0
    endloop
  endfacet
  facet normal -0.951058 -0.309014 0
    outer loop
      vertex 23.4876 6.589 3
      vertex 23.5497 6.3979 0
      vertex 23.5497 6.3979 3
    endloop
  endfacet
  facet normal -0.982287 -0.187384 0
    outer loop
      vertex 23.5874 6.20053 0
      vertex 23.5497 6.3979 3
      vertex 23.5497 6.3979 0
    endloop
  endfacet
  facet normal -0.982287 -0.187384 0
    outer loop
      vertex 23.5497 6.3979 3
      vertex 23.5874 6.20053 0
      vertex 23.5874 6.20053 3
    endloop
  endfacet
  facet normal -0.770514 -0.637423 0
    outer loop
      vertex 23.2944 6.94046 0
      vertex 23.1663 7.09527 3
      vertex 23.1663 7.09527 0
    endloop
  endfacet
  facet normal -0.770514 -0.637423 0
    outer loop
      vertex 23.1663 7.09527 3
      vertex 23.2944 6.94046 0
      vertex 23.2944 6.94046 3
    endloop
  endfacet
  facet normal -0.125331 -0.992115 0
    outer loop
      vertex 22.1005 7.59684 0
      vertex 22.2998 7.57166 3
      vertex 22.1005 7.59684 3
    endloop
  endfacet
  facet normal -0.125331 -0.992115 -0
    outer loop
      vertex 22.2998 7.57166 3
      vertex 22.1005 7.59684 0
      vertex 22.2998 7.57166 0
    endloop
  endfacet
  facet normal -0.481753 -0.876307 0
    outer loop
      vertex 22.6812 7.44772 0
      vertex 22.8573 7.35092 3
      vertex 22.6812 7.44772 3
    endloop
  endfacet
  facet normal -0.481753 -0.876307 -0
    outer loop
      vertex 22.8573 7.35092 3
      vertex 22.6812 7.44772 0
      vertex 22.8573 7.35092 0
    endloop
  endfacet
  facet normal 0.844327 -0.535828 0
    outer loop
      vertex 20.5979 6.77081 3
      vertex 20.7056 6.94046 0
      vertex 20.7056 6.94046 3
    endloop
  endfacet
  facet normal 0.844327 -0.535828 0
    outer loop
      vertex 20.7056 6.94046 0
      vertex 20.5979 6.77081 3
      vertex 20.5979 6.77081 0
    endloop
  endfacet
  facet normal 0.951058 -0.309014 0
    outer loop
      vertex 20.4503 6.3979 3
      vertex 20.5124 6.589 0
      vertex 20.5124 6.589 3
    endloop
  endfacet
  facet normal 0.951058 -0.309014 0
    outer loop
      vertex 20.5124 6.589 0
      vertex 20.4503 6.3979 3
      vertex 20.4503 6.3979 0
    endloop
  endfacet
  facet normal 0.982287 -0.187384 0
    outer loop
      vertex 20.4126 6.20053 3
      vertex 20.4503 6.3979 0
      vertex 20.4503 6.3979 3
    endloop
  endfacet
  facet normal 0.982287 -0.187384 0
    outer loop
      vertex 20.4503 6.3979 0
      vertex 20.4126 6.20053 3
      vertex 20.4126 6.20053 0
    endloop
  endfacet
  facet normal 0.587786 -0.809016 0
    outer loop
      vertex 20.9801 7.23282 0
      vertex 21.1427 7.35092 3
      vertex 20.9801 7.23282 3
    endloop
  endfacet
  facet normal 0.587786 -0.809016 0
    outer loop
      vertex 21.1427 7.35092 3
      vertex 20.9801 7.23282 0
      vertex 21.1427 7.35092 0
    endloop
  endfacet
  facet normal 0.125331 -0.992115 0
    outer loop
      vertex 21.7002 7.57166 0
      vertex 21.8995 7.59684 3
      vertex 21.7002 7.57166 3
    endloop
  endfacet
  facet normal 0.125331 -0.992115 0
    outer loop
      vertex 21.8995 7.59684 3
      vertex 21.7002 7.57166 0
      vertex 21.8995 7.59684 0
    endloop
  endfacet
  facet normal -0.998027 0.0627843 0
    outer loop
      vertex 23.5874 5.79947 0
      vertex 23.6 6 3
      vertex 23.6 6 0
    endloop
  endfacet
  facet normal -0.998027 0.0627843 0
    outer loop
      vertex 23.6 6 3
      vertex 23.5874 5.79947 0
      vertex 23.5874 5.79947 3
    endloop
  endfacet
  facet normal -0.951058 0.309014 0
    outer loop
      vertex 23.4876 5.411 0
      vertex 23.5497 5.6021 3
      vertex 23.5497 5.6021 0
    endloop
  endfacet
  facet normal -0.951058 0.309014 0
    outer loop
      vertex 23.5497 5.6021 3
      vertex 23.4876 5.411 0
      vertex 23.4876 5.411 3
    endloop
  endfacet
  facet normal -0.982287 0.187384 0
    outer loop
      vertex 23.5497 5.6021 0
      vertex 23.5874 5.79947 3
      vertex 23.5874 5.79947 0
    endloop
  endfacet
  facet normal -0.982287 0.187384 0
    outer loop
      vertex 23.5874 5.79947 3
      vertex 23.5497 5.6021 0
      vertex 23.5497 5.6021 3
    endloop
  endfacet
  facet normal 0.904826 0.425781 0
    outer loop
      vertex 20.5979 5.22919 3
      vertex 20.5124 5.411 0
      vertex 20.5124 5.411 3
    endloop
  endfacet
  facet normal 0.904826 0.425781 0
    outer loop
      vertex 20.5124 5.411 0
      vertex 20.5979 5.22919 3
      vertex 20.5979 5.22919 0
    endloop
  endfacet
  facet normal 0.770514 0.637423 0
    outer loop
      vertex 20.8337 4.90473 3
      vertex 20.7056 5.05954 0
      vertex 20.7056 5.05954 3
    endloop
  endfacet
  facet normal 0.770514 0.637423 0
    outer loop
      vertex 20.7056 5.05954 0
      vertex 20.8337 4.90473 3
      vertex 20.8337 4.90473 0
    endloop
  endfacet
  facet normal -0.587786 0.809016 0
    outer loop
      vertex 23.0199 4.76718 0
      vertex 22.8573 4.64908 3
      vertex 23.0199 4.76718 3
    endloop
  endfacet
  facet normal -0.587786 0.809016 0
    outer loop
      vertex 22.8573 4.64908 3
      vertex 23.0199 4.76718 0
      vertex 22.8573 4.64908 0
    endloop
  endfacet
  facet normal 0.248686 0.968584 -0
    outer loop
      vertex 21.7002 4.42834 0
      vertex 21.5056 4.47831 3
      vertex 21.7002 4.42834 3
    endloop
  endfacet
  facet normal 0.248686 0.968584 0
    outer loop
      vertex 21.5056 4.47831 3
      vertex 21.7002 4.42834 0
      vertex 21.5056 4.47831 0
    endloop
  endfacet
  facet normal 0.982287 0.187384 0
    outer loop
      vertex 20.4503 5.6021 3
      vertex 20.4126 5.79947 0
      vertex 20.4126 5.79947 3
    endloop
  endfacet
  facet normal 0.982287 0.187384 0
    outer loop
      vertex 20.4126 5.79947 0
      vertex 20.4503 5.6021 3
      vertex 20.4503 5.6021 0
    endloop
  endfacet
  facet normal 0.998027 0.0627843 0
    outer loop
      vertex 20.4126 5.79947 3
      vertex 20.4 6 0
      vertex 20.4 6 3
    endloop
  endfacet
  facet normal 0.998027 0.0627843 0
    outer loop
      vertex 20.4 6 0
      vertex 20.4126 5.79947 3
      vertex 20.4126 5.79947 0
    endloop
  endfacet
  facet normal 0.951058 0.309014 0
    outer loop
      vertex 20.5124 5.411 3
      vertex 20.4503 5.6021 0
      vertex 20.4503 5.6021 3
    endloop
  endfacet
  facet normal 0.951058 0.309014 0
    outer loop
      vertex 20.4503 5.6021 0
      vertex 20.5124 5.411 3
      vertex 20.5124 5.411 0
    endloop
  endfacet
  facet normal -0.770514 0.637423 0
    outer loop
      vertex 23.1663 4.90473 0
      vertex 23.2944 5.05954 3
      vertex 23.2944 5.05954 0
    endloop
  endfacet
  facet normal -0.770514 0.637423 0
    outer loop
      vertex 23.2944 5.05954 3
      vertex 23.1663 4.90473 0
      vertex 23.1663 4.90473 3
    endloop
  endfacet
  facet normal -0.481753 0.876307 0
    outer loop
      vertex 22.8573 4.64908 0
      vertex 22.6812 4.55228 3
      vertex 22.8573 4.64908 3
    endloop
  endfacet
  facet normal -0.481753 0.876307 0
    outer loop
      vertex 22.6812 4.55228 3
      vertex 22.8573 4.64908 0
      vertex 22.6812 4.55228 0
    endloop
  endfacet
  facet normal -0.904826 0.425781 0
    outer loop
      vertex 23.4021 5.22919 0
      vertex 23.4876 5.411 3
      vertex 23.4876 5.411 0
    endloop
  endfacet
  facet normal -0.904826 0.425781 0
    outer loop
      vertex 23.4876 5.411 3
      vertex 23.4021 5.22919 0
      vertex 23.4021 5.22919 3
    endloop
  endfacet
  facet normal -0.844327 0.535828 0
    outer loop
      vertex 23.2944 5.05954 0
      vertex 23.4021 5.22919 3
      vertex 23.4021 5.22919 0
    endloop
  endfacet
  facet normal -0.844327 0.535828 0
    outer loop
      vertex 23.4021 5.22919 3
      vertex 23.2944 5.05954 0
      vertex 23.2944 5.05954 3
    endloop
  endfacet
  facet normal 0.125331 0.992115 -0
    outer loop
      vertex 21.8995 4.40316 0
      vertex 21.7002 4.42834 3
      vertex 21.8995 4.40316 3
    endloop
  endfacet
  facet normal 0.125331 0.992115 0
    outer loop
      vertex 21.7002 4.42834 3
      vertex 21.8995 4.40316 0
      vertex 21.7002 4.42834 0
    endloop
  endfacet
  facet normal 0.844327 0.535828 0
    outer loop
      vertex 20.7056 5.05954 3
      vertex 20.5979 5.22919 0
      vertex 20.5979 5.22919 3
    endloop
  endfacet
  facet normal 0.844327 0.535828 0
    outer loop
      vertex 20.5979 5.22919 0
      vertex 20.7056 5.05954 3
      vertex 20.7056 5.05954 0
    endloop
  endfacet
  facet normal -0.684547 0.728968 0
    outer loop
      vertex 23.1663 4.90473 0
      vertex 23.0199 4.76718 3
      vertex 23.1663 4.90473 3
    endloop
  endfacet
  facet normal -0.684547 0.728968 0
    outer loop
      vertex 23.0199 4.76718 3
      vertex 23.1663 4.90473 0
      vertex 23.0199 4.76718 0
    endloop
  endfacet
  facet normal -0.248686 0.968584 0
    outer loop
      vertex 22.4944 4.47831 0
      vertex 22.2998 4.42834 3
      vertex 22.4944 4.47831 3
    endloop
  endfacet
  facet normal -0.248686 0.968584 0
    outer loop
      vertex 22.2998 4.42834 3
      vertex 22.4944 4.47831 0
      vertex 22.2998 4.42834 0
    endloop
  endfacet
  facet normal -0.125331 0.992115 0
    outer loop
      vertex 22.2998 4.42834 0
      vertex 22.1005 4.40316 3
      vertex 22.2998 4.42834 3
    endloop
  endfacet
  facet normal -0.125331 0.992115 0
    outer loop
      vertex 22.1005 4.40316 3
      vertex 22.2998 4.42834 0
      vertex 22.1005 4.40316 0
    endloop
  endfacet
  facet normal 0.481753 0.876307 -0
    outer loop
      vertex 21.3188 4.55228 0
      vertex 21.1427 4.64908 3
      vertex 21.3188 4.55228 3
    endloop
  endfacet
  facet normal 0.481753 0.876307 0
    outer loop
      vertex 21.1427 4.64908 3
      vertex 21.3188 4.55228 0
      vertex 21.1427 4.64908 0
    endloop
  endfacet
  facet normal 0.368126 0.929776 -0
    outer loop
      vertex 21.5056 4.47831 0
      vertex 21.3188 4.55228 3
      vertex 21.5056 4.47831 3
    endloop
  endfacet
  facet normal 0.368126 0.929776 0
    outer loop
      vertex 21.3188 4.55228 3
      vertex 21.5056 4.47831 0
      vertex 21.3188 4.55228 0
    endloop
  endfacet
  facet normal 0.587786 0.809016 -0
    outer loop
      vertex 21.1427 4.64908 0
      vertex 20.9801 4.76718 3
      vertex 21.1427 4.64908 3
    endloop
  endfacet
  facet normal 0.587786 0.809016 0
    outer loop
      vertex 20.9801 4.76718 3
      vertex 21.1427 4.64908 0
      vertex 20.9801 4.76718 0
    endloop
  endfacet
  facet normal 0.684547 0.728968 -0
    outer loop
      vertex 20.9801 4.76718 0
      vertex 20.8337 4.90473 3
      vertex 20.9801 4.76718 3
    endloop
  endfacet
  facet normal 0.684547 0.728968 0
    outer loop
      vertex 20.8337 4.90473 3
      vertex 20.9801 4.76718 0
      vertex 20.8337 4.90473 0
    endloop
  endfacet
  facet normal -0.5 -0.866025 0
    outer loop
      vertex 22 9.2 3
      vertex 24.7713 7.6 6
      vertex 22 9.2 6
    endloop
  endfacet
  facet normal -0.5 -0.866025 -0
    outer loop
      vertex 24.7713 7.6 6
      vertex 22 9.2 3
      vertex 24.7713 7.6 3
    endloop
  endfacet
  facet normal 1 -0 0
    outer loop
      vertex 19.2287 4.4 6
      vertex 19.2287 7.6 3
      vertex 19.2287 7.6 6
    endloop
  endfacet
  facet normal 1 0 0
    outer loop
      vertex 19.2287 7.6 3
      vertex 19.2287 4.4 6
      vertex 19.2287 4.4 3
    endloop
  endfacet
  facet normal 0.5 -0.866025 0
    outer loop
      vertex 19.2287 7.6 3
      vertex 22 9.2 6
      vertex 19.2287 7.6 6
    endloop
  endfacet
  facet normal 0.5 -0.866025 0
    outer loop
      vertex 22 9.2 6
      vertex 19.2287 7.6 3
      vertex 22 9.2 3
    endloop
  endfacet
  facet normal 0.5 0.866025 -0
    outer loop
      vertex 22 2.8 3
      vertex 19.2287 4.4 6
      vertex 22 2.8 6
    endloop
  endfacet
  facet normal 0.5 0.866025 0
    outer loop
      vertex 19.2287 4.4 6
      vertex 22 2.8 3
      vertex 19.2287 4.4 3
    endloop
  endfacet
  facet normal -1 0 0
    outer loop
      vertex 24.7713 4.4 3
      vertex 24.7713 7.6 6
      vertex 24.7713 7.6 3
    endloop
  endfacet
  facet normal -1 -0 0
    outer loop
      vertex 24.7713 7.6 6
      vertex 24.7713 4.4 3
      vertex 24.7713 4.4 6
    endloop
  endfacet
  facet normal 0 0 1
    outer loop
      vertex 24.7713 7.6 3
      vertex 23.6 6 3
      vertex 24.7713 4.4 3
    endloop
  endfacet
  facet normal 0 0 1
    outer loop
      vertex 24.7713 7.6 3
      vertex 23.5874 6.20053 3
      vertex 23.6 6 3
    endloop
  endfacet
  facet normal 0 0 1
    outer loop
      vertex 24.7713 7.6 3
      vertex 23.5497 6.3979 3
      vertex 23.5874 6.20053 3
    endloop
  endfacet
  facet normal 0 0 1
    outer loop
      vertex 24.7713 7.6 3
      vertex 23.4876 6.589 3
      vertex 23.5497 6.3979 3
    endloop
  endfacet
  facet normal 0 0 1
    outer loop
      vertex 24.7713 7.6 3
      vertex 23.4021 6.77081 3
      vertex 23.4876 6.589 3
    endloop
  endfacet
  facet normal 0 0 1
    outer loop
      vertex 24.7713 7.6 3
      vertex 23.2944 6.94046 3
      vertex 23.4021 6.77081 3
    endloop
  endfacet
  facet normal 0 0 1
    outer loop
      vertex 24.7713 7.6 3
      vertex 23.1663 7.09527 3
      vertex 23.2944 6.94046 3
    endloop
  endfacet
  facet normal 0 0 1
    outer loop
      vertex 24.7713 7.6 3
      vertex 23.0199 7.23282 3
      vertex 23.1663 7.09527 3
    endloop
  endfacet
  facet normal 0 0 1
    outer loop
      vertex 24.7713 7.6 3
      vertex 22.8573 7.35092 3
      vertex 23.0199 7.23282 3
    endloop
  endfacet
  facet normal 0 0 1
    outer loop
      vertex 22 9.2 3
      vertex 22.8573 7.35092 3
      vertex 24.7713 7.6 3
    endloop
  endfacet
  facet normal 0 0 1
    outer loop
      vertex 22.8573 7.35092 3
      vertex 22 9.2 3
      vertex 22.6812 7.44772 3
    endloop
  endfacet
  facet normal 0 0 1
    outer loop
      vertex 22.6812 7.44772 3
      vertex 22 9.2 3
      vertex 22.4944 7.52169 3
    endloop
  endfacet
  facet normal 0 0 1
    outer loop
      vertex 22.4944 7.52169 3
      vertex 22 9.2 3
      vertex 22.2998 7.57166 3
    endloop
  endfacet
  facet normal 0 0 1
    outer loop
      vertex 22.2998 7.57166 3
      vertex 22 9.2 3
      vertex 22.1005 7.59684 3
    endloop
  endfacet
  facet normal 0 0 1
    outer loop
      vertex 22 9.2 3
      vertex 21.8995 7.59684 3
      vertex 22.1005 7.59684 3
    endloop
  endfacet
  facet normal 0 0 1
    outer loop
      vertex 22 9.2 3
      vertex 21.7002 7.57166 3
      vertex 21.8995 7.59684 3
    endloop
  endfacet
  facet normal 0 0 1
    outer loop
      vertex 22 9.2 3
      vertex 21.5056 7.52169 3
      vertex 21.7002 7.57166 3
    endloop
  endfacet
  facet normal 0 0 1
    outer loop
      vertex 22 9.2 3
      vertex 21.3188 7.44772 3
      vertex 21.5056 7.52169 3
    endloop
  endfacet
  facet normal 0 0 1
    outer loop
      vertex 22 9.2 3
      vertex 21.1427 7.35092 3
      vertex 21.3188 7.44772 3
    endloop
  endfacet
  facet normal -0 0 1
    outer loop
      vertex 19.2287 7.6 3
      vertex 21.1427 7.35092 3
      vertex 22 9.2 3
    endloop
  endfacet
  facet normal 0 0 1
    outer loop
      vertex 21.1427 7.35092 3
      vertex 19.2287 7.6 3
      vertex 20.9801 7.23282 3
    endloop
  endfacet
  facet normal 0 0 1
    outer loop
      vertex 20.9801 7.23282 3
      vertex 19.2287 7.6 3
      vertex 20.8337 7.09527 3
    endloop
  endfacet
  facet normal 0 0 1
    outer loop
      vertex 20.8337 7.09527 3
      vertex 19.2287 7.6 3
      vertex 20.7056 6.94046 3
    endloop
  endfacet
  facet normal 0 0 1
    outer loop
      vertex 20.4126 6.20053 3
      vertex 19.2287 7.6 3
      vertex 20.4 6 3
    endloop
  endfacet
  facet normal 0 0 1
    outer loop
      vertex 20.4503 6.3979 3
      vertex 19.2287 7.6 3
      vertex 20.4126 6.20053 3
    endloop
  endfacet
  facet normal 0 0 1
    outer loop
      vertex 20.5124 6.589 3
      vertex 19.2287 7.6 3
      vertex 20.4503 6.3979 3
    endloop
  endfacet
  facet normal 0 0 1
    outer loop
      vertex 20.5979 6.77081 3
      vertex 19.2287 7.6 3
      vertex 20.5124 6.589 3
    endloop
  endfacet
  facet normal 0 0 1
    outer loop
      vertex 20.7056 6.94046 3
      vertex 19.2287 7.6 3
      vertex 20.5979 6.77081 3
    endloop
  endfacet
  facet normal -0 0 1
    outer loop
      vertex 23.5874 5.79947 3
      vertex 24.7713 4.4 3
      vertex 23.6 6 3
    endloop
  endfacet
  facet normal -0 0 1
    outer loop
      vertex 23.5497 5.6021 3
      vertex 24.7713 4.4 3
      vertex 23.5874 5.79947 3
    endloop
  endfacet
  facet normal -0 0 1
    outer loop
      vertex 23.4876 5.411 3
      vertex 24.7713 4.4 3
      vertex 23.5497 5.6021 3
    endloop
  endfacet
  facet normal -0 0 1
    outer loop
      vertex 23.4021 5.22919 3
      vertex 24.7713 4.4 3
      vertex 23.4876 5.411 3
    endloop
  endfacet
  facet normal -0 0 1
    outer loop
      vertex 23.2944 5.05954 3
      vertex 24.7713 4.4 3
      vertex 23.4021 5.22919 3
    endloop
  endfacet
  facet normal -0 0 1
    outer loop
      vertex 23.1663 4.90473 3
      vertex 24.7713 4.4 3
      vertex 23.2944 5.05954 3
    endloop
  endfacet
  facet normal -0 0 1
    outer loop
      vertex 23.0199 4.76718 3
      vertex 24.7713 4.4 3
      vertex 23.1663 4.90473 3
    endloop
  endfacet
  facet normal -0 0 1
    outer loop
      vertex 22.8573 4.64908 3
      vertex 24.7713 4.4 3
      vertex 23.0199 4.76718 3
    endloop
  endfacet
  facet normal 0 0 1
    outer loop
      vertex 22 2.8 3
      vertex 22.8573 4.64908 3
      vertex 22.6812 4.55228 3
    endloop
  endfacet
  facet normal 0 0 1
    outer loop
      vertex 22 2.8 3
      vertex 22.6812 4.55228 3
      vertex 22.4944 4.47831 3
    endloop
  endfacet
  facet normal 0 0 1
    outer loop
      vertex 22 2.8 3
      vertex 22.4944 4.47831 3
      vertex 22.2998 4.42834 3
    endloop
  endfacet
  facet normal 0 0 1
    outer loop
      vertex 22 2.8 3
      vertex 22.2998 4.42834 3
      vertex 22.1005 4.40316 3
    endloop
  endfacet
  facet normal 0 0 1
    outer loop
      vertex 22.8573 4.64908 3
      vertex 22 2.8 3
      vertex 24.7713 4.4 3
    endloop
  endfacet
  facet normal -0 0 1
    outer loop
      vertex 21.8995 4.40316 3
      vertex 22 2.8 3
      vertex 22.1005 4.40316 3
    endloop
  endfacet
  facet normal 0 0 1
    outer loop
      vertex 21.7002 4.42834 3
      vertex 22 2.8 3
      vertex 21.8995 4.40316 3
    endloop
  endfacet
  facet normal 0 0 1
    outer loop
      vertex 21.5056 4.47831 3
      vertex 22 2.8 3
      vertex 21.7002 4.42834 3
    endloop
  endfacet
  facet normal 0 0 1
    outer loop
      vertex 21.3188 4.55228 3
      vertex 22 2.8 3
      vertex 21.5056 4.47831 3
    endloop
  endfacet
  facet normal 0 0 1
    outer loop
      vertex 21.1427 4.64908 3
      vertex 22 2.8 3
      vertex 21.3188 4.55228 3
    endloop
  endfacet
  facet normal 0 0 1
    outer loop
      vertex 19.2287 4.4 3
      vertex 21.1427 4.64908 3
      vertex 20.9801 4.76718 3
    endloop
  endfacet
  facet normal 0 0 1
    outer loop
      vertex 19.2287 4.4 3
      vertex 20.9801 4.76718 3
      vertex 20.8337 4.90473 3
    endloop
  endfacet
  facet normal 0 0 1
    outer loop
      vertex 19.2287 4.4 3
      vertex 20.8337 4.90473 3
      vertex 20.7056 5.05954 3
    endloop
  endfacet
  facet normal 0 0 1
    outer loop
      vertex 19.2287 4.4 3
      vertex 20.7056 5.05954 3
      vertex 20.5979 5.22919 3
    endloop
  endfacet
  facet normal 0 0 1
    outer loop
      vertex 19.2287 4.4 3
      vertex 20.4 6 3
      vertex 19.2287 7.6 3
    endloop
  endfacet
  facet normal 0 0 1
    outer loop
      vertex 20.4 6 3
      vertex 19.2287 4.4 3
      vertex 20.4126 5.79947 3
    endloop
  endfacet
  facet normal 0 0 1
    outer loop
      vertex 20.4126 5.79947 3
      vertex 19.2287 4.4 3
      vertex 20.4503 5.6021 3
    endloop
  endfacet
  facet normal 0 0 1
    outer loop
      vertex 20.4503 5.6021 3
      vertex 19.2287 4.4 3
      vertex 20.5124 5.411 3
    endloop
  endfacet
  facet normal 0 0 1
    outer loop
      vertex 20.5124 5.411 3
      vertex 19.2287 4.4 3
      vertex 20.5979 5.22919 3
    endloop
  endfacet
  facet normal 0 0 1
    outer loop
      vertex 21.1427 4.64908 3
      vertex 19.2287 4.4 3
      vertex 22 2.8 3
    endloop
  endfacet
  facet normal -0.5 0.866025 0
    outer loop
      vertex 24.7713 4.4 3
      vertex 22 2.8 6
      vertex 24.7713 4.4 6
    endloop
  endfacet
  facet normal -0.5 0.866025 0
    outer loop
      vertex 22 2.8 6
      vertex 24.7713 4.4 3
      vertex 22 2.8 3
    endloop
  endfacet
  facet normal -0.998027 -0.0627849 0
    outer loop
      vertex 23.6 32 0
      vertex 23.5874 32.2005 3
      vertex 23.5874 32.2005 0
    endloop
  endfacet
  facet normal -0.998027 -0.0627849 0
    outer loop
      vertex 23.5874 32.2005 3
      vertex 23.6 32 0
      vertex 23.6 32 3
    endloop
  endfacet
  facet normal 0.998027 -0.0627849 0
    outer loop
      vertex 20.4 32 3
      vertex 20.4126 32.2005 0
      vertex 20.4126 32.2005 3
    endloop
  endfacet
  facet normal 0.998027 -0.0627849 0
    outer loop
      vertex 20.4126 32.2005 0
      vertex 20.4 32 3
      vertex 20.4 32 0
    endloop
  endfacet
  facet normal 0 -1 0
    outer loop
      vertex 21.8995 33.5968 0
      vertex 22.1005 33.5968 3
      vertex 21.8995 33.5968 3
    endloop
  endfacet
  facet normal 0 -1 -0
    outer loop
      vertex 22.1005 33.5968 3
      vertex 21.8995 33.5968 0
      vertex 22.1005 33.5968 0
    endloop
  endfacet
  facet normal -0.68454 -0.728975 0
    outer loop
      vertex 23.0199 33.2328 0
      vertex 23.1663 33.0953 3
      vertex 23.0199 33.2328 3
    endloop
  endfacet
  facet normal -0.68454 -0.728975 -0
    outer loop
      vertex 23.1663 33.0953 3
      vertex 23.0199 33.2328 0
      vertex 23.1663 33.0953 0
    endloop
  endfacet
  facet normal 0.68454 -0.728975 0
    outer loop
      vertex 20.8337 33.0953 0
      vertex 20.9801 33.2328 3
      vertex 20.8337 33.0953 3
    endloop
  endfacet
  facet normal 0.68454 -0.728975 0
    outer loop
      vertex 20.9801 33.2328 3
      vertex 20.8337 33.0953 0
      vertex 20.9801 33.2328 0
    endloop
  endfacet
  facet normal 0.368122 -0.929778 0
    outer loop
      vertex 21.3188 33.4477 0
      vertex 21.5056 33.5217 3
      vertex 21.3188 33.4477 3
    endloop
  endfacet
  facet normal 0.368122 -0.929778 0
    outer loop
      vertex 21.5056 33.5217 3
      vertex 21.3188 33.4477 0
      vertex 21.5056 33.5217 0
    endloop
  endfacet
  facet normal -0.904828 -0.425778 0
    outer loop
      vertex 23.4876 32.589 0
      vertex 23.4021 32.7708 3
      vertex 23.4021 32.7708 0
    endloop
  endfacet
  facet normal -0.904828 -0.425778 0
    outer loop
      vertex 23.4021 32.7708 3
      vertex 23.4876 32.589 0
      vertex 23.4876 32.589 3
    endloop
  endfacet
  facet normal -0.844327 -0.535828 0
    outer loop
      vertex 23.4021 32.7708 0
      vertex 23.2944 32.9405 3
      vertex 23.2944 32.9405 0
    endloop
  endfacet
  facet normal -0.844327 -0.535828 0
    outer loop
      vertex 23.2944 32.9405 3
      vertex 23.4021 32.7708 0
      vertex 23.4021 32.7708 3
    endloop
  endfacet
  facet normal -0.368122 -0.929778 0
    outer loop
      vertex 22.4944 33.5217 0
      vertex 22.6812 33.4477 3
      vertex 22.4944 33.5217 3
    endloop
  endfacet
  facet normal -0.368122 -0.929778 -0
    outer loop
      vertex 22.6812 33.4477 3
      vertex 22.4944 33.5217 0
      vertex 22.6812 33.4477 0
    endloop
  endfacet
  facet normal -0.248686 -0.968584 0
    outer loop
      vertex 22.2998 33.5717 0
      vertex 22.4944 33.5217 3
      vertex 22.2998 33.5717 3
    endloop
  endfacet
  facet normal -0.248686 -0.968584 -0
    outer loop
      vertex 22.4944 33.5217 3
      vertex 22.2998 33.5717 0
      vertex 22.4944 33.5217 0
    endloop
  endfacet
  facet normal -0.587796 -0.809009 0
    outer loop
      vertex 22.8573 33.3509 0
      vertex 23.0199 33.2328 3
      vertex 22.8573 33.3509 3
    endloop
  endfacet
  facet normal -0.587796 -0.809009 -0
    outer loop
      vertex 23.0199 33.2328 3
      vertex 22.8573 33.3509 0
      vertex 23.0199 33.2328 0
    endloop
  endfacet
  facet normal 0.844327 -0.535828 0
    outer loop
      vertex 20.5979 32.7708 3
      vertex 20.7056 32.9405 0
      vertex 20.7056 32.9405 3
    endloop
  endfacet
  facet normal 0.844327 -0.535828 0
    outer loop
      vertex 20.7056 32.9405 0
      vertex 20.5979 32.7708 3
      vertex 20.5979 32.7708 0
    endloop
  endfacet
  facet normal 0.770516 -0.63742 0
    outer loop
      vertex 20.7056 32.9405 3
      vertex 20.8337 33.0953 0
      vertex 20.8337 33.0953 3
    endloop
  endfacet
  facet normal 0.770516 -0.63742 0
    outer loop
      vertex 20.8337 33.0953 0
      vertex 20.7056 32.9405 3
      vertex 20.7056 32.9405 0
    endloop
  endfacet
  facet normal 0.982287 -0.187383 0
    outer loop
      vertex 20.4126 32.2005 3
      vertex 20.4503 32.3979 0
      vertex 20.4503 32.3979 3
    endloop
  endfacet
  facet normal 0.982287 -0.187383 0
    outer loop
      vertex 20.4503 32.3979 0
      vertex 20.4126 32.2005 3
      vertex 20.4126 32.2005 0
    endloop
  endfacet
  facet normal 0.481753 -0.876307 0
    outer loop
      vertex 21.1427 33.3509 0
      vertex 21.3188 33.4477 3
      vertex 21.1427 33.3509 3
    endloop
  endfacet
  facet normal 0.481753 -0.876307 0
    outer loop
      vertex 21.3188 33.4477 3
      vertex 21.1427 33.3509 0
      vertex 21.3188 33.4477 0
    endloop
  endfacet
  facet normal 0.125322 -0.992116 0
    outer loop
      vertex 21.7002 33.5717 0
      vertex 21.8995 33.5968 3
      vertex 21.7002 33.5717 3
    endloop
  endfacet
  facet normal 0.125322 -0.992116 0
    outer loop
      vertex 21.8995 33.5968 3
      vertex 21.7002 33.5717 0
      vertex 21.8995 33.5968 0
    endloop
  endfacet
  facet normal -0.844327 0.535828 0
    outer loop
      vertex 23.2944 31.0595 0
      vertex 23.4021 31.2292 3
      vertex 23.4021 31.2292 0
    endloop
  endfacet
  facet normal -0.844327 0.535828 0
    outer loop
      vertex 23.4021 31.2292 3
      vertex 23.2944 31.0595 0
      vertex 23.2944 31.0595 3
    endloop
  endfacet
  facet normal -0.951057 -0.309017 0
    outer loop
      vertex 23.5497 32.3979 0
      vertex 23.4876 32.589 3
      vertex 23.4876 32.589 0
    endloop
  endfacet
  facet normal -0.951057 -0.309017 0
    outer loop
      vertex 23.4876 32.589 3
      vertex 23.5497 32.3979 0
      vertex 23.5497 32.3979 3
    endloop
  endfacet
  facet normal -0.982287 -0.187383 0
    outer loop
      vertex 23.5874 32.2005 0
      vertex 23.5497 32.3979 3
      vertex 23.5497 32.3979 0
    endloop
  endfacet
  facet normal -0.982287 -0.187383 0
    outer loop
      vertex 23.5497 32.3979 3
      vertex 23.5874 32.2005 0
      vertex 23.5874 32.2005 3
    endloop
  endfacet
  facet normal -0.770516 -0.63742 0
    outer loop
      vertex 23.2944 32.9405 0
      vertex 23.1663 33.0953 3
      vertex 23.1663 33.0953 0
    endloop
  endfacet
  facet normal -0.770516 -0.63742 0
    outer loop
      vertex 23.1663 33.0953 3
      vertex 23.2944 32.9405 0
      vertex 23.2944 32.9405 3
    endloop
  endfacet
  facet normal -0.125322 -0.992116 0
    outer loop
      vertex 22.1005 33.5968 0
      vertex 22.2998 33.5717 3
      vertex 22.1005 33.5968 3
    endloop
  endfacet
  facet normal -0.125322 -0.992116 -0
    outer loop
      vertex 22.2998 33.5717 3
      vertex 22.1005 33.5968 0
      vertex 22.2998 33.5717 0
    endloop
  endfacet
  facet normal 0.904828 -0.425778 0
    outer loop
      vertex 20.5124 32.589 3
      vertex 20.5979 32.7708 0
      vertex 20.5979 32.7708 3
    endloop
  endfacet
  facet normal 0.904828 -0.425778 0
    outer loop
      vertex 20.5979 32.7708 0
      vertex 20.5124 32.589 3
      vertex 20.5124 32.589 0
    endloop
  endfacet
  facet normal 0.951057 -0.309017 0
    outer loop
      vertex 20.4503 32.3979 3
      vertex 20.5124 32.589 0
      vertex 20.5124 32.589 3
    endloop
  endfacet
  facet normal 0.951057 -0.309017 0
    outer loop
      vertex 20.5124 32.589 0
      vertex 20.4503 32.3979 3
      vertex 20.4503 32.3979 0
    endloop
  endfacet
  facet normal 0.587796 -0.809009 0
    outer loop
      vertex 20.9801 33.2328 0
      vertex 21.1427 33.3509 3
      vertex 20.9801 33.2328 3
    endloop
  endfacet
  facet normal 0.587796 -0.809009 0
    outer loop
      vertex 21.1427 33.3509 3
      vertex 20.9801 33.2328 0
      vertex 21.1427 33.3509 0
    endloop
  endfacet
  facet normal 0.248686 -0.968584 0
    outer loop
      vertex 21.5056 33.5217 0
      vertex 21.7002 33.5717 3
      vertex 21.5056 33.5217 3
    endloop
  endfacet
  facet normal 0.248686 -0.968584 0
    outer loop
      vertex 21.7002 33.5717 3
      vertex 21.5056 33.5217 0
      vertex 21.7002 33.5717 0
    endloop
  endfacet
  facet normal -0.684545 0.728971 0
    outer loop
      vertex 23.1663 30.9047 0
      vertex 23.0199 30.7672 3
      vertex 23.1663 30.9047 3
    endloop
  endfacet
  facet normal -0.684545 0.728971 0
    outer loop
      vertex 23.0199 30.7672 3
      vertex 23.1663 30.9047 0
      vertex 23.0199 30.7672 0
    endloop
  endfacet
  facet normal -0.951058 0.309014 0
    outer loop
      vertex 23.4876 31.411 0
      vertex 23.5497 31.6021 3
      vertex 23.5497 31.6021 0
    endloop
  endfacet
  facet normal -0.951058 0.309014 0
    outer loop
      vertex 23.5497 31.6021 3
      vertex 23.4876 31.411 0
      vertex 23.4876 31.411 3
    endloop
  endfacet
  facet normal -0.904826 0.425781 0
    outer loop
      vertex 23.4021 31.2292 0
      vertex 23.4876 31.411 3
      vertex 23.4876 31.411 0
    endloop
  endfacet
  facet normal -0.904826 0.425781 0
    outer loop
      vertex 23.4876 31.411 3
      vertex 23.4021 31.2292 0
      vertex 23.4021 31.2292 3
    endloop
  endfacet
  facet normal -0.982287 0.187384 0
    outer loop
      vertex 23.5497 31.6021 0
      vertex 23.5874 31.7995 3
      vertex 23.5874 31.7995 0
    endloop
  endfacet
  facet normal -0.982287 0.187384 0
    outer loop
      vertex 23.5874 31.7995 3
      vertex 23.5497 31.6021 0
      vertex 23.5497 31.6021 3
    endloop
  endfacet
  facet normal 0.998027 0.0627843 0
    outer loop
      vertex 20.4126 31.7995 3
      vertex 20.4 32 0
      vertex 20.4 32 3
    endloop
  endfacet
  facet normal 0.998027 0.0627843 0
    outer loop
      vertex 20.4 32 0
      vertex 20.4126 31.7995 3
      vertex 20.4126 31.7995 0
    endloop
  endfacet
  facet normal 0.951058 0.309014 0
    outer loop
      vertex 20.5124 31.411 3
      vertex 20.4503 31.6021 0
      vertex 20.4503 31.6021 3
    endloop
  endfacet
  facet normal 0.951058 0.309014 0
    outer loop
      vertex 20.4503 31.6021 0
      vertex 20.5124 31.411 3
      vertex 20.5124 31.411 0
    endloop
  endfacet
  facet normal -0.770516 0.63742 0
    outer loop
      vertex 23.1663 30.9047 0
      vertex 23.2944 31.0595 3
      vertex 23.2944 31.0595 0
    endloop
  endfacet
  facet normal -0.770516 0.63742 0
    outer loop
      vertex 23.2944 31.0595 3
      vertex 23.1663 30.9047 0
      vertex 23.1663 30.9047 3
    endloop
  endfacet
  facet normal -0.481753 0.876307 0
    outer loop
      vertex 22.8573 30.6491 0
      vertex 22.6812 30.5523 3
      vertex 22.8573 30.6491 3
    endloop
  endfacet
  facet normal -0.481753 0.876307 0
    outer loop
      vertex 22.6812 30.5523 3
      vertex 22.8573 30.6491 0
      vertex 22.6812 30.5523 0
    endloop
  endfacet
  facet normal -0.481753 -0.876307 0
    outer loop
      vertex 22.6812 33.4477 0
      vertex 22.8573 33.3509 3
      vertex 22.6812 33.4477 3
    endloop
  endfacet
  facet normal -0.481753 -0.876307 -0
    outer loop
      vertex 22.8573 33.3509 3
      vertex 22.6812 33.4477 0
      vertex 22.8573 33.3509 0
    endloop
  endfacet
  facet normal -0.998027 0.0627843 0
    outer loop
      vertex 23.5874 31.7995 0
      vertex 23.6 32 3
      vertex 23.6 32 0
    endloop
  endfacet
  facet normal -0.998027 0.0627843 0
    outer loop
      vertex 23.6 32 3
      vertex 23.5874 31.7995 0
      vertex 23.5874 31.7995 3
    endloop
  endfacet
  facet normal 0.684545 0.728971 -0
    outer loop
      vertex 20.9801 30.7672 0
      vertex 20.8337 30.9047 3
      vertex 20.9801 30.7672 3
    endloop
  endfacet
  facet normal 0.684545 0.728971 0
    outer loop
      vertex 20.8337 30.9047 3
      vertex 20.9801 30.7672 0
      vertex 20.8337 30.9047 0
    endloop
  endfacet
  facet normal 0.770516 0.63742 0
    outer loop
      vertex 20.8337 30.9047 3
      vertex 20.7056 31.0595 0
      vertex 20.7056 31.0595 3
    endloop
  endfacet
  facet normal 0.770516 0.63742 0
    outer loop
      vertex 20.7056 31.0595 0
      vertex 20.8337 30.9047 3
      vertex 20.8337 30.9047 0
    endloop
  endfacet
  facet normal 0.904826 0.425781 0
    outer loop
      vertex 20.5979 31.2292 3
      vertex 20.5124 31.411 0
      vertex 20.5124 31.411 3
    endloop
  endfacet
  facet normal 0.904826 0.425781 0
    outer loop
      vertex 20.5124 31.411 0
      vertex 20.5979 31.2292 3
      vertex 20.5979 31.2292 0
    endloop
  endfacet
  facet normal 0.982287 0.187384 0
    outer loop
      vertex 20.4503 31.6021 3
      vertex 20.4126 31.7995 0
      vertex 20.4126 31.7995 3
    endloop
  endfacet
  facet normal 0.982287 0.187384 0
    outer loop
      vertex 20.4126 31.7995 0
      vertex 20.4503 31.6021 3
      vertex 20.4503 31.6021 0
    endloop
  endfacet
  facet normal -0.125331 0.992115 0
    outer loop
      vertex 22.2998 30.4283 0
      vertex 22.1005 30.4032 3
      vertex 22.2998 30.4283 3
    endloop
  endfacet
  facet normal -0.125331 0.992115 0
    outer loop
      vertex 22.1005 30.4032 3
      vertex 22.2998 30.4283 0
      vertex 22.1005 30.4032 0
    endloop
  endfacet
  facet normal -0.58779 0.809014 0
    outer loop
      vertex 23.0199 30.7672 0
      vertex 22.8573 30.6491 3
      vertex 23.0199 30.7672 3
    endloop
  endfacet
  facet normal -0.58779 0.809014 0
    outer loop
      vertex 22.8573 30.6491 3
      vertex 23.0199 30.7672 0
      vertex 22.8573 30.6491 0
    endloop
  endfacet
  facet normal -0.368122 0.929778 0
    outer loop
      vertex 22.6812 30.5523 0
      vertex 22.4944 30.4783 3
      vertex 22.6812 30.5523 3
    endloop
  endfacet
  facet normal -0.368122 0.929778 0
    outer loop
      vertex 22.4944 30.4783 3
      vertex 22.6812 30.5523 0
      vertex 22.4944 30.4783 0
    endloop
  endfacet
  facet normal 0 1 -0
    outer loop
      vertex 22.1005 30.4032 0
      vertex 21.8995 30.4032 3
      vertex 22.1005 30.4032 3
    endloop
  endfacet
  facet normal 0 1 0
    outer loop
      vertex 21.8995 30.4032 3
      vertex 22.1005 30.4032 0
      vertex 21.8995 30.4032 0
    endloop
  endfacet
  facet normal 0.125331 0.992115 -0
    outer loop
      vertex 21.8995 30.4032 0
      vertex 21.7002 30.4283 3
      vertex 21.8995 30.4032 3
    endloop
  endfacet
  facet normal 0.125331 0.992115 0
    outer loop
      vertex 21.7002 30.4283 3
      vertex 21.8995 30.4032 0
      vertex 21.7002 30.4283 0
    endloop
  endfacet
  facet normal 0.248686 0.968584 -0
    outer loop
      vertex 21.7002 30.4283 0
      vertex 21.5056 30.4783 3
      vertex 21.7002 30.4283 3
    endloop
  endfacet
  facet normal 0.248686 0.968584 0
    outer loop
      vertex 21.5056 30.4783 3
      vertex 21.7002 30.4283 0
      vertex 21.5056 30.4783 0
    endloop
  endfacet
  facet normal 0.844327 0.535828 0
    outer loop
      vertex 20.7056 31.0595 3
      vertex 20.5979 31.2292 0
      vertex 20.5979 31.2292 3
    endloop
  endfacet
  facet normal 0.844327 0.535828 0
    outer loop
      vertex 20.5979 31.2292 0
      vertex 20.7056 31.0595 3
      vertex 20.7056 31.0595 0
    endloop
  endfacet
  facet normal -0.248686 0.968584 0
    outer loop
      vertex 22.4944 30.4783 0
      vertex 22.2998 30.4283 3
      vertex 22.4944 30.4783 3
    endloop
  endfacet
  facet normal -0.248686 0.968584 0
    outer loop
      vertex 22.2998 30.4283 3
      vertex 22.4944 30.4783 0
      vertex 22.2998 30.4283 0
    endloop
  endfacet
  facet normal 0.481753 0.876307 -0
    outer loop
      vertex 21.3188 30.5523 0
      vertex 21.1427 30.6491 3
      vertex 21.3188 30.5523 3
    endloop
  endfacet
  facet normal 0.481753 0.876307 0
    outer loop
      vertex 21.1427 30.6491 3
      vertex 21.3188 30.5523 0
      vertex 21.1427 30.6491 0
    endloop
  endfacet
  facet normal 0.58779 0.809014 -0
    outer loop
      vertex 21.1427 30.6491 0
      vertex 20.9801 30.7672 3
      vertex 21.1427 30.6491 3
    endloop
  endfacet
  facet normal 0.58779 0.809014 0
    outer loop
      vertex 20.9801 30.7672 3
      vertex 21.1427 30.6491 0
      vertex 20.9801 30.7672 0
    endloop
  endfacet
  facet normal 0.368122 0.929778 -0
    outer loop
      vertex 21.5056 30.4783 0
      vertex 21.3188 30.5523 3
      vertex 21.5056 30.4783 3
    endloop
  endfacet
  facet normal 0.368122 0.929778 0
    outer loop
      vertex 21.3188 30.5523 3
      vertex 21.5056 30.4783 0
      vertex 21.3188 30.5523 0
    endloop
  endfacet
  facet normal -0.5 -0.866025 0
    outer loop
      vertex 22 35.2 3
      vertex 24.7713 33.6 6
      vertex 22 35.2 6
    endloop
  endfacet
  facet normal -0.5 -0.866025 -0
    outer loop
      vertex 24.7713 33.6 6
      vertex 22 35.2 3
      vertex 24.7713 33.6 3
    endloop
  endfacet
  facet normal 1 -0 0
    outer loop
      vertex 19.2287 30.4 6
      vertex 19.2287 33.6 3
      vertex 19.2287 33.6 6
    endloop
  endfacet
  facet normal 1 0 0
    outer loop
      vertex 19.2287 33.6 3
      vertex 19.2287 30.4 6
      vertex 19.2287 30.4 3
    endloop
  endfacet
  facet normal 0.5 -0.866025 0
    outer loop
      vertex 19.2287 33.6 3
      vertex 22 35.2 6
      vertex 19.2287 33.6 6
    endloop
  endfacet
  facet normal 0.5 -0.866025 0
    outer loop
      vertex 22 35.2 6
      vertex 19.2287 33.6 3
      vertex 22 35.2 3
    endloop
  endfacet
  facet normal 0.5 0.866025 -0
    outer loop
      vertex 22 28.8 3
      vertex 19.2287 30.4 6
      vertex 22 28.8 6
    endloop
  endfacet
  facet normal 0.5 0.866025 0
    outer loop
      vertex 19.2287 30.4 6
      vertex 22 28.8 3
      vertex 19.2287 30.4 3
    endloop
  endfacet
  facet normal -1 0 0
    outer loop
      vertex 24.7713 30.4 3
      vertex 24.7713 33.6 6
      vertex 24.7713 33.6 3
    endloop
  endfacet
  facet normal -1 -0 0
    outer loop
      vertex 24.7713 33.6 6
      vertex 24.7713 30.4 3
      vertex 24.7713 30.4 6
    endloop
  endfacet
  facet normal 0 0 1
    outer loop
      vertex 24.7713 33.6 3
      vertex 23.6 32 3
      vertex 24.7713 30.4 3
    endloop
  endfacet
  facet normal 0 0 1
    outer loop
      vertex 24.7713 33.6 3
      vertex 23.5874 32.2005 3
      vertex 23.6 32 3
    endloop
  endfacet
  facet normal 0 0 1
    outer loop
      vertex 24.7713 33.6 3
      vertex 23.5497 32.3979 3
      vertex 23.5874 32.2005 3
    endloop
  endfacet
  facet normal 0 0 1
    outer loop
      vertex 24.7713 33.6 3
      vertex 23.4876 32.589 3
      vertex 23.5497 32.3979 3
    endloop
  endfacet
  facet normal 0 0 1
    outer loop
      vertex 24.7713 33.6 3
      vertex 23.4021 32.7708 3
      vertex 23.4876 32.589 3
    endloop
  endfacet
  facet normal 0 0 1
    outer loop
      vertex 24.7713 33.6 3
      vertex 23.2944 32.9405 3
      vertex 23.4021 32.7708 3
    endloop
  endfacet
  facet normal 0 0 1
    outer loop
      vertex 24.7713 33.6 3
      vertex 23.1663 33.0953 3
      vertex 23.2944 32.9405 3
    endloop
  endfacet
  facet normal 0 0 1
    outer loop
      vertex 24.7713 33.6 3
      vertex 23.0199 33.2328 3
      vertex 23.1663 33.0953 3
    endloop
  endfacet
  facet normal 0 0 1
    outer loop
      vertex 24.7713 33.6 3
      vertex 22.8573 33.3509 3
      vertex 23.0199 33.2328 3
    endloop
  endfacet
  facet normal 0 0 1
    outer loop
      vertex 22 35.2 3
      vertex 22.8573 33.3509 3
      vertex 24.7713 33.6 3
    endloop
  endfacet
  facet normal 0 0 1
    outer loop
      vertex 22.8573 33.3509 3
      vertex 22 35.2 3
      vertex 22.6812 33.4477 3
    endloop
  endfacet
  facet normal 0 0 1
    outer loop
      vertex 22.6812 33.4477 3
      vertex 22 35.2 3
      vertex 22.4944 33.5217 3
    endloop
  endfacet
  facet normal 0 0 1
    outer loop
      vertex 22.4944 33.5217 3
      vertex 22 35.2 3
      vertex 22.2998 33.5717 3
    endloop
  endfacet
  facet normal 0 0 1
    outer loop
      vertex 22.2998 33.5717 3
      vertex 22 35.2 3
      vertex 22.1005 33.5968 3
    endloop
  endfacet
  facet normal 0 0 1
    outer loop
      vertex 22 35.2 3
      vertex 21.8995 33.5968 3
      vertex 22.1005 33.5968 3
    endloop
  endfacet
  facet normal 0 0 1
    outer loop
      vertex 22 35.2 3
      vertex 21.7002 33.5717 3
      vertex 21.8995 33.5968 3
    endloop
  endfacet
  facet normal 0 0 1
    outer loop
      vertex 22 35.2 3
      vertex 21.5056 33.5217 3
      vertex 21.7002 33.5717 3
    endloop
  endfacet
  facet normal 0 0 1
    outer loop
      vertex 22 35.2 3
      vertex 21.3188 33.4477 3
      vertex 21.5056 33.5217 3
    endloop
  endfacet
  facet normal 0 0 1
    outer loop
      vertex 22 35.2 3
      vertex 21.1427 33.3509 3
      vertex 21.3188 33.4477 3
    endloop
  endfacet
  facet normal -0 0 1
    outer loop
      vertex 19.2287 33.6 3
      vertex 21.1427 33.3509 3
      vertex 22 35.2 3
    endloop
  endfacet
  facet normal 0 0 1
    outer loop
      vertex 21.1427 33.3509 3
      vertex 19.2287 33.6 3
      vertex 20.9801 33.2328 3
    endloop
  endfacet
  facet normal 0 0 1
    outer loop
      vertex 20.9801 33.2328 3
      vertex 19.2287 33.6 3
      vertex 20.8337 33.0953 3
    endloop
  endfacet
  facet normal 0 0 1
    outer loop
      vertex 20.8337 33.0953 3
      vertex 19.2287 33.6 3
      vertex 20.7056 32.9405 3
    endloop
  endfacet
  facet normal 0 0 1
    outer loop
      vertex 20.4126 32.2005 3
      vertex 19.2287 33.6 3
      vertex 20.4 32 3
    endloop
  endfacet
  facet normal 0 0 1
    outer loop
      vertex 20.4503 32.3979 3
      vertex 19.2287 33.6 3
      vertex 20.4126 32.2005 3
    endloop
  endfacet
  facet normal 0 0 1
    outer loop
      vertex 20.5124 32.589 3
      vertex 19.2287 33.6 3
      vertex 20.4503 32.3979 3
    endloop
  endfacet
  facet normal 0 0 1
    outer loop
      vertex 20.5979 32.7708 3
      vertex 19.2287 33.6 3
      vertex 20.5124 32.589 3
    endloop
  endfacet
  facet normal 0 0 1
    outer loop
      vertex 20.7056 32.9405 3
      vertex 19.2287 33.6 3
      vertex 20.5979 32.7708 3
    endloop
  endfacet
  facet normal -0 0 1
    outer loop
      vertex 23.5874 31.7995 3
      vertex 24.7713 30.4 3
      vertex 23.6 32 3
    endloop
  endfacet
  facet normal -0 0 1
    outer loop
      vertex 23.5497 31.6021 3
      vertex 24.7713 30.4 3
      vertex 23.5874 31.7995 3
    endloop
  endfacet
  facet normal -0 0 1
    outer loop
      vertex 23.4876 31.411 3
      vertex 24.7713 30.4 3
      vertex 23.5497 31.6021 3
    endloop
  endfacet
  facet normal -0 0 1
    outer loop
      vertex 23.4021 31.2292 3
      vertex 24.7713 30.4 3
      vertex 23.4876 31.411 3
    endloop
  endfacet
  facet normal -0 0 1
    outer loop
      vertex 23.2944 31.0595 3
      vertex 24.7713 30.4 3
      vertex 23.4021 31.2292 3
    endloop
  endfacet
  facet normal -0 0 1
    outer loop
      vertex 23.1663 30.9047 3
      vertex 24.7713 30.4 3
      vertex 23.2944 31.0595 3
    endloop
  endfacet
  facet normal -0 0 1
    outer loop
      vertex 23.0199 30.7672 3
      vertex 24.7713 30.4 3
      vertex 23.1663 30.9047 3
    endloop
  endfacet
  facet normal -0 0 1
    outer loop
      vertex 22.8573 30.6491 3
      vertex 24.7713 30.4 3
      vertex 23.0199 30.7672 3
    endloop
  endfacet
  facet normal 0 0 1
    outer loop
      vertex 22 28.8 3
      vertex 22.8573 30.6491 3
      vertex 22.6812 30.5523 3
    endloop
  endfacet
  facet normal 0 0 1
    outer loop
      vertex 22 28.8 3
      vertex 22.6812 30.5523 3
      vertex 22.4944 30.4783 3
    endloop
  endfacet
  facet normal 0 0 1
    outer loop
      vertex 22 28.8 3
      vertex 22.4944 30.4783 3
      vertex 22.2998 30.4283 3
    endloop
  endfacet
  facet normal 0 0 1
    outer loop
      vertex 22 28.8 3
      vertex 22.2998 30.4283 3
      vertex 22.1005 30.4032 3
    endloop
  endfacet
  facet normal 0 0 1
    outer loop
      vertex 22.8573 30.6491 3
      vertex 22 28.8 3
      vertex 24.7713 30.4 3
    endloop
  endfacet
  facet normal -0 0 1
    outer loop
      vertex 21.8995 30.4032 3
      vertex 22 28.8 3
      vertex 22.1005 30.4032 3
    endloop
  endfacet
  facet normal 0 0 1
    outer loop
      vertex 21.7002 30.4283 3
      vertex 22 28.8 3
      vertex 21.8995 30.4032 3
    endloop
  endfacet
  facet normal 0 0 1
    outer loop
      vertex 21.5056 30.4783 3
      vertex 22 28.8 3
      vertex 21.7002 30.4283 3
    endloop
  endfacet
  facet normal 0 0 1
    outer loop
      vertex 21.3188 30.5523 3
      vertex 22 28.8 3
      vertex 21.5056 30.4783 3
    endloop
  endfacet
  facet normal 0 0 1
    outer loop
      vertex 21.1427 30.6491 3
      vertex 22 28.8 3
      vertex 21.3188 30.5523 3
    endloop
  endfacet
  facet normal 0 0 1
    outer loop
      vertex 19.2287 30.4 3
      vertex 21.1427 30.6491 3
      vertex 20.9801 30.7672 3
    endloop
  endfacet
  facet normal 0 0 1
    outer loop
      vertex 19.2287 30.4 3
      vertex 20.9801 30.7672 3
      vertex 20.8337 30.9047 3
    endloop
  endfacet
  facet normal 0 0 1
    outer loop
      vertex 19.2287 30.4 3
      vertex 20.8337 30.9047 3
      vertex 20.7056 31.0595 3
    endloop
  endfacet
  facet normal 0 0 1
    outer loop
      vertex 19.2287 30.4 3
      vertex 20.7056 31.0595 3
      vertex 20.5979 31.2292 3
    endloop
  endfacet
  facet normal 0 0 1
    outer loop
      vertex 19.2287 30.4 3
      vertex 20.4 32 3
      vertex 19.2287 33.6 3
    endloop
  endfacet
  facet normal 0 0 1
    outer loop
      vertex 20.4 32 3
      vertex 19.2287 30.4 3
      vertex 20.4126 31.7995 3
    endloop
  endfacet
  facet normal 0 0 1
    outer loop
      vertex 20.4126 31.7995 3
      vertex 19.2287 30.4 3
      vertex 20.4503 31.6021 3
    endloop
  endfacet
  facet normal 0 0 1
    outer loop
      vertex 20.4503 31.6021 3
      vertex 19.2287 30.4 3
      vertex 20.5124 31.411 3
    endloop
  endfacet
  facet normal 0 0 1
    outer loop
      vertex 20.5124 31.411 3
      vertex 19.2287 30.4 3
      vertex 20.5979 31.2292 3
    endloop
  endfacet
  facet normal 0 0 1
    outer loop
      vertex 21.1427 30.6491 3
      vertex 19.2287 30.4 3
      vertex 22 28.8 3
    endloop
  endfacet
  facet normal -0.5 0.866025 0
    outer loop
      vertex 24.7713 30.4 3
      vertex 22 28.8 6
      vertex 24.7713 30.4 6
    endloop
  endfacet
  facet normal -0.5 0.866025 0
    outer loop
      vertex 22 28.8 6
      vertex 24.7713 30.4 3
      vertex 22 28.8 3
    endloop
  endfacet
  facet normal -0.998027 0 0.0627917
    outer loop
      vertex 14.9527 0 14.248
      vertex 15 38 15
      vertex 14.9527 38 14.248
    endloop
  endfacet
  facet normal -0.998027 0 0.0627917
    outer loop
      vertex 15 38 15
      vertex 14.9527 0 14.248
      vertex 15 0 15
    endloop
  endfacet
  facet normal 0.125333 0 0.992115
    outer loop
      vertex 7.87571 38 9.10628
      vertex 8.62326 0 9.01184
      vertex 8.62326 38 9.01184
    endloop
  endfacet
  facet normal 0.125333 0 0.992115
    outer loop
      vertex 8.62326 0 9.01184
      vertex 7.87571 38 9.10628
      vertex 7.87571 0 9.10628
    endloop
  endfacet
  facet normal 0.368125 0 0.929776
    outer loop
      vertex 6.44532 38 9.57104
      vertex 7.1459 0 9.29366
      vertex 7.1459 38 9.29366
    endloop
  endfacet
  facet normal 0.368125 0 0.929776
    outer loop
      vertex 7.1459 0 9.29366
      vertex 6.44532 38 9.57104
      vertex 6.44532 0 9.57104
    endloop
  endfacet
  facet normal 0.904827 -0 0.425779
    outer loop
      vertex 3.42134 0 12.7913
      vertex 3.74216 38 12.1095
      vertex 3.42134 38 12.7913
    endloop
  endfacet
  facet normal 0.904827 0 0.425779
    outer loop
      vertex 3.74216 38 12.1095
      vertex 3.42134 0 12.7913
      vertex 3.74216 0 12.1095
    endloop
  endfacet
  facet normal 0.587785 0 0.809017
    outer loop
      vertex 5.17546 38 10.3769
      vertex 5.78504 0 9.93403
      vertex 5.78504 38 9.93403
    endloop
  endfacet
  facet normal 0.587785 0 0.809017
    outer loop
      vertex 5.78504 0 9.93403
      vertex 5.17546 38 10.3769
      vertex 5.17546 0 10.3769
    endloop
  endfacet
  facet normal 0.951056 -0 0.309018
    outer loop
      vertex 3.1885 0 13.5079
      vertex 3.42134 38 12.7913
      vertex 3.1885 38 13.5079
    endloop
  endfacet
  facet normal 0.951056 0 0.309018
    outer loop
      vertex 3.42134 38 12.7913
      vertex 3.1885 0 13.5079
      vertex 3.42134 0 12.7913
    endloop
  endfacet
  facet normal -0.368125 0 0.929776
    outer loop
      vertex 10.8541 38 9.29366
      vertex 11.5547 0 9.57104
      vertex 11.5547 38 9.57104
    endloop
  endfacet
  facet normal -0.368125 0 0.929776
    outer loop
      vertex 11.5547 0 9.57104
      vertex 10.8541 38 9.29366
      vertex 10.8541 0 9.29366
    endloop
  endfacet
  facet normal 0.844328 -0 0.535827
    outer loop
      vertex 3.74216 0 12.1095
      vertex 4.1459 38 11.4733
      vertex 3.74216 38 12.1095
    endloop
  endfacet
  facet normal 0.844328 0 0.535827
    outer loop
      vertex 4.1459 38 11.4733
      vertex 3.74216 0 12.1095
      vertex 4.1459 0 11.4733
    endloop
  endfacet
  facet normal 0.770513 -0 0.637424
    outer loop
      vertex 4.1459 0 11.4733
      vertex 4.62619 38 10.8927
      vertex 4.1459 38 11.4733
    endloop
  endfacet
  facet normal 0.770513 0 0.637424
    outer loop
      vertex 4.62619 38 10.8927
      vertex 4.1459 0 11.4733
      vertex 4.62619 0 10.8927
    endloop
  endfacet
  facet normal 0.481754 0 0.876306
    outer loop
      vertex 5.78504 38 9.93403
      vertex 6.44532 0 9.57104
      vertex 6.44532 38 9.57104
    endloop
  endfacet
  facet normal 0.481754 0 0.876306
    outer loop
      vertex 6.44532 0 9.57104
      vertex 5.78504 38 9.93403
      vertex 5.78504 0 9.93403
    endloop
  endfacet
  facet normal -0.24869 0 0.968583
    outer loop
      vertex 10.1243 38 9.10628
      vertex 10.8541 0 9.29366
      vertex 10.8541 38 9.29366
    endloop
  endfacet
  facet normal -0.24869 0 0.968583
    outer loop
      vertex 10.8541 0 9.29366
      vertex 10.1243 38 9.10628
      vertex 10.1243 0 9.10628
    endloop
  endfacet
  facet normal -0.998027 0 -0.0627918
    outer loop
      vertex 15 0 15
      vertex 14.9527 38 15.752
      vertex 15 38 15
    endloop
  endfacet
  facet normal -0.998027 -0 -0.0627918
    outer loop
      vertex 14.9527 38 15.752
      vertex 15 0 15
      vertex 14.9527 0 15.752
    endloop
  endfacet
  facet normal -0.125333 0 0.992115
    outer loop
      vertex 9.37674 38 9.01184
      vertex 10.1243 0 9.10628
      vertex 10.1243 38 9.10628
    endloop
  endfacet
  facet normal -0.125333 0 0.992115
    outer loop
      vertex 10.1243 0 9.10628
      vertex 9.37674 38 9.01184
      vertex 9.37674 0 9.01184
    endloop
  endfacet
  facet normal 0.982287 -0 0.187381
    outer loop
      vertex 3.04731 0 14.248
      vertex 3.1885 38 13.5079
      vertex 3.04731 38 14.248
    endloop
  endfacet
  facet normal 0.982287 0 0.187381
    outer loop
      vertex 3.1885 38 13.5079
      vertex 3.04731 0 14.248
      vertex 3.1885 0 13.5079
    endloop
  endfacet
  facet normal 0.998027 -0 0.0627905
    outer loop
      vertex 3 0 15
      vertex 3.04731 38 14.248
      vertex 3 38 15
    endloop
  endfacet
  facet normal 0.998027 0 0.0627905
    outer loop
      vertex 3.04731 38 14.248
      vertex 3 0 15
      vertex 3.04731 0 14.248
    endloop
  endfacet
  facet normal 0.998027 0 -0.0627905
    outer loop
      vertex 3.04731 0 15.752
      vertex 3 38 15
      vertex 3.04731 38 15.752
    endloop
  endfacet
  facet normal 0.998027 0 -0.0627905
    outer loop
      vertex 3 38 15
      vertex 3.04731 0 15.752
      vertex 3 0 15
    endloop
  endfacet
  facet normal 0.684547 0 0.728969
    outer loop
      vertex 4.62619 38 10.8927
      vertex 5.17546 0 10.3769
      vertex 5.17546 38 10.3769
    endloop
  endfacet
  facet normal 0.684547 0 0.728969
    outer loop
      vertex 5.17546 0 10.3769
      vertex 4.62619 38 10.8927
      vertex 4.62619 0 10.8927
    endloop
  endfacet
  facet normal -0.904827 0 0.425779
    outer loop
      vertex 14.2578 0 12.1095
      vertex 14.5787 38 12.7913
      vertex 14.2578 38 12.1095
    endloop
  endfacet
  facet normal -0.904827 0 0.425779
    outer loop
      vertex 14.5787 38 12.7913
      vertex 14.2578 0 12.1095
      vertex 14.5787 0 12.7913
    endloop
  endfacet
  facet normal -0.982287 0 0.187381
    outer loop
      vertex 14.8115 0 13.5079
      vertex 14.9527 38 14.248
      vertex 14.8115 38 13.5079
    endloop
  endfacet
  facet normal -0.982287 0 0.187381
    outer loop
      vertex 14.9527 38 14.248
      vertex 14.8115 0 13.5079
      vertex 14.9527 0 14.248
    endloop
  endfacet
  facet normal -0.844327 0 -0.535828
    outer loop
      vertex 14.2578 0 17.8905
      vertex 14.1884 38 18
      vertex 14.2578 38 17.8905
    endloop
  endfacet
  facet normal -0.844327 -0 -0.535828
    outer loop
      vertex 14.1884 38 18
      vertex 14.2578 0 17.8905
      vertex 14.1884 0 18
    endloop
  endfacet
  facet normal -0.982287 0 -0.187381
    outer loop
      vertex 14.9527 0 15.752
      vertex 14.8115 38 16.4921
      vertex 14.9527 38 15.752
    endloop
  endfacet
  facet normal -0.982287 -0 -0.187381
    outer loop
      vertex 14.8115 38 16.4921
      vertex 14.9527 0 15.752
      vertex 14.8115 0 16.4921
    endloop
  endfacet
  facet normal 0.982287 0 -0.187381
    outer loop
      vertex 3.1885 0 16.4921
      vertex 3.04731 38 15.752
      vertex 3.1885 38 16.4921
    endloop
  endfacet
  facet normal 0.982287 0 -0.187381
    outer loop
      vertex 3.04731 38 15.752
      vertex 3.1885 0 16.4921
      vertex 3.04731 0 15.752
    endloop
  endfacet
  facet normal 0.904827 0 -0.42578
    outer loop
      vertex 3.74216 0 17.8905
      vertex 3.42134 38 17.2087
      vertex 3.74216 38 17.8905
    endloop
  endfacet
  facet normal 0.904827 0 -0.42578
    outer loop
      vertex 3.42134 38 17.2087
      vertex 3.74216 0 17.8905
      vertex 3.42134 0 17.2087
    endloop
  endfacet
  facet normal -0.481754 0 0.876306
    outer loop
      vertex 11.5547 38 9.57104
      vertex 12.215 0 9.93403
      vertex 12.215 38 9.93403
    endloop
  endfacet
  facet normal -0.481754 0 0.876306
    outer loop
      vertex 12.215 0 9.93403
      vertex 11.5547 38 9.57104
      vertex 11.5547 0 9.57104
    endloop
  endfacet
  facet normal -0.587785 0 0.809017
    outer loop
      vertex 12.215 38 9.93403
      vertex 12.8245 0 10.3769
      vertex 12.8245 38 10.3769
    endloop
  endfacet
  facet normal -0.587785 0 0.809017
    outer loop
      vertex 12.8245 0 10.3769
      vertex 12.215 38 9.93403
      vertex 12.215 0 9.93403
    endloop
  endfacet
  facet normal -0 0 1
    outer loop
      vertex 8.62326 38 9.01184
      vertex 9.37674 0 9.01184
      vertex 9.37674 38 9.01184
    endloop
  endfacet
  facet normal 0 0 1
    outer loop
      vertex 9.37674 0 9.01184
      vertex 8.62326 38 9.01184
      vertex 8.62326 0 9.01184
    endloop
  endfacet
  facet normal 0.24869 0 0.968583
    outer loop
      vertex 7.1459 38 9.29366
      vertex 7.87571 0 9.10628
      vertex 7.87571 38 9.10628
    endloop
  endfacet
  facet normal 0.24869 0 0.968583
    outer loop
      vertex 7.87571 0 9.10628
      vertex 7.1459 38 9.29366
      vertex 7.1459 0 9.29366
    endloop
  endfacet
  facet normal -0.951056 0 0.309018
    outer loop
      vertex 14.5787 0 12.7913
      vertex 14.8115 38 13.5079
      vertex 14.5787 38 12.7913
    endloop
  endfacet
  facet normal -0.951056 0 0.309018
    outer loop
      vertex 14.8115 38 13.5079
      vertex 14.5787 0 12.7913
      vertex 14.8115 0 13.5079
    endloop
  endfacet
  facet normal -0.684547 0 0.728969
    outer loop
      vertex 12.8245 38 10.3769
      vertex 13.3738 0 10.8927
      vertex 13.3738 38 10.8927
    endloop
  endfacet
  facet normal -0.684547 0 0.728969
    outer loop
      vertex 13.3738 0 10.8927
      vertex 12.8245 38 10.3769
      vertex 12.8245 0 10.3769
    endloop
  endfacet
  facet normal -0.904827 0 -0.42578
    outer loop
      vertex 14.5787 0 17.2087
      vertex 14.2578 38 17.8905
      vertex 14.5787 38 17.2087
    endloop
  endfacet
  facet normal -0.904827 -0 -0.42578
    outer loop
      vertex 14.2578 38 17.8905
      vertex 14.5787 0 17.2087
      vertex 14.2578 0 17.8905
    endloop
  endfacet
  facet normal -0.951057 0 -0.309017
    outer loop
      vertex 14.8115 0 16.4921
      vertex 14.5787 38 17.2087
      vertex 14.8115 38 16.4921
    endloop
  endfacet
  facet normal -0.951057 -0 -0.309017
    outer loop
      vertex 14.5787 38 17.2087
      vertex 14.8115 0 16.4921
      vertex 14.5787 0 17.2087
    endloop
  endfacet
  facet normal 0.844328 0 -0.535827
    outer loop
      vertex 3.81164 0 18
      vertex 3.74216 38 17.8905
      vertex 3.81164 38 18
    endloop
  endfacet
  facet normal 0.844328 0 -0.535827
    outer loop
      vertex 3.74216 38 17.8905
      vertex 3.81164 0 18
      vertex 3.74216 0 17.8905
    endloop
  endfacet
  facet normal 0.951057 0 -0.309017
    outer loop
      vertex 3.42134 0 17.2087
      vertex 3.1885 38 16.4921
      vertex 3.42134 38 17.2087
    endloop
  endfacet
  facet normal 0.951057 0 -0.309017
    outer loop
      vertex 3.1885 38 16.4921
      vertex 3.42134 0 17.2087
      vertex 3.1885 0 16.4921
    endloop
  endfacet
  facet normal -0.770513 0 0.637424
    outer loop
      vertex 13.3738 0 10.8927
      vertex 13.8541 38 11.4733
      vertex 13.3738 38 10.8927
    endloop
  endfacet
  facet normal -0.770513 0 0.637424
    outer loop
      vertex 13.8541 38 11.4733
      vertex 13.3738 0 10.8927
      vertex 13.8541 0 11.4733
    endloop
  endfacet
  facet normal -0.844328 0 0.535827
    outer loop
      vertex 13.8541 0 11.4733
      vertex 14.2578 38 12.1095
      vertex 13.8541 38 11.4733
    endloop
  endfacet
  facet normal -0.844328 0 0.535827
    outer loop
      vertex 14.2578 38 12.1095
      vertex 13.8541 0 11.4733
      vertex 14.2578 0 12.1095
    endloop
  endfacet
endsolid OpenSCAD_Model
