  0
SECTION
  2
HEADER
  9
$ACADVER
  1
AC1009
  9
$INSBASE
 10
0.0
 20
0.0
 30
0.0
  9
$EXTMIN
 10
0.0
 20
0.0
 30
0.0
  9
$EXTMAX
 10
0.0
 20
0.0
 30
0.0
  0
ENDSEC
  0
SECTION
  2
TABLES
  0
TABLE
  2
VPORT
 70
0
  0
ENDTAB
  0
TABLE
  2
LTYPE
 70
1
  0
LTYPE
  2
CONTINUOUS
 70
0
  3
Solid line
 72
65
 73
0
 40
0.0
  0
ENDTAB
  0
TABLE
  2
LAYER
 70
1
  0
LAYER
  2
0
 70
64
 62
7
  6
continuous
  0
ENDTAB
  0
TABLE
  2
STYLE
 70
1
  0
STYLE
  2
STANDARD
 70
0
 40
0
 41
1.0
 50
0.0
 71
0
 42
1
 3
ARIAL.TTF
 4

  0
ENDTAB
  0
TABLE
  2
VIEW
 70
0
  0
ENDTAB
  0
ENDSEC
  0
SECTION
  2
BLOCKS
  0
ENDSEC
  0
SECTION
  2
ENTITIES
  0
LINE
  8
0
 62
0
 10
-1.861745
 20
0.568373
 30
0.0
 11
-2.491744
 21
0.568373
 31
0.0
  0
LINE
  8
0
 62
0
 10
-4.591744
 20
3.298373
 30
0.0
 11
-4.591744
 21
2.668373
 31
0.0
  0
LINE
  8
0
 62
0
 10
-13.091746
 20
10.568374
 30
0.0
 11
-13.189851
 21
10.565163
 31
0.0
  0
LINE
  8
0
 62
0
 10
-13.189851
 20
10.565163
 30
0.0
 11
-13.287535
 21
10.555542
 31
0.0
  0
LINE
  8
0
 62
0
 10
-13.287535
 20
10.555542
 30
0.0
 11
-13.384381
 21
10.539552
 31
0.0
  0
LINE
  8
0
 62
0
 10
-13.384381
 20
10.539552
 30
0.0
 11
-13.479975
 21
10.517263
 31
0.0
  0
LINE
  8
0
 62
0
 10
-13.479975
 20
10.517263
 30
0.0
 11
-13.573905
 21
10.48877
 31
0.0
  0
LINE
  8
0
 62
0
 10
-13.573905
 20
10.48877
 30
0.0
 11
-13.665771
 21
10.454194
 31
0.0
  0
LINE
  8
0
 62
0
 10
-13.665771
 20
10.454194
 30
0.0
 11
-13.755179
 21
10.413684
 31
0.0
  0
LINE
  8
0
 62
0
 10
-13.755179
 20
10.413684
 30
0.0
 11
-13.841746
 21
10.367412
 31
0.0
  0
LINE
  8
0
 62
0
 10
-13.841746
 20
10.367412
 30
0.0
 11
-13.925101
 21
10.315579
 31
0.0
  0
LINE
  8
0
 62
0
 10
-13.925101
 20
10.315579
 30
0.0
 11
-14.004888
 21
10.258404
 31
0.0
  0
LINE
  8
0
 62
0
 10
-14.004888
 20
10.258404
 30
0.0
 11
-14.080765
 21
10.196134
 31
0.0
  0
LINE
  8
0
 62
0
 10
-14.080765
 20
10.196134
 30
0.0
 11
-14.152406
 21
10.129034
 31
0.0
  0
LINE
  8
0
 62
0
 10
-14.152406
 20
10.129034
 30
0.0
 11
-14.219506
 21
10.057393
 31
0.0
  0
LINE
  8
0
 62
0
 10
-14.219506
 20
10.057393
 30
0.0
 11
-14.281776
 21
9.981516
 31
0.0
  0
LINE
  8
0
 62
0
 10
-14.281776
 20
9.981516
 30
0.0
 11
-14.33895
 21
9.90173
 31
0.0
  0
LINE
  8
0
 62
0
 10
-14.33895
 20
9.90173
 30
0.0
 11
-14.390784
 21
9.818374
 31
0.0
  0
LINE
  8
0
 62
0
 10
-14.390784
 20
9.818374
 30
0.0
 11
-14.437055
 21
9.731807
 31
0.0
  0
LINE
  8
0
 62
0
 10
-14.437055
 20
9.731807
 30
0.0
 11
-14.477565
 21
9.642399
 31
0.0
  0
LINE
  8
0
 62
0
 10
-14.477565
 20
9.642399
 30
0.0
 11
-14.512141
 21
9.550533
 31
0.0
  0
LINE
  8
0
 62
0
 10
-14.512141
 20
9.550533
 30
0.0
 11
-14.540635
 21
9.456603
 31
0.0
  0
LINE
  8
0
 62
0
 10
-14.540635
 20
9.456603
 30
0.0
 11
-14.562924
 21
9.36101
 31
0.0
  0
LINE
  8
0
 62
0
 10
-14.562924
 20
9.36101
 30
0.0
 11
-14.578913
 21
9.264163
 31
0.0
  0
LINE
  8
0
 62
0
 10
-14.578913
 20
9.264163
 30
0.0
 11
-14.588534
 21
9.166479
 31
0.0
  0
LINE
  8
0
 62
0
 10
-14.588534
 20
9.166479
 30
0.0
 11
-14.591746
 21
9.068374
 31
0.0
  0
LINE
  8
0
 62
0
 10
-14.591746
 20
9.068374
 30
0.0
 11
-14.591746
 21
5.208374
 31
0.0
  0
LINE
  8
0
 62
0
 10
-14.591746
 20
5.208374
 30
0.0
 11
-12.791744
 21
3.408374
 31
0.0
  0
LINE
  8
0
 62
0
 10
-12.791744
 20
6.067712
 30
0.0
 11
-12.791744
 21
3.408374
 31
0.0
  0
LINE
  8
0
 62
0
 10
-11.151745
 20
6.067712
 30
0.0
 11
-8.492405
 21
3.408374
 31
0.0
  0
LINE
  8
0
 62
0
 10
-8.492405
 20
3.408374
 30
0.0
 11
-8.492405
 21
0.768373
 31
0.0
  0
LINE
  8
0
 62
0
 10
-8.492405
 20
0.768373
 30
0.0
 11
-8.292405
 21
0.568373
 31
0.0
  0
LINE
  8
0
 62
0
 10
-8.492405
 20
0.368373
 30
0.0
 11
-8.292405
 21
0.568373
 31
0.0
  0
LINE
  8
0
 62
0
 10
-8.492405
 20
-2.271628
 30
0.0
 11
-8.492405
 21
0.368373
 31
0.0
  0
LINE
  8
0
 62
0
 10
-11.151745
 20
-4.930968
 30
0.0
 11
-8.492405
 21
-2.271628
 31
0.0
  0
LINE
  8
0
 62
0
 10
-12.791744
 20
-4.930968
 30
0.0
 11
-12.791744
 21
-2.271628
 31
0.0
  0
LINE
  8
0
 62
0
 10
-14.591746
 20
-4.071628
 30
0.0
 11
-12.791744
 21
-2.271628
 31
0.0
  0
LINE
  8
0
 62
0
 10
-14.591746
 20
-7.931629
 30
0.0
 11
-14.591746
 21
-4.071628
 31
0.0
  0
LINE
  8
0
 62
0
 10
-14.591746
 20
-7.931629
 30
0.0
 11
-14.588249
 21
-8.033993
 31
0.0
  0
LINE
  8
0
 62
0
 10
-14.588249
 20
-8.033993
 30
0.0
 11
-14.577775
 21
-8.135879
 31
0.0
  0
LINE
  8
0
 62
0
 10
-14.577775
 20
-8.135879
 30
0.0
 11
-14.560372
 21
-8.236813
 31
0.0
  0
LINE
  8
0
 62
0
 10
-14.560372
 20
-8.236813
 30
0.0
 11
-14.536122
 21
-8.336324
 31
0.0
  0
LINE
  8
0
 62
0
 10
-14.536122
 20
-8.336324
 30
0.0
 11
-14.505137
 21
-8.433948
 31
0.0
  0
LINE
  8
0
 62
0
 10
-14.505137
 20
-8.433948
 30
0.0
 11
-14.467563
 21
-8.529231
 31
0.0
  0
LINE
  8
0
 62
0
 10
-14.467563
 20
-8.529231
 30
0.0
 11
-14.423574
 21
-8.621726
 31
0.0
  0
LINE
  8
0
 62
0
 10
-14.423574
 20
-8.621726
 30
0.0
 11
-14.373375
 21
-8.711005
 31
0.0
  0
LINE
  8
0
 62
0
 10
-14.373375
 20
-8.711005
 30
0.0
 11
-14.317201
 21
-8.796649
 31
0.0
  0
LINE
  8
0
 62
0
 10
-14.317201
 20
-8.796649
 30
0.0
 11
-14.255313
 21
-8.878261
 31
0.0
  0
LINE
  8
0
 62
0
 10
-14.255313
 20
-8.878261
 30
0.0
 11
-14.188
 21
-8.955459
 31
0.0
  0
LINE
  8
0
 62
0
 10
-14.188
 20
-8.955459
 30
0.0
 11
-14.115576
 21
-9.027883
 31
0.0
  0
LINE
  8
0
 62
0
 10
-14.115576
 20
-9.027883
 30
0.0
 11
-14.038378
 21
-9.095196
 31
0.0
  0
LINE
  8
0
 62
0
 10
-14.038378
 20
-9.095196
 30
0.0
 11
-13.956766
 21
-9.157084
 31
0.0
  0
LINE
  8
0
 62
0
 10
-13.956766
 20
-9.157084
 30
0.0
 11
-13.871122
 21
-9.213258
 31
0.0
  0
LINE
  8
0
 62
0
 10
-13.871122
 20
-9.213258
 30
0.0
 11
-13.781843
 21
-9.263457
 31
0.0
  0
LINE
  8
0
 62
0
 10
-13.781843
 20
-9.263457
 30
0.0
 11
-13.689348
 21
-9.307446
 31
0.0
  0
LINE
  8
0
 62
0
 10
-13.689348
 20
-9.307446
 30
0.0
 11
-13.594065
 21
-9.34502
 31
0.0
  0
LINE
  8
0
 62
0
 10
-13.594065
 20
-9.34502
 30
0.0
 11
-13.496441
 21
-9.376005
 31
0.0
  0
LINE
  8
0
 62
0
 10
-13.496441
 20
-9.376005
 30
0.0
 11
-13.39693
 21
-9.400255
 31
0.0
  0
LINE
  8
0
 62
0
 10
-13.39693
 20
-9.400255
 30
0.0
 11
-13.295996
 21
-9.417658
 31
0.0
  0
LINE
  8
0
 62
0
 10
-13.295996
 20
-9.417658
 30
0.0
 11
-13.19411
 21
-9.428132
 31
0.0
  0
LINE
  8
0
 62
0
 10
-13.19411
 20
-9.428132
 30
0.0
 11
-13.091746
 21
-9.431629
 31
0.0
  0
LINE
  8
0
 62
0
 10
-13.091746
 20
-9.431629
 30
0.0
 11
-9.231745
 21
-9.431628
 31
0.0
  0
LINE
  8
0
 62
0
 10
-9.231745
 20
-9.431628
 30
0.0
 11
-7.431745
 21
-7.631627
 31
0.0
  0
LINE
  8
0
 62
0
 10
-7.431745
 20
-7.631627
 30
0.0
 11
-10.091085
 21
-7.631627
 31
0.0
  0
LINE
  8
0
 62
0
 10
-10.091085
 20
-5.991628
 30
0.0
 11
-7.431745
 21
-3.332288
 31
0.0
  0
LINE
  8
0
 62
0
 10
-4.791744
 20
-3.332288
 30
0.0
 11
-7.431745
 21
-3.332288
 31
0.0
  0
LINE
  8
0
 62
0
 10
-4.791744
 20
-3.332288
 30
0.0
 11
-4.591744
 21
-3.132288
 31
0.0
  0
LINE
  8
0
 62
0
 10
-4.391744
 20
-3.332288
 30
0.0
 11
-4.591744
 21
-3.132288
 31
0.0
  0
LINE
  8
0
 62
0
 10
-4.391744
 20
-3.332288
 30
0.0
 11
-1.751745
 21
-3.332288
 31
0.0
  0
LINE
  8
0
 62
0
 10
0.907597
 20
-5.991628
 30
0.0
 11
-1.751745
 21
-3.332288
 31
0.0
  0
LINE
  8
0
 62
0
 10
-1.751745
 20
-7.631627
 30
0.0
 11
0.907597
 21
-7.631627
 31
0.0
  0
LINE
  8
0
 62
0
 10
0.048255
 20
-9.431628
 30
0.0
 11
-1.751745
 21
-7.631627
 31
0.0
  0
LINE
  8
0
 62
0
 10
3.908256
 20
-9.431628
 30
0.0
 11
0.048255
 21
-9.431628
 31
0.0
  0
LINE
  8
0
 62
0
 10
3.908256
 20
-9.431628
 30
0.0
 11
4.00636
 21
-9.428417
 31
0.0
  0
LINE
  8
0
 62
0
 10
4.00636
 20
-9.428417
 30
0.0
 11
4.104045
 21
-9.418796
 31
0.0
  0
LINE
  8
0
 62
0
 10
4.104045
 20
-9.418796
 30
0.0
 11
4.200891
 21
-9.402807
 31
0.0
  0
LINE
  8
0
 62
0
 10
4.200891
 20
-9.402807
 30
0.0
 11
4.296484
 21
-9.380518
 31
0.0
  0
LINE
  8
0
 62
0
 10
4.296484
 20
-9.380518
 30
0.0
 11
4.390415
 21
-9.352024
 31
0.0
  0
LINE
  8
0
 62
0
 10
4.390415
 20
-9.352024
 30
0.0
 11
4.482281
 21
-9.317448
 31
0.0
  0
LINE
  8
0
 62
0
 10
4.482281
 20
-9.317448
 30
0.0
 11
4.571689
 21
-9.276938
 31
0.0
  0
LINE
  8
0
 62
0
 10
4.571689
 20
-9.276938
 30
0.0
 11
4.658256
 21
-9.230667
 31
0.0
  0
LINE
  8
0
 62
0
 10
4.658256
 20
-9.230667
 30
0.0
 11
4.741611
 21
-9.178833
 31
0.0
  0
LINE
  8
0
 62
0
 10
4.741611
 20
-9.178833
 30
0.0
 11
4.821398
 21
-9.121659
 31
0.0
  0
LINE
  8
0
 62
0
 10
4.821398
 20
-9.121659
 30
0.0
 11
4.897275
 21
-9.059389
 31
0.0
  0
LINE
  8
0
 62
0
 10
4.897275
 20
-9.059389
 30
0.0
 11
4.968916
 21
-8.992289
 31
0.0
  0
LINE
  8
0
 62
0
 10
4.968916
 20
-8.992289
 30
0.0
 11
5.036016
 21
-8.920648
 31
0.0
  0
LINE
  8
0
 62
0
 10
5.036016
 20
-8.920648
 30
0.0
 11
5.098286
 21
-8.844771
 31
0.0
  0
LINE
  8
0
 62
0
 10
5.098286
 20
-8.844771
 30
0.0
 11
5.15546
 21
-8.764984
 31
0.0
  0
LINE
  8
0
 62
0
 10
5.15546
 20
-8.764984
 30
0.0
 11
5.207294
 21
-8.681629
 31
0.0
  0
LINE
  8
0
 62
0
 10
5.207294
 20
-8.681629
 30
0.0
 11
5.253565
 21
-8.595062
 31
0.0
  0
LINE
  8
0
 62
0
 10
5.253565
 20
-8.595062
 30
0.0
 11
5.294075
 21
-8.505654
 31
0.0
  0
LINE
  8
0
 62
0
 10
5.294075
 20
-8.505654
 30
0.0
 11
5.328651
 21
-8.413788
 31
0.0
  0
LINE
  8
0
 62
0
 10
5.328651
 20
-8.413788
 30
0.0
 11
5.357145
 21
-8.319857
 31
0.0
  0
LINE
  8
0
 62
0
 10
5.357145
 20
-8.319857
 30
0.0
 11
5.379434
 21
-8.224264
 31
0.0
  0
LINE
  8
0
 62
0
 10
5.379434
 20
-8.224264
 30
0.0
 11
5.395423
 21
-8.127418
 31
0.0
  0
LINE
  8
0
 62
0
 10
5.395423
 20
-8.127418
 30
0.0
 11
5.405044
 21
-8.029733
 31
0.0
  0
LINE
  8
0
 62
0
 10
5.405044
 20
-8.029733
 30
0.0
 11
5.408256
 21
-7.931629
 31
0.0
  0
LINE
  8
0
 62
0
 10
5.408256
 20
-7.931629
 30
0.0
 11
5.408256
 21
-4.071628
 31
0.0
  0
LINE
  8
0
 62
0
 10
5.408256
 20
-4.071628
 30
0.0
 11
3.608256
 21
-2.271628
 31
0.0
  0
LINE
  8
0
 62
0
 10
3.608256
 20
-4.930968
 30
0.0
 11
3.608256
 21
-2.271628
 31
0.0
  0
LINE
  8
0
 62
0
 10
1.968256
 20
-4.930968
 30
0.0
 11
-0.691085
 21
-2.271628
 31
0.0
  0
LINE
  8
0
 62
0
 10
-0.691085
 20
-2.271628
 30
0.0
 11
-0.691085
 21
0.368373
 31
0.0
  0
LINE
  8
0
 62
0
 10
-0.691085
 20
0.368373
 30
0.0
 11
-0.891085
 21
0.568373
 31
0.0
  0
LINE
  8
0
 62
0
 10
-0.691085
 20
0.768373
 30
0.0
 11
-0.891085
 21
0.568373
 31
0.0
  0
LINE
  8
0
 62
0
 10
-0.691085
 20
3.408374
 30
0.0
 11
-0.691085
 21
0.768373
 31
0.0
  0
LINE
  8
0
 62
0
 10
1.968256
 20
6.067712
 30
0.0
 11
-0.338207
 21
3.761248
 31
0.0
  0
LINE
  8
0
 62
0
 10
3.608256
 20
6.067712
 30
0.0
 11
3.608256
 21
3.408374
 31
0.0
  0
LINE
  8
0
 62
0
 10
5.408256
 20
5.208374
 30
0.0
 11
3.608256
 21
3.408374
 31
0.0
  0
LINE
  8
0
 62
0
 10
5.408256
 20
9.068374
 30
0.0
 11
5.408256
 21
5.208374
 31
0.0
  0
LINE
  8
0
 62
0
 10
5.408256
 20
9.068374
 30
0.0
 11
5.405044
 21
9.166479
 31
0.0
  0
LINE
  8
0
 62
0
 10
5.405044
 20
9.166479
 30
0.0
 11
5.395423
 21
9.264164
 31
0.0
  0
LINE
  8
0
 62
0
 10
5.395423
 20
9.264164
 30
0.0
 11
5.379434
 21
9.36101
 31
0.0
  0
LINE
  8
0
 62
0
 10
5.379434
 20
9.36101
 30
0.0
 11
5.357145
 21
9.456603
 31
0.0
  0
LINE
  8
0
 62
0
 10
5.357145
 20
9.456603
 30
0.0
 11
5.328651
 21
9.550534
 31
0.0
  0
LINE
  8
0
 62
0
 10
5.328651
 20
9.550534
 30
0.0
 11
5.294075
 21
9.642399
 31
0.0
  0
LINE
  8
0
 62
0
 10
5.294075
 20
9.642399
 30
0.0
 11
5.253565
 21
9.731807
 31
0.0
  0
LINE
  8
0
 62
0
 10
5.253565
 20
9.731807
 30
0.0
 11
5.207294
 21
9.818374
 31
0.0
  0
LINE
  8
0
 62
0
 10
5.207294
 20
9.818374
 30
0.0
 11
5.15546
 21
9.90173
 31
0.0
  0
LINE
  8
0
 62
0
 10
5.15546
 20
9.90173
 30
0.0
 11
5.098286
 21
9.981517
 31
0.0
  0
LINE
  8
0
 62
0
 10
5.098286
 20
9.981517
 30
0.0
 11
5.036016
 21
10.057393
 31
0.0
  0
LINE
  8
0
 62
0
 10
5.036016
 20
10.057393
 30
0.0
 11
4.968916
 21
10.129035
 31
0.0
  0
LINE
  8
0
 62
0
 10
4.968916
 20
10.129035
 30
0.0
 11
4.897275
 21
10.196134
 31
0.0
  0
LINE
  8
0
 62
0
 10
4.897275
 20
10.196134
 30
0.0
 11
4.821398
 21
10.258404
 31
0.0
  0
LINE
  8
0
 62
0
 10
4.821398
 20
10.258404
 30
0.0
 11
4.741611
 21
10.315579
 31
0.0
  0
LINE
  8
0
 62
0
 10
4.741611
 20
10.315579
 30
0.0
 11
4.658256
 21
10.367413
 31
0.0
  0
LINE
  8
0
 62
0
 10
4.658256
 20
10.367413
 30
0.0
 11
4.571689
 21
10.413684
 31
0.0
  0
LINE
  8
0
 62
0
 10
4.571689
 20
10.413684
 30
0.0
 11
4.482281
 21
10.454194
 31
0.0
  0
LINE
  8
0
 62
0
 10
4.482281
 20
10.454194
 30
0.0
 11
4.390415
 21
10.48877
 31
0.0
  0
LINE
  8
0
 62
0
 10
4.390415
 20
10.48877
 30
0.0
 11
4.296484
 21
10.517263
 31
0.0
  0
LINE
  8
0
 62
0
 10
4.296484
 20
10.517263
 30
0.0
 11
4.200891
 21
10.539552
 31
0.0
  0
LINE
  8
0
 62
0
 10
4.200891
 20
10.539552
 30
0.0
 11
4.104045
 21
10.555542
 31
0.0
  0
LINE
  8
0
 62
0
 10
4.104045
 20
10.555542
 30
0.0
 11
4.00636
 21
10.565163
 31
0.0
  0
LINE
  8
0
 62
0
 10
4.00636
 20
10.565163
 30
0.0
 11
3.908256
 21
10.568374
 31
0.0
  0
LINE
  8
0
 62
0
 10
3.908256
 20
10.568374
 30
0.0
 11
0.048255
 21
10.568374
 31
0.0
  0
LINE
  8
0
 62
0
 10
0.048255
 20
10.568374
 30
0.0
 11
-1.751745
 21
8.768374
 31
0.0
  0
LINE
  8
0
 62
0
 10
-1.751745
 20
8.768374
 30
0.0
 11
0.907597
 21
8.768374
 31
0.0
  0
LINE
  8
0
 62
0
 10
0.907597
 20
7.128372
 30
0.0
 11
-1.398867
 21
4.821908
 31
0.0
  0
LINE
  8
0
 62
0
 10
-4.391744
 20
4.469033
 30
0.0
 11
-1.751745
 21
4.469033
 31
0.0
  0
LINE
  8
0
 62
0
 10
-4.391744
 20
4.469033
 30
0.0
 11
-4.591744
 21
4.269033
 31
0.0
  0
LINE
  8
0
 62
0
 10
-4.791744
 20
4.469033
 30
0.0
 11
-4.591744
 21
4.269033
 31
0.0
  0
LINE
  8
0
 62
0
 10
-4.791744
 20
4.469033
 30
0.0
 11
-7.431745
 21
4.469033
 31
0.0
  0
LINE
  8
0
 62
0
 10
-10.091085
 20
7.128372
 30
0.0
 11
-7.431745
 21
4.469033
 31
0.0
  0
LINE
  8
0
 62
0
 10
-7.431745
 20
8.768374
 30
0.0
 11
-9.691085
 21
8.768374
 31
0.0
  0
LINE
  8
0
 62
0
 10
-9.231745
 20
10.568374
 30
0.0
 11
-7.431745
 21
8.768374
 31
0.0
  0
LINE
  8
0
 62
0
 10
-13.091746
 20
10.568374
 30
0.0
 11
-9.231745
 21
10.568374
 31
0.0
  0
LINE
  8
0
 62
0
 10
-2.491744
 20
0.568373
 30
0.0
 11
-2.49624
 21
0.705719
 31
0.0
  0
LINE
  8
0
 62
0
 10
-2.49624
 20
0.705719
 30
0.0
 11
-2.50971
 21
0.842478
 31
0.0
  0
LINE
  8
0
 62
0
 10
-2.50971
 20
0.842478
 30
0.0
 11
-2.532095
 21
0.978062
 31
0.0
  0
LINE
  8
0
 62
0
 10
-2.532095
 20
0.978062
 30
0.0
 11
-2.5633
 21
1.111893
 31
0.0
  0
LINE
  8
0
 62
0
 10
-2.5633
 20
1.111893
 30
0.0
 11
-2.603191
 21
1.243396
 31
0.0
  0
LINE
  8
0
 62
0
 10
-2.603191
 20
1.243396
 30
0.0
 11
-2.651597
 21
1.372008
 31
0.0
  0
LINE
  8
0
 62
0
 10
-2.651597
 20
1.372008
 30
0.0
 11
-2.708311
 21
1.497179
 31
0.0
  0
LINE
  8
0
 62
0
 10
-2.708311
 20
1.497179
 30
0.0
 11
-2.773091
 21
1.618373
 31
0.0
  0
LINE
  8
0
 62
0
 10
-2.773091
 20
1.618373
 30
0.0
 11
-2.837127
 21
1.722203
 31
0.0
  0
LINE
  8
0
 62
0
 10
-2.837127
 20
1.722203
 30
0.0
 11
-2.925702
 21
1.846772
 31
0.0
  0
LINE
  8
0
 62
0
 10
-2.925702
 20
1.846772
 30
0.0
 11
-3.01288
 21
1.952999
 31
0.0
  0
LINE
  8
0
 62
0
 10
-3.01288
 20
1.952999
 30
0.0
 11
-3.10682
 21
2.053297
 31
0.0
  0
LINE
  8
0
 62
0
 10
-3.10682
 20
2.053297
 30
0.0
 11
-3.207118
 21
2.147236
 31
0.0
  0
LINE
  8
0
 62
0
 10
-3.207118
 20
2.147236
 30
0.0
 11
-3.313345
 21
2.234415
 31
0.0
  0
LINE
  8
0
 62
0
 10
-3.313345
 20
2.234415
 30
0.0
 11
-3.425047
 21
2.314459
 31
0.0
  0
LINE
  8
0
 62
0
 10
-3.425047
 20
2.314459
 30
0.0
 11
-3.541744
 21
2.387026
 31
0.0
  0
LINE
  8
0
 62
0
 10
-3.541744
 20
2.387026
 30
0.0
 11
-3.662938
 21
2.451806
 31
0.0
  0
LINE
  8
0
 62
0
 10
-3.662938
 20
2.451806
 30
0.0
 11
-3.788109
 21
2.50852
 31
0.0
  0
LINE
  8
0
 62
0
 10
-3.788109
 20
2.50852
 30
0.0
 11
-3.916721
 21
2.556926
 31
0.0
  0
LINE
  8
0
 62
0
 10
-3.916721
 20
2.556926
 30
0.0
 11
-4.048224
 21
2.596817
 31
0.0
  0
LINE
  8
0
 62
0
 10
-4.048224
 20
2.596817
 30
0.0
 11
-4.182055
 21
2.628022
 31
0.0
  0
LINE
  8
0
 62
0
 10
-4.182055
 20
2.628022
 30
0.0
 11
-4.317639
 21
2.650407
 31
0.0
  0
LINE
  8
0
 62
0
 10
-4.317639
 20
2.650407
 30
0.0
 11
-4.454398
 21
2.663877
 31
0.0
  0
LINE
  8
0
 62
0
 10
-4.454398
 20
2.663877
 30
0.0
 11
-4.591744
 21
2.668373
 31
0.0
  0
LINE
  8
0
 62
0
 10
-4.591744
 20
2.668373
 30
0.0
 11
-4.729091
 21
2.663877
 31
0.0
  0
LINE
  8
0
 62
0
 10
-4.729091
 20
2.663877
 30
0.0
 11
-4.865849
 21
2.650407
 31
0.0
  0
LINE
  8
0
 62
0
 10
-4.865849
 20
2.650407
 30
0.0
 11
-5.001434
 21
2.628022
 31
0.0
  0
LINE
  8
0
 62
0
 10
-5.001434
 20
2.628022
 30
0.0
 11
-5.135264
 21
2.596817
 31
0.0
  0
LINE
  8
0
 62
0
 10
-5.135264
 20
2.596817
 30
0.0
 11
-5.266767
 21
2.556926
 31
0.0
  0
LINE
  8
0
 62
0
 10
-5.266767
 20
2.556926
 30
0.0
 11
-5.39538
 21
2.50852
 31
0.0
  0
LINE
  8
0
 62
0
 10
-5.39538
 20
2.50852
 30
0.0
 11
-5.520551
 21
2.451806
 31
0.0
  0
LINE
  8
0
 62
0
 10
-5.520551
 20
2.451806
 30
0.0
 11
-5.641744
 21
2.387026
 31
0.0
  0
LINE
  8
0
 62
0
 10
-5.641744
 20
2.387026
 30
0.0
 11
-5.758442
 21
2.314459
 31
0.0
  0
LINE
  8
0
 62
0
 10
-5.758442
 20
2.314459
 30
0.0
 11
-5.870143
 21
2.234415
 31
0.0
  0
LINE
  8
0
 62
0
 10
-5.870143
 20
2.234415
 30
0.0
 11
-5.976371
 21
2.147236
 31
0.0
  0
LINE
  8
0
 62
0
 10
-5.976371
 20
2.147236
 30
0.0
 11
-6.076669
 21
2.053297
 31
0.0
  0
LINE
  8
0
 62
0
 10
-6.076669
 20
2.053297
 30
0.0
 11
-6.170608
 21
1.952999
 31
0.0
  0
LINE
  8
0
 62
0
 10
-6.170608
 20
1.952999
 30
0.0
 11
-6.257786
 21
1.846772
 31
0.0
  0
LINE
  8
0
 62
0
 10
-6.257786
 20
1.846772
 30
0.0
 11
-6.337831
 21
1.73507
 31
0.0
  0
LINE
  8
0
 62
0
 10
-6.337831
 20
1.73507
 30
0.0
 11
-6.410398
 21
1.618373
 31
0.0
  0
LINE
  8
0
 62
0
 10
-6.410398
 20
1.618373
 30
0.0
 11
-6.475177
 21
1.497179
 31
0.0
  0
LINE
  8
0
 62
0
 10
-6.475177
 20
1.497179
 30
0.0
 11
-6.531891
 21
1.372008
 31
0.0
  0
LINE
  8
0
 62
0
 10
-6.531891
 20
1.372008
 30
0.0
 11
-6.580298
 21
1.243396
 31
0.0
  0
LINE
  8
0
 62
0
 10
-6.580298
 20
1.243396
 30
0.0
 11
-6.620189
 21
1.111893
 31
0.0
  0
LINE
  8
0
 62
0
 10
-6.620189
 20
1.111893
 30
0.0
 11
-6.651394
 21
0.978062
 31
0.0
  0
LINE
  8
0
 62
0
 10
-6.651394
 20
0.978062
 30
0.0
 11
-6.673779
 21
0.842478
 31
0.0
  0
LINE
  8
0
 62
0
 10
-6.673779
 20
0.842478
 30
0.0
 11
-6.687248
 21
0.705719
 31
0.0
  0
LINE
  8
0
 62
0
 10
-6.687248
 20
0.705719
 30
0.0
 11
-6.691744
 21
0.568373
 31
0.0
  0
LINE
  8
0
 62
0
 10
-6.691744
 20
0.568373
 30
0.0
 11
-6.687248
 21
0.431026
 31
0.0
  0
LINE
  8
0
 62
0
 10
-6.687248
 20
0.431026
 30
0.0
 11
-6.673779
 21
0.294268
 31
0.0
  0
LINE
  8
0
 62
0
 10
-6.673779
 20
0.294268
 30
0.0
 11
-6.651394
 21
0.158683
 31
0.0
  0
LINE
  8
0
 62
0
 10
-6.651394
 20
0.158683
 30
0.0
 11
-6.620189
 21
0.024853
 31
0.0
  0
LINE
  8
0
 62
0
 10
-6.620189
 20
0.024853
 30
0.0
 11
-6.580298
 21
-0.10665
 31
0.0
  0
LINE
  8
0
 62
0
 10
-6.580298
 20
-0.10665
 30
0.0
 11
-6.531891
 21
-0.235263
 31
0.0
  0
LINE
  8
0
 62
0
 10
-6.531891
 20
-0.235263
 30
0.0
 11
-6.475177
 21
-0.360434
 31
0.0
  0
LINE
  8
0
 62
0
 10
-6.475177
 20
-0.360434
 30
0.0
 11
-6.410398
 21
-0.481627
 31
0.0
  0
LINE
  8
0
 62
0
 10
-6.410398
 20
-0.481627
 30
0.0
 11
-6.34636
 21
-0.585457
 31
0.0
  0
LINE
  8
0
 62
0
 10
-6.34636
 20
-0.585457
 30
0.0
 11
-6.257786
 21
-0.710026
 31
0.0
  0
LINE
  8
0
 62
0
 10
-6.257786
 20
-0.710026
 30
0.0
 11
-6.170608
 21
-0.816254
 31
0.0
  0
LINE
  8
0
 62
0
 10
-6.170608
 20
-0.816254
 30
0.0
 11
-6.076669
 21
-0.916552
 31
0.0
  0
LINE
  8
0
 62
0
 10
-6.076669
 20
-0.916552
 30
0.0
 11
-5.976371
 21
-1.010491
 31
0.0
  0
LINE
  8
0
 62
0
 10
-5.976371
 20
-1.010491
 30
0.0
 11
-5.870143
 21
-1.09767
 31
0.0
  0
LINE
  8
0
 62
0
 10
-5.870143
 20
-1.09767
 30
0.0
 11
-5.758442
 21
-1.177714
 31
0.0
  0
LINE
  8
0
 62
0
 10
-5.758442
 20
-1.177714
 30
0.0
 11
-5.641744
 21
-1.250281
 31
0.0
  0
LINE
  8
0
 62
0
 10
-5.641744
 20
-1.250281
 30
0.0
 11
-5.520551
 21
-1.31506
 31
0.0
  0
LINE
  8
0
 62
0
 10
-5.520551
 20
-1.31506
 30
0.0
 11
-5.39538
 21
-1.371775
 31
0.0
  0
LINE
  8
0
 62
0
 10
-5.39538
 20
-1.371775
 30
0.0
 11
-5.266767
 21
-1.420181
 31
0.0
  0
LINE
  8
0
 62
0
 10
-5.266767
 20
-1.420181
 30
0.0
 11
-5.135264
 21
-1.460072
 31
0.0
  0
LINE
  8
0
 62
0
 10
-5.135264
 20
-1.460072
 30
0.0
 11
-5.001434
 21
-1.491277
 31
0.0
  0
LINE
  8
0
 62
0
 10
-5.001434
 20
-1.491277
 30
0.0
 11
-4.865849
 21
-1.513662
 31
0.0
  0
LINE
  8
0
 62
0
 10
-4.865849
 20
-1.513662
 30
0.0
 11
-4.729091
 21
-1.527131
 31
0.0
  0
LINE
  8
0
 62
0
 10
-4.729091
 20
-1.527131
 30
0.0
 11
-4.591744
 21
-1.531628
 31
0.0
  0
LINE
  8
0
 62
0
 10
-4.591744
 20
-1.531628
 30
0.0
 11
-4.454398
 21
-1.527131
 31
0.0
  0
LINE
  8
0
 62
0
 10
-4.454398
 20
-1.527131
 30
0.0
 11
-4.317639
 21
-1.513662
 31
0.0
  0
LINE
  8
0
 62
0
 10
-4.317639
 20
-1.513662
 30
0.0
 11
-4.182055
 21
-1.491277
 31
0.0
  0
LINE
  8
0
 62
0
 10
-4.182055
 20
-1.491277
 30
0.0
 11
-4.048224
 21
-1.460072
 31
0.0
  0
LINE
  8
0
 62
0
 10
-4.048224
 20
-1.460072
 30
0.0
 11
-3.916721
 21
-1.420181
 31
0.0
  0
LINE
  8
0
 62
0
 10
-3.916721
 20
-1.420181
 30
0.0
 11
-3.788109
 21
-1.371775
 31
0.0
  0
LINE
  8
0
 62
0
 10
-3.788109
 20
-1.371775
 30
0.0
 11
-3.662938
 21
-1.31506
 31
0.0
  0
LINE
  8
0
 62
0
 10
-3.662938
 20
-1.31506
 30
0.0
 11
-3.541744
 21
-1.250281
 31
0.0
  0
LINE
  8
0
 62
0
 10
-3.541744
 20
-1.250281
 30
0.0
 11
-3.425047
 21
-1.177714
 31
0.0
  0
LINE
  8
0
 62
0
 10
-3.425047
 20
-1.177714
 30
0.0
 11
-3.313345
 21
-1.09767
 31
0.0
  0
LINE
  8
0
 62
0
 10
-3.313345
 20
-1.09767
 30
0.0
 11
-3.207118
 21
-1.010491
 31
0.0
  0
LINE
  8
0
 62
0
 10
-3.207118
 20
-1.010491
 30
0.0
 11
-3.10682
 21
-0.916552
 31
0.0
  0
LINE
  8
0
 62
0
 10
-3.10682
 20
-0.916552
 30
0.0
 11
-3.01288
 21
-0.816254
 31
0.0
  0
LINE
  8
0
 62
0
 10
-3.01288
 20
-0.816254
 30
0.0
 11
-2.925702
 21
-0.710026
 31
0.0
  0
LINE
  8
0
 62
0
 10
-2.925702
 20
-0.710026
 30
0.0
 11
-2.845658
 21
-0.598325
 31
0.0
  0
LINE
  8
0
 62
0
 10
-2.845658
 20
-0.598325
 30
0.0
 11
-2.773091
 21
-0.481627
 31
0.0
  0
LINE
  8
0
 62
0
 10
-2.773091
 20
-0.481627
 30
0.0
 11
-2.708311
 21
-0.360434
 31
0.0
  0
LINE
  8
0
 62
0
 10
-2.708311
 20
-0.360434
 30
0.0
 11
-2.651597
 21
-0.235263
 31
0.0
  0
LINE
  8
0
 62
0
 10
-2.651597
 20
-0.235263
 30
0.0
 11
-2.603191
 21
-0.10665
 31
0.0
  0
LINE
  8
0
 62
0
 10
-2.603191
 20
-0.10665
 30
0.0
 11
-2.5633
 21
0.024853
 31
0.0
  0
LINE
  8
0
 62
0
 10
-2.5633
 20
0.024853
 30
0.0
 11
-2.532095
 21
0.158683
 31
0.0
  0
LINE
  8
0
 62
0
 10
-2.532095
 20
0.158683
 30
0.0
 11
-2.50971
 21
0.294268
 31
0.0
  0
LINE
  8
0
 62
0
 10
-2.50971
 20
0.294268
 30
0.0
 11
-2.49624
 21
0.431026
 31
0.0
  0
LINE
  8
0
 62
0
 10
-2.49624
 20
0.431026
 30
0.0
 11
-2.491744
 21
0.568373
 31
0.0
  0
LINE
  8
0
 62
0
 10
-4.591744
 20
-1.531628
 30
0.0
 11
-4.591744
 21
-2.161628
 31
0.0
  0
LINE
  8
0
 62
0
 10
-0.338207
 20
3.761248
 30
0.0
 11
-0.691085
 21
3.408374
 31
0.0
  0
LINE
  8
0
 62
0
 10
-1.398867
 20
4.821908
 30
0.0
 11
-1.751745
 21
4.469033
 31
0.0
  0
LINE
  8
0
 62
0
 10
-9.691085
 20
8.768374
 30
0.0
 11
-10.091085
 21
8.768374
 31
0.0
  0
LINE
  8
0
 62
0
 10
-6.691744
 20
0.568373
 30
0.0
 11
-7.321744
 21
0.568373
 31
0.0
  0
LINE
  8
0
 62
0
 10
0.907597
 20
-7.631627
 30
0.0
 11
1.023859
 21
-7.525735
 31
0.0
  0
LINE
  8
0
 62
0
 10
1.023859
 20
-7.525735
 30
0.0
 11
1.122836
 21
-7.403532
 31
0.0
  0
LINE
  8
0
 62
0
 10
1.122836
 20
-7.403532
 30
0.0
 11
1.202265
 21
-7.267807
 31
0.0
  0
LINE
  8
0
 62
0
 10
1.202265
 20
-7.267807
 30
0.0
 11
1.260333
 21
-7.121663
 31
0.0
  0
LINE
  8
0
 62
0
 10
1.260333
 20
-7.121663
 30
0.0
 11
1.295713
 21
-6.968436
 31
0.0
  0
LINE
  8
0
 62
0
 10
1.295713
 20
-6.968436
 30
0.0
 11
1.307597
 21
-6.811628
 31
0.0
  0
LINE
  8
0
 62
0
 10
1.307597
 20
-6.811628
 30
0.0
 11
1.295713
 21
-6.654819
 31
0.0
  0
LINE
  8
0
 62
0
 10
1.295713
 20
-6.654819
 30
0.0
 11
1.260333
 21
-6.501593
 31
0.0
  0
LINE
  8
0
 62
0
 10
1.260333
 20
-6.501593
 30
0.0
 11
1.202265
 21
-6.355448
 31
0.0
  0
LINE
  8
0
 62
0
 10
1.202265
 20
-6.355448
 30
0.0
 11
1.122836
 21
-6.219724
 31
0.0
  0
LINE
  8
0
 62
0
 10
1.122836
 20
-6.219724
 30
0.0
 11
1.023859
 21
-6.09752
 31
0.0
  0
LINE
  8
0
 62
0
 10
1.023859
 20
-6.09752
 30
0.0
 11
0.907597
 21
-5.991628
 31
0.0
  0
LINE
  8
0
 62
0
 10
3.608256
 20
-4.930968
 30
0.0
 11
3.502364
 21
-5.047231
 31
0.0
  0
LINE
  8
0
 62
0
 10
3.502364
 20
-5.047231
 30
0.0
 11
3.38016
 21
-5.146207
 31
0.0
  0
LINE
  8
0
 62
0
 10
3.38016
 20
-5.146207
 30
0.0
 11
3.244436
 21
-5.225637
 31
0.0
  0
LINE
  8
0
 62
0
 10
3.244436
 20
-5.225637
 30
0.0
 11
3.098291
 21
-5.283705
 31
0.0
  0
LINE
  8
0
 62
0
 10
3.098291
 20
-5.283705
 30
0.0
 11
2.945065
 21
-5.319084
 31
0.0
  0
LINE
  8
0
 62
0
 10
2.945065
 20
-5.319084
 30
0.0
 11
2.788256
 21
-5.330968
 31
0.0
  0
LINE
  8
0
 62
0
 10
2.788256
 20
-5.330968
 30
0.0
 11
2.631448
 21
-5.319084
 31
0.0
  0
LINE
  8
0
 62
0
 10
2.631448
 20
-5.319084
 30
0.0
 11
2.478221
 21
-5.283705
 31
0.0
  0
LINE
  8
0
 62
0
 10
2.478221
 20
-5.283705
 30
0.0
 11
2.332076
 21
-5.225637
 31
0.0
  0
LINE
  8
0
 62
0
 10
2.332076
 20
-5.225637
 30
0.0
 11
2.196352
 21
-5.146207
 31
0.0
  0
LINE
  8
0
 62
0
 10
2.196352
 20
-5.146207
 30
0.0
 11
2.074148
 21
-5.047231
 31
0.0
  0
LINE
  8
0
 62
0
 10
2.074148
 20
-5.047231
 30
0.0
 11
1.968256
 21
-4.930968
 31
0.0
  0
LINE
  8
0
 62
0
 10
1.968256
 20
6.067712
 30
0.0
 11
2.074148
 21
6.183975
 31
0.0
  0
LINE
  8
0
 62
0
 10
2.074148
 20
6.183975
 30
0.0
 11
2.196352
 21
6.282951
 31
0.0
  0
LINE
  8
0
 62
0
 10
2.196352
 20
6.282951
 30
0.0
 11
2.332076
 21
6.362381
 31
0.0
  0
LINE
  8
0
 62
0
 10
2.332076
 20
6.362381
 30
0.0
 11
2.478221
 21
6.420448
 31
0.0
  0
LINE
  8
0
 62
0
 10
2.478221
 20
6.420448
 30
0.0
 11
2.631448
 21
6.455828
 31
0.0
  0
LINE
  8
0
 62
0
 10
2.631448
 20
6.455828
 30
0.0
 11
2.788256
 21
6.467712
 31
0.0
  0
LINE
  8
0
 62
0
 10
2.788256
 20
6.467712
 30
0.0
 11
2.945065
 21
6.455828
 31
0.0
  0
LINE
  8
0
 62
0
 10
2.945065
 20
6.455828
 30
0.0
 11
3.098291
 21
6.420448
 31
0.0
  0
LINE
  8
0
 62
0
 10
3.098291
 20
6.420448
 30
0.0
 11
3.244436
 21
6.362381
 31
0.0
  0
LINE
  8
0
 62
0
 10
3.244436
 20
6.362381
 30
0.0
 11
3.38016
 21
6.282951
 31
0.0
  0
LINE
  8
0
 62
0
 10
3.38016
 20
6.282951
 30
0.0
 11
3.502364
 21
6.183975
 31
0.0
  0
LINE
  8
0
 62
0
 10
3.502364
 20
6.183975
 30
0.0
 11
3.608256
 21
6.067712
 31
0.0
  0
LINE
  8
0
 62
0
 10
0.907597
 20
7.128372
 30
0.0
 11
1.023859
 21
7.234264
 31
0.0
  0
LINE
  8
0
 62
0
 10
1.023859
 20
7.234264
 30
0.0
 11
1.122836
 21
7.356468
 31
0.0
  0
LINE
  8
0
 62
0
 10
1.122836
 20
7.356468
 30
0.0
 11
1.202265
 21
7.492193
 31
0.0
  0
LINE
  8
0
 62
0
 10
1.202265
 20
7.492193
 30
0.0
 11
1.260333
 21
7.638338
 31
0.0
  0
LINE
  8
0
 62
0
 10
1.260333
 20
7.638338
 30
0.0
 11
1.295713
 21
7.791564
 31
0.0
  0
LINE
  8
0
 62
0
 10
1.295713
 20
7.791564
 30
0.0
 11
1.307597
 21
7.948373
 31
0.0
  0
LINE
  8
0
 62
0
 10
1.307597
 20
7.948373
 30
0.0
 11
1.295713
 21
8.105182
 31
0.0
  0
LINE
  8
0
 62
0
 10
1.295713
 20
8.105182
 30
0.0
 11
1.260333
 21
8.258409
 31
0.0
  0
LINE
  8
0
 62
0
 10
1.260333
 20
8.258409
 30
0.0
 11
1.202265
 21
8.404553
 31
0.0
  0
LINE
  8
0
 62
0
 10
1.202265
 20
8.404553
 30
0.0
 11
1.122836
 21
8.540278
 31
0.0
  0
LINE
  8
0
 62
0
 10
1.122836
 20
8.540278
 30
0.0
 11
1.023859
 21
8.662482
 31
0.0
  0
LINE
  8
0
 62
0
 10
1.023859
 20
8.662482
 30
0.0
 11
0.907597
 21
8.768374
 31
0.0
  0
LINE
  8
0
 62
0
 10
-10.091085
 20
7.128372
 30
0.0
 11
-10.207348
 21
7.234264
 31
0.0
  0
LINE
  8
0
 62
0
 10
-10.207348
 20
7.234264
 30
0.0
 11
-10.306324
 21
7.356468
 31
0.0
  0
LINE
  8
0
 62
0
 10
-10.306324
 20
7.356468
 30
0.0
 11
-10.385754
 21
7.492193
 31
0.0
  0
LINE
  8
0
 62
0
 10
-10.385754
 20
7.492193
 30
0.0
 11
-10.443821
 21
7.638338
 31
0.0
  0
LINE
  8
0
 62
0
 10
-10.443821
 20
7.638338
 30
0.0
 11
-10.479201
 21
7.791564
 31
0.0
  0
LINE
  8
0
 62
0
 10
-10.479201
 20
7.791564
 30
0.0
 11
-10.491085
 21
7.948373
 31
0.0
  0
LINE
  8
0
 62
0
 10
-10.491085
 20
7.948373
 30
0.0
 11
-10.479201
 21
8.105182
 31
0.0
  0
LINE
  8
0
 62
0
 10
-10.479201
 20
8.105182
 30
0.0
 11
-10.443821
 21
8.258409
 31
0.0
  0
LINE
  8
0
 62
0
 10
-10.443821
 20
8.258409
 30
0.0
 11
-10.385754
 21
8.404553
 31
0.0
  0
LINE
  8
0
 62
0
 10
-10.385754
 20
8.404553
 30
0.0
 11
-10.306324
 21
8.540278
 31
0.0
  0
LINE
  8
0
 62
0
 10
-10.306324
 20
8.540278
 30
0.0
 11
-10.207348
 21
8.662482
 31
0.0
  0
LINE
  8
0
 62
0
 10
-10.207348
 20
8.662482
 30
0.0
 11
-10.091085
 21
8.768374
 31
0.0
  0
LINE
  8
0
 62
0
 10
-11.151745
 20
6.067712
 30
0.0
 11
-11.257637
 21
6.183975
 31
0.0
  0
LINE
  8
0
 62
0
 10
-11.257637
 20
6.183975
 30
0.0
 11
-11.379841
 21
6.282951
 31
0.0
  0
LINE
  8
0
 62
0
 10
-11.379841
 20
6.282951
 30
0.0
 11
-11.515565
 21
6.362381
 31
0.0
  0
LINE
  8
0
 62
0
 10
-11.515565
 20
6.362381
 30
0.0
 11
-11.661709
 21
6.420448
 31
0.0
  0
LINE
  8
0
 62
0
 10
-11.661709
 20
6.420448
 30
0.0
 11
-11.814936
 21
6.455828
 31
0.0
  0
LINE
  8
0
 62
0
 10
-11.814936
 20
6.455828
 30
0.0
 11
-11.971745
 21
6.467712
 31
0.0
  0
LINE
  8
0
 62
0
 10
-11.971745
 20
6.467712
 30
0.0
 11
-12.128553
 21
6.455828
 31
0.0
  0
LINE
  8
0
 62
0
 10
-12.128553
 20
6.455828
 30
0.0
 11
-12.28178
 21
6.420448
 31
0.0
  0
LINE
  8
0
 62
0
 10
-12.28178
 20
6.420448
 30
0.0
 11
-12.427924
 21
6.362381
 31
0.0
  0
LINE
  8
0
 62
0
 10
-12.427924
 20
6.362381
 30
0.0
 11
-12.563649
 21
6.282951
 31
0.0
  0
LINE
  8
0
 62
0
 10
-12.563649
 20
6.282951
 30
0.0
 11
-12.685852
 21
6.183975
 31
0.0
  0
LINE
  8
0
 62
0
 10
-12.685852
 20
6.183975
 30
0.0
 11
-12.791744
 21
6.067712
 31
0.0
  0
LINE
  8
0
 62
0
 10
-11.151745
 20
-4.930968
 30
0.0
 11
-11.257637
 21
-5.047231
 31
0.0
  0
LINE
  8
0
 62
0
 10
-11.257637
 20
-5.047231
 30
0.0
 11
-11.379841
 21
-5.146207
 31
0.0
  0
LINE
  8
0
 62
0
 10
-11.379841
 20
-5.146207
 30
0.0
 11
-11.515565
 21
-5.225637
 31
0.0
  0
LINE
  8
0
 62
0
 10
-11.515565
 20
-5.225637
 30
0.0
 11
-11.661709
 21
-5.283705
 31
0.0
  0
LINE
  8
0
 62
0
 10
-11.661709
 20
-5.283705
 30
0.0
 11
-11.814936
 21
-5.319084
 31
0.0
  0
LINE
  8
0
 62
0
 10
-11.814936
 20
-5.319084
 30
0.0
 11
-11.971745
 21
-5.330968
 31
0.0
  0
LINE
  8
0
 62
0
 10
-11.971745
 20
-5.330968
 30
0.0
 11
-12.128553
 21
-5.319084
 31
0.0
  0
LINE
  8
0
 62
0
 10
-12.128553
 20
-5.319084
 30
0.0
 11
-12.28178
 21
-5.283705
 31
0.0
  0
LINE
  8
0
 62
0
 10
-12.28178
 20
-5.283705
 30
0.0
 11
-12.427924
 21
-5.225637
 31
0.0
  0
LINE
  8
0
 62
0
 10
-12.427924
 20
-5.225637
 30
0.0
 11
-12.563649
 21
-5.146207
 31
0.0
  0
LINE
  8
0
 62
0
 10
-12.563649
 20
-5.146207
 30
0.0
 11
-12.685852
 21
-5.047231
 31
0.0
  0
LINE
  8
0
 62
0
 10
-12.685852
 20
-5.047231
 30
0.0
 11
-12.791744
 21
-4.930968
 31
0.0
  0
LINE
  8
0
 62
0
 10
-10.091085
 20
-5.991628
 30
0.0
 11
-10.207348
 21
-6.09752
 31
0.0
  0
LINE
  8
0
 62
0
 10
-10.207348
 20
-6.09752
 30
0.0
 11
-10.306324
 21
-6.219724
 31
0.0
  0
LINE
  8
0
 62
0
 10
-10.306324
 20
-6.219724
 30
0.0
 11
-10.385754
 21
-6.355448
 31
0.0
  0
LINE
  8
0
 62
0
 10
-10.385754
 20
-6.355448
 30
0.0
 11
-10.443821
 21
-6.501593
 31
0.0
  0
LINE
  8
0
 62
0
 10
-10.443821
 20
-6.501593
 30
0.0
 11
-10.479201
 21
-6.654819
 31
0.0
  0
LINE
  8
0
 62
0
 10
-10.479201
 20
-6.654819
 30
0.0
 11
-10.491085
 21
-6.811628
 31
0.0
  0
LINE
  8
0
 62
0
 10
-10.491085
 20
-6.811628
 30
0.0
 11
-10.479201
 21
-6.968436
 31
0.0
  0
LINE
  8
0
 62
0
 10
-10.479201
 20
-6.968436
 30
0.0
 11
-10.443821
 21
-7.121663
 31
0.0
  0
LINE
  8
0
 62
0
 10
-10.443821
 20
-7.121663
 30
0.0
 11
-10.385754
 21
-7.267807
 31
0.0
  0
LINE
  8
0
 62
0
 10
-10.385754
 20
-7.267807
 30
0.0
 11
-10.306324
 21
-7.403532
 31
0.0
  0
LINE
  8
0
 62
0
 10
-10.306324
 20
-7.403532
 30
0.0
 11
-10.207348
 21
-7.525735
 31
0.0
  0
LINE
  8
0
 62
0
 10
-10.207348
 20
-7.525735
 30
0.0
 11
-10.091085
 21
-7.631627
 31
0.0
  0
ENDSEC
  0
EOF
