solid OpenSCAD_Model
  facet normal 0 1 0
    outer loop
      vertex 22 45.5 13.5
      vertex 18.6 45.5 3.5
      vertex 18.6 45.5 13.5
    endloop
  endfacet
  facet normal 0 1 0
    outer loop
      vertex 18.6 45.5 3.5
      vertex 22 45.5 0
      vertex 3.4 45.5 3.5
    endloop
  endfacet
  facet normal 0 1 -0
    outer loop
      vertex 22 45.5 0
      vertex 18.6 45.5 3.5
      vertex 22 45.5 13.5
    endloop
  endfacet
  facet normal 0 1 -0
    outer loop
      vertex 3.4 45.5 3.5
      vertex 0 45.5 13.5
      vertex 3.4 45.5 13.5
    endloop
  endfacet
  facet normal 0 1 0
    outer loop
      vertex 3.4 45.5 3.5
      vertex 0 45.5 0
      vertex 0 45.5 13.5
    endloop
  endfacet
  facet normal 0 1 0
    outer loop
      vertex 0 45.5 0
      vertex 3.4 45.5 3.5
      vertex 22 45.5 0
    endloop
  endfacet
  facet normal 0 0 -1
    outer loop
      vertex 12.3617 34.3492 0
      vertex 22 45.5 0
      vertex 22 0 0
    endloop
  endfacet
  facet normal 0 0 -1
    outer loop
      vertex 22 45.5 0
      vertex 12.465 34.6673 0
      vertex 12.5 35 0
    endloop
  endfacet
  facet normal 0 0 -1
    outer loop
      vertex 22 45.5 0
      vertex 12.3617 34.3492 0
      vertex 12.465 34.6673 0
    endloop
  endfacet
  facet normal 0 0 -1
    outer loop
      vertex 22 0 0
      vertex 12.1944 34.0595 0
      vertex 12.3617 34.3492 0
    endloop
  endfacet
  facet normal 0 0 -1
    outer loop
      vertex 22 0 0
      vertex 11.9706 33.811 0
      vertex 12.1944 34.0595 0
    endloop
  endfacet
  facet normal 0 0 -1
    outer loop
      vertex 22 0 0
      vertex 11.7 33.6144 0
      vertex 11.9706 33.811 0
    endloop
  endfacet
  facet normal 0 0 -1
    outer loop
      vertex 22 0 0
      vertex 11.3944 33.4783 0
      vertex 11.7 33.6144 0
    endloop
  endfacet
  facet normal 0 0 -1
    outer loop
      vertex 22 0 0
      vertex 11.0672 33.4088 0
      vertex 11.3944 33.4783 0
    endloop
  endfacet
  facet normal 0 0 -1
    outer loop
      vertex 22 0 0
      vertex 10.7328 33.4088 0
      vertex 11.0672 33.4088 0
    endloop
  endfacet
  facet normal 0 0 -1
    outer loop
      vertex 0 0 0
      vertex 10.7328 33.4088 0
      vertex 22 0 0
    endloop
  endfacet
  facet normal -0 0 -1
    outer loop
      vertex 10.7328 33.4088 0
      vertex 0 0 0
      vertex 10.4056 33.4783 0
    endloop
  endfacet
  facet normal -0 0 -1
    outer loop
      vertex 10.4056 33.4783 0
      vertex 0 0 0
      vertex 10.1 33.6144 0
    endloop
  endfacet
  facet normal -0 0 -1
    outer loop
      vertex 10.1 33.6144 0
      vertex 0 0 0
      vertex 9.82939 33.811 0
    endloop
  endfacet
  facet normal -0 0 -1
    outer loop
      vertex 9.82939 33.811 0
      vertex 0 0 0
      vertex 9.60557 34.0595 0
    endloop
  endfacet
  facet normal 0 0 -1
    outer loop
      vertex 9.43833 34.3492 0
      vertex 0 45.5 0
      vertex 9.33496 34.6673 0
    endloop
  endfacet
  facet normal 0 0 -1
    outer loop
      vertex 0 45.5 0
      vertex 9.43833 34.3492 0
      vertex 0 0 0
    endloop
  endfacet
  facet normal -0 0 -1
    outer loop
      vertex 9.60557 34.0595 0
      vertex 0 0 0
      vertex 9.43833 34.3492 0
    endloop
  endfacet
  facet normal 0 0 -1
    outer loop
      vertex 12.465 35.3327 0
      vertex 22 45.5 0
      vertex 12.5 35 0
    endloop
  endfacet
  facet normal 0 0 -1
    outer loop
      vertex 12.3617 35.6508 0
      vertex 22 45.5 0
      vertex 12.465 35.3327 0
    endloop
  endfacet
  facet normal 0 0 -1
    outer loop
      vertex 12.1944 35.9405 0
      vertex 22 45.5 0
      vertex 12.3617 35.6508 0
    endloop
  endfacet
  facet normal 0 0 -1
    outer loop
      vertex 11.9706 36.189 0
      vertex 22 45.5 0
      vertex 12.1944 35.9405 0
    endloop
  endfacet
  facet normal 0 0 -1
    outer loop
      vertex 11.7 36.3856 0
      vertex 22 45.5 0
      vertex 11.9706 36.189 0
    endloop
  endfacet
  facet normal 0 0 -1
    outer loop
      vertex 11.3944 36.5217 0
      vertex 22 45.5 0
      vertex 11.7 36.3856 0
    endloop
  endfacet
  facet normal 0 0 -1
    outer loop
      vertex 11.0672 36.5912 0
      vertex 22 45.5 0
      vertex 11.3944 36.5217 0
    endloop
  endfacet
  facet normal 0 0 -1
    outer loop
      vertex 10.7328 36.5912 0
      vertex 22 45.5 0
      vertex 11.0672 36.5912 0
    endloop
  endfacet
  facet normal 0 0 -1
    outer loop
      vertex 0 45.5 0
      vertex 10.7328 36.5912 0
      vertex 10.4056 36.5217 0
    endloop
  endfacet
  facet normal 0 0 -1
    outer loop
      vertex 0 45.5 0
      vertex 10.4056 36.5217 0
      vertex 10.1 36.3856 0
    endloop
  endfacet
  facet normal 0 0 -1
    outer loop
      vertex 0 45.5 0
      vertex 10.1 36.3856 0
      vertex 9.82939 36.189 0
    endloop
  endfacet
  facet normal 0 0 -1
    outer loop
      vertex 9.33496 34.6673 0
      vertex 0 45.5 0
      vertex 9.3 35 0
    endloop
  endfacet
  facet normal 0 0 -1
    outer loop
      vertex 10.7328 36.5912 0
      vertex 0 45.5 0
      vertex 22 45.5 0
    endloop
  endfacet
  facet normal 0 0 -1
    outer loop
      vertex 9.60557 35.9405 0
      vertex 0 45.5 0
      vertex 9.82939 36.189 0
    endloop
  endfacet
  facet normal 0 0 -1
    outer loop
      vertex 9.43833 35.6508 0
      vertex 0 45.5 0
      vertex 9.60557 35.9405 0
    endloop
  endfacet
  facet normal 0 0 -1
    outer loop
      vertex 9.33496 35.3327 0
      vertex 0 45.5 0
      vertex 9.43833 35.6508 0
    endloop
  endfacet
  facet normal 0 0 -1
    outer loop
      vertex 9.3 35 0
      vertex 0 45.5 0
      vertex 9.33496 35.3327 0
    endloop
  endfacet
  facet normal 1 0 0
    outer loop
      vertex 22 40.5 18.5
      vertex 22 45.5 0
      vertex 22 45.5 13.5
    endloop
  endfacet
  facet normal 1 0 0
    outer loop
      vertex 22 0 0
      vertex 22 40.5 18.5
      vertex 22 0 18.5
    endloop
  endfacet
  facet normal 1 0 0
    outer loop
      vertex 22 40.5 18.5
      vertex 22 0 0
      vertex 22 45.5 0
    endloop
  endfacet
  facet normal 0 0.707107 0.707107
    outer loop
      vertex 22 45.5 13.5
      vertex 18.6 40.5 18.5
      vertex 22 40.5 18.5
    endloop
  endfacet
  facet normal 0 0.707107 0.707107
    outer loop
      vertex 18.6 40.5 18.5
      vertex 22 45.5 13.5
      vertex 18.6 45.5 13.5
    endloop
  endfacet
  facet normal 0 0.707107 0.707107
    outer loop
      vertex 3.4 45.5 13.5
      vertex 0 40.5 18.5
      vertex 3.4 40.5 18.5
    endloop
  endfacet
  facet normal 0 0.707107 0.707107
    outer loop
      vertex 0 40.5 18.5
      vertex 3.4 45.5 13.5
      vertex 0 45.5 13.5
    endloop
  endfacet
  facet normal -1 0 0
    outer loop
      vertex 0 45.5 0
      vertex 0 40.5 18.5
      vertex 0 45.5 13.5
    endloop
  endfacet
  facet normal -1 0 0
    outer loop
      vertex 0 0 0
      vertex 0 40.5 18.5
      vertex 0 45.5 0
    endloop
  endfacet
  facet normal -1 -0 0
    outer loop
      vertex 0 40.5 18.5
      vertex 0 0 0
      vertex 0 0 18.5
    endloop
  endfacet
  facet normal 0 -1 0
    outer loop
      vertex 0 0 18.5
      vertex 10.7328 0 12.5912
      vertex 22 0 18.5
    endloop
  endfacet
  facet normal 0 -1 0
    outer loop
      vertex 0 0 18.5
      vertex 10.4056 0 12.5217
      vertex 10.7328 0 12.5912
    endloop
  endfacet
  facet normal 0 -1 0
    outer loop
      vertex 0 0 18.5
      vertex 10.1 0 12.3856
      vertex 10.4056 0 12.5217
    endloop
  endfacet
  facet normal 0 -1 0
    outer loop
      vertex 0 0 18.5
      vertex 9.82939 0 12.189
      vertex 10.1 0 12.3856
    endloop
  endfacet
  facet normal 0 -1 0
    outer loop
      vertex 0 0 18.5
      vertex 9.60557 0 11.9405
      vertex 9.82939 0 12.189
    endloop
  endfacet
  facet normal 0 -1 0
    outer loop
      vertex 0 0 18.5
      vertex 9.43833 0 11.6508
      vertex 9.60557 0 11.9405
    endloop
  endfacet
  facet normal 0 -1 0
    outer loop
      vertex 0 0 18.5
      vertex 9.33496 0 11.3327
      vertex 9.43833 0 11.6508
    endloop
  endfacet
  facet normal 0 -1 0
    outer loop
      vertex 0 0 18.5
      vertex 9.32861 0 11.2722
      vertex 9.33496 0 11.3327
    endloop
  endfacet
  facet normal 0 -1 0
    outer loop
      vertex 0 0 18.5
      vertex 9.3 0 11
      vertex 9.32861 0 11.2722
    endloop
  endfacet
  facet normal 0 -1 0
    outer loop
      vertex 0 0 18.5
      vertex 9.30636 0 10.9395
      vertex 9.3 0 11
    endloop
  endfacet
  facet normal 0 -1 0
    outer loop
      vertex 0 0 18.5
      vertex 9.33496 0 10.6673
      vertex 9.30636 0 10.9395
    endloop
  endfacet
  facet normal 0 -1 0
    outer loop
      vertex 0 0 0
      vertex 9.33496 0 10.6673
      vertex 0 0 18.5
    endloop
  endfacet
  facet normal 0 -1 -0
    outer loop
      vertex 9.33496 0 10.6673
      vertex 0 0 0
      vertex 9.43833 0 10.3492
    endloop
  endfacet
  facet normal 0 -1 -0
    outer loop
      vertex 9.43833 0 10.3492
      vertex 0 0 0
      vertex 9.60557 0 10.0595
    endloop
  endfacet
  facet normal 0 -1 -0
    outer loop
      vertex 10.7328 0 9.40876
      vertex 0 0 0
      vertex 11.0672 0 9.40876
    endloop
  endfacet
  facet normal 0 -1 -0
    outer loop
      vertex 10.4056 0 9.47831
      vertex 0 0 0
      vertex 10.7328 0 9.40876
    endloop
  endfacet
  facet normal 0 -1 -0
    outer loop
      vertex 10.1 0 9.61436
      vertex 0 0 0
      vertex 10.4056 0 9.47831
    endloop
  endfacet
  facet normal 0 -1 -0
    outer loop
      vertex 9.82939 0 9.81097
      vertex 0 0 0
      vertex 10.1 0 9.61436
    endloop
  endfacet
  facet normal 0 -1 -0
    outer loop
      vertex 9.60557 0 10.0595
      vertex 0 0 0
      vertex 9.82939 0 9.81097
    endloop
  endfacet
  facet normal 0 -1 0
    outer loop
      vertex 11.0672 0 12.5912
      vertex 22 0 18.5
      vertex 10.7328 0 12.5912
    endloop
  endfacet
  facet normal 0 -1 0
    outer loop
      vertex 11.3944 0 12.5217
      vertex 22 0 18.5
      vertex 11.0672 0 12.5912
    endloop
  endfacet
  facet normal 0 -1 0
    outer loop
      vertex 11.7 0 12.3856
      vertex 22 0 18.5
      vertex 11.3944 0 12.5217
    endloop
  endfacet
  facet normal 0 -1 0
    outer loop
      vertex 11.9706 0 12.189
      vertex 22 0 18.5
      vertex 11.7 0 12.3856
    endloop
  endfacet
  facet normal 0 -1 0
    outer loop
      vertex 12.1944 0 11.9405
      vertex 22 0 18.5
      vertex 11.9706 0 12.189
    endloop
  endfacet
  facet normal 0 -1 0
    outer loop
      vertex 12.3617 0 11.6508
      vertex 22 0 18.5
      vertex 12.1944 0 11.9405
    endloop
  endfacet
  facet normal 0 -1 0
    outer loop
      vertex 12.465 0 11.3327
      vertex 22 0 18.5
      vertex 12.3617 0 11.6508
    endloop
  endfacet
  facet normal 0 -1 0
    outer loop
      vertex 12.5 0 11
      vertex 22 0 18.5
      vertex 12.465 0 11.3327
    endloop
  endfacet
  facet normal 0 -1 0
    outer loop
      vertex 12.465 0 10.6673
      vertex 22 0 18.5
      vertex 12.5 0 11
    endloop
  endfacet
  facet normal 0 -1 0
    outer loop
      vertex 22 0 0
      vertex 12.465 0 10.6673
      vertex 12.3617 0 10.3492
    endloop
  endfacet
  facet normal 0 -1 0
    outer loop
      vertex 22 0 0
      vertex 12.3617 0 10.3492
      vertex 12.1944 0 10.0595
    endloop
  endfacet
  facet normal 0 -1 0
    outer loop
      vertex 22 0 0
      vertex 12.1944 0 10.0595
      vertex 11.9706 0 9.81097
    endloop
  endfacet
  facet normal 0 -1 0
    outer loop
      vertex 22 0 0
      vertex 11.0672 0 9.40876
      vertex 0 0 0
    endloop
  endfacet
  facet normal 0 -1 0
    outer loop
      vertex 11.0672 0 9.40876
      vertex 22 0 0
      vertex 11.3944 0 9.47831
    endloop
  endfacet
  facet normal 0 -1 0
    outer loop
      vertex 11.3944 0 9.47831
      vertex 22 0 0
      vertex 11.7 0 9.61436
    endloop
  endfacet
  facet normal 0 -1 0
    outer loop
      vertex 12.465 0 10.6673
      vertex 22 0 0
      vertex 22 0 18.5
    endloop
  endfacet
  facet normal 0 -1 0
    outer loop
      vertex 11.7 0 9.61436
      vertex 22 0 0
      vertex 11.9706 0 9.81097
    endloop
  endfacet
  facet normal -0 0 1
    outer loop
      vertex 0 40.5 18.5
      vertex 3.4 29.4 18.5
      vertex 3.4 40.5 18.5
    endloop
  endfacet
  facet normal 0 0 1
    outer loop
      vertex 3.4 29.4 18.5
      vertex 0 40.5 18.5
      vertex 3.4 18.7 18.5
    endloop
  endfacet
  facet normal 0 0 1
    outer loop
      vertex 0 0 18.5
      vertex 3.4 18.7 18.5
      vertex 0 40.5 18.5
    endloop
  endfacet
  facet normal -0 0 1
    outer loop
      vertex 3.4 29.4 18.5
      vertex 18.6 18.7 18.5
      vertex 18.6 29.4 18.5
    endloop
  endfacet
  facet normal 0 0 1
    outer loop
      vertex 18.6 18.7 18.5
      vertex 3.4 29.4 18.5
      vertex 3.4 18.7 18.5
    endloop
  endfacet
  facet normal 0 0 1
    outer loop
      vertex 18.6 29.4 18.5
      vertex 22 40.5 18.5
      vertex 18.6 40.5 18.5
    endloop
  endfacet
  facet normal 0 0 1
    outer loop
      vertex 18.6 18.7 18.5
      vertex 22 40.5 18.5
      vertex 18.6 29.4 18.5
    endloop
  endfacet
  facet normal 0 0 1
    outer loop
      vertex 22 40.5 18.5
      vertex 18.6 18.7 18.5
      vertex 22 0 18.5
    endloop
  endfacet
  facet normal -0 0 1
    outer loop
      vertex 18.6 3.5 18.5
      vertex 22 0 18.5
      vertex 18.6 18.7 18.5
    endloop
  endfacet
  facet normal -0 0 1
    outer loop
      vertex 3.4 3.5 18.5
      vertex 22 0 18.5
      vertex 18.6 3.5 18.5
    endloop
  endfacet
  facet normal 0 0 1
    outer loop
      vertex 3.4 3.5 18.5
      vertex 0 0 18.5
      vertex 22 0 18.5
    endloop
  endfacet
  facet normal 0 0 1
    outer loop
      vertex 3.4 18.7 18.5
      vertex 0 0 18.5
      vertex 3.4 3.5 18.5
    endloop
  endfacet
  facet normal 1 -0 0
    outer loop
      vertex 3.4 3.5 18.5
      vertex 3.4 18.7 3.5
      vertex 3.4 18.7 18.5
    endloop
  endfacet
  facet normal 1 0 0
    outer loop
      vertex 3.4 18.7 3.5
      vertex 3.4 3.5 18.5
      vertex 3.4 3.5 3.5
    endloop
  endfacet
  facet normal 1 0 0
    outer loop
      vertex 3.4 29.4 3.5
      vertex 3.4 45.5 13.5
      vertex 3.4 40.5 18.5
    endloop
  endfacet
  facet normal 1 0 0
    outer loop
      vertex 3.4 29.4 3.5
      vertex 3.4 40.5 18.5
      vertex 3.4 29.4 18.5
    endloop
  endfacet
  facet normal 1 0 0
    outer loop
      vertex 3.4 45.5 13.5
      vertex 3.4 29.4 3.5
      vertex 3.4 45.5 3.5
    endloop
  endfacet
  facet normal -1 0 0
    outer loop
      vertex 18.6 3.5 3.5
      vertex 18.6 18.7 18.5
      vertex 18.6 18.7 3.5
    endloop
  endfacet
  facet normal -1 -0 0
    outer loop
      vertex 18.6 18.7 18.5
      vertex 18.6 3.5 3.5
      vertex 18.6 3.5 18.5
    endloop
  endfacet
  facet normal -1 0 0
    outer loop
      vertex 18.6 29.4 3.5
      vertex 18.6 45.5 13.5
      vertex 18.6 45.5 3.5
    endloop
  endfacet
  facet normal -1 -0 0
    outer loop
      vertex 18.6 45.5 13.5
      vertex 18.6 29.4 3.5
      vertex 18.6 40.5 18.5
    endloop
  endfacet
  facet normal -1 -0 0
    outer loop
      vertex 18.6 40.5 18.5
      vertex 18.6 29.4 3.5
      vertex 18.6 29.4 18.5
    endloop
  endfacet
  facet normal -0 0 1
    outer loop
      vertex 12.465 35.3327 3.5
      vertex 18.6 29.4 3.5
      vertex 18.6 45.5 3.5
    endloop
  endfacet
  facet normal 0 0 1
    outer loop
      vertex 18.6 29.4 3.5
      vertex 12.465 35.3327 3.5
      vertex 12.5 35 3.5
    endloop
  endfacet
  facet normal 0 0 1
    outer loop
      vertex 18.6 45.5 3.5
      vertex 12.3617 35.6508 3.5
      vertex 12.465 35.3327 3.5
    endloop
  endfacet
  facet normal 0 0 1
    outer loop
      vertex 18.6 45.5 3.5
      vertex 12.1944 35.9405 3.5
      vertex 12.3617 35.6508 3.5
    endloop
  endfacet
  facet normal 0 0 1
    outer loop
      vertex 18.6 45.5 3.5
      vertex 11.9706 36.189 3.5
      vertex 12.1944 35.9405 3.5
    endloop
  endfacet
  facet normal 0 0 1
    outer loop
      vertex 18.6 45.5 3.5
      vertex 11.7 36.3856 3.5
      vertex 11.9706 36.189 3.5
    endloop
  endfacet
  facet normal 0 0 1
    outer loop
      vertex 18.6 45.5 3.5
      vertex 11.3944 36.5217 3.5
      vertex 11.7 36.3856 3.5
    endloop
  endfacet
  facet normal 0 0 1
    outer loop
      vertex 18.6 45.5 3.5
      vertex 11.0672 36.5912 3.5
      vertex 11.3944 36.5217 3.5
    endloop
  endfacet
  facet normal -0 0 1
    outer loop
      vertex 3.4 45.5 3.5
      vertex 11.0672 36.5912 3.5
      vertex 18.6 45.5 3.5
    endloop
  endfacet
  facet normal 0 0 1
    outer loop
      vertex 11.0672 36.5912 3.5
      vertex 3.4 45.5 3.5
      vertex 10.7328 36.5912 3.5
    endloop
  endfacet
  facet normal 0 0 1
    outer loop
      vertex 10.7328 36.5912 3.5
      vertex 3.4 45.5 3.5
      vertex 10.4056 36.5217 3.5
    endloop
  endfacet
  facet normal 0 0 1
    outer loop
      vertex 10.4056 36.5217 3.5
      vertex 3.4 45.5 3.5
      vertex 10.1 36.3856 3.5
    endloop
  endfacet
  facet normal 0 0 1
    outer loop
      vertex 3.4 29.4 3.5
      vertex 9.33496 35.3327 3.5
      vertex 3.4 45.5 3.5
    endloop
  endfacet
  facet normal 0 0 1
    outer loop
      vertex 9.43833 35.6508 3.5
      vertex 3.4 45.5 3.5
      vertex 9.33496 35.3327 3.5
    endloop
  endfacet
  facet normal 0 0 1
    outer loop
      vertex 9.60557 35.9405 3.5
      vertex 3.4 45.5 3.5
      vertex 9.43833 35.6508 3.5
    endloop
  endfacet
  facet normal 0 0 1
    outer loop
      vertex 9.82939 36.189 3.5
      vertex 3.4 45.5 3.5
      vertex 9.60557 35.9405 3.5
    endloop
  endfacet
  facet normal 0 0 1
    outer loop
      vertex 10.1 36.3856 3.5
      vertex 3.4 45.5 3.5
      vertex 9.82939 36.189 3.5
    endloop
  endfacet
  facet normal -0 0 1
    outer loop
      vertex 12.465 34.6673 3.5
      vertex 18.6 29.4 3.5
      vertex 12.5 35 3.5
    endloop
  endfacet
  facet normal -0 0 1
    outer loop
      vertex 12.3617 34.3492 3.5
      vertex 18.6 29.4 3.5
      vertex 12.465 34.6673 3.5
    endloop
  endfacet
  facet normal -0 0 1
    outer loop
      vertex 12.1944 34.0595 3.5
      vertex 18.6 29.4 3.5
      vertex 12.3617 34.3492 3.5
    endloop
  endfacet
  facet normal -0 0 1
    outer loop
      vertex 11.9706 33.811 3.5
      vertex 18.6 29.4 3.5
      vertex 12.1944 34.0595 3.5
    endloop
  endfacet
  facet normal -0 0 1
    outer loop
      vertex 11.7 33.6144 3.5
      vertex 18.6 29.4 3.5
      vertex 11.9706 33.811 3.5
    endloop
  endfacet
  facet normal -0 0 1
    outer loop
      vertex 11.3944 33.4783 3.5
      vertex 18.6 29.4 3.5
      vertex 11.7 33.6144 3.5
    endloop
  endfacet
  facet normal -0 0 1
    outer loop
      vertex 11.0672 33.4088 3.5
      vertex 18.6 29.4 3.5
      vertex 11.3944 33.4783 3.5
    endloop
  endfacet
  facet normal 0 0 1
    outer loop
      vertex 3.4 29.4 3.5
      vertex 11.0672 33.4088 3.5
      vertex 10.7328 33.4088 3.5
    endloop
  endfacet
  facet normal 0 0 1
    outer loop
      vertex 3.4 29.4 3.5
      vertex 10.7328 33.4088 3.5
      vertex 10.4056 33.4783 3.5
    endloop
  endfacet
  facet normal 0 0 1
    outer loop
      vertex 3.4 29.4 3.5
      vertex 10.4056 33.4783 3.5
      vertex 10.1 33.6144 3.5
    endloop
  endfacet
  facet normal 0 0 1
    outer loop
      vertex 9.33496 35.3327 3.5
      vertex 3.4 29.4 3.5
      vertex 9.3 35 3.5
    endloop
  endfacet
  facet normal 0 0 1
    outer loop
      vertex 9.3 35 3.5
      vertex 3.4 29.4 3.5
      vertex 9.33496 34.6673 3.5
    endloop
  endfacet
  facet normal 0 0 1
    outer loop
      vertex 11.0672 33.4088 3.5
      vertex 3.4 29.4 3.5
      vertex 18.6 29.4 3.5
    endloop
  endfacet
  facet normal 0 0 1
    outer loop
      vertex 9.82939 33.811 3.5
      vertex 3.4 29.4 3.5
      vertex 10.1 33.6144 3.5
    endloop
  endfacet
  facet normal 0 0 1
    outer loop
      vertex 9.60557 34.0595 3.5
      vertex 3.4 29.4 3.5
      vertex 9.82939 33.811 3.5
    endloop
  endfacet
  facet normal 0 0 1
    outer loop
      vertex 9.43833 34.3492 3.5
      vertex 3.4 29.4 3.5
      vertex 9.60557 34.0595 3.5
    endloop
  endfacet
  facet normal 0 0 1
    outer loop
      vertex 9.33496 34.6673 3.5
      vertex 3.4 29.4 3.5
      vertex 9.43833 34.3492 3.5
    endloop
  endfacet
  facet normal -0 0 1
    outer loop
      vertex 3.4 18.7 3.5
      vertex 18.6 3.5 3.5
      vertex 18.6 18.7 3.5
    endloop
  endfacet
  facet normal 0 0 1
    outer loop
      vertex 18.6 3.5 3.5
      vertex 3.4 18.7 3.5
      vertex 3.4 3.5 3.5
    endloop
  endfacet
  facet normal 0 1 0
    outer loop
      vertex 18.6 3.5 18.5
      vertex 11.0672 3.5 12.5912
      vertex 3.4 3.5 18.5
    endloop
  endfacet
  facet normal 0 1 0
    outer loop
      vertex 18.6 3.5 18.5
      vertex 11.3944 3.5 12.5217
      vertex 11.0672 3.5 12.5912
    endloop
  endfacet
  facet normal 0 1 0
    outer loop
      vertex 18.6 3.5 18.5
      vertex 11.7 3.5 12.3856
      vertex 11.3944 3.5 12.5217
    endloop
  endfacet
  facet normal 0 1 0
    outer loop
      vertex 18.6 3.5 18.5
      vertex 11.9706 3.5 12.189
      vertex 11.7 3.5 12.3856
    endloop
  endfacet
  facet normal 0 1 0
    outer loop
      vertex 18.6 3.5 18.5
      vertex 12.1944 3.5 11.9405
      vertex 11.9706 3.5 12.189
    endloop
  endfacet
  facet normal 0 1 0
    outer loop
      vertex 18.6 3.5 18.5
      vertex 12.3617 3.5 11.6508
      vertex 12.1944 3.5 11.9405
    endloop
  endfacet
  facet normal 0 1 0
    outer loop
      vertex 18.6 3.5 18.5
      vertex 12.465 3.5 11.3327
      vertex 12.3617 3.5 11.6508
    endloop
  endfacet
  facet normal 0 1 0
    outer loop
      vertex 18.6 3.5 18.5
      vertex 12.5 3.5 11
      vertex 12.465 3.5 11.3327
    endloop
  endfacet
  facet normal 0 1 -0
    outer loop
      vertex 18.6 3.5 3.5
      vertex 12.5 3.5 11
      vertex 18.6 3.5 18.5
    endloop
  endfacet
  facet normal 0 1 0
    outer loop
      vertex 12.5 3.5 11
      vertex 18.6 3.5 3.5
      vertex 12.465 3.5 10.6673
    endloop
  endfacet
  facet normal 0 1 0
    outer loop
      vertex 12.465 3.5 10.6673
      vertex 18.6 3.5 3.5
      vertex 12.3617 3.5 10.3492
    endloop
  endfacet
  facet normal 0 1 0
    outer loop
      vertex 3.4 3.5 3.5
      vertex 11.0672 3.5 9.40876
      vertex 18.6 3.5 3.5
    endloop
  endfacet
  facet normal 0 1 0
    outer loop
      vertex 11.3944 3.5 9.47831
      vertex 18.6 3.5 3.5
      vertex 11.0672 3.5 9.40876
    endloop
  endfacet
  facet normal 0 1 0
    outer loop
      vertex 11.7 3.5 9.61436
      vertex 18.6 3.5 3.5
      vertex 11.3944 3.5 9.47831
    endloop
  endfacet
  facet normal 0 1 0
    outer loop
      vertex 11.9706 3.5 9.81097
      vertex 18.6 3.5 3.5
      vertex 11.7 3.5 9.61436
    endloop
  endfacet
  facet normal 0 1 0
    outer loop
      vertex 12.1944 3.5 10.0595
      vertex 18.6 3.5 3.5
      vertex 11.9706 3.5 9.81097
    endloop
  endfacet
  facet normal 0 1 0
    outer loop
      vertex 12.3617 3.5 10.3492
      vertex 18.6 3.5 3.5
      vertex 12.1944 3.5 10.0595
    endloop
  endfacet
  facet normal 0 1 -0
    outer loop
      vertex 10.7328 3.5 12.5912
      vertex 3.4 3.5 18.5
      vertex 11.0672 3.5 12.5912
    endloop
  endfacet
  facet normal 0 1 -0
    outer loop
      vertex 10.4056 3.5 12.5217
      vertex 3.4 3.5 18.5
      vertex 10.7328 3.5 12.5912
    endloop
  endfacet
  facet normal 0 1 -0
    outer loop
      vertex 10.1 3.5 12.3856
      vertex 3.4 3.5 18.5
      vertex 10.4056 3.5 12.5217
    endloop
  endfacet
  facet normal 0 1 -0
    outer loop
      vertex 9.82939 3.5 12.189
      vertex 3.4 3.5 18.5
      vertex 10.1 3.5 12.3856
    endloop
  endfacet
  facet normal 0 1 -0
    outer loop
      vertex 9.60557 3.5 11.9405
      vertex 3.4 3.5 18.5
      vertex 9.82939 3.5 12.189
    endloop
  endfacet
  facet normal 0 1 -0
    outer loop
      vertex 9.43833 3.5 11.6508
      vertex 3.4 3.5 18.5
      vertex 9.60557 3.5 11.9405
    endloop
  endfacet
  facet normal 0 1 -0
    outer loop
      vertex 9.33496 3.5 11.3327
      vertex 3.4 3.5 18.5
      vertex 9.43833 3.5 11.6508
    endloop
  endfacet
  facet normal 0 1 -0
    outer loop
      vertex 9.30636 3.5 11.0605
      vertex 3.4 3.5 18.5
      vertex 9.33496 3.5 11.3327
    endloop
  endfacet
  facet normal 0 1 -0
    outer loop
      vertex 9.3 3.5 11
      vertex 3.4 3.5 18.5
      vertex 9.30636 3.5 11.0605
    endloop
  endfacet
  facet normal 0 1 0
    outer loop
      vertex 3.4 3.5 3.5
      vertex 9.3 3.5 11
      vertex 9.32861 3.5 10.7278
    endloop
  endfacet
  facet normal 0 1 0
    outer loop
      vertex 3.4 3.5 3.5
      vertex 9.32861 3.5 10.7278
      vertex 9.33496 3.5 10.6673
    endloop
  endfacet
  facet normal 0 1 0
    outer loop
      vertex 3.4 3.5 3.5
      vertex 9.33496 3.5 10.6673
      vertex 9.43833 3.5 10.3492
    endloop
  endfacet
  facet normal 0 1 0
    outer loop
      vertex 3.4 3.5 3.5
      vertex 9.43833 3.5 10.3492
      vertex 9.60557 3.5 10.0595
    endloop
  endfacet
  facet normal 0 1 0
    outer loop
      vertex 11.0672 3.5 9.40876
      vertex 3.4 3.5 3.5
      vertex 10.7328 3.5 9.40876
    endloop
  endfacet
  facet normal 0 1 0
    outer loop
      vertex 10.7328 3.5 9.40876
      vertex 3.4 3.5 3.5
      vertex 10.4056 3.5 9.47831
    endloop
  endfacet
  facet normal 0 1 0
    outer loop
      vertex 9.3 3.5 11
      vertex 3.4 3.5 3.5
      vertex 3.4 3.5 18.5
    endloop
  endfacet
  facet normal 0 1 0
    outer loop
      vertex 9.82939 3.5 9.81097
      vertex 3.4 3.5 3.5
      vertex 9.60557 3.5 10.0595
    endloop
  endfacet
  facet normal 0 1 0
    outer loop
      vertex 10.1 3.5 9.61436
      vertex 3.4 3.5 3.5
      vertex 9.82939 3.5 9.81097
    endloop
  endfacet
  facet normal 0 1 0
    outer loop
      vertex 10.4056 3.5 9.47831
      vertex 3.4 3.5 3.5
      vertex 10.1 3.5 9.61436
    endloop
  endfacet
  facet normal -0.866024 -0.500002 0
    outer loop
      vertex 12.3617 35.6508 0
      vertex 12.1944 35.9405 3.5
      vertex 12.1944 35.9405 0
    endloop
  endfacet
  facet normal -0.866024 -0.500002 0
    outer loop
      vertex 12.1944 35.9405 3.5
      vertex 12.3617 35.6508 0
      vertex 12.3617 35.6508 3.5
    endloop
  endfacet
  facet normal -0.743148 -0.669127 0
    outer loop
      vertex 12.1944 35.9405 0
      vertex 11.9706 36.189 3.5
      vertex 11.9706 36.189 0
    endloop
  endfacet
  facet normal -0.743148 -0.669127 0
    outer loop
      vertex 11.9706 36.189 3.5
      vertex 12.1944 35.9405 0
      vertex 12.1944 35.9405 3.5
    endloop
  endfacet
  facet normal -0.207905 -0.978149 0
    outer loop
      vertex 11.0672 36.5912 0
      vertex 11.3944 36.5217 3.5
      vertex 11.0672 36.5912 3.5
    endloop
  endfacet
  facet normal -0.207905 -0.978149 -0
    outer loop
      vertex 11.3944 36.5217 3.5
      vertex 11.0672 36.5912 0
      vertex 11.3944 36.5217 0
    endloop
  endfacet
  facet normal 0.587779 -0.809022 0
    outer loop
      vertex 9.82939 36.189 0
      vertex 10.1 36.3856 3.5
      vertex 9.82939 36.189 3.5
    endloop
  endfacet
  facet normal 0.587779 -0.809022 0
    outer loop
      vertex 10.1 36.3856 3.5
      vertex 9.82939 36.189 0
      vertex 10.1 36.3856 0
    endloop
  endfacet
  facet normal 0.951058 -0.309013 0
    outer loop
      vertex 9.33496 35.3327 3.5
      vertex 9.43833 35.6508 0
      vertex 9.43833 35.6508 3.5
    endloop
  endfacet
  facet normal 0.951058 -0.309013 0
    outer loop
      vertex 9.43833 35.6508 0
      vertex 9.33496 35.3327 3.5
      vertex 9.33496 35.3327 0
    endloop
  endfacet
  facet normal 0.743148 -0.669127 0
    outer loop
      vertex 9.60557 35.9405 3.5
      vertex 9.82939 36.189 0
      vertex 9.82939 36.189 3.5
    endloop
  endfacet
  facet normal 0.743148 -0.669127 0
    outer loop
      vertex 9.82939 36.189 0
      vertex 9.60557 35.9405 3.5
      vertex 9.60557 35.9405 0
    endloop
  endfacet
  facet normal -0.994522 0.104531 0
    outer loop
      vertex 12.465 34.6673 0
      vertex 12.5 35 3.5
      vertex 12.5 35 0
    endloop
  endfacet
  facet normal -0.994522 0.104531 0
    outer loop
      vertex 12.5 35 3.5
      vertex 12.465 34.6673 0
      vertex 12.465 34.6673 3.5
    endloop
  endfacet
  facet normal -0.40673 0.913548 0
    outer loop
      vertex 11.7 33.6144 0
      vertex 11.3944 33.4783 3.5
      vertex 11.7 33.6144 3.5
    endloop
  endfacet
  facet normal -0.40673 0.913548 0
    outer loop
      vertex 11.3944 33.4783 3.5
      vertex 11.7 33.6144 0
      vertex 11.3944 33.4783 0
    endloop
  endfacet
  facet normal -0.587779 -0.809022 0
    outer loop
      vertex 11.7 36.3856 0
      vertex 11.9706 36.189 3.5
      vertex 11.7 36.3856 3.5
    endloop
  endfacet
  facet normal -0.587779 -0.809022 -0
    outer loop
      vertex 11.9706 36.189 3.5
      vertex 11.7 36.3856 0
      vertex 11.9706 36.189 0
    endloop
  endfacet
  facet normal 0.207904 -0.978149 0
    outer loop
      vertex 10.4056 36.5217 0
      vertex 10.7328 36.5912 3.5
      vertex 10.4056 36.5217 3.5
    endloop
  endfacet
  facet normal 0.207904 -0.978149 0
    outer loop
      vertex 10.7328 36.5912 3.5
      vertex 10.4056 36.5217 0
      vertex 10.7328 36.5912 0
    endloop
  endfacet
  facet normal -0.406739 -0.913544 0
    outer loop
      vertex 11.3944 36.5217 0
      vertex 11.7 36.3856 3.5
      vertex 11.3944 36.5217 3.5
    endloop
  endfacet
  facet normal -0.406739 -0.913544 -0
    outer loop
      vertex 11.7 36.3856 3.5
      vertex 11.3944 36.5217 0
      vertex 11.7 36.3856 0
    endloop
  endfacet
  facet normal 0.994522 0.104531 0
    outer loop
      vertex 9.33496 34.6673 3.5
      vertex 9.3 35 0
      vertex 9.3 35 3.5
    endloop
  endfacet
  facet normal 0.994522 0.104531 0
    outer loop
      vertex 9.3 35 0
      vertex 9.33496 34.6673 3.5
      vertex 9.33496 34.6673 0
    endloop
  endfacet
  facet normal 0.866024 -0.500002 0
    outer loop
      vertex 9.43833 35.6508 3.5
      vertex 9.60557 35.9405 0
      vertex 9.60557 35.9405 3.5
    endloop
  endfacet
  facet normal 0.866024 -0.500002 0
    outer loop
      vertex 9.60557 35.9405 0
      vertex 9.43833 35.6508 3.5
      vertex 9.43833 35.6508 0
    endloop
  endfacet
  facet normal 0.40674 -0.913544 0
    outer loop
      vertex 10.1 36.3856 0
      vertex 10.4056 36.5217 3.5
      vertex 10.1 36.3856 3.5
    endloop
  endfacet
  facet normal 0.40674 -0.913544 0
    outer loop
      vertex 10.4056 36.5217 3.5
      vertex 10.1 36.3856 0
      vertex 10.4056 36.5217 0
    endloop
  endfacet
  facet normal -0.994522 -0.104531 0
    outer loop
      vertex 12.5 35 0
      vertex 12.465 35.3327 3.5
      vertex 12.465 35.3327 0
    endloop
  endfacet
  facet normal -0.994522 -0.104531 0
    outer loop
      vertex 12.465 35.3327 3.5
      vertex 12.5 35 0
      vertex 12.5 35 3.5
    endloop
  endfacet
  facet normal 0.951058 0.309013 0
    outer loop
      vertex 9.43833 34.3492 3.5
      vertex 9.33496 34.6673 0
      vertex 9.33496 34.6673 3.5
    endloop
  endfacet
  facet normal 0.951058 0.309013 0
    outer loop
      vertex 9.33496 34.6673 0
      vertex 9.43833 34.3492 3.5
      vertex 9.43833 34.3492 0
    endloop
  endfacet
  facet normal -0.743148 0.669127 0
    outer loop
      vertex 11.9706 33.811 0
      vertex 12.1944 34.0595 3.5
      vertex 12.1944 34.0595 0
    endloop
  endfacet
  facet normal -0.743148 0.669127 0
    outer loop
      vertex 12.1944 34.0595 3.5
      vertex 11.9706 33.811 0
      vertex 11.9706 33.811 3.5
    endloop
  endfacet
  facet normal -0.951058 -0.309013 0
    outer loop
      vertex 12.465 35.3327 0
      vertex 12.3617 35.6508 3.5
      vertex 12.3617 35.6508 0
    endloop
  endfacet
  facet normal -0.951058 -0.309013 0
    outer loop
      vertex 12.3617 35.6508 3.5
      vertex 12.465 35.3327 0
      vertex 12.465 35.3327 3.5
    endloop
  endfacet
  facet normal 0 -1 0
    outer loop
      vertex 10.7328 36.5912 0
      vertex 11.0672 36.5912 3.5
      vertex 10.7328 36.5912 3.5
    endloop
  endfacet
  facet normal 0 -1 -0
    outer loop
      vertex 11.0672 36.5912 3.5
      vertex 10.7328 36.5912 0
      vertex 11.0672 36.5912 0
    endloop
  endfacet
  facet normal 0.994522 -0.104531 0
    outer loop
      vertex 9.3 35 3.5
      vertex 9.33496 35.3327 0
      vertex 9.33496 35.3327 3.5
    endloop
  endfacet
  facet normal 0.994522 -0.104531 0
    outer loop
      vertex 9.33496 35.3327 0
      vertex 9.3 35 3.5
      vertex 9.3 35 0
    endloop
  endfacet
  facet normal -0.951058 0.309013 0
    outer loop
      vertex 12.3617 34.3492 0
      vertex 12.465 34.6673 3.5
      vertex 12.465 34.6673 0
    endloop
  endfacet
  facet normal -0.951058 0.309013 0
    outer loop
      vertex 12.465 34.6673 3.5
      vertex 12.3617 34.3492 0
      vertex 12.3617 34.3492 3.5
    endloop
  endfacet
  facet normal -0.587786 0.809016 0
    outer loop
      vertex 11.9706 33.811 0
      vertex 11.7 33.6144 3.5
      vertex 11.9706 33.811 3.5
    endloop
  endfacet
  facet normal -0.587786 0.809016 0
    outer loop
      vertex 11.7 33.6144 3.5
      vertex 11.9706 33.811 0
      vertex 11.7 33.6144 0
    endloop
  endfacet
  facet normal -0.866024 0.500002 0
    outer loop
      vertex 12.1944 34.0595 0
      vertex 12.3617 34.3492 3.5
      vertex 12.3617 34.3492 0
    endloop
  endfacet
  facet normal -0.866024 0.500002 0
    outer loop
      vertex 12.3617 34.3492 3.5
      vertex 12.1944 34.0595 0
      vertex 12.1944 34.0595 3.5
    endloop
  endfacet
  facet normal 0.743148 0.669127 0
    outer loop
      vertex 9.82939 33.811 3.5
      vertex 9.60557 34.0595 0
      vertex 9.60557 34.0595 3.5
    endloop
  endfacet
  facet normal 0.743148 0.669127 0
    outer loop
      vertex 9.60557 34.0595 0
      vertex 9.82939 33.811 3.5
      vertex 9.82939 33.811 0
    endloop
  endfacet
  facet normal 0.866024 0.500002 0
    outer loop
      vertex 9.60557 34.0595 3.5
      vertex 9.43833 34.3492 0
      vertex 9.43833 34.3492 3.5
    endloop
  endfacet
  facet normal 0.866024 0.500002 0
    outer loop
      vertex 9.43833 34.3492 0
      vertex 9.60557 34.0595 3.5
      vertex 9.60557 34.0595 0
    endloop
  endfacet
  facet normal 0.587786 0.809016 -0
    outer loop
      vertex 10.1 33.6144 0
      vertex 9.82939 33.811 3.5
      vertex 10.1 33.6144 3.5
    endloop
  endfacet
  facet normal 0.587786 0.809016 0
    outer loop
      vertex 9.82939 33.811 3.5
      vertex 10.1 33.6144 0
      vertex 9.82939 33.811 0
    endloop
  endfacet
  facet normal 0 1 -0
    outer loop
      vertex 11.0672 33.4088 0
      vertex 10.7328 33.4088 3.5
      vertex 11.0672 33.4088 3.5
    endloop
  endfacet
  facet normal 0 1 0
    outer loop
      vertex 10.7328 33.4088 3.5
      vertex 11.0672 33.4088 0
      vertex 10.7328 33.4088 0
    endloop
  endfacet
  facet normal -0.207915 0.978147 0
    outer loop
      vertex 11.3944 33.4783 0
      vertex 11.0672 33.4088 3.5
      vertex 11.3944 33.4783 3.5
    endloop
  endfacet
  facet normal -0.207915 0.978147 0
    outer loop
      vertex 11.0672 33.4088 3.5
      vertex 11.3944 33.4783 0
      vertex 11.0672 33.4088 0
    endloop
  endfacet
  facet normal 0.207915 0.978147 -0
    outer loop
      vertex 10.7328 33.4088 0
      vertex 10.4056 33.4783 3.5
      vertex 10.7328 33.4088 3.5
    endloop
  endfacet
  facet normal 0.207915 0.978147 0
    outer loop
      vertex 10.4056 33.4783 3.5
      vertex 10.7328 33.4088 0
      vertex 10.4056 33.4783 0
    endloop
  endfacet
  facet normal 0.406731 0.913548 -0
    outer loop
      vertex 10.4056 33.4783 0
      vertex 10.1 33.6144 3.5
      vertex 10.4056 33.4783 3.5
    endloop
  endfacet
  facet normal 0.406731 0.913548 0
    outer loop
      vertex 10.1 33.6144 3.5
      vertex 10.4056 33.4783 0
      vertex 10.1 33.6144 0
    endloop
  endfacet
  facet normal -0.994522 0 0.104531
    outer loop
      vertex 12.465 0 10.6673
      vertex 12.5 3.5 11
      vertex 12.465 3.5 10.6673
    endloop
  endfacet
  facet normal -0.994522 0 0.104531
    outer loop
      vertex 12.5 3.5 11
      vertex 12.465 0 10.6673
      vertex 12.5 0 11
    endloop
  endfacet
  facet normal -0.20791 0 0.978148
    outer loop
      vertex 11.0672 3.5 9.40876
      vertex 11.3944 0 9.47831
      vertex 11.3944 3.5 9.47831
    endloop
  endfacet
  facet normal -0.20791 0 0.978148
    outer loop
      vertex 11.3944 0 9.47831
      vertex 11.0672 3.5 9.40876
      vertex 11.0672 0 9.40876
    endloop
  endfacet
  facet normal -0 0 1
    outer loop
      vertex 10.7328 3.5 9.40876
      vertex 11.0672 0 9.40876
      vertex 11.0672 3.5 9.40876
    endloop
  endfacet
  facet normal 0 0 1
    outer loop
      vertex 11.0672 0 9.40876
      vertex 10.7328 3.5 9.40876
      vertex 10.7328 0 9.40876
    endloop
  endfacet
  facet normal -0.743145 0 -0.66913
    outer loop
      vertex 12.1944 0 11.9405
      vertex 11.9706 3.5 12.189
      vertex 12.1944 3.5 11.9405
    endloop
  endfacet
  facet normal -0.743145 -0 -0.66913
    outer loop
      vertex 11.9706 3.5 12.189
      vertex 12.1944 0 11.9405
      vertex 11.9706 0 12.189
    endloop
  endfacet
  facet normal -0.406737 0 -0.913545
    outer loop
      vertex 11.3944 0 12.5217
      vertex 11.7 3.5 12.3856
      vertex 11.7 0 12.3856
    endloop
  endfacet
  facet normal -0.406737 0 -0.913545
    outer loop
      vertex 11.7 3.5 12.3856
      vertex 11.3944 0 12.5217
      vertex 11.3944 3.5 12.5217
    endloop
  endfacet
  facet normal 0.207909 0 0.978148
    outer loop
      vertex 10.4056 3.5 9.47831
      vertex 10.7328 0 9.40876
      vertex 10.7328 3.5 9.40876
    endloop
  endfacet
  facet normal 0.207909 0 0.978148
    outer loop
      vertex 10.7328 0 9.40876
      vertex 10.4056 3.5 9.47831
      vertex 10.4056 0 9.47831
    endloop
  endfacet
  facet normal 0.587785 0 -0.809017
    outer loop
      vertex 9.82939 0 12.189
      vertex 10.1 3.5 12.3856
      vertex 10.1 0 12.3856
    endloop
  endfacet
  facet normal 0.587785 0 -0.809017
    outer loop
      vertex 10.1 3.5 12.3856
      vertex 9.82939 0 12.189
      vertex 9.82939 3.5 12.189
    endloop
  endfacet
  facet normal 0 0 -1
    outer loop
      vertex 10.7328 0 12.5912
      vertex 11.0672 3.5 12.5912
      vertex 11.0672 0 12.5912
    endloop
  endfacet
  facet normal -0 0 -1
    outer loop
      vertex 11.0672 3.5 12.5912
      vertex 10.7328 0 12.5912
      vertex 10.7328 3.5 12.5912
    endloop
  endfacet
  facet normal -0.587785 0 -0.809017
    outer loop
      vertex 11.7 0 12.3856
      vertex 11.9706 3.5 12.189
      vertex 11.9706 0 12.189
    endloop
  endfacet
  facet normal -0.587785 0 -0.809017
    outer loop
      vertex 11.9706 3.5 12.189
      vertex 11.7 0 12.3856
      vertex 11.7 3.5 12.3856
    endloop
  endfacet
  facet normal -0.20791 0 -0.978148
    outer loop
      vertex 11.0672 0 12.5912
      vertex 11.3944 3.5 12.5217
      vertex 11.3944 0 12.5217
    endloop
  endfacet
  facet normal -0.20791 0 -0.978148
    outer loop
      vertex 11.3944 3.5 12.5217
      vertex 11.0672 0 12.5912
      vertex 11.0672 3.5 12.5912
    endloop
  endfacet
  facet normal -0.951057 0 -0.309016
    outer loop
      vertex 12.465 0 11.3327
      vertex 12.3617 3.5 11.6508
      vertex 12.465 3.5 11.3327
    endloop
  endfacet
  facet normal -0.951057 -0 -0.309016
    outer loop
      vertex 12.3617 3.5 11.6508
      vertex 12.465 0 11.3327
      vertex 12.3617 0 11.6508
    endloop
  endfacet
  facet normal -0.951057 0 0.309016
    outer loop
      vertex 12.3617 0 10.3492
      vertex 12.465 3.5 10.6673
      vertex 12.3617 3.5 10.3492
    endloop
  endfacet
  facet normal -0.951057 0 0.309016
    outer loop
      vertex 12.465 3.5 10.6673
      vertex 12.3617 0 10.3492
      vertex 12.465 0 10.6673
    endloop
  endfacet
  facet normal 0.994522 1.26588e-08 -0.10453
    outer loop
      vertex 9.3 0 11
      vertex 9.30636 3.5 11.0605
      vertex 9.32861 0 11.2722
    endloop
  endfacet
  facet normal 0.994522 2.84825e-08 -0.104531
    outer loop
      vertex 9.30636 3.5 11.0605
      vertex 9.3 0 11
      vertex 9.3 3.5 11
    endloop
  endfacet
  facet normal 0.951057 0 -0.309016
    outer loop
      vertex 9.43833 0 11.6508
      vertex 9.33496 3.5 11.3327
      vertex 9.43833 3.5 11.6508
    endloop
  endfacet
  facet normal 0.951057 0 -0.309016
    outer loop
      vertex 9.33496 3.5 11.3327
      vertex 9.43833 0 11.6508
      vertex 9.33496 0 11.3327
    endloop
  endfacet
  facet normal -0.866026 0 -0.5
    outer loop
      vertex 12.3617 0 11.6508
      vertex 12.1944 3.5 11.9405
      vertex 12.3617 3.5 11.6508
    endloop
  endfacet
  facet normal -0.866026 -0 -0.5
    outer loop
      vertex 12.1944 3.5 11.9405
      vertex 12.3617 0 11.6508
      vertex 12.1944 0 11.9405
    endloop
  endfacet
  facet normal -0.994522 0 -0.104531
    outer loop
      vertex 12.5 0 11
      vertex 12.465 3.5 11.3327
      vertex 12.5 3.5 11
    endloop
  endfacet
  facet normal -0.994522 -0 -0.104531
    outer loop
      vertex 12.465 3.5 11.3327
      vertex 12.5 0 11
      vertex 12.465 0 11.3327
    endloop
  endfacet
  facet normal 0.866026 -0 0.5
    outer loop
      vertex 9.43833 0 10.3492
      vertex 9.60557 3.5 10.0595
      vertex 9.43833 3.5 10.3492
    endloop
  endfacet
  facet normal 0.866026 0 0.5
    outer loop
      vertex 9.60557 3.5 10.0595
      vertex 9.43833 0 10.3492
      vertex 9.60557 0 10.0595
    endloop
  endfacet
  facet normal 0.994522 -2.84825e-08 0.104531
    outer loop
      vertex 9.30636 0 10.9395
      vertex 9.3 3.5 11
      vertex 9.3 0 11
    endloop
  endfacet
  facet normal 0.994522 -1.26588e-08 0.10453
    outer loop
      vertex 9.3 3.5 11
      vertex 9.30636 0 10.9395
      vertex 9.32861 3.5 10.7278
    endloop
  endfacet
  facet normal -0.743145 0 0.66913
    outer loop
      vertex 11.9706 0 9.81097
      vertex 12.1944 3.5 10.0595
      vertex 11.9706 3.5 9.81097
    endloop
  endfacet
  facet normal -0.743145 0 0.66913
    outer loop
      vertex 12.1944 3.5 10.0595
      vertex 11.9706 0 9.81097
      vertex 12.1944 0 10.0595
    endloop
  endfacet
  facet normal -0.406737 0 0.913545
    outer loop
      vertex 11.3944 3.5 9.47831
      vertex 11.7 0 9.61436
      vertex 11.7 3.5 9.61436
    endloop
  endfacet
  facet normal -0.406737 0 0.913545
    outer loop
      vertex 11.7 0 9.61436
      vertex 11.3944 3.5 9.47831
      vertex 11.3944 0 9.47831
    endloop
  endfacet
  facet normal -0.866026 0 0.5
    outer loop
      vertex 12.1944 0 10.0595
      vertex 12.3617 3.5 10.3492
      vertex 12.1944 3.5 10.0595
    endloop
  endfacet
  facet normal -0.866026 0 0.5
    outer loop
      vertex 12.3617 3.5 10.3492
      vertex 12.1944 0 10.0595
      vertex 12.3617 0 10.3492
    endloop
  endfacet
  facet normal 0.207909 0 -0.978148
    outer loop
      vertex 10.4056 0 12.5217
      vertex 10.7328 3.5 12.5912
      vertex 10.7328 0 12.5912
    endloop
  endfacet
  facet normal 0.207909 0 -0.978148
    outer loop
      vertex 10.7328 3.5 12.5912
      vertex 10.4056 0 12.5217
      vertex 10.4056 3.5 12.5217
    endloop
  endfacet
  facet normal 0.866026 0 -0.5
    outer loop
      vertex 9.60557 0 11.9405
      vertex 9.43833 3.5 11.6508
      vertex 9.60557 3.5 11.9405
    endloop
  endfacet
  facet normal 0.866026 0 -0.5
    outer loop
      vertex 9.43833 3.5 11.6508
      vertex 9.60557 0 11.9405
      vertex 9.43833 0 11.6508
    endloop
  endfacet
  facet normal 0.994522 0 -0.104531
    outer loop
      vertex 9.32861 0 11.2722
      vertex 9.33496 3.5 11.3327
      vertex 9.33496 0 11.3327
    endloop
  endfacet
  facet normal 0.994522 -9.49413e-09 -0.104531
    outer loop
      vertex 9.33496 3.5 11.3327
      vertex 9.32861 0 11.2722
      vertex 9.30636 3.5 11.0605
    endloop
  endfacet
  facet normal 0.743145 -0 0.66913
    outer loop
      vertex 9.60557 0 10.0595
      vertex 9.82939 3.5 9.81097
      vertex 9.60557 3.5 10.0595
    endloop
  endfacet
  facet normal 0.743145 0 0.66913
    outer loop
      vertex 9.82939 3.5 9.81097
      vertex 9.60557 0 10.0595
      vertex 9.82939 0 9.81097
    endloop
  endfacet
  facet normal 0.951057 -0 0.309016
    outer loop
      vertex 9.33496 0 10.6673
      vertex 9.43833 3.5 10.3492
      vertex 9.33496 3.5 10.6673
    endloop
  endfacet
  facet normal 0.951057 0 0.309016
    outer loop
      vertex 9.43833 3.5 10.3492
      vertex 9.33496 0 10.6673
      vertex 9.43833 0 10.3492
    endloop
  endfacet
  facet normal -0.587785 0 0.809017
    outer loop
      vertex 11.7 3.5 9.61436
      vertex 11.9706 0 9.81097
      vertex 11.9706 3.5 9.81097
    endloop
  endfacet
  facet normal -0.587785 0 0.809017
    outer loop
      vertex 11.9706 0 9.81097
      vertex 11.7 3.5 9.61436
      vertex 11.7 0 9.61436
    endloop
  endfacet
  facet normal 0.406738 0 -0.913545
    outer loop
      vertex 10.1 0 12.3856
      vertex 10.4056 3.5 12.5217
      vertex 10.4056 0 12.5217
    endloop
  endfacet
  facet normal 0.406738 0 -0.913545
    outer loop
      vertex 10.4056 3.5 12.5217
      vertex 10.1 0 12.3856
      vertex 10.1 3.5 12.3856
    endloop
  endfacet
  facet normal 0.743145 0 -0.66913
    outer loop
      vertex 9.82939 0 12.189
      vertex 9.60557 3.5 11.9405
      vertex 9.82939 3.5 12.189
    endloop
  endfacet
  facet normal 0.743145 0 -0.66913
    outer loop
      vertex 9.60557 3.5 11.9405
      vertex 9.82939 0 12.189
      vertex 9.60557 0 11.9405
    endloop
  endfacet
  facet normal 0.587785 0 0.809017
    outer loop
      vertex 9.82939 3.5 9.81097
      vertex 10.1 0 9.61436
      vertex 10.1 3.5 9.61436
    endloop
  endfacet
  facet normal 0.587785 0 0.809017
    outer loop
      vertex 10.1 0 9.61436
      vertex 9.82939 3.5 9.81097
      vertex 9.82939 0 9.81097
    endloop
  endfacet
  facet normal 0.406738 0 0.913545
    outer loop
      vertex 10.1 3.5 9.61436
      vertex 10.4056 0 9.47831
      vertex 10.4056 3.5 9.47831
    endloop
  endfacet
  facet normal 0.406738 0 0.913545
    outer loop
      vertex 10.4056 0 9.47831
      vertex 10.1 3.5 9.61436
      vertex 10.1 0 9.61436
    endloop
  endfacet
  facet normal 0.994522 9.49413e-09 0.104531
    outer loop
      vertex 9.33496 0 10.6673
      vertex 9.32861 3.5 10.7278
      vertex 9.30636 0 10.9395
    endloop
  endfacet
  facet normal 0.994522 0 0.104531
    outer loop
      vertex 9.32861 3.5 10.7278
      vertex 9.33496 0 10.6673
      vertex 9.33496 3.5 10.6673
    endloop
  endfacet
  facet normal 0 1 -0
    outer loop
      vertex 18.6 29.4 3.5
      vertex 3.4 29.4 18.5
      vertex 18.6 29.4 18.5
    endloop
  endfacet
  facet normal 0 1 0
    outer loop
      vertex 3.4 29.4 18.5
      vertex 18.6 29.4 3.5
      vertex 3.4 29.4 3.5
    endloop
  endfacet
  facet normal 0 -1 0
    outer loop
      vertex 3.4 18.7 3.5
      vertex 18.6 18.7 18.5
      vertex 3.4 18.7 18.5
    endloop
  endfacet
  facet normal 0 -1 -0
    outer loop
      vertex 18.6 18.7 18.5
      vertex 3.4 18.7 3.5
      vertex 18.6 18.7 3.5
    endloop
  endfacet
endsolid OpenSCAD_Model
