solid OpenSCAD_Model
  facet normal 0 0 -1
    outer loop
      vertex -17.283 30.3582 0.008262
      vertex -28.7679 41.8 0.008262
      vertex 14 16 0.008262
    endloop
  endfacet
  facet normal 0 0 -1
    outer loop
      vertex 14 16 0.008262
      vertex -28.7679 41.8 0.008262
      vertex 14 41.8 0.008262
    endloop
  endfacet
  facet normal 0 0 -1
    outer loop
      vertex -28.7679 16 0.008262
      vertex -28.7679 41.8 0.008262
      vertex -20.8679 28.8733 0.008262
    endloop
  endfacet
  facet normal 0 0 -1
    outer loop
      vertex -28.7679 16 0.008262
      vertex -20.8679 28.8733 0.008262
      vertex -20.7964 28.3298 0.008262
    endloop
  endfacet
  facet normal 0 0 -1
    outer loop
      vertex -28.7679 16 0.008262
      vertex -20.7964 28.3298 0.008262
      vertex -20.5865 27.8233 0.008262
    endloop
  endfacet
  facet normal 0 0 -1
    outer loop
      vertex -28.7679 16 0.008262
      vertex -20.5865 27.8233 0.008262
      vertex -20.2528 27.3884 0.008262
    endloop
  endfacet
  facet normal 0 0 -1
    outer loop
      vertex -28.7679 16 0.008262
      vertex -20.2528 27.3884 0.008262
      vertex -19.8179 27.0547 0.008262
    endloop
  endfacet
  facet normal 0 0 -1
    outer loop
      vertex -28.7679 16 0.008262
      vertex -19.8179 27.0547 0.008262
      vertex -19.3114 26.8449 0.008262
    endloop
  endfacet
  facet normal 0 0 -1
    outer loop
      vertex -28.7679 16 0.008262
      vertex -19.3114 26.8449 0.008262
      vertex 14 16 0.008262
    endloop
  endfacet
  facet normal 0 0 -1
    outer loop
      vertex -18.2244 26.8449 0.008262
      vertex 14 16 0.008262
      vertex -18.7679 26.7733 0.008262
    endloop
  endfacet
  facet normal 0 0 -1
    outer loop
      vertex -17.7179 27.0547 0.008262
      vertex 14 16 0.008262
      vertex -18.2244 26.8449 0.008262
    endloop
  endfacet
  facet normal 0 0 -1
    outer loop
      vertex -17.283 27.3884 0.008262
      vertex 14 16 0.008262
      vertex -17.7179 27.0547 0.008262
    endloop
  endfacet
  facet normal 0 0 -1
    outer loop
      vertex -16.9492 27.8233 0.008262
      vertex 14 16 0.008262
      vertex -17.283 27.3884 0.008262
    endloop
  endfacet
  facet normal 0 0 -1
    outer loop
      vertex -17.7179 30.692 0.008262
      vertex -28.7679 41.8 0.008262
      vertex -17.283 30.3582 0.008262
    endloop
  endfacet
  facet normal 0 0 -1
    outer loop
      vertex -19.8179 30.692 0.008262
      vertex -28.7679 41.8 0.008262
      vertex -19.3114 30.9018 0.008262
    endloop
  endfacet
  facet normal 0 0 -1
    outer loop
      vertex -16.9492 27.8233 0.008262
      vertex -16.7395 28.3298 0.008262
      vertex 14 16 0.008262
    endloop
  endfacet
  facet normal 0 0 -1
    outer loop
      vertex -19.3114 30.9018 0.008262
      vertex -28.7679 41.8 0.008262
      vertex -18.7679 30.9733 0.008262
    endloop
  endfacet
  facet normal 0 0 -1
    outer loop
      vertex -16.7395 28.3298 0.008262
      vertex -16.6679 28.8733 0.008262
      vertex 14 16 0.008262
    endloop
  endfacet
  facet normal 0 0 -1
    outer loop
      vertex -18.7679 30.9733 0.008262
      vertex -28.7679 41.8 0.008262
      vertex -18.2244 30.9018 0.008262
    endloop
  endfacet
  facet normal 0 0 -1
    outer loop
      vertex -16.6679 28.8733 0.008262
      vertex -16.7395 29.4169 0.008262
      vertex 14 16 0.008262
    endloop
  endfacet
  facet normal 0 0 -1
    outer loop
      vertex -18.2244 30.9018 0.008262
      vertex -28.7679 41.8 0.008262
      vertex -17.7179 30.692 0.008262
    endloop
  endfacet
  facet normal 0 0 -1
    outer loop
      vertex -16.7395 29.4169 0.008262
      vertex -16.9492 29.9233 0.008262
      vertex 14 16 0.008262
    endloop
  endfacet
  facet normal 0 0 -1
    outer loop
      vertex -16.9492 29.9233 0.008262
      vertex -17.283 30.3582 0.008262
      vertex 14 16 0.008262
    endloop
  endfacet
  facet normal 0 0 -1
    outer loop
      vertex -20.2528 30.3582 0.008262
      vertex -28.7679 41.8 0.008262
      vertex -19.8179 30.692 0.008262
    endloop
  endfacet
  facet normal 0 0 -1
    outer loop
      vertex -20.5865 29.9233 0.008262
      vertex -28.7679 41.8 0.008262
      vertex -20.2528 30.3582 0.008262
    endloop
  endfacet
  facet normal 0 0 -1
    outer loop
      vertex -20.7964 29.4169 0.008262
      vertex -28.7679 41.8 0.008262
      vertex -20.5865 29.9233 0.008262
    endloop
  endfacet
  facet normal 0 0 -1
    outer loop
      vertex -20.8679 28.8733 0.008262
      vertex -28.7679 41.8 0.008262
      vertex -20.7964 29.4169 0.008262
    endloop
  endfacet
  facet normal 0 0 -1
    outer loop
      vertex -18.7679 26.7733 0.008262
      vertex 14 16 0.008262
      vertex -19.3114 26.8449 0.008262
    endloop
  endfacet
  facet normal -1 0 0
    outer loop
      vertex -28.7679 38.8733 3.00826
      vertex -28.7679 41.8 0.008262
      vertex -28.7679 18.8733 3.00826
    endloop
  endfacet
  facet normal -1 0 0
    outer loop
      vertex -28.7679 16 0.008262
      vertex -28.7679 16 23.0083
      vertex -28.7679 18.8733 3.00826
    endloop
  endfacet
  facet normal -1 0 0
    outer loop
      vertex -28.7679 16 0.008262
      vertex -28.7679 18.8733 3.00826
      vertex -28.7679 41.8 0.008262
    endloop
  endfacet
  facet normal -1 0 0
    outer loop
      vertex -28.7679 41.8 0.008262
      vertex -28.7679 38.8733 3.00826
      vertex -28.7679 38.8733 23.0083
    endloop
  endfacet
  facet normal -1 0 0
    outer loop
      vertex -28.7679 41.8 0.008262
      vertex -28.7679 38.8733 23.0083
      vertex -28.7679 41.8 23.0083
    endloop
  endfacet
  facet normal -1 0 0
    outer loop
      vertex -28.7679 18.8733 3.00826
      vertex -28.7679 16 23.0083
      vertex -28.7679 18.8733 23.0083
    endloop
  endfacet
  facet normal 0 -1 0
    outer loop
      vertex 14 16 0.008262
      vertex 14 16 23.0083
      vertex -28.7679 16 23.0083
    endloop
  endfacet
  facet normal 0 -1 0
    outer loop
      vertex -17.7179 16 14.8269
      vertex 14 16 0.008262
      vertex -28.7679 16 23.0083
    endloop
  endfacet
  facet normal 0 -1 0
    outer loop
      vertex -28.7679 16 0.008262
      vertex -20.8679 16 13.0083
      vertex -28.7679 16 23.0083
    endloop
  endfacet
  facet normal 0 -1 0
    outer loop
      vertex -20.8679 16 13.0083
      vertex -20.7964 16 13.5518
      vertex -28.7679 16 23.0083
    endloop
  endfacet
  facet normal 0 -1 0
    outer loop
      vertex -20.7964 16 13.5518
      vertex -20.5865 16 14.0583
      vertex -28.7679 16 23.0083
    endloop
  endfacet
  facet normal 0 -1 0
    outer loop
      vertex -20.5865 16 14.0583
      vertex -20.2528 16 14.4932
      vertex -28.7679 16 23.0083
    endloop
  endfacet
  facet normal 0 -1 0
    outer loop
      vertex -16.7395 16 12.4647
      vertex -16.9492 16 11.9583
      vertex 14 16 0.008262
    endloop
  endfacet
  facet normal 0 -1 0
    outer loop
      vertex -20.2528 16 14.4932
      vertex -19.8179 16 14.8269
      vertex -28.7679 16 23.0083
    endloop
  endfacet
  facet normal 0 -1 0
    outer loop
      vertex -19.8179 16 14.8269
      vertex -19.3114 16 15.0367
      vertex -28.7679 16 23.0083
    endloop
  endfacet
  facet normal 0 -1 0
    outer loop
      vertex -19.3114 16 15.0367
      vertex -18.7679 16 15.1083
      vertex -28.7679 16 23.0083
    endloop
  endfacet
  facet normal 0 -1 0
    outer loop
      vertex -18.7679 16 15.1083
      vertex -18.2244 16 15.0367
      vertex -28.7679 16 23.0083
    endloop
  endfacet
  facet normal 0 -1 0
    outer loop
      vertex -18.2244 16 15.0367
      vertex -17.7179 16 14.8269
      vertex -28.7679 16 23.0083
    endloop
  endfacet
  facet normal 0 -1 0
    outer loop
      vertex -17.283 16 14.4932
      vertex -16.9492 16 14.0583
      vertex 14 16 0.008262
    endloop
  endfacet
  facet normal 0 -1 0
    outer loop
      vertex -16.9492 16 14.0583
      vertex -16.7395 16 13.5518
      vertex 14 16 0.008262
    endloop
  endfacet
  facet normal 0 -1 0
    outer loop
      vertex -16.7395 16 13.5518
      vertex -16.6679 16 13.0083
      vertex 14 16 0.008262
    endloop
  endfacet
  facet normal 0 -1 0
    outer loop
      vertex -16.9492 16 11.9583
      vertex -17.283 16 11.5233
      vertex 14 16 0.008262
    endloop
  endfacet
  facet normal 0 -1 0
    outer loop
      vertex -28.7679 16 0.008262
      vertex 14 16 0.008262
      vertex -17.283 16 11.5233
    endloop
  endfacet
  facet normal 0 -1 0
    outer loop
      vertex -28.7679 16 0.008262
      vertex -17.283 16 11.5233
      vertex -17.7179 16 11.1896
    endloop
  endfacet
  facet normal 0 -1 0
    outer loop
      vertex -28.7679 16 0.008262
      vertex -17.7179 16 11.1896
      vertex -18.2244 16 10.9798
    endloop
  endfacet
  facet normal 0 -1 0
    outer loop
      vertex -28.7679 16 0.008262
      vertex -18.2244 16 10.9798
      vertex -18.7679 16 10.9083
    endloop
  endfacet
  facet normal 0 -1 0
    outer loop
      vertex -28.7679 16 0.008262
      vertex -18.7679 16 10.9083
      vertex -19.3114 16 10.9798
    endloop
  endfacet
  facet normal 0 -1 0
    outer loop
      vertex -28.7679 16 0.008262
      vertex -19.3114 16 10.9798
      vertex -19.8179 16 11.1896
    endloop
  endfacet
  facet normal 0 -1 0
    outer loop
      vertex -28.7679 16 0.008262
      vertex -19.8179 16 11.1896
      vertex -20.2528 16 11.5233
    endloop
  endfacet
  facet normal 0 -1 0
    outer loop
      vertex -28.7679 16 0.008262
      vertex -20.2528 16 11.5233
      vertex -20.5865 16 11.9583
    endloop
  endfacet
  facet normal 0 -1 0
    outer loop
      vertex -28.7679 16 0.008262
      vertex -20.7964 16 12.4647
      vertex -20.8679 16 13.0083
    endloop
  endfacet
  facet normal 0 -1 0
    outer loop
      vertex -28.7679 16 0.008262
      vertex -20.5865 16 11.9583
      vertex -20.7964 16 12.4647
    endloop
  endfacet
  facet normal 0 -1 0
    outer loop
      vertex -17.7179 16 14.8269
      vertex -17.283 16 14.4932
      vertex 14 16 0.008262
    endloop
  endfacet
  facet normal 0 -1 0
    outer loop
      vertex -16.6679 16 13.0083
      vertex -16.7395 16 12.4647
      vertex 14 16 0.008262
    endloop
  endfacet
  facet normal 1 0 0
    outer loop
      vertex 14 27.8233 14.8269
      vertex 14 41.8 23.0083
      vertex 14 16 23.0083
    endloop
  endfacet
  facet normal 1 0 0
    outer loop
      vertex 14 27.8233 14.8269
      vertex 14 28.3298 15.0367
      vertex 14 41.8 23.0083
    endloop
  endfacet
  facet normal 1 0 0
    outer loop
      vertex 14 16 0.008262
      vertex 14 26.7733 13.0083
      vertex 14 16 23.0083
    endloop
  endfacet
  facet normal 1 0 0
    outer loop
      vertex 14 26.8449 13.5518
      vertex 14 27.0547 14.0583
      vertex 14 16 23.0083
    endloop
  endfacet
  facet normal 1 0 0
    outer loop
      vertex 14 27.0547 14.0583
      vertex 14 27.3884 14.4932
      vertex 14 16 23.0083
    endloop
  endfacet
  facet normal 1 0 0
    outer loop
      vertex 14 27.3884 14.4932
      vertex 14 27.8233 14.8269
      vertex 14 16 23.0083
    endloop
  endfacet
  facet normal 1 0 0
    outer loop
      vertex 14 28.3298 15.0367
      vertex 14 28.8733 15.1083
      vertex 14 41.8 23.0083
    endloop
  endfacet
  facet normal 1 0 0
    outer loop
      vertex 14 28.8733 15.1083
      vertex 14 29.4169 15.0367
      vertex 14 41.8 23.0083
    endloop
  endfacet
  facet normal 1 0 0
    outer loop
      vertex 14 30.692 14.0583
      vertex 14 30.9018 13.5518
      vertex 14 41.8 0.008262
    endloop
  endfacet
  facet normal 1 0 0
    outer loop
      vertex 14 29.9233 14.8269
      vertex 14 41.8 23.0083
      vertex 14 29.4169 15.0367
    endloop
  endfacet
  facet normal 1 0 0
    outer loop
      vertex 14 30.3582 14.4932
      vertex 14 41.8 23.0083
      vertex 14 29.9233 14.8269
    endloop
  endfacet
  facet normal 1 0 0
    outer loop
      vertex 14 41.8 0.008262
      vertex 14 41.8 23.0083
      vertex 14 30.3582 14.4932
    endloop
  endfacet
  facet normal 1 0 0
    outer loop
      vertex 14 30.9018 13.5518
      vertex 14 30.9733 13.0083
      vertex 14 41.8 0.008262
    endloop
  endfacet
  facet normal 1 0 0
    outer loop
      vertex 14 41.8 0.008262
      vertex 14 30.3582 14.4932
      vertex 14 30.692 14.0583
    endloop
  endfacet
  facet normal 1 0 0
    outer loop
      vertex 14 29.9233 11.1896
      vertex 14 29.4169 10.9798
      vertex 14 41.8 0.008262
    endloop
  endfacet
  facet normal 1 0 0
    outer loop
      vertex 14 41.8 0.008262
      vertex 14 30.9733 13.0083
      vertex 14 30.9018 12.4647
    endloop
  endfacet
  facet normal 1 0 0
    outer loop
      vertex 14 41.8 0.008262
      vertex 14 30.9018 12.4647
      vertex 14 30.692 11.9583
    endloop
  endfacet
  facet normal 1 0 0
    outer loop
      vertex 14 41.8 0.008262
      vertex 14 30.692 11.9583
      vertex 14 30.3582 11.5233
    endloop
  endfacet
  facet normal 1 0 0
    outer loop
      vertex 14 29.4169 10.9798
      vertex 14 28.8733 10.9083
      vertex 14 41.8 0.008262
    endloop
  endfacet
  facet normal 1 0 0
    outer loop
      vertex 14 41.8 0.008262
      vertex 14 30.3582 11.5233
      vertex 14 29.9233 11.1896
    endloop
  endfacet
  facet normal 1 0 0
    outer loop
      vertex 14 16 0.008262
      vertex 14 41.8 0.008262
      vertex 14 28.8733 10.9083
    endloop
  endfacet
  facet normal 1 0 0
    outer loop
      vertex 14 16 0.008262
      vertex 14 28.8733 10.9083
      vertex 14 28.3298 10.9798
    endloop
  endfacet
  facet normal 1 0 0
    outer loop
      vertex 14 16 0.008262
      vertex 14 28.3298 10.9798
      vertex 14 27.8233 11.1896
    endloop
  endfacet
  facet normal 1 0 0
    outer loop
      vertex 14 16 0.008262
      vertex 14 27.8233 11.1896
      vertex 14 27.3884 11.5233
    endloop
  endfacet
  facet normal 1 0 0
    outer loop
      vertex 14 16 0.008262
      vertex 14 27.3884 11.5233
      vertex 14 27.0547 11.9583
    endloop
  endfacet
  facet normal 1 0 0
    outer loop
      vertex 14 16 0.008262
      vertex 14 26.8449 12.4647
      vertex 14 26.7733 13.0083
    endloop
  endfacet
  facet normal 1 0 0
    outer loop
      vertex 14 16 0.008262
      vertex 14 27.0547 11.9583
      vertex 14 26.8449 12.4647
    endloop
  endfacet
  facet normal 1 0 0
    outer loop
      vertex 14 26.7733 13.0083
      vertex 14 26.8449 13.5518
      vertex 14 16 23.0083
    endloop
  endfacet
  facet normal 0 1 0
    outer loop
      vertex -28.7679 41.8 0.008262
      vertex -28.7679 41.8 23.0083
      vertex 14 41.8 0.008262
    endloop
  endfacet
  facet normal 0 1 0
    outer loop
      vertex 14 41.8 0.008262
      vertex -28.7679 41.8 23.0083
      vertex 14 41.8 23.0083
    endloop
  endfacet
  facet normal 0.991443 -0.130538 0
    outer loop
      vertex -20.8679 28.8733 3.00826
      vertex -20.8679 28.8733 0.008262
      vertex -20.7964 29.4169 0.008262
    endloop
  endfacet
  facet normal 0.991443 -0.130538 0
    outer loop
      vertex -20.7964 29.4169 3.00826
      vertex -20.8679 28.8733 3.00826
      vertex -20.7964 29.4169 0.008262
    endloop
  endfacet
  facet normal 0.991443 0.130541 0
    outer loop
      vertex -20.7964 28.3298 0.008262
      vertex -20.8679 28.8733 0.008262
      vertex -20.8679 28.8733 3.00826
    endloop
  endfacet
  facet normal 0.991443 0.130541 0
    outer loop
      vertex -20.7964 28.3298 3.00826
      vertex -20.7964 28.3298 0.008262
      vertex -20.8679 28.8733 3.00826
    endloop
  endfacet
  facet normal 0.923866 -0.382717 0
    outer loop
      vertex -20.7964 29.4169 3.00826
      vertex -20.7964 29.4169 0.008262
      vertex -20.5865 29.9233 0.008262
    endloop
  endfacet
  facet normal 0.923866 -0.382717 0
    outer loop
      vertex -20.5865 29.9233 3.00826
      vertex -20.7964 29.4169 3.00826
      vertex -20.5865 29.9233 0.008262
    endloop
  endfacet
  facet normal 0.793368 -0.608742 0
    outer loop
      vertex -20.5865 29.9233 3.00826
      vertex -20.5865 29.9233 0.008262
      vertex -20.2528 30.3582 0.008262
    endloop
  endfacet
  facet normal 0.793368 -0.608742 0
    outer loop
      vertex -20.2528 30.3582 3.00826
      vertex -20.5865 29.9233 3.00826
      vertex -20.2528 30.3582 0.008262
    endloop
  endfacet
  facet normal 0.608764 -0.793352 0
    outer loop
      vertex -20.2528 30.3582 3.00826
      vertex -20.2528 30.3582 0.008262
      vertex -19.8179 30.692 0.008262
    endloop
  endfacet
  facet normal 0.608764 -0.793352 0
    outer loop
      vertex -19.8179 30.692 3.00826
      vertex -20.2528 30.3582 3.00826
      vertex -19.8179 30.692 0.008262
    endloop
  endfacet
  facet normal 0.382693 -0.923875 0
    outer loop
      vertex -19.8179 30.692 3.00826
      vertex -19.8179 30.692 0.008262
      vertex -19.3114 30.9018 0.008262
    endloop
  endfacet
  facet normal 0.382693 -0.923875 0
    outer loop
      vertex -19.3114 30.9018 3.00826
      vertex -19.8179 30.692 3.00826
      vertex -19.3114 30.9018 0.008262
    endloop
  endfacet
  facet normal 0.130515 -0.991446 0
    outer loop
      vertex -19.3114 30.9018 3.00826
      vertex -19.3114 30.9018 0.008262
      vertex -18.7679 30.9733 0.008262
    endloop
  endfacet
  facet normal 0.130515 -0.991446 0
    outer loop
      vertex -18.7679 30.9733 3.00826
      vertex -19.3114 30.9018 3.00826
      vertex -18.7679 30.9733 0.008262
    endloop
  endfacet
  facet normal -0.130515 -0.991446 0
    outer loop
      vertex -18.7679 30.9733 3.00826
      vertex -18.7679 30.9733 0.008262
      vertex -18.2244 30.9018 0.008262
    endloop
  endfacet
  facet normal -0.130515 -0.991446 0
    outer loop
      vertex -18.2244 30.9018 3.00826
      vertex -18.7679 30.9733 3.00826
      vertex -18.2244 30.9018 0.008262
    endloop
  endfacet
  facet normal -0.382674 -0.923884 0
    outer loop
      vertex -18.2244 30.9018 3.00826
      vertex -18.2244 30.9018 0.008262
      vertex -17.7179 30.692 0.008262
    endloop
  endfacet
  facet normal -0.382674 -0.923884 0
    outer loop
      vertex -17.7179 30.692 3.00826
      vertex -18.2244 30.9018 3.00826
      vertex -17.7179 30.692 0.008262
    endloop
  endfacet
  facet normal -0.60879 -0.793331 0
    outer loop
      vertex -17.7179 30.692 3.00826
      vertex -17.7179 30.692 0.008262
      vertex -17.283 30.3582 0.008262
    endloop
  endfacet
  facet normal -0.60879 -0.793331 0
    outer loop
      vertex -17.283 30.3582 3.00826
      vertex -17.7179 30.692 3.00826
      vertex -17.283 30.3582 0.008262
    endloop
  endfacet
  facet normal -0.793341 -0.608778 0
    outer loop
      vertex -17.283 30.3582 0.008262
      vertex -16.9492 29.9233 0.008262
      vertex -17.283 30.3582 3.00826
    endloop
  endfacet
  facet normal -0.793341 -0.608778 0
    outer loop
      vertex -17.283 30.3582 3.00826
      vertex -16.9492 29.9233 0.008262
      vertex -16.9492 29.9233 3.00826
    endloop
  endfacet
  facet normal -0.923885 -0.38267 0
    outer loop
      vertex -16.9492 29.9233 0.008262
      vertex -16.7395 29.4169 0.008262
      vertex -16.9492 29.9233 3.00826
    endloop
  endfacet
  facet normal -0.923885 -0.38267 0
    outer loop
      vertex -16.9492 29.9233 3.00826
      vertex -16.7395 29.4169 0.008262
      vertex -16.7395 29.4169 3.00826
    endloop
  endfacet
  facet normal -0.991444 -0.130536 0
    outer loop
      vertex -16.7395 29.4169 0.008262
      vertex -16.6679 28.8733 0.008262
      vertex -16.7395 29.4169 3.00826
    endloop
  endfacet
  facet normal -0.991444 -0.130536 0
    outer loop
      vertex -16.7395 29.4169 3.00826
      vertex -16.6679 28.8733 0.008262
      vertex -16.6679 28.8733 3.00826
    endloop
  endfacet
  facet normal -0.991443 0.130539 0
    outer loop
      vertex -16.7395 28.3298 0.008262
      vertex -16.7395 28.3298 3.00826
      vertex -16.6679 28.8733 0.008262
    endloop
  endfacet
  facet normal -0.991443 0.130539 0
    outer loop
      vertex -16.6679 28.8733 0.008262
      vertex -16.7395 28.3298 3.00826
      vertex -16.6679 28.8733 3.00826
    endloop
  endfacet
  facet normal -0.923885 0.38267 0
    outer loop
      vertex -16.9492 27.8233 0.008262
      vertex -16.9492 27.8233 3.00826
      vertex -16.7395 28.3298 0.008262
    endloop
  endfacet
  facet normal -0.923885 0.38267 0
    outer loop
      vertex -16.7395 28.3298 0.008262
      vertex -16.9492 27.8233 3.00826
      vertex -16.7395 28.3298 3.00826
    endloop
  endfacet
  facet normal -0.793351 0.608764 0
    outer loop
      vertex -17.283 27.3884 0.008262
      vertex -17.283 27.3884 3.00826
      vertex -16.9492 27.8233 0.008262
    endloop
  endfacet
  facet normal -0.793351 0.608764 0
    outer loop
      vertex -16.9492 27.8233 0.008262
      vertex -17.283 27.3884 3.00826
      vertex -16.9492 27.8233 3.00826
    endloop
  endfacet
  facet normal -0.608773 0.793345 0
    outer loop
      vertex -17.7179 27.0547 0.008262
      vertex -17.7179 27.0547 3.00826
      vertex -17.283 27.3884 0.008262
    endloop
  endfacet
  facet normal -0.608773 0.793345 0
    outer loop
      vertex -17.283 27.3884 0.008262
      vertex -17.7179 27.0547 3.00826
      vertex -17.283 27.3884 3.00826
    endloop
  endfacet
  facet normal -0.382674 0.923884 0
    outer loop
      vertex -18.2244 26.8449 0.008262
      vertex -18.2244 26.8449 3.00826
      vertex -17.7179 27.0547 0.008262
    endloop
  endfacet
  facet normal -0.382674 0.923884 0
    outer loop
      vertex -17.7179 27.0547 0.008262
      vertex -18.2244 26.8449 3.00826
      vertex -17.7179 27.0547 3.00826
    endloop
  endfacet
  facet normal -0.130513 0.991447 0
    outer loop
      vertex -18.7679 26.7733 0.008262
      vertex -18.7679 26.7733 3.00826
      vertex -18.2244 26.8449 0.008262
    endloop
  endfacet
  facet normal -0.130513 0.991447 0
    outer loop
      vertex -18.2244 26.8449 0.008262
      vertex -18.7679 26.7733 3.00826
      vertex -18.2244 26.8449 3.00826
    endloop
  endfacet
  facet normal 0.130513 0.991447 0
    outer loop
      vertex -19.3114 26.8449 0.008262
      vertex -19.3114 26.8449 3.00826
      vertex -18.7679 26.7733 0.008262
    endloop
  endfacet
  facet normal 0.130513 0.991447 0
    outer loop
      vertex -18.7679 26.7733 0.008262
      vertex -19.3114 26.8449 3.00826
      vertex -18.7679 26.7733 3.00826
    endloop
  endfacet
  facet normal 0.382693 0.923875 0
    outer loop
      vertex -19.8179 27.0547 0.008262
      vertex -19.8179 27.0547 3.00826
      vertex -19.3114 26.8449 0.008262
    endloop
  endfacet
  facet normal 0.382693 0.923875 0
    outer loop
      vertex -19.3114 26.8449 0.008262
      vertex -19.8179 27.0547 3.00826
      vertex -19.3114 26.8449 3.00826
    endloop
  endfacet
  facet normal 0.608746 0.793365 0
    outer loop
      vertex -20.2528 27.3884 0.008262
      vertex -20.2528 27.3884 3.00826
      vertex -19.8179 27.0547 0.008262
    endloop
  endfacet
  facet normal 0.608746 0.793365 0
    outer loop
      vertex -19.8179 27.0547 0.008262
      vertex -20.2528 27.3884 3.00826
      vertex -19.8179 27.0547 3.00826
    endloop
  endfacet
  facet normal 0.793379 0.608728 0
    outer loop
      vertex -20.2528 27.3884 0.008262
      vertex -20.5865 27.8233 0.008262
      vertex -20.5865 27.8233 3.00826
    endloop
  endfacet
  facet normal 0.793379 0.608728 0
    outer loop
      vertex -20.2528 27.3884 3.00826
      vertex -20.2528 27.3884 0.008262
      vertex -20.5865 27.8233 3.00826
    endloop
  endfacet
  facet normal 0.923866 0.382717 0
    outer loop
      vertex -20.5865 27.8233 0.008262
      vertex -20.7964 28.3298 0.008262
      vertex -20.7964 28.3298 3.00826
    endloop
  endfacet
  facet normal 0.923866 0.382717 0
    outer loop
      vertex -20.5865 27.8233 3.00826
      vertex -20.5865 27.8233 0.008262
      vertex -20.7964 28.3298 3.00826
    endloop
  endfacet
  facet normal 0 0 1
    outer loop
      vertex -28.7679 18.8733 23.0083
      vertex -28.7679 16 23.0083
      vertex 14 16 23.0083
    endloop
  endfacet
  facet normal 0 0 1
    outer loop
      vertex -1.76791 18.8733 23.0083
      vertex -28.7679 18.8733 23.0083
      vertex 14 16 23.0083
    endloop
  endfacet
  facet normal 0 0 1
    outer loop
      vertex -28.7679 41.8 23.0083
      vertex -28.7679 38.8733 23.0083
      vertex 14 41.8 23.0083
    endloop
  endfacet
  facet normal 0 0 1
    outer loop
      vertex -28.7679 38.8733 23.0083
      vertex -1.76791 38.8733 23.0083
      vertex 14 41.8 23.0083
    endloop
  endfacet
  facet normal 0 0 1
    outer loop
      vertex -1.76791 38.8733 23.0083
      vertex 4.23209 38.8733 23.0083
      vertex 14 41.8 23.0083
    endloop
  endfacet
  facet normal 0 0 1
    outer loop
      vertex -1.76791 38.8733 23.0083
      vertex -1.76782 36.3733 23.0083
      vertex 4.23209 38.8733 23.0083
    endloop
  endfacet
  facet normal 0 0 1
    outer loop
      vertex 14 41.8 23.0083
      vertex 11.2321 38.8733 23.0083
      vertex 14 16 23.0083
    endloop
  endfacet
  facet normal 0 0 1
    outer loop
      vertex 11.2321 38.8733 23.0083
      vertex 11.2321 18.8733 23.0083
      vertex 14 16 23.0083
    endloop
  endfacet
  facet normal 0 0 1
    outer loop
      vertex 11.2321 18.8733 23.0083
      vertex 4.23209 18.8733 23.0083
      vertex 14 16 23.0083
    endloop
  endfacet
  facet normal 0 0 1
    outer loop
      vertex 4.23209 18.8733 23.0083
      vertex -1.76791 18.8733 23.0083
      vertex 14 16 23.0083
    endloop
  endfacet
  facet normal 0 0 1
    outer loop
      vertex 4.23209 38.8733 23.0083
      vertex 11.2321 38.8733 23.0083
      vertex 14 41.8 23.0083
    endloop
  endfacet
  facet normal -1.58517e-05 -1 0
    outer loop
      vertex -28.7679 38.8733 23.0083
      vertex -28.7679 38.8733 3.00826
      vertex -1.76761 38.8729 3.0081
    endloop
  endfacet
  facet normal 0 -1 2.13998e-05
    outer loop
      vertex -1.76791 38.8733 23.0083
      vertex -28.7679 38.8733 23.0083
      vertex -1.76761 38.8729 3.0081
    endloop
  endfacet
  facet normal 6.03718e-06 1.35432e-05 1
    outer loop
      vertex -1.76761 38.8729 3.0081
      vertex -28.7679 38.8733 3.00826
      vertex -1.76828 21.3737 3.00834
    endloop
  endfacet
  facet normal -2.19981e-05 -2.97114e-05 1
    outer loop
      vertex -1.76828 21.3737 3.00834
      vertex -28.7679 38.8733 3.00826
      vertex -17.7179 30.692 3.00826
    endloop
  endfacet
  facet normal 0 0 1
    outer loop
      vertex -18.2244 26.8449 3.00826
      vertex -28.7679 18.8733 3.00826
      vertex -17.7179 27.0547 3.00826
    endloop
  endfacet
  facet normal 0 0 1
    outer loop
      vertex -18.7679 26.7733 3.00826
      vertex -28.7679 18.8733 3.00826
      vertex -18.2244 26.8449 3.00826
    endloop
  endfacet
  facet normal 0 0 1
    outer loop
      vertex -19.3114 26.8449 3.00826
      vertex -28.7679 18.8733 3.00826
      vertex -18.7679 26.7733 3.00826
    endloop
  endfacet
  facet normal 0 0 1
    outer loop
      vertex -19.8179 27.0547 3.00826
      vertex -28.7679 18.8733 3.00826
      vertex -19.3114 26.8449 3.00826
    endloop
  endfacet
  facet normal 0 0 1
    outer loop
      vertex -20.8679 28.8733 3.00826
      vertex -20.7964 29.4169 3.00826
      vertex -28.7679 38.8733 3.00826
    endloop
  endfacet
  facet normal 0 0 1
    outer loop
      vertex -20.2528 27.3884 3.00826
      vertex -28.7679 18.8733 3.00826
      vertex -19.8179 27.0547 3.00826
    endloop
  endfacet
  facet normal 0 0 1
    outer loop
      vertex -20.5865 27.8233 3.00826
      vertex -28.7679 18.8733 3.00826
      vertex -20.2528 27.3884 3.00826
    endloop
  endfacet
  facet normal 0 0 1
    outer loop
      vertex -28.7679 38.8733 3.00826
      vertex -28.7679 18.8733 3.00826
      vertex -20.5865 27.8233 3.00826
    endloop
  endfacet
  facet normal 0 0 1
    outer loop
      vertex -20.7964 29.4169 3.00826
      vertex -20.5865 29.9233 3.00826
      vertex -28.7679 38.8733 3.00826
    endloop
  endfacet
  facet normal 0 0 1
    outer loop
      vertex -20.5865 29.9233 3.00826
      vertex -20.2528 30.3582 3.00826
      vertex -28.7679 38.8733 3.00826
    endloop
  endfacet
  facet normal 0 0 1
    outer loop
      vertex -19.8179 30.692 3.00826
      vertex -28.7679 38.8733 3.00826
      vertex -20.2528 30.3582 3.00826
    endloop
  endfacet
  facet normal 0 0 1
    outer loop
      vertex -19.3114 30.9018 3.00826
      vertex -28.7679 38.8733 3.00826
      vertex -19.8179 30.692 3.00826
    endloop
  endfacet
  facet normal 0 0 1
    outer loop
      vertex -18.7679 30.9733 3.00826
      vertex -28.7679 38.8733 3.00826
      vertex -19.3114 30.9018 3.00826
    endloop
  endfacet
  facet normal 0 0 1
    outer loop
      vertex -18.2244 30.9018 3.00826
      vertex -28.7679 38.8733 3.00826
      vertex -18.7679 30.9733 3.00826
    endloop
  endfacet
  facet normal 0 0 1
    outer loop
      vertex -17.7179 30.692 3.00826
      vertex -28.7679 38.8733 3.00826
      vertex -18.2244 30.9018 3.00826
    endloop
  endfacet
  facet normal 0 0 1
    outer loop
      vertex -20.5865 27.8233 3.00826
      vertex -20.7964 28.3298 3.00826
      vertex -28.7679 38.8733 3.00826
    endloop
  endfacet
  facet normal 0 0 1
    outer loop
      vertex -20.7964 28.3298 3.00826
      vertex -20.8679 28.8733 3.00826
      vertex -28.7679 38.8733 3.00826
    endloop
  endfacet
  facet normal -3.13259e-06 4.23099e-06 1
    outer loop
      vertex -17.7179 27.0547 3.00826
      vertex -28.7679 18.8733 3.00826
      vertex -1.76828 21.3737 3.00834
    endloop
  endfacet
  facet normal 1.25998e-06 -4.32018e-05 1
    outer loop
      vertex -1.76828 21.3737 3.00834
      vertex -28.7679 18.8733 3.00826
      vertex -1.76822 18.8738 3.00823
    endloop
  endfacet
  facet normal -1.63705e-05 1 2.07222e-05
    outer loop
      vertex -1.76822 18.8738 3.00823
      vertex -28.7679 18.8733 3.00826
      vertex -18.7679 18.8733 10.9083
    endloop
  endfacet
  facet normal 0 1 0
    outer loop
      vertex -17.7179 18.8733 14.8269
      vertex -28.7679 18.8733 23.0083
      vertex -1.76791 18.8733 23.0083
    endloop
  endfacet
  facet normal 0 1 0
    outer loop
      vertex -18.2244 18.8733 15.0367
      vertex -28.7679 18.8733 23.0083
      vertex -17.7179 18.8733 14.8269
    endloop
  endfacet
  facet normal 0 1 0
    outer loop
      vertex -18.7679 18.8733 15.1083
      vertex -28.7679 18.8733 23.0083
      vertex -18.2244 18.8733 15.0367
    endloop
  endfacet
  facet normal 0 1 0
    outer loop
      vertex -19.3114 18.8733 15.0367
      vertex -28.7679 18.8733 23.0083
      vertex -18.7679 18.8733 15.1083
    endloop
  endfacet
  facet normal 0 1 0
    outer loop
      vertex -19.8179 18.8733 14.8269
      vertex -28.7679 18.8733 23.0083
      vertex -19.3114 18.8733 15.0367
    endloop
  endfacet
  facet normal 0 1 0
    outer loop
      vertex -20.2528 18.8733 14.4932
      vertex -28.7679 18.8733 23.0083
      vertex -19.8179 18.8733 14.8269
    endloop
  endfacet
  facet normal 0 1 0
    outer loop
      vertex -20.5865 18.8733 14.0583
      vertex -28.7679 18.8733 23.0083
      vertex -20.2528 18.8733 14.4932
    endloop
  endfacet
  facet normal 0 1 0
    outer loop
      vertex -20.7964 18.8733 13.5518
      vertex -28.7679 18.8733 23.0083
      vertex -20.5865 18.8733 14.0583
    endloop
  endfacet
  facet normal 0 1 0
    outer loop
      vertex -28.7679 18.8733 3.00826
      vertex -28.7679 18.8733 23.0083
      vertex -20.8679 18.8733 13.0083
    endloop
  endfacet
  facet normal 0 1 0
    outer loop
      vertex -28.7679 18.8733 3.00826
      vertex -20.8679 18.8733 13.0083
      vertex -20.7964 18.8733 12.4647
    endloop
  endfacet
  facet normal 0 1 0
    outer loop
      vertex -28.7679 18.8733 3.00826
      vertex -20.7964 18.8733 12.4647
      vertex -20.5865 18.8733 11.9583
    endloop
  endfacet
  facet normal 0 1 0
    outer loop
      vertex -28.7679 18.8733 3.00826
      vertex -20.5865 18.8733 11.9583
      vertex -20.2528 18.8733 11.5233
    endloop
  endfacet
  facet normal 0 1 0
    outer loop
      vertex -28.7679 18.8733 3.00826
      vertex -20.2528 18.8733 11.5233
      vertex -19.8179 18.8733 11.1896
    endloop
  endfacet
  facet normal 0 1 0
    outer loop
      vertex -28.7679 18.8733 3.00826
      vertex -19.8179 18.8733 11.1896
      vertex -19.3114 18.8733 10.9798
    endloop
  endfacet
  facet normal 0 1 0
    outer loop
      vertex -28.7679 18.8733 3.00826
      vertex -19.3114 18.8733 10.9798
      vertex -18.7679 18.8733 10.9083
    endloop
  endfacet
  facet normal 0 1 0
    outer loop
      vertex -20.8679 18.8733 13.0083
      vertex -28.7679 18.8733 23.0083
      vertex -20.7964 18.8733 13.5518
    endloop
  endfacet
  facet normal 0.991443 0 0.130541
    outer loop
      vertex -20.8679 18.8733 13.0083
      vertex -20.8679 16 13.0083
      vertex -20.7964 16 12.4647
    endloop
  endfacet
  facet normal 0.991443 0 0.130541
    outer loop
      vertex -20.7964 18.8733 12.4647
      vertex -20.8679 18.8733 13.0083
      vertex -20.7964 16 12.4647
    endloop
  endfacet
  facet normal 0.991443 0 -0.130541
    outer loop
      vertex -20.7964 16 13.5518
      vertex -20.8679 16 13.0083
      vertex -20.8679 18.8733 13.0083
    endloop
  endfacet
  facet normal 0.991443 0 -0.130541
    outer loop
      vertex -20.7964 18.8733 13.5518
      vertex -20.7964 16 13.5518
      vertex -20.8679 18.8733 13.0083
    endloop
  endfacet
  facet normal 0.923869 0 0.382709
    outer loop
      vertex -20.7964 18.8733 12.4647
      vertex -20.7964 16 12.4647
      vertex -20.5865 16 11.9583
    endloop
  endfacet
  facet normal 0.923869 0 0.382709
    outer loop
      vertex -20.5865 18.8733 11.9583
      vertex -20.7964 18.8733 12.4647
      vertex -20.5865 16 11.9583
    endloop
  endfacet
  facet normal 0.79337 0 0.60874
    outer loop
      vertex -20.5865 18.8733 11.9583
      vertex -20.5865 16 11.9583
      vertex -20.2528 16 11.5233
    endloop
  endfacet
  facet normal 0.79337 0 0.60874
    outer loop
      vertex -20.2528 18.8733 11.5233
      vertex -20.5865 18.8733 11.9583
      vertex -20.2528 16 11.5233
    endloop
  endfacet
  facet normal 0.608751 0 0.793361
    outer loop
      vertex -20.2528 18.8733 11.5233
      vertex -20.2528 16 11.5233
      vertex -19.8179 16 11.1896
    endloop
  endfacet
  facet normal 0.608751 0 0.793361
    outer loop
      vertex -19.8179 18.8733 11.1896
      vertex -20.2528 18.8733 11.5233
      vertex -19.8179 16 11.1896
    endloop
  endfacet
  facet normal 0.38269 0 0.923877
    outer loop
      vertex -19.8179 18.8733 11.1896
      vertex -19.8179 16 11.1896
      vertex -19.3114 16 10.9798
    endloop
  endfacet
  facet normal 0.38269 0 0.923877
    outer loop
      vertex -19.3114 18.8733 10.9798
      vertex -19.8179 18.8733 11.1896
      vertex -19.3114 16 10.9798
    endloop
  endfacet
  facet normal 0.130527 0 0.991445
    outer loop
      vertex -19.3114 18.8733 10.9798
      vertex -19.3114 16 10.9798
      vertex -18.7679 16 10.9083
    endloop
  endfacet
  facet normal 0.130527 0 0.991445
    outer loop
      vertex -18.7679 18.8733 10.9083
      vertex -19.3114 18.8733 10.9798
      vertex -18.7679 16 10.9083
    endloop
  endfacet
  facet normal -0.130527 0 0.991445
    outer loop
      vertex -18.7679 18.8733 10.9083
      vertex -18.7679 16 10.9083
      vertex -18.2244 16 10.9798
    endloop
  endfacet
  facet normal -0.130527 0 0.991445
    outer loop
      vertex -18.2244 18.8733 10.9798
      vertex -18.7679 18.8733 10.9083
      vertex -18.2244 16 10.9798
    endloop
  endfacet
  facet normal -0.382671 0 0.923885
    outer loop
      vertex -18.2244 18.8733 10.9798
      vertex -18.2244 16 10.9798
      vertex -17.7179 16 11.1896
    endloop
  endfacet
  facet normal -0.382671 0 0.923885
    outer loop
      vertex -17.7179 18.8733 11.1896
      vertex -18.2244 18.8733 10.9798
      vertex -17.7179 16 11.1896
    endloop
  endfacet
  facet normal -0.608777 0 0.793341
    outer loop
      vertex -17.7179 18.8733 11.1896
      vertex -17.7179 16 11.1896
      vertex -17.283 16 11.5233
    endloop
  endfacet
  facet normal -0.608777 0 0.793341
    outer loop
      vertex -17.283 18.8733 11.5233
      vertex -17.7179 18.8733 11.1896
      vertex -17.283 16 11.5233
    endloop
  endfacet
  facet normal -0.793343 0 0.608775
    outer loop
      vertex -17.283 16 11.5233
      vertex -16.9492 16 11.9583
      vertex -17.283 18.8733 11.5233
    endloop
  endfacet
  facet normal -0.793343 0 0.608775
    outer loop
      vertex -17.283 18.8733 11.5233
      vertex -16.9492 16 11.9583
      vertex -16.9492 18.8733 11.9583
    endloop
  endfacet
  facet normal -0.923888 0 0.382663
    outer loop
      vertex -16.9492 16 11.9583
      vertex -16.7395 16 12.4647
      vertex -16.9492 18.8733 11.9583
    endloop
  endfacet
  facet normal -0.923888 0 0.382663
    outer loop
      vertex -16.9492 18.8733 11.9583
      vertex -16.7395 16 12.4647
      vertex -16.7395 18.8733 12.4647
    endloop
  endfacet
  facet normal -0.991443 0 0.130539
    outer loop
      vertex -16.7395 16 12.4647
      vertex -16.6679 16 13.0083
      vertex -16.7395 18.8733 12.4647
    endloop
  endfacet
  facet normal -0.991443 0 0.130539
    outer loop
      vertex -16.7395 18.8733 12.4647
      vertex -16.6679 16 13.0083
      vertex -16.6679 18.8733 13.0083
    endloop
  endfacet
  facet normal -0.991443 0 -0.130539
    outer loop
      vertex -16.7395 16 13.5518
      vertex -16.7395 18.8733 13.5518
      vertex -16.6679 16 13.0083
    endloop
  endfacet
  facet normal -0.991443 0 -0.130539
    outer loop
      vertex -16.6679 16 13.0083
      vertex -16.7395 18.8733 13.5518
      vertex -16.6679 18.8733 13.0083
    endloop
  endfacet
  facet normal -0.923888 0 -0.382663
    outer loop
      vertex -16.9492 16 14.0583
      vertex -16.9492 18.8733 14.0583
      vertex -16.7395 16 13.5518
    endloop
  endfacet
  facet normal -0.923888 0 -0.382663
    outer loop
      vertex -16.7395 16 13.5518
      vertex -16.9492 18.8733 14.0583
      vertex -16.7395 18.8733 13.5518
    endloop
  endfacet
  facet normal -0.793343 0 -0.608775
    outer loop
      vertex -17.283 16 14.4932
      vertex -17.283 18.8733 14.4932
      vertex -16.9492 16 14.0583
    endloop
  endfacet
  facet normal -0.793343 0 -0.608775
    outer loop
      vertex -16.9492 16 14.0583
      vertex -17.283 18.8733 14.4932
      vertex -16.9492 18.8733 14.0583
    endloop
  endfacet
  facet normal -0.608777 0 -0.793341
    outer loop
      vertex -17.7179 16 14.8269
      vertex -17.7179 18.8733 14.8269
      vertex -17.283 16 14.4932
    endloop
  endfacet
  facet normal -0.608777 0 -0.793341
    outer loop
      vertex -17.283 16 14.4932
      vertex -17.7179 18.8733 14.8269
      vertex -17.283 18.8733 14.4932
    endloop
  endfacet
  facet normal -0.382671 0 -0.923885
    outer loop
      vertex -18.2244 16 15.0367
      vertex -18.2244 18.8733 15.0367
      vertex -17.7179 16 14.8269
    endloop
  endfacet
  facet normal -0.382671 0 -0.923885
    outer loop
      vertex -17.7179 16 14.8269
      vertex -18.2244 18.8733 15.0367
      vertex -17.7179 18.8733 14.8269
    endloop
  endfacet
  facet normal -0.130525 0 -0.991445
    outer loop
      vertex -18.7679 16 15.1083
      vertex -18.7679 18.8733 15.1083
      vertex -18.2244 16 15.0367
    endloop
  endfacet
  facet normal -0.130525 0 -0.991445
    outer loop
      vertex -18.2244 16 15.0367
      vertex -18.7679 18.8733 15.1083
      vertex -18.2244 18.8733 15.0367
    endloop
  endfacet
  facet normal 0.130525 0 -0.991445
    outer loop
      vertex -19.3114 16 15.0367
      vertex -19.3114 18.8733 15.0367
      vertex -18.7679 16 15.1083
    endloop
  endfacet
  facet normal 0.130525 0 -0.991445
    outer loop
      vertex -18.7679 16 15.1083
      vertex -19.3114 18.8733 15.0367
      vertex -18.7679 18.8733 15.1083
    endloop
  endfacet
  facet normal 0.38269 0 -0.923877
    outer loop
      vertex -19.8179 16 14.8269
      vertex -19.8179 18.8733 14.8269
      vertex -19.3114 16 15.0367
    endloop
  endfacet
  facet normal 0.38269 0 -0.923877
    outer loop
      vertex -19.3114 16 15.0367
      vertex -19.8179 18.8733 14.8269
      vertex -19.3114 18.8733 15.0367
    endloop
  endfacet
  facet normal 0.608751 0 -0.793361
    outer loop
      vertex -20.2528 16 14.4932
      vertex -20.2528 18.8733 14.4932
      vertex -19.8179 16 14.8269
    endloop
  endfacet
  facet normal 0.608751 0 -0.793361
    outer loop
      vertex -19.8179 16 14.8269
      vertex -20.2528 18.8733 14.4932
      vertex -19.8179 18.8733 14.8269
    endloop
  endfacet
  facet normal 0.79337 0 -0.60874
    outer loop
      vertex -20.2528 16 14.4932
      vertex -20.5865 16 14.0583
      vertex -20.5865 18.8733 14.0583
    endloop
  endfacet
  facet normal 0.79337 0 -0.60874
    outer loop
      vertex -20.2528 18.8733 14.4932
      vertex -20.2528 16 14.4932
      vertex -20.5865 18.8733 14.0583
    endloop
  endfacet
  facet normal 0.923868 0 -0.38271
    outer loop
      vertex -20.5865 16 14.0583
      vertex -20.7964 16 13.5518
      vertex -20.7964 18.8733 13.5518
    endloop
  endfacet
  facet normal 0.923868 0 -0.38271
    outer loop
      vertex -20.5865 18.8733 14.0583
      vertex -20.5865 16 14.0583
      vertex -20.7964 18.8733 13.5518
    endloop
  endfacet
  facet normal 0 0.991447 0.130512
    outer loop
      vertex 11.2321 26.7733 13.0083
      vertex 14 26.7733 13.0083
      vertex 11.2321 26.8449 12.4647
    endloop
  endfacet
  facet normal 0 0.991447 0.130512
    outer loop
      vertex 11.2321 26.8449 12.4647
      vertex 14 26.7733 13.0083
      vertex 14 26.8449 12.4647
    endloop
  endfacet
  facet normal 0 0.991447 -0.130512
    outer loop
      vertex 11.2321 26.7733 13.0083
      vertex 11.2321 26.8449 13.5518
      vertex 14 26.7733 13.0083
    endloop
  endfacet
  facet normal 0 0.991447 -0.130512
    outer loop
      vertex 14 26.7733 13.0083
      vertex 11.2321 26.8449 13.5518
      vertex 14 26.8449 13.5518
    endloop
  endfacet
  facet normal 0 0.923878 0.382686
    outer loop
      vertex 11.2321 26.8449 12.4647
      vertex 14 26.8449 12.4647
      vertex 11.2321 27.0547 11.9583
    endloop
  endfacet
  facet normal 0 0.923878 0.382686
    outer loop
      vertex 11.2321 27.0547 11.9583
      vertex 14 26.8449 12.4647
      vertex 14 27.0547 11.9583
    endloop
  endfacet
  facet normal 0 0.793357 0.608757
    outer loop
      vertex 11.2321 27.0547 11.9583
      vertex 14 27.0547 11.9583
      vertex 11.2321 27.3884 11.5233
    endloop
  endfacet
  facet normal 0 0.793357 0.608757
    outer loop
      vertex 11.2321 27.3884 11.5233
      vertex 14 27.0547 11.9583
      vertex 14 27.3884 11.5233
    endloop
  endfacet
  facet normal 0 0.60875 0.793362
    outer loop
      vertex 11.2321 27.8233 11.1896
      vertex 11.2321 27.3884 11.5233
      vertex 14 27.3884 11.5233
    endloop
  endfacet
  facet normal 0 0.60875 0.793362
    outer loop
      vertex 14 27.8233 11.1896
      vertex 11.2321 27.8233 11.1896
      vertex 14 27.3884 11.5233
    endloop
  endfacet
  facet normal 0 0.382691 0.923877
    outer loop
      vertex 11.2321 28.3298 10.9798
      vertex 11.2321 27.8233 11.1896
      vertex 14 27.8233 11.1896
    endloop
  endfacet
  facet normal 0 0.382691 0.923877
    outer loop
      vertex 14 28.3298 10.9798
      vertex 11.2321 28.3298 10.9798
      vertex 14 27.8233 11.1896
    endloop
  endfacet
  facet normal 0 0.130527 0.991445
    outer loop
      vertex 11.2321 28.8733 10.9083
      vertex 11.2321 28.3298 10.9798
      vertex 14 28.3298 10.9798
    endloop
  endfacet
  facet normal 0 0.130527 0.991445
    outer loop
      vertex 14 28.8733 10.9083
      vertex 11.2321 28.8733 10.9083
      vertex 14 28.3298 10.9798
    endloop
  endfacet
  facet normal 0 -0.130524 0.991445
    outer loop
      vertex 11.2321 29.4169 10.9798
      vertex 11.2321 28.8733 10.9083
      vertex 14 28.8733 10.9083
    endloop
  endfacet
  facet normal 0 -0.130524 0.991445
    outer loop
      vertex 14 29.4169 10.9798
      vertex 11.2321 29.4169 10.9798
      vertex 14 28.8733 10.9083
    endloop
  endfacet
  facet normal 0 -0.38269 0.923877
    outer loop
      vertex 11.2321 29.9233 11.1896
      vertex 11.2321 29.4169 10.9798
      vertex 14 29.4169 10.9798
    endloop
  endfacet
  facet normal 0 -0.38269 0.923877
    outer loop
      vertex 14 29.9233 11.1896
      vertex 11.2321 29.9233 11.1896
      vertex 14 29.4169 10.9798
    endloop
  endfacet
  facet normal 0 -0.608764 0.793351
    outer loop
      vertex 11.2321 30.3582 11.5233
      vertex 11.2321 29.9233 11.1896
      vertex 14 29.9233 11.1896
    endloop
  endfacet
  facet normal 0 -0.608764 0.793351
    outer loop
      vertex 14 30.3582 11.5233
      vertex 11.2321 30.3582 11.5233
      vertex 14 29.9233 11.1896
    endloop
  endfacet
  facet normal 0 -0.793344 0.608774
    outer loop
      vertex 11.2321 30.692 11.9583
      vertex 11.2321 30.3582 11.5233
      vertex 14 30.3582 11.5233
    endloop
  endfacet
  facet normal 0 -0.793344 0.608774
    outer loop
      vertex 14 30.692 11.9583
      vertex 11.2321 30.692 11.9583
      vertex 14 30.3582 11.5233
    endloop
  endfacet
  facet normal 0 -0.923878 0.382686
    outer loop
      vertex 11.2321 30.9018 12.4647
      vertex 11.2321 30.692 11.9583
      vertex 14 30.692 11.9583
    endloop
  endfacet
  facet normal 0 -0.923878 0.382686
    outer loop
      vertex 14 30.9018 12.4647
      vertex 11.2321 30.9018 12.4647
      vertex 14 30.692 11.9583
    endloop
  endfacet
  facet normal 0 -0.991446 0.130514
    outer loop
      vertex 11.2321 30.9733 13.0083
      vertex 11.2321 30.9018 12.4647
      vertex 14 30.9018 12.4647
    endloop
  endfacet
  facet normal 0 -0.991446 0.130514
    outer loop
      vertex 14 30.9733 13.0083
      vertex 11.2321 30.9733 13.0083
      vertex 14 30.9018 12.4647
    endloop
  endfacet
  facet normal 0 -0.991446 -0.130514
    outer loop
      vertex 14 30.9018 13.5518
      vertex 11.2321 30.9018 13.5518
      vertex 11.2321 30.9733 13.0083
    endloop
  endfacet
  facet normal 0 -0.991446 -0.130514
    outer loop
      vertex 14 30.9733 13.0083
      vertex 14 30.9018 13.5518
      vertex 11.2321 30.9733 13.0083
    endloop
  endfacet
  facet normal 0 -0.923878 -0.382687
    outer loop
      vertex 14 30.692 14.0583
      vertex 11.2321 30.692 14.0583
      vertex 11.2321 30.9018 13.5518
    endloop
  endfacet
  facet normal 0 -0.923878 -0.382687
    outer loop
      vertex 14 30.9018 13.5518
      vertex 14 30.692 14.0583
      vertex 11.2321 30.9018 13.5518
    endloop
  endfacet
  facet normal 0 -0.793344 -0.608774
    outer loop
      vertex 14 30.3582 14.4932
      vertex 11.2321 30.3582 14.4932
      vertex 11.2321 30.692 14.0583
    endloop
  endfacet
  facet normal 0 -0.793344 -0.608774
    outer loop
      vertex 14 30.692 14.0583
      vertex 14 30.3582 14.4932
      vertex 11.2321 30.692 14.0583
    endloop
  endfacet
  facet normal 0 -0.608764 -0.793351
    outer loop
      vertex 11.2321 29.9233 14.8269
      vertex 11.2321 30.3582 14.4932
      vertex 14 29.9233 14.8269
    endloop
  endfacet
  facet normal 0 -0.608764 -0.793351
    outer loop
      vertex 14 29.9233 14.8269
      vertex 11.2321 30.3582 14.4932
      vertex 14 30.3582 14.4932
    endloop
  endfacet
  facet normal 0 -0.38269 -0.923877
    outer loop
      vertex 11.2321 29.4169 15.0367
      vertex 11.2321 29.9233 14.8269
      vertex 14 29.4169 15.0367
    endloop
  endfacet
  facet normal 0 -0.38269 -0.923877
    outer loop
      vertex 14 29.4169 15.0367
      vertex 11.2321 29.9233 14.8269
      vertex 14 29.9233 14.8269
    endloop
  endfacet
  facet normal 0 -0.130522 -0.991445
    outer loop
      vertex 11.2321 28.8733 15.1083
      vertex 11.2321 29.4169 15.0367
      vertex 14 28.8733 15.1083
    endloop
  endfacet
  facet normal 0 -0.130522 -0.991445
    outer loop
      vertex 14 28.8733 15.1083
      vertex 11.2321 29.4169 15.0367
      vertex 14 29.4169 15.0367
    endloop
  endfacet
  facet normal 0 0.130525 -0.991445
    outer loop
      vertex 11.2321 28.3298 15.0367
      vertex 11.2321 28.8733 15.1083
      vertex 14 28.3298 15.0367
    endloop
  endfacet
  facet normal 0 0.130525 -0.991445
    outer loop
      vertex 14 28.3298 15.0367
      vertex 11.2321 28.8733 15.1083
      vertex 14 28.8733 15.1083
    endloop
  endfacet
  facet normal 0 0.382691 -0.923877
    outer loop
      vertex 11.2321 27.8233 14.8269
      vertex 11.2321 28.3298 15.0367
      vertex 14 27.8233 14.8269
    endloop
  endfacet
  facet normal 0 0.382691 -0.923877
    outer loop
      vertex 14 27.8233 14.8269
      vertex 11.2321 28.3298 15.0367
      vertex 14 28.3298 15.0367
    endloop
  endfacet
  facet normal 0 0.60875 -0.793362
    outer loop
      vertex 11.2321 27.3884 14.4932
      vertex 11.2321 27.8233 14.8269
      vertex 14 27.3884 14.4932
    endloop
  endfacet
  facet normal 0 0.60875 -0.793362
    outer loop
      vertex 14 27.3884 14.4932
      vertex 11.2321 27.8233 14.8269
      vertex 14 27.8233 14.8269
    endloop
  endfacet
  facet normal 0 0.793357 -0.608757
    outer loop
      vertex 11.2321 27.0547 14.0583
      vertex 11.2321 27.3884 14.4932
      vertex 14 27.0547 14.0583
    endloop
  endfacet
  facet normal 0 0.793357 -0.608757
    outer loop
      vertex 14 27.0547 14.0583
      vertex 11.2321 27.3884 14.4932
      vertex 14 27.3884 14.4932
    endloop
  endfacet
  facet normal 0 0.923878 -0.382687
    outer loop
      vertex 11.2321 26.8449 13.5518
      vertex 11.2321 27.0547 14.0583
      vertex 14 26.8449 13.5518
    endloop
  endfacet
  facet normal 0 0.923878 -0.382687
    outer loop
      vertex 14 26.8449 13.5518
      vertex 11.2321 27.0547 14.0583
      vertex 14 27.0547 14.0583
    endloop
  endfacet
  facet normal -1.94397e-05 -2.53324e-05 1
    outer loop
      vertex -1.76828 21.3737 3.00834
      vertex -17.7179 30.692 3.00826
      vertex -17.283 30.3582 3.00826
    endloop
  endfacet
  facet normal -8.58439e-06 -6.58732e-06 1
    outer loop
      vertex -1.76828 21.3737 3.00834
      vertex -17.283 30.3582 3.00826
      vertex -16.9492 29.9233 3.00826
    endloop
  endfacet
  facet normal -6.35754e-06 -2.63327e-06 1
    outer loop
      vertex -1.76828 21.3737 3.00834
      vertex -16.9492 29.9233 3.00826
      vertex -16.7395 29.4169 3.00826
    endloop
  endfacet
  facet normal -5.31907e-06 -7.00323e-07 1
    outer loop
      vertex -1.76828 21.3737 3.00834
      vertex -16.7395 29.4169 3.00826
      vertex -16.6679 28.8733 3.00826
    endloop
  endfacet
  facet normal -4.65787e-06 6.13284e-07 1
    outer loop
      vertex -16.6679 28.8733 3.00826
      vertex -16.7395 28.3298 3.00826
      vertex -1.76828 21.3737 3.00834
    endloop
  endfacet
  facet normal -4.1451e-06 1.71689e-06 1
    outer loop
      vertex -16.7395 28.3298 3.00826
      vertex -16.9492 27.8233 3.00826
      vertex -1.76828 21.3737 3.00834
    endloop
  endfacet
  facet normal -3.6761e-06 2.82079e-06 1
    outer loop
      vertex -16.9492 27.8233 3.00826
      vertex -17.283 27.3884 3.00826
      vertex -1.76828 21.3737 3.00834
    endloop
  endfacet
  facet normal -3.16875e-06 4.12948e-06 1
    outer loop
      vertex -17.283 27.3884 3.00826
      vertex -17.7179 27.0547 3.00826
      vertex -1.76828 21.3737 3.00834
    endloop
  endfacet
  facet normal -1 -2.44016e-05 1.52495e-05
    outer loop
      vertex -1.76797 21.3732 23.0084
      vertex -1.76828 21.3737 3.00834
      vertex -1.76791 18.8733 23.0083
    endloop
  endfacet
  facet normal 1.9334e-05 -4.32011e-05 1
    outer loop
      vertex 4.23203 21.3733 23.0083
      vertex -1.76797 21.3732 23.0084
      vertex -1.76791 18.8733 23.0083
    endloop
  endfacet
  facet normal 0 3.2e-06 1
    outer loop
      vertex 4.23203 21.3733 23.0083
      vertex -1.76791 18.8733 23.0083
      vertex 4.23209 18.8733 23.0083
    endloop
  endfacet
  facet normal -1.1336e-05 1 2.21001e-05
    outer loop
      vertex -1.76822 18.8738 3.00823
      vertex -17.7179 18.8733 14.8269
      vertex -1.76791 18.8733 23.0083
    endloop
  endfacet
  facet normal -1 -2.44017e-05 1.52494e-05
    outer loop
      vertex -1.76791 18.8733 23.0083
      vertex -1.76828 21.3737 3.00834
      vertex -1.76822 18.8738 3.00823
    endloop
  endfacet
  facet normal 1 2.44e-05 -1.52494e-05
    outer loop
      vertex 4.23209 18.8733 23.0083
      vertex 4.23178 18.8738 3.00823
      vertex 4.23203 21.3733 23.0083
    endloop
  endfacet
  facet normal 0 1 2.21e-05
    outer loop
      vertex 11.2321 18.8733 23.0083
      vertex 4.23178 18.8738 3.00823
      vertex 4.23209 18.8733 23.0083
    endloop
  endfacet
  facet normal 6.31401e-05 1 0
    outer loop
      vertex 11.2321 18.8733 3.00826
      vertex 4.23178 18.8738 3.00823
      vertex 11.2321 18.8733 23.0083
    endloop
  endfacet
  facet normal -1 0 0
    outer loop
      vertex 11.2321 29.9233 14.8269
      vertex 11.2321 18.8733 23.0083
      vertex 11.2321 38.8733 23.0083
    endloop
  endfacet
  facet normal -1 0 0
    outer loop
      vertex 11.2321 18.8733 3.00826
      vertex 11.2321 18.8733 23.0083
      vertex 11.2321 26.7733 13.0083
    endloop
  endfacet
  facet normal -1 0 0
    outer loop
      vertex 11.2321 18.8733 3.00826
      vertex 11.2321 26.7733 13.0083
      vertex 11.2321 26.8449 12.4647
    endloop
  endfacet
  facet normal -1 0 0
    outer loop
      vertex 11.2321 18.8733 3.00826
      vertex 11.2321 26.8449 12.4647
      vertex 11.2321 27.0547 11.9583
    endloop
  endfacet
  facet normal -1 0 0
    outer loop
      vertex 11.2321 18.8733 3.00826
      vertex 11.2321 27.0547 11.9583
      vertex 11.2321 27.3884 11.5233
    endloop
  endfacet
  facet normal -1 0 0
    outer loop
      vertex 11.2321 18.8733 3.00826
      vertex 11.2321 27.3884 11.5233
      vertex 11.2321 27.8233 11.1896
    endloop
  endfacet
  facet normal -1 0 0
    outer loop
      vertex 11.2321 18.8733 3.00826
      vertex 11.2321 27.8233 11.1896
      vertex 11.2321 38.8733 3.00826
    endloop
  endfacet
  facet normal -1 0 0
    outer loop
      vertex 11.2321 28.8733 10.9083
      vertex 11.2321 38.8733 3.00826
      vertex 11.2321 28.3298 10.9798
    endloop
  endfacet
  facet normal -1 0 0
    outer loop
      vertex 11.2321 29.4169 10.9798
      vertex 11.2321 38.8733 3.00826
      vertex 11.2321 28.8733 10.9083
    endloop
  endfacet
  facet normal -1 0 0
    outer loop
      vertex 11.2321 30.692 11.9583
      vertex 11.2321 38.8733 3.00826
      vertex 11.2321 30.3582 11.5233
    endloop
  endfacet
  facet normal -1 0 0
    outer loop
      vertex 11.2321 26.8449 13.5518
      vertex 11.2321 18.8733 23.0083
      vertex 11.2321 27.0547 14.0583
    endloop
  endfacet
  facet normal -1 0 0
    outer loop
      vertex 11.2321 29.4169 10.9798
      vertex 11.2321 29.9233 11.1896
      vertex 11.2321 38.8733 3.00826
    endloop
  endfacet
  facet normal -1 0 0
    outer loop
      vertex 11.2321 27.0547 14.0583
      vertex 11.2321 18.8733 23.0083
      vertex 11.2321 27.3884 14.4932
    endloop
  endfacet
  facet normal -1 0 0
    outer loop
      vertex 11.2321 29.9233 11.1896
      vertex 11.2321 30.3582 11.5233
      vertex 11.2321 38.8733 3.00826
    endloop
  endfacet
  facet normal -1 0 0
    outer loop
      vertex 11.2321 29.4169 15.0367
      vertex 11.2321 18.8733 23.0083
      vertex 11.2321 29.9233 14.8269
    endloop
  endfacet
  facet normal -1 0 0
    outer loop
      vertex 11.2321 38.8733 3.00826
      vertex 11.2321 30.692 11.9583
      vertex 11.2321 38.8733 23.0083
    endloop
  endfacet
  facet normal -1 0 0
    outer loop
      vertex 11.2321 27.3884 14.4932
      vertex 11.2321 18.8733 23.0083
      vertex 11.2321 27.8233 14.8269
    endloop
  endfacet
  facet normal -1 0 0
    outer loop
      vertex 11.2321 30.692 11.9583
      vertex 11.2321 30.9018 12.4647
      vertex 11.2321 38.8733 23.0083
    endloop
  endfacet
  facet normal -1 0 0
    outer loop
      vertex 11.2321 27.8233 14.8269
      vertex 11.2321 18.8733 23.0083
      vertex 11.2321 28.3298 15.0367
    endloop
  endfacet
  facet normal -1 0 0
    outer loop
      vertex 11.2321 30.9018 12.4647
      vertex 11.2321 30.9733 13.0083
      vertex 11.2321 38.8733 23.0083
    endloop
  endfacet
  facet normal -1 0 0
    outer loop
      vertex 11.2321 28.3298 15.0367
      vertex 11.2321 18.8733 23.0083
      vertex 11.2321 28.8733 15.1083
    endloop
  endfacet
  facet normal -1 0 0
    outer loop
      vertex 11.2321 30.9733 13.0083
      vertex 11.2321 30.9018 13.5518
      vertex 11.2321 38.8733 23.0083
    endloop
  endfacet
  facet normal -1 0 0
    outer loop
      vertex 11.2321 30.9018 13.5518
      vertex 11.2321 30.692 14.0583
      vertex 11.2321 38.8733 23.0083
    endloop
  endfacet
  facet normal -1 0 0
    outer loop
      vertex 11.2321 28.8733 15.1083
      vertex 11.2321 18.8733 23.0083
      vertex 11.2321 29.4169 15.0367
    endloop
  endfacet
  facet normal -1 0 0
    outer loop
      vertex 11.2321 30.692 14.0583
      vertex 11.2321 30.3582 14.4932
      vertex 11.2321 38.8733 23.0083
    endloop
  endfacet
  facet normal -1 0 0
    outer loop
      vertex 11.2321 30.3582 14.4932
      vertex 11.2321 29.9233 14.8269
      vertex 11.2321 38.8733 23.0083
    endloop
  endfacet
  facet normal -1 0 0
    outer loop
      vertex 11.2321 26.7733 13.0083
      vertex 11.2321 18.8733 23.0083
      vertex 11.2321 26.8449 13.5518
    endloop
  endfacet
  facet normal -1 0 0
    outer loop
      vertex 11.2321 28.3298 10.9798
      vertex 11.2321 38.8733 3.00826
      vertex 11.2321 27.8233 11.1896
    endloop
  endfacet
  facet normal 0 -1 0
    outer loop
      vertex 11.2321 38.8733 23.0083
      vertex 4.23209 38.8733 23.0083
      vertex 11.2321 38.8733 3.00826
    endloop
  endfacet
  facet normal 6.1145e-05 -1 2.14008e-05
    outer loop
      vertex 11.2321 38.8733 3.00826
      vertex 4.23209 38.8733 23.0083
      vertex 4.23239 38.8729 3.0081
    endloop
  endfacet
  facet normal 1 3.68022e-05 1.52491e-05
    outer loop
      vertex 4.23239 38.8729 3.0081
      vertex 4.23209 38.8733 23.0083
      vertex 4.23218 36.3734 23.0084
    endloop
  endfacet
  facet normal -1.75007e-05 4.20011e-05 1
    outer loop
      vertex 4.23209 38.8733 23.0083
      vertex -1.76782 36.3733 23.0083
      vertex 4.23218 36.3734 23.0084
    endloop
  endfacet
  facet normal -1 -6.12106e-05 -1.82999e-05
    outer loop
      vertex -1.76746 36.3733 3.00811
      vertex -1.76782 36.3733 23.0083
      vertex -1.76761 38.8729 3.0081
    endloop
  endfacet
  facet normal -1 -3.68e-05 -1.52491e-05
    outer loop
      vertex -1.76782 36.3733 23.0083
      vertex -1.76791 38.8733 23.0083
      vertex -1.76761 38.8729 3.0081
    endloop
  endfacet
  facet normal 1.76667e-05 -1 3.23298e-10
    outer loop
      vertex 4.23218 36.3734 23.0084
      vertex -1.76782 36.3733 23.0083
      vertex -1.76746 36.3733 3.00811
    endloop
  endfacet
  facet normal 0.0795272 1.04511e-05 0.996833
    outer loop
      vertex -1.76761 38.8729 3.0081
      vertex -1.76828 21.3737 3.00834
      vertex -1.76746 36.3733 3.00811
    endloop
  endfacet
  facet normal 1.91664e-05 1.48659e-05 1
    outer loop
      vertex -1.76746 36.3733 3.00811
      vertex -1.76828 21.3737 3.00834
      vertex 4.23172 21.3738 3.00822
    endloop
  endfacet
  facet normal -1.78329e-05 1 2.21002e-05
    outer loop
      vertex 4.23172 21.3738 3.00822
      vertex -1.76828 21.3737 3.00834
      vertex 4.23203 21.3733 23.0083
    endloop
  endfacet
  facet normal -1.53329e-05 1 2.13502e-05
    outer loop
      vertex 4.23203 21.3733 23.0083
      vertex -1.76828 21.3737 3.00834
      vertex -1.76797 21.3732 23.0084
    endloop
  endfacet
  facet normal -6.59531e-05 1 -5.06094e-05
    outer loop
      vertex -16.9492 18.8733 14.0583
      vertex -17.283 18.8733 14.4932
      vertex -1.76822 18.8738 3.00823
    endloop
  endfacet
  facet normal -4.16815e-05 1 -1.7264e-05
    outer loop
      vertex -16.7395 18.8733 13.5518
      vertex -16.9492 18.8733 14.0583
      vertex -1.76822 18.8738 3.00823
    endloop
  endfacet
  facet normal -3.25406e-05 1 -4.28449e-06
    outer loop
      vertex -16.6679 18.8733 13.0083
      vertex -16.7395 18.8733 13.5518
      vertex -1.76822 18.8738 3.00823
    endloop
  endfacet
  facet normal -2.72564e-05 1 3.58874e-06
    outer loop
      vertex -1.76822 18.8738 3.00823
      vertex -16.7395 18.8733 12.4647
      vertex -16.6679 18.8733 13.0083
    endloop
  endfacet
  facet normal -2.34011e-05 1 9.69243e-06
    outer loop
      vertex -1.76822 18.8738 3.00823
      vertex -16.9492 18.8733 11.9583
      vertex -16.7395 18.8733 12.4647
    endloop
  endfacet
  facet normal -2.00464e-05 1 1.53827e-05
    outer loop
      vertex -1.76822 18.8738 3.00823
      vertex -17.283 18.8733 11.5233
      vertex -16.9492 18.8733 11.9583
    endloop
  endfacet
  facet normal -1.66094e-05 1 2.16449e-05
    outer loop
      vertex -1.76822 18.8738 3.00823
      vertex -17.7179 18.8733 11.1896
      vertex -17.283 18.8733 11.5233
    endloop
  endfacet
  facet normal -1.23802e-05 1 2.98897e-05
    outer loop
      vertex -1.76822 18.8738 3.00823
      vertex -18.2244 18.8733 10.9798
      vertex -17.7179 18.8733 11.1896
    endloop
  endfacet
  facet normal -5.73981e-06 1 4.35979e-05
    outer loop
      vertex -1.76822 18.8738 3.00823
      vertex -18.7679 18.8733 10.9083
      vertex -18.2244 18.8733 10.9798
    endloop
  endfacet
  facet normal -0.00080671 0.999999 -0.00105128
    outer loop
      vertex -17.283 18.8733 14.4932
      vertex -17.7179 18.8733 14.8269
      vertex -1.76822 18.8738 3.00823
    endloop
  endfacet
  facet normal 1 2.44e-05 -1.52494e-05
    outer loop
      vertex 4.23178 18.8738 3.00823
      vertex 4.23172 21.3738 3.00822
      vertex 4.23203 21.3733 23.0083
    endloop
  endfacet
  facet normal -4.85685e-06 1.31452e-06 1
    outer loop
      vertex 4.23254 36.3734 3.0082
      vertex 4.23178 18.8738 3.00823
      vertex 11.2321 18.8733 3.00826
    endloop
  endfacet
  facet normal -0.0218429 2.26637e-06 0.999761
    outer loop
      vertex 4.23254 36.3734 3.0082
      vertex 4.23172 21.3738 3.00822
      vertex 4.23178 18.8738 3.00823
    endloop
  endfacet
  facet normal 9.79018e-05 4.24151e-05 1
    outer loop
      vertex 11.2321 18.8733 3.00826
      vertex 4.23239 38.8729 3.0081
      vertex 4.23254 36.3734 3.0082
    endloop
  endfacet
  facet normal -2.32867e-05 0 1
    outer loop
      vertex 11.2321 38.8733 3.00826
      vertex 4.23239 38.8729 3.0081
      vertex 11.2321 18.8733 3.00826
    endloop
  endfacet
  facet normal 1 6.12139e-05 1.82999e-05
    outer loop
      vertex 4.23239 38.8729 3.0081
      vertex 4.23218 36.3734 23.0084
      vertex 4.23254 36.3734 3.0082
    endloop
  endfacet
  facet normal 1.76667e-05 -1 3.23297e-10
    outer loop
      vertex 4.23218 36.3734 23.0084
      vertex -1.76746 36.3733 3.00811
      vertex 4.23254 36.3734 3.0082
    endloop
  endfacet
  facet normal -1.53334e-05 1.06753e-06 1
    outer loop
      vertex 4.23254 36.3734 3.0082
      vertex -1.76746 36.3733 3.00811
      vertex 4.23172 21.3738 3.00822
    endloop
  endfacet
endsolid OpenSCAD_Model
